<svg xmlns="http://www.w3.org/2000/svg" width="140" height="140" viewBox="0 0 140 140">
  <g id="Grupo_16501" data-name="Grupo 16501" transform="translate(-3730 -20)">
    <rect id="Rect치ngulo_4082" data-name="Rect치ngulo 4082" width="140" height="140" transform="translate(3730 20)" fill="none"/>
    <g id="Grupo_16497" data-name="Grupo 16497" transform="translate(2887.044 -596.994)">
      <circle id="Elipse_870" data-name="Elipse 870" cx="50.618" cy="50.618" r="50.618" transform="translate(861.956 637.491)" fill="#f6e094"/>
      <g id="Grupo_15951" data-name="Grupo 15951">
        <rect id="Rect치ngulo_3880" data-name="Rect치ngulo 3880" width="20.394" height="110.992" transform="matrix(0.983, -0.184, 0.184, 0.983, 888.851, 634.742)" fill="#a568c3"/>
        <g id="Grupo_15950" data-name="Grupo 15950">
          <g id="Grupo_15940" data-name="Grupo 15940">
            <path id="Trazado_25003" data-name="Trazado 25003" d="M903.139,644.043a.412.412,0,0,1-.075-.817l7.049-1.318a.412.412,0,1,1,.151.81l-7.049,1.318A.4.4,0,0,1,903.139,644.043Z" fill="#bc85dd"/>
          </g>
          <g id="Grupo_15941" data-name="Grupo 15941">
            <path id="Trazado_25004" data-name="Trazado 25004" d="M904.935,653.65a.412.412,0,0,1-.075-.817l7.049-1.318a.412.412,0,1,1,.151.81l-7.049,1.318A.383.383,0,0,1,904.935,653.65Z" fill="#bc85dd"/>
          </g>
          <g id="Grupo_15942" data-name="Grupo 15942">
            <path id="Trazado_25005" data-name="Trazado 25005" d="M906.731,663.257a.412.412,0,0,1-.075-.817l7.049-1.318a.412.412,0,1,1,.151.81l-7.049,1.318A.384.384,0,0,1,906.731,663.257Z" fill="#bc85dd"/>
          </g>
          <g id="Grupo_15943" data-name="Grupo 15943">
            <path id="Trazado_25006" data-name="Trazado 25006" d="M908.527,672.864a.412.412,0,0,1-.075-.817l7.049-1.318a.413.413,0,0,1,.152.811l-7.05,1.317A.384.384,0,0,1,908.527,672.864Z" fill="#bc85dd"/>
          </g>
          <g id="Grupo_15944" data-name="Grupo 15944">
            <path id="Trazado_25007" data-name="Trazado 25007" d="M910.323,682.472a.413.413,0,0,1-.075-.818l7.049-1.318a.413.413,0,0,1,.152.811l-7.049,1.317A.4.4,0,0,1,910.323,682.472Z" fill="#bc85dd"/>
          </g>
          <g id="Grupo_15945" data-name="Grupo 15945">
            <path id="Trazado_25008" data-name="Trazado 25008" d="M912.119,692.079a.413.413,0,0,1-.075-.818l7.049-1.317a.412.412,0,0,1,.152.81l-7.049,1.317A.4.4,0,0,1,912.119,692.079Z" fill="#bc85dd"/>
          </g>
          <g id="Grupo_15946" data-name="Grupo 15946">
            <path id="Trazado_25009" data-name="Trazado 25009" d="M913.915,701.686a.413.413,0,0,1-.075-.818l7.049-1.318a.412.412,0,0,1,.152.81l-7.049,1.319A.505.505,0,0,1,913.915,701.686Z" fill="#bc85dd"/>
          </g>
          <g id="Grupo_15947" data-name="Grupo 15947">
            <path id="Trazado_25010" data-name="Trazado 25010" d="M915.711,711.293a.413.413,0,0,1-.075-.818l7.05-1.318a.412.412,0,0,1,.151.81l-7.049,1.319A.4.4,0,0,1,915.711,711.293Z" fill="#bc85dd"/>
          </g>
          <g id="Grupo_15948" data-name="Grupo 15948">
            <path id="Trazado_25011" data-name="Trazado 25011" d="M917.507,720.9a.412.412,0,0,1-.074-.817l7.049-1.319a.412.412,0,0,1,.151.81l-7.049,1.319A.4.4,0,0,1,917.507,720.9Z" fill="#bc85dd"/>
          </g>
          <g id="Grupo_15949" data-name="Grupo 15949">
            <path id="Trazado_25012" data-name="Trazado 25012" d="M919.3,730.507a.412.412,0,0,1-.075-.817l7.049-1.319a.412.412,0,1,1,.151.81L919.38,730.5A.4.4,0,0,1,919.3,730.507Z" fill="#bc85dd"/>
          </g>
        </g>
      </g>
    </g>
  </g>
</svg>
