<svg xmlns="http://www.w3.org/2000/svg" xmlns:xlink="http://www.w3.org/1999/xlink" width="308" height="194" viewBox="0 0 308 194">
  <defs>
    <clipPath id="clip-path">
      <path id="Trazado_25104" data-name="Trazado 25104" d="M663.94,962c-10.614-7.533-21.65-13.542-33.513-16.144q-.7,1.981-1.416,3.959c-6.35,5.233-15.864.339-21.179-4.685-.027-.026-.046-.055-.07-.082-.572.062-1.144.136-1.715.213,0-.1-.005-.2-.005-.306-16.439,1.52-30.638,9.98-43.889,21.045-14.541,12.143-26.091,27.427-37.055,42.877a65.54,65.54,0,0,0,15.382,16.712c1.26.963,15.568-12.635,28.416-25.283q-2.663,21.444-5.323,42.887c13.865.055,26.983.749,40,1.528,1-.423,2.012-.818,3.025-1.218,2.342-.925,4.74-1.953,6.443-3.88a1.275,1.275,0,0,1,1.979,0c1.9,1.991,3.59,4.176,5.541,6.114,11.471.659,23.079,1.2,35.265,1.25q-.286-16.113-.8-32.219c-.223-6.882-.383-14.972-1.181-23.171,14.938,12.685,35.023,29.322,36.381,28.106a65.573,65.573,0,0,0,14.023-17.868C692.1,987.3,679.389,972.968,663.94,962Z" transform="translate(-525.098 -944.957)" fill="none"/>
    </clipPath>
  </defs>
  <g id="Grupo_16510" data-name="Grupo 16510" transform="translate(-3581 -1204)">
    <g id="Grupo_16507" data-name="Grupo 16507">
      <rect id="Rectángulo_4084" data-name="Rectángulo 4084" width="308" height="194" transform="translate(3581 1204)" fill="none"/>
      <g id="Grupo_16503" data-name="Grupo 16503" transform="translate(3120.673 286.01)">
        <path id="Trazado_25092" data-name="Trazado 25092" d="M631.21,1094.128c-14.148-1.17-24.3-10.122-30.7-20.318s-9.957-21.912-16.271-32.159c-8.646-14.03-22.491-25.058-39.488-31.451-9.577-3.6-22.913-4.142-29.958-12.726-10.179-12.4,4.479-27.086,12.886-35.656,15.756-16.06,40.03-24.763,61.96-25.122s41.634,6.786,57.816,17.032c8.6,5.447,16.4,11.819,22.477,19.415,15.332,19.172,25.356,46.82,21.522,71.76C687.3,1071.909,659.3,1096.452,631.21,1094.128Z" transform="translate(0 0.194)" fill="#f8f3ff"/>
        <g id="Grupo_15997" data-name="Grupo 15997" transform="translate(518.176 935.99)">
          <g id="Grupo_15987" data-name="Grupo 15987" transform="translate(5.946 10.03)">
            <path id="Trazado_25093" data-name="Trazado 25093" d="M622.772,947.362c-.15.219-.3.442-.464.652-6.22,7.957-17.087,2.6-22.909-2.9-.027-.026-.046-.055-.07-.082a47.988,47.988,0,0,0-15.778,4.244c-14.254,6.871-19.065,18.619-20.984,34.057q-3.719,29.92-7.427,59.843c13.865.055,26.983.749,40,1.528,1-.423,2.012-.818,3.025-1.218,2.342-.925,4.74-1.953,6.443-3.88a1.275,1.275,0,0,1,1.979,0c1.9,1.991,3.59,4.176,5.541,6.114,11.471.659,23.079,1.2,35.265,1.25q-.286-16.113-.8-32.219C645.872,992.553,645.822,957.775,622.772,947.362Z" transform="translate(-511.825 -943.483)" fill="#7c84c6"/>
            <path id="Trazado_25094" data-name="Trazado 25094" d="M606.855,955.407a64.232,64.232,0,0,1-.813-10.45c-16.439,1.52-30.638,9.98-43.889,21.045-14.541,12.143-26.091,27.427-37.055,42.877a65.54,65.54,0,0,0,15.382,16.712c2.212,1.689,44.614-41.472,48.773-45.63,5.508-5.508,9.3-11.316,14.419-17.125.635-.721,2.007-2.409,3.728-4.459Q607.091,956.895,606.855,955.407Z" transform="translate(-520.257 -943.504)" fill="#7c84c6"/>
            <path id="Trazado_25095" data-name="Trazado 25095" d="M642.337,961.805c-10.614-7.533-21.65-13.542-33.513-16.144-2.093,5.926-4.268,11.839-6.757,17.611,4.909,4.948,8.925,9.943,14.347,14.574,4.473,3.82,50.132,43.521,52.2,41.664a65.573,65.573,0,0,0,14.023-17.868C670.5,987.1,657.785,972.77,642.337,961.805Z" transform="translate(-498.654 -943.306)" fill="#7c84c6"/>
            <path id="Trazado_25096" data-name="Trazado 25096" d="M672.4,990.22c-1.277-1.423-3.719-4.344-5.659-4.8-2.422-.564-4.425,2.085-6.195,3.637a107.129,107.129,0,0,0-12.311,12.739,4.244,4.244,0,0,0-1.313,3,4.323,4.323,0,0,0,1.884,2.559l3.527,2.865a6.225,6.225,0,0,0,2.83,1.569c3.95.6,8.209-5.994,10.842-8.383,3.131-2.84,8.013-7.277,7.158-12.046a1.881,1.881,0,0,0-.5-.849C672.573,990.417,672.485,990.319,672.4,990.22Z" transform="translate(-486.07 -932.167)" fill="#e5e5e5"/>
            <path id="Trazado_25097" data-name="Trazado 25097" d="M538.56,996.677c-2.76-2.1-9.337-9.524-12.237-5.47q-2.04,2.856-3.882,5.849c-.752,1.223-1.5,2.716-.913,4.028a4.573,4.573,0,0,0,1.538,1.637l13.834,10.516a10.1,10.1,0,0,0,2.048,1.309c4.742,2.043,10.234-5.039,11.726-8.75C546.526,1002.884,542.586,999.745,538.56,996.677Z" transform="translate(-521.318 -930.857)" fill="#e5e5e5"/>
            <g id="Grupo_15986" data-name="Grupo 15986" transform="translate(4.841 1.453)">
              <g id="Grupo_15985" data-name="Grupo 15985" clip-path="url(#clip-path)">
                <g id="Grupo_15984" data-name="Grupo 15984" transform="translate(22.926 -4.629)">
                  <path id="Trazado_25098" data-name="Trazado 25098" d="M564.079,1018.727c1.959-2.278,5.023-3.282,7.261-5.285,3.354-3,4.391-7.728,5.713-12.029s3.583-8.934,7.87-10.3a4.5,4.5,0,0,1,4.581.757c1.584,1.647.87,4.381-.227,6.385-3.311,6.059-9.209,10.741-11,17.408-.772,2.867-.74,5.991-2.126,8.618-1.9,3.595-7.706,6.636-11.833,5.691C559.509,1028.866,561.743,1021.445,564.079,1018.727Z" transform="translate(-537.816 -927.456)" fill="#8ba8bb"/>
                  <path id="Trazado_25099" data-name="Trazado 25099" d="M620.372,982.839a5.177,5.177,0,0,1,4.683-2.492,4.237,4.237,0,0,1,3.807,3.489,7.389,7.389,0,0,1-1.044,4.028,55.255,55.255,0,0,1-5.535,9.481c-1.56,2.053-3.369,3.951-4.516,6.26-1.086,2.187-1.529,4.649-2.62,6.832-4.727,9.456-15.46-.7-10.453-8.339,2.559-3.9,6.127-6.193,9.921-8.636C619.113,990.567,617.886,986.87,620.372,982.839Z" transform="translate(-526.048 -930.4)" fill="#8ba8bb"/>
                  <path id="Trazado_25100" data-name="Trazado 25100" d="M650.8,972.166c-2.285,2.579-5.162,4.631-7.147,7.447a15.352,15.352,0,0,0-2.284,12.51,2.537,2.537,0,0,0,.981,1.65,2.305,2.305,0,0,0,1.278.227c2.762-.131,5.189-1.852,7.194-3.756s3.8-4.084,6.158-5.527c1.565-.958,3.371-1.587,4.657-2.9,2-2.034,2.256-5.306,1.377-8.021-.658-2.032-3.964-8.723-6.374-9.048C653.858,964.375,652.374,970.383,650.8,972.166Z" transform="translate(-515.522 -934.777)" fill="#8ba8bb"/>
                  <path id="Trazado_25101" data-name="Trazado 25101" d="M623.156,958.961c2.847-.4,6.379.265,7.406,2.951.941,2.464-.829,5.156-2.9,6.787-3.293,2.592-7.524,3.874-10.567,6.757-2.47,2.34-3.937,5.529-6.041,8.2s-5.361,4.96-8.691,4.265c-3.141-.656-5.269-3.915-5.4-7.121-.238-5.914,4.986-12.169,9.855-15.042C611.565,962.96,617.717,959.732,623.156,958.961Z" transform="translate(-527.855 -936.428)" fill="#8ba8bb"/>
                  <path id="Trazado_25102" data-name="Trazado 25102" d="M570.265,953.625a27.582,27.582,0,0,0-5.056,5.958,9.172,9.172,0,0,0-.968,7.534c.911,2.451,3.608,4.3,6.15,3.687,1.742-.419,3.054-1.811,4.258-3.135l10.357-11.4c2.473-2.72,5.127-6.045,4.4-9.649-.8-3.993-6.292-6.855-9.781-4.326-1.41,1.022-2.185,3.252-3.206,4.633A56.5,56.5,0,0,1,570.265,953.625Z" transform="translate(-537.161 -941.343)" fill="#8ba8bb"/>
                  <path id="Trazado_25103" data-name="Trazado 25103" d="M545.25,977.082c.955-1.495,2-2.958,3.763-3.531a2.922,2.922,0,0,1,2.732.36,3.5,3.5,0,0,1,.73,3.579,19.518,19.518,0,0,0-1,3.717c-.118,2.209,1.771,4.715,2.687,6.668,1.1,2.345,1.911,4.885.669,7.354-1.313,2.61-3.734,2.723-6.165,1.451C542.087,993.241,541.644,982.722,545.25,977.082Z" transform="translate(-543 -932.352)" fill="#8ba8bb"/>
                </g>
              </g>
            </g>
            <path id="Trazado_25105" data-name="Trazado 25105" d="M602.275,947.848a38.112,38.112,0,0,1-14.582-3.334c1.828,3.034,2.716,6.6,4.59,9.632,1.058,1.714,2.021,3.48,2.965,5.257.1.132.219.252.316.389a16.948,16.948,0,0,1,1.948,3.873c.761,1.406,1.912,11.586,2.757,12.942,2.8-7.606,5.88-23.039,10.89-30A31.492,31.492,0,0,1,602.275,947.848Z" transform="translate(-502.688 -943.628)"/>
            <path id="Trazado_25106" data-name="Trazado 25106" d="M646.287,1042.818c-6.612.2-13.293.314-19.9-.106-3.492-.221-7.555-.835-10.289-3.184-2.759-2.369-2.834-5.6-2.98-8.953-.2-4.537-.25-9.085-.246-13.626q.012-13.631,1.049-27.234l3.111-4.458a16.359,16.359,0,0,0,2.841-5.408,1.463,1.463,0,0,0,.029-.771,1.369,1.369,0,0,0-.622-.688c-1.994-1.269-4.625-.758-6.882-1.46-.2-.064-.451-.215-.4-.423.033-.127.169-.195.289-.246a37.9,37.9,0,0,1,5.813-2.071l9.148-2.287c1.915-.479,2.094-1.683,2.062-3.465-.069-3.891-1.208-8.027-1.871-11.857-.228-1.311-1.005-10.815-1.9-11.179a28.1,28.1,0,0,0-4.2-1.323c-.411-.095-.827-.178-1.245-.257-3.021,7.6-6.908,18.215-11.045,25.309-.506.867-.574-1.721-1.008-2.823-1.789-4.529-3.468-9.1-4.952-13.742-.621-1.942-.967-5.687-1.86-7.587-2.007-.122-4.01-.355-6.015-.549-1.865,8.753-3.945,18.548-5.6,27.336a2.972,2.972,0,0,0,.352,2.647c.681.7,2.28.73,3.191.818l7.662.735a4.979,4.979,0,0,1,2.849.881c-1.548.745-3.3.867-4.827,1.711a2.616,2.616,0,0,0-1.036.871c-.5.84-.046,1.91.456,2.75,1.407,2.354,3.208,4.53,4.306,7.013q-.659,15.285-1.124,30.579c-.2,6.715,1.684,16.784-6.082,19.638-4.071,1.5-8.536,1.364-12.8,1.268-8.418-.316-16.833-.8-25.246-1.205-4.089-.2-3.815,6.161.25,6.356,10.642.51,21.827,2.062,32.465,1.172a31.52,31.52,0,0,0,3.711-.539c4.2-.863,7.357-.209,10.692-3.457,10.852,8.861,29.092,6.57,42.107,6.172C650.629,1049.05,650.384,1042.693,646.287,1042.818Z" transform="translate(-512.04 -943.822)" fill="#e5e5e5"/>
            <path id="Trazado_25107" data-name="Trazado 25107" d="M558.928,993.1a103.741,103.741,0,0,1,14.93-20.341" transform="translate(-510.762 -935.699)" fill="none" stroke="#8ba8bb" stroke-miterlimit="10" stroke-width="1"/>
            <path id="Trazado_25108" data-name="Trazado 25108" d="M628.531,985.289c.359-.193.131-.739-.132-1.05L615.54,969.013" transform="translate(-494.872 -936.752)" fill="none" stroke="#8ba8bb" stroke-miterlimit="10" stroke-width="1"/>
            <path id="Trazado_25109" data-name="Trazado 25109" d="M594.216,1039.973q1.888-42.283,3.778-84.566" transform="translate(-500.857 -940.57)" fill="none" stroke="#000" stroke-miterlimit="10" stroke-width="1"/>
          </g>
          <g id="Grupo_15991" data-name="Grupo 15991" transform="translate(125.877)">
            <g id="Grupo_15988" data-name="Grupo 15988">
              <rect id="Rectángulo_3888" data-name="Rectángulo 3888" width="2.562" height="3.201" transform="translate(0 2.096) rotate(-54.894)" fill="#de5954"/>
            </g>
            <g id="Grupo_15989" data-name="Grupo 15989" transform="translate(7.686 5.403)">
              <path id="Trazado_25110" data-name="Trazado 25110" d="M676.7,981.483l-5.066-3.563,1.474-2.1,5.066,3.562Zm-10.134-7.123L661.5,970.8l1.474-2.1,5.066,3.562Zm-10.134-7.123-5.066-3.563,1.473-2.1,5.068,3.562ZM646.3,960.113l-5.066-3.562,1.473-2.1,5.066,3.562Zm-10.134-7.124-5.066-3.562,1.473-2.1,5.066,3.562Zm-10.134-7.122-5.066-3.562,1.473-2.1,5.066,3.562Z" transform="translate(-620.966 -940.209)" fill="#de5954"/>
            </g>
            <g id="Grupo_15990" data-name="Grupo 15990" transform="translate(68.49 48.142)">
              <rect id="Rectángulo_3889" data-name="Rectángulo 3889" width="2.562" height="3.201" transform="translate(0 2.096) rotate(-54.894)" fill="#de5954"/>
            </g>
          </g>
          <g id="Grupo_15995" data-name="Grupo 15995" transform="translate(49.646 121.718)">
            <g id="Grupo_15992" data-name="Grupo 15992" transform="translate(91.813 2.111)">
              <rect id="Rectángulo_3890" data-name="Rectángulo 3890" width="2.562" height="3.201" transform="translate(0 2.561) rotate(-88.679)" fill="#de5954"/>
            </g>
            <g id="Grupo_15993" data-name="Grupo 15993" transform="translate(10.019 0.232)">
              <path id="Trazado_25111" data-name="Trazado 25111" d="M638.244,1035.5l-6.817-.156.058-2.562,6.816.156Zm-13.633-.315-6.817-.156.058-2.561,6.817.156Zm-13.634-.312-6.817-.157.06-2.561,6.816.157Zm-13.632-.314-6.816-.156.058-2.561,6.816.156Zm-13.634-.312-6.817-.157.06-2.561,6.817.157Zm-13.631-.314-6.816-.156.058-2.561,6.816.156Z" transform="translate(-563.264 -1031.213)" fill="#de5954"/>
            </g>
            <g id="Grupo_15994" data-name="Grupo 15994">
              <rect id="Rectángulo_3891" data-name="Rectángulo 3891" width="2.562" height="3.203" transform="matrix(0.023, -1, 1, 0.023, 0, 2.561)" fill="#de5954"/>
            </g>
          </g>
          <g id="Grupo_15996" data-name="Grupo 15996" transform="translate(0 83.423)">
            <path id="Trazado_25112" data-name="Trazado 25112" d="M536.683,1018.616l-3.793-2.931,1.566-2.026,3.793,2.931Zm-7.848-6.063-4.053-3.132,1.566-2.027,4.053,3.134Zm-8.107-6.265-4.053-3.133,1.566-2.026,4.053,3.133Z" transform="translate(-516.675 -1001.13)" fill="#de5954"/>
          </g>
        </g>
      </g>
    </g>
  </g>
</svg>
