<svg xmlns="http://www.w3.org/2000/svg" width="346" height="314" viewBox="0 0 346 314">
  <g id="Grupo_16488" data-name="Grupo 16488" transform="translate(1724 -2412)">
    <rect id="Rectángulo_4075" data-name="Rectángulo 4075" width="346" height="314" transform="translate(-1724 2412)" fill="#fff"/>
    <g id="Grupo_16485" data-name="Grupo 16485" transform="translate(-135.665 -2.867)">
      <g id="Grupo_16052" data-name="Grupo 16052" transform="translate(-1420.917 2417.867)">
        <path id="Trazado_25220" data-name="Trazado 25220" d="M506.766,211.932l-2.335,3.7v3.4h-1.479v-3.367l-2.35-3.735h1.632l1.45,2.418,1.454-2.418Z" transform="translate(-500.602 -211.932)" fill="#00223d"/>
      </g>
      <g id="Grupo_16053" data-name="Grupo 16053" transform="translate(-1270.476 2570.152)">
        <path id="Trazado_25221" data-name="Trazado 25221" d="M694.67,415.481l2.767-3.705-2.688-3.4h1.794l1.77,2.329,1.769-2.329h1.794l-2.688,3.4,2.767,3.705h-1.877l-1.764-2.512-1.765,2.512Z" transform="translate(-694.67 -408.379)" fill="#00223d"/>
      </g>
      <g id="Grupo_16056" data-name="Grupo 16056" transform="translate(-1568.335 2572.158)">
        <g id="Grupo_16055" data-name="Grupo 16055">
          <g id="Grupo_16054" data-name="Grupo 16054">
            <rect id="Rectángulo_3909" data-name="Rectángulo 3909" width="295.771" height="2.516" fill="#d50f73"/>
          </g>
        </g>
      </g>
      <g id="Grupo_16071" data-name="Grupo 16071" transform="translate(-1556.547 2568.871)">
        <g id="Grupo_16057" data-name="Grupo 16057" transform="translate(100.707)">
          <rect id="Rectángulo_3910" data-name="Rectángulo 3910" width="0.472" height="9.663" fill="#604053"/>
        </g>
        <g id="Grupo_16058" data-name="Grupo 16058" transform="translate(81.144)">
          <rect id="Rectángulo_3911" data-name="Rectángulo 3911" width="0.472" height="9.663" fill="#604053"/>
        </g>
        <g id="Grupo_16059" data-name="Grupo 16059" transform="translate(120.269)">
          <rect id="Rectángulo_3912" data-name="Rectángulo 3912" width="0.472" height="9.663" fill="#604053"/>
        </g>
        <g id="Grupo_16060" data-name="Grupo 16060" transform="translate(178.957)">
          <rect id="Rectángulo_3913" data-name="Rectángulo 3913" width="0.472" height="9.663" fill="#604053"/>
        </g>
        <g id="Grupo_16061" data-name="Grupo 16061" transform="translate(159.394)">
          <rect id="Rectángulo_3914" data-name="Rectángulo 3914" width="0.472" height="9.663" fill="#604053"/>
        </g>
        <g id="Grupo_16062" data-name="Grupo 16062" transform="translate(198.519)">
          <rect id="Rectángulo_3915" data-name="Rectángulo 3915" width="0.472" height="9.663" fill="#604053"/>
        </g>
        <g id="Grupo_16063" data-name="Grupo 16063" transform="translate(237.644)">
          <rect id="Rectángulo_3916" data-name="Rectángulo 3916" width="0.472" height="9.663" fill="#604053"/>
        </g>
        <g id="Grupo_16064" data-name="Grupo 16064" transform="translate(218.082)">
          <rect id="Rectángulo_3917" data-name="Rectángulo 3917" width="0.472" height="9.663" fill="#604053"/>
        </g>
        <g id="Grupo_16065" data-name="Grupo 16065" transform="translate(257.207)">
          <rect id="Rectángulo_3918" data-name="Rectángulo 3918" width="0.472" height="9.663" fill="#604053"/>
        </g>
        <g id="Grupo_16066" data-name="Grupo 16066" transform="translate(277.228)">
          <rect id="Rectángulo_3919" data-name="Rectángulo 3919" width="0.472" height="9.663" fill="#604053"/>
        </g>
        <g id="Grupo_16067" data-name="Grupo 16067" transform="translate(19.563)">
          <rect id="Rectángulo_3920" data-name="Rectángulo 3920" width="0.472" height="9.663" fill="#604053"/>
        </g>
        <g id="Grupo_16068" data-name="Grupo 16068">
          <rect id="Rectángulo_3921" data-name="Rectángulo 3921" width="0.472" height="9.663" fill="#604053"/>
        </g>
        <g id="Grupo_16069" data-name="Grupo 16069" transform="translate(39.125)">
          <rect id="Rectángulo_3922" data-name="Rectángulo 3922" width="0.472" height="9.663" fill="#604053"/>
        </g>
        <g id="Grupo_16070" data-name="Grupo 16070" transform="translate(59.146)">
          <rect id="Rectángulo_3923" data-name="Rectángulo 3923" width="0.472" height="9.663" fill="#604053"/>
        </g>
      </g>
      <g id="Grupo_16074" data-name="Grupo 16074" transform="translate(-1418.131 2429.786)">
        <g id="Grupo_16073" data-name="Grupo 16073" transform="translate(0)">
          <g id="Grupo_16072" data-name="Grupo 16072">
            <rect id="Rectángulo_3924" data-name="Rectángulo 3924" width="2.516" height="295.771" fill="#d50f73"/>
          </g>
        </g>
      </g>
      <path id="Trazado_25222" data-name="Trazado 25222" d="M503.533,414.823a3.447,3.447,0,1,1,4.679-1.368A3.448,3.448,0,0,1,503.533,414.823Z" transform="translate(-1921.776 2161.779)" fill="#f3d35a"/>
      <g id="Grupo_16089" data-name="Grupo 16089" transform="translate(-1422.384 2436.069)">
        <g id="Grupo_16075" data-name="Grupo 16075" transform="translate(0 176.522)">
          <rect id="Rectángulo_3925" data-name="Rectángulo 3925" width="9.663" height="0.472" fill="#604053"/>
        </g>
        <g id="Grupo_16076" data-name="Grupo 16076" transform="translate(0 196.084)">
          <rect id="Rectángulo_3926" data-name="Rectángulo 3926" width="9.663" height="0.472" fill="#604053"/>
        </g>
        <g id="Grupo_16077" data-name="Grupo 16077" transform="translate(0 156.959)">
          <rect id="Rectángulo_3927" data-name="Rectángulo 3927" width="9.663" height="0.472" fill="#604053"/>
        </g>
        <g id="Grupo_16078" data-name="Grupo 16078" transform="translate(0 98.271)">
          <rect id="Rectángulo_3928" data-name="Rectángulo 3928" width="9.663" height="0.472" fill="#604053"/>
        </g>
        <g id="Grupo_16079" data-name="Grupo 16079" transform="translate(0 117.834)">
          <rect id="Rectángulo_3929" data-name="Rectángulo 3929" width="9.663" height="0.472" fill="#604053"/>
        </g>
        <g id="Grupo_16080" data-name="Grupo 16080" transform="translate(0 78.709)">
          <rect id="Rectángulo_3930" data-name="Rectángulo 3930" width="9.663" height="0.472" fill="#604053"/>
        </g>
        <g id="Grupo_16081" data-name="Grupo 16081" transform="translate(0 39.584)">
          <rect id="Rectángulo_3931" data-name="Rectángulo 3931" width="9.663" height="0.472" fill="#604053"/>
        </g>
        <g id="Grupo_16082" data-name="Grupo 16082" transform="translate(0 59.146)">
          <rect id="Rectángulo_3932" data-name="Rectángulo 3932" width="9.663" height="0.472" fill="#604053"/>
        </g>
        <g id="Grupo_16083" data-name="Grupo 16083" transform="translate(0 20.021)">
          <rect id="Rectángulo_3933" data-name="Rectángulo 3933" width="9.663" height="0.472" fill="#604053"/>
        </g>
        <g id="Grupo_16084" data-name="Grupo 16084">
          <rect id="Rectángulo_3934" data-name="Rectángulo 3934" width="9.663" height="0.472" fill="#604053"/>
        </g>
        <g id="Grupo_16085" data-name="Grupo 16085" transform="translate(0 257.666)">
          <rect id="Rectángulo_3935" data-name="Rectángulo 3935" width="9.663" height="0.472" fill="#604053"/>
        </g>
        <g id="Grupo_16086" data-name="Grupo 16086" transform="translate(0 277.228)">
          <rect id="Rectángulo_3936" data-name="Rectángulo 3936" width="9.663" height="0.472" fill="#604053"/>
        </g>
        <g id="Grupo_16087" data-name="Grupo 16087" transform="translate(0 238.103)">
          <rect id="Rectángulo_3937" data-name="Rectángulo 3937" width="9.663" height="0.472" fill="#604053"/>
        </g>
        <g id="Grupo_16088" data-name="Grupo 16088" transform="translate(0 218.082)">
          <rect id="Rectángulo_3938" data-name="Rectángulo 3938" width="9.663" height="0.472" fill="#604053"/>
        </g>
      </g>
      <g id="Grupo_16090" data-name="Grupo 16090" transform="translate(-1428.61 2552.173)">
        <path id="Trazado_25223" data-name="Trazado 25223" d="M491.532,385.186h.4v3.46h-.42v-3l-.83.72v-.454Z" transform="translate(-490.679 -385.186)" fill="#604053"/>
      </g>
      <g id="Grupo_16091" data-name="Grupo 16091" transform="translate(-1429.151 2532.403)">
        <path id="Trazado_25224" data-name="Trazado 25224" d="M490.592,362.8h1.722v.391H489.98v-.322l1.386-1.433a1.636,1.636,0,0,0,.312-.41.822.822,0,0,0,.086-.357.6.6,0,0,0-.174-.458.711.711,0,0,0-.925.015.762.762,0,0,0-.176.557v.256l-.426-.039v-.214a1.091,1.091,0,0,1,.293-.822,1.21,1.21,0,0,1,1.532-.021.913.913,0,0,1,.294.717,1.094,1.094,0,0,1-.116.5,2.188,2.188,0,0,1-.375.5Z" transform="translate(-489.98 -359.683)" fill="#604053"/>
      </g>
      <g id="Grupo_16092" data-name="Grupo 16092" transform="translate(-1429.148 2513.473)">
        <path id="Trazado_25225" data-name="Trazado 25225" d="M491.137,338.816q-1.152,0-1.153-1.231l.433-.022a1.079,1.079,0,0,0,.163.651.653.653,0,0,0,.557.216.766.766,0,0,0,.537-.187.691.691,0,0,0,.007-.976.708.708,0,0,0-.495-.179h-.172v-.361h.167a.511.511,0,0,0,.378-.16.537.537,0,0,0,.157-.394.487.487,0,0,0-.167-.381.611.611,0,0,0-.42-.147.673.673,0,0,0-.277.051.4.4,0,0,0-.176.151.707.707,0,0,0-.088.22,1.308,1.308,0,0,0-.027.281l-.433-.016a1.118,1.118,0,0,1,.26-.793.96.96,0,0,1,.739-.278,1.024,1.024,0,0,1,.708.254.809.809,0,0,1,.284.629.763.763,0,0,1-.137.45.782.782,0,0,1-.346.28.95.95,0,0,1,.486.317.888.888,0,0,1,.19.582.949.949,0,0,1-.331.754A1.236,1.236,0,0,1,491.137,338.816Z" transform="translate(-489.984 -335.263)" fill="#604053"/>
      </g>
      <g id="Grupo_16093" data-name="Grupo 16093" transform="translate(-1429.239 2493.555)">
        <path id="Trazado_25226" data-name="Trazado 25226" d="M492.376,311.848v.375h-.512v.667h-.409v-.667h-1.589v-.378l1.382-2.275h.616v2.278Zm-2.087,0h1.167v-1.978Z" transform="translate(-489.867 -309.57)" fill="#604053"/>
      </g>
      <g id="Grupo_16094" data-name="Grupo 16094" transform="translate(-1429.093 2474.21)">
        <path id="Trazado_25227" data-name="Trazado 25227" d="M491.068,285.793a1.285,1.285,0,0,1,.905.28,1.011,1.011,0,0,1,.3.779,1.1,1.1,0,0,1-.308.808,1.082,1.082,0,0,1-.805.312,1.271,1.271,0,0,1-.415-.067,1.133,1.133,0,0,1-.352-.193.884.884,0,0,1-.245-.327,1.074,1.074,0,0,1-.091-.448,1.564,1.564,0,0,1,.012-.17l.417-.035a1.672,1.672,0,0,0-.019.186.743.743,0,0,0,.06.309.524.524,0,0,0,.161.212.72.72,0,0,0,.218.114.786.786,0,0,0,.246.038.68.68,0,0,0,.515-.2.722.722,0,0,0,.195-.521.687.687,0,0,0-.2-.523.9.9,0,0,0-.638-.191h-.84l.205-1.537h1.74v.38h-1.4l-.108.8Z" transform="translate(-490.056 -284.614)" fill="#604053"/>
      </g>
      <g id="Grupo_16095" data-name="Grupo 16095" transform="translate(-1429.135 2454.864)">
        <path id="Trazado_25228" data-name="Trazado 25228" d="M492.3,261.873a1.118,1.118,0,0,1-.151.6,1.066,1.066,0,0,1-.417.406,1.2,1.2,0,0,1-.575.141,1.159,1.159,0,0,1-.826-.312A1.056,1.056,0,0,1,490,261.9a1.311,1.311,0,0,1,.288-.8l1.111-1.443h.481l-.922,1.163a1.066,1.066,0,0,1,.8.088,1.017,1.017,0,0,1,.389.381A1.136,1.136,0,0,1,492.3,261.873Zm-1.154.764a.721.721,0,0,0,.755-.771.729.729,0,0,0-.762-.767.711.711,0,0,0-.542.228.76.76,0,0,0-.21.555.736.736,0,0,0,.213.554A.758.758,0,0,0,491.149,262.636Z" transform="translate(-490.001 -259.658)" fill="#604053"/>
      </g>
      <g id="Grupo_16096" data-name="Grupo 16096" transform="translate(-1429.12 2434.644)">
        <path id="Trazado_25229" data-name="Trazado 25229" d="M490.021,233.575h2.27v.343l-1.622,2.978H490.2l1.636-2.943h-1.818Z" transform="translate(-490.021 -233.575)" fill="#604053"/>
      </g>
      <g id="Grupo_16097" data-name="Grupo 16097" transform="translate(-1398.054 2582.354)">
        <path id="Trazado_25230" data-name="Trazado 25230" d="M530.949,424.12h.4v3.46h-.421v-3l-.83.72v-.454Z" transform="translate(-530.096 -424.12)" fill="#604053"/>
      </g>
      <g id="Grupo_16098" data-name="Grupo 16098" transform="translate(-1378.306 2582.329)">
        <path id="Trazado_25231" data-name="Trazado 25231" d="M556.183,427.208h1.723v.391h-2.335v-.322l1.386-1.433a1.652,1.652,0,0,0,.312-.411.828.828,0,0,0,.086-.357.6.6,0,0,0-.175-.458.711.711,0,0,0-.925.015.767.767,0,0,0-.176.557v.256l-.425-.04v-.214a1.1,1.1,0,0,1,.292-.822,1.073,1.073,0,0,1,.781-.284,1.085,1.085,0,0,1,.751.263.916.916,0,0,1,.293.718,1.081,1.081,0,0,1-.116.5,2.185,2.185,0,0,1-.375.5Z" transform="translate(-555.571 -424.087)" fill="#604053"/>
      </g>
      <g id="Grupo_16099" data-name="Grupo 16099" transform="translate(-1360.709 2582.308)">
        <path id="Trazado_25232" data-name="Trazado 25232" d="M579.423,427.613q-1.154,0-1.153-1.231l.433-.023a1.084,1.084,0,0,0,.162.651.655.655,0,0,0,.558.216.767.767,0,0,0,.537-.187.632.632,0,0,0,.2-.489.622.622,0,0,0-.2-.486.707.707,0,0,0-.5-.18H579.3v-.361h.167a.513.513,0,0,0,.378-.16.535.535,0,0,0,.157-.393.485.485,0,0,0-.167-.381.613.613,0,0,0-.421-.148.671.671,0,0,0-.276.052.386.386,0,0,0-.176.151.7.7,0,0,0-.089.22,1.3,1.3,0,0,0-.027.28l-.433-.015a1.12,1.12,0,0,1,.26-.794.961.961,0,0,1,.738-.278,1.028,1.028,0,0,1,.709.253.81.81,0,0,1,.284.629.754.754,0,0,1-.138.45.784.784,0,0,1-.346.281.951.951,0,0,1,.487.316.89.89,0,0,1,.189.583.951.951,0,0,1-.33.754A1.243,1.243,0,0,1,579.423,427.613Z" transform="translate(-578.27 -424.06)" fill="#604053"/>
      </g>
      <g id="Grupo_16100" data-name="Grupo 16100" transform="translate(-1339.426 2582.424)">
        <path id="Trazado_25233" data-name="Trazado 25233" d="M608.234,426.488v.375h-.512v.667h-.409v-.667h-1.589v-.378l1.382-2.276h.615v2.278Zm-2.088,0h1.167V424.51Z" transform="translate(-605.725 -424.21)" fill="#604053"/>
      </g>
      <g id="Grupo_16101" data-name="Grupo 16101" transform="translate(-1319.998 2582.406)">
        <path id="Trazado_25234" data-name="Trazado 25234" d="M631.8,425.365a1.288,1.288,0,0,1,.905.28,1.014,1.014,0,0,1,.3.779,1.1,1.1,0,0,1-.308.808,1.083,1.083,0,0,1-.805.312,1.282,1.282,0,0,1-.416-.067,1.122,1.122,0,0,1-.351-.193.882.882,0,0,1-.245-.327,1.072,1.072,0,0,1-.091-.448,1.542,1.542,0,0,1,.012-.17l.417-.035a1.662,1.662,0,0,0-.019.186.751.751,0,0,0,.06.309.527.527,0,0,0,.161.211.726.726,0,0,0,.218.114.787.787,0,0,0,.247.038.679.679,0,0,0,.515-.2.721.721,0,0,0,.195-.521.687.687,0,0,0-.2-.523.906.906,0,0,0-.638-.192h-.839l.205-1.537h1.74v.38h-1.4l-.108.8Z" transform="translate(-630.788 -424.186)" fill="#604053"/>
      </g>
      <g id="Grupo_16102" data-name="Grupo 16102" transform="translate(-1300.482 2582.406)">
        <path id="Trazado_25235" data-name="Trazado 25235" d="M658.265,426.4a1.122,1.122,0,0,1-.151.6,1.058,1.058,0,0,1-.417.405,1.188,1.188,0,0,1-.576.142,1.161,1.161,0,0,1-.825-.312,1.056,1.056,0,0,1-.333-.805,1.307,1.307,0,0,1,.288-.8l1.111-1.443h.481l-.922,1.163a1.044,1.044,0,0,1,.288-.04,1.06,1.06,0,0,1,.509.127,1.018,1.018,0,0,1,.389.381A1.136,1.136,0,0,1,658.265,426.4Zm-1.154.764a.722.722,0,0,0,.755-.771.729.729,0,0,0-.762-.766.714.714,0,0,0-.543.228.762.762,0,0,0-.209.555.731.731,0,0,0,.213.554A.759.759,0,0,0,657.111,427.164Z" transform="translate(-655.963 -424.186)" fill="#604053"/>
      </g>
      <g id="Grupo_16103" data-name="Grupo 16103" transform="translate(-1280.839 2582.424)">
        <path id="Trazado_25236" data-name="Trazado 25236" d="M681.3,424.21h2.271v.342l-1.622,2.978h-.467l1.636-2.943H681.3Z" transform="translate(-681.302 -424.21)" fill="#604053"/>
      </g>
      <path id="Trazado_25476" data-name="Trazado 25476" d="M-19.462-9.625a2.85,2.85,0,0,1,1.507.4,2.7,2.7,0,0,1,1.012,1.07,3.139,3.139,0,0,1,.352,1.483,2.921,2.921,0,0,1-.8,2.1,2.733,2.733,0,0,1-2.075.837h-2.42V0h-1.224V-9.625Zm-.178,4.819a1.75,1.75,0,0,0,1.34-.516,1.91,1.91,0,0,0,.485-1.364A1.915,1.915,0,0,0-18.3-8.042a1.738,1.738,0,0,0-1.34-.523h-2.242v3.76ZM-12.523.13a3.542,3.542,0,0,1-1.723-.417,3.036,3.036,0,0,1-1.213-1.22,3.748,3.748,0,0,1-.448-1.856A3.423,3.423,0,0,1-14.954-5.9a3.292,3.292,0,0,1,2.43-.954A3.289,3.289,0,0,1-10.09-5.9a3.43,3.43,0,0,1,.95,2.533,3.432,3.432,0,0,1-.954,2.54A3.292,3.292,0,0,1-12.523.13Zm-.007-.984a2.064,2.064,0,0,0,1.589-.69,2.587,2.587,0,0,0,.632-1.818,2.577,2.577,0,0,0-.632-1.812,2.064,2.064,0,0,0-1.589-.69,2.035,2.035,0,0,0-1.576.69,2.594,2.594,0,0,0-.625,1.812,2.6,2.6,0,0,0,.625,1.818A2.035,2.035,0,0,0-12.53-.854ZM-5.161.13A3.186,3.186,0,0,1-6.973-.355a2.007,2.007,0,0,1-.882-1.381l1.032-.294a1.44,1.44,0,0,0,.55.933,1.785,1.785,0,0,0,1.1.332,2.2,2.2,0,0,0,.646-.089,1.036,1.036,0,0,0,.5-.332.888.888,0,0,0,.2-.612.892.892,0,0,0-.055-.277A1.187,1.187,0,0,0-3.992-2.3a.677.677,0,0,0-.191-.185,2.524,2.524,0,0,0-.232-.144,2.386,2.386,0,0,0-.3-.126q-.2-.072-.325-.109t-.376-.109l-.39-.113a7.289,7.289,0,0,1-.7-.246,3.058,3.058,0,0,1-.567-.325,1.306,1.306,0,0,1-.441-.53,1.793,1.793,0,0,1-.147-.752,1.738,1.738,0,0,1,.328-1.073,1.846,1.846,0,0,1,.851-.632,3.4,3.4,0,0,1,1.193-.195A2.92,2.92,0,0,1-3.654-6.4a1.867,1.867,0,0,1,.817,1.313l-.971.246a1.287,1.287,0,0,0-.513-.851,1.632,1.632,0,0,0-.964-.284,1.664,1.664,0,0,0-.9.236.793.793,0,0,0-.376.721.718.718,0,0,0,.1.373,1.183,1.183,0,0,0,.2.263,1.24,1.24,0,0,0,.369.2q.267.106.4.144T-5-3.91q.068.021.1.027.4.1.646.181a3.971,3.971,0,0,1,.581.246,1.932,1.932,0,0,1,.523.366,1.694,1.694,0,0,1,.328.52,1.834,1.834,0,0,1,.137.725,1.957,1.957,0,0,1-.2.906,1.577,1.577,0,0,1-.55.619,2.661,2.661,0,0,1-.783.338A3.729,3.729,0,0,1-5.161.13ZM-.226-8.3A.77.77,0,0,1-.79-8.535.77.77,0,0,1-1.025-9.1.758.758,0,0,1-.79-9.659a.775.775,0,0,1,.564-.232.767.767,0,0,1,.557.232A.758.758,0,0,1,.567-9.1a.77.77,0,0,1-.236.564A.762.762,0,0,1-.226-8.3ZM-.827,0V-6.72H.362V0ZM4.915,0A1.766,1.766,0,0,1,3.6-.482a1.823,1.823,0,0,1-.479-1.343V-5.776H1.75V-6.72h.506A.971.971,0,0,0,3-6.956a1.161,1.161,0,0,0,.215-.79V-8.962h1.1V-6.72H5.858v.943H4.313v3.828a1.019,1.019,0,0,0,.256.742.9.9,0,0,0,.673.263h.615V0ZM8.169-8.3A.77.77,0,0,1,7.6-8.535.77.77,0,0,1,7.369-9.1.758.758,0,0,1,7.6-9.659a.775.775,0,0,1,.564-.232.767.767,0,0,1,.557.232.758.758,0,0,1,.236.561.77.77,0,0,1-.236.564A.762.762,0,0,1,8.169-8.3ZM7.567,0V-6.72H8.757V0Zm7.786-6.72h1.265L13.884,0h-1L10.158-6.72h1.258l1.969,5.346ZM20.583.13A3.542,3.542,0,0,1,18.86-.287a3.036,3.036,0,0,1-1.213-1.22A3.748,3.748,0,0,1,17.2-3.363,3.423,3.423,0,0,1,18.153-5.9a3.292,3.292,0,0,1,2.43-.954,3.289,3.289,0,0,1,2.434.954,3.43,3.43,0,0,1,.95,2.533,3.432,3.432,0,0,1-.954,2.54A3.292,3.292,0,0,1,20.583.13Zm-.007-.984a2.064,2.064,0,0,0,1.589-.69A2.587,2.587,0,0,0,22.8-3.363a2.577,2.577,0,0,0-.632-1.812,2.064,2.064,0,0,0-1.589-.69A2.035,2.035,0,0,0,19-5.175a2.594,2.594,0,0,0-.625,1.812A2.6,2.6,0,0,0,19-1.545,2.035,2.035,0,0,0,20.576-.854ZM-22.832,17l-.718-2.037H-27.7L-28.417,17h-2.1l3.637-9.878h2.509L-20.733,17ZM-27.1,13.247h2.946l-1.47-4.19Zm12.243-3.274h1.969V17h-1.866l-.048-.848a2.684,2.684,0,0,1-2.235.984,2.739,2.739,0,0,1-1.941-.632,2.345,2.345,0,0,1-.677-1.8V9.973h1.976v4.307a1.215,1.215,0,0,0,.352.964,1.337,1.337,0,0,0,.913.308,1.585,1.585,0,0,0,1.118-.4,1.718,1.718,0,0,0,.441-1.3Zm12.332-.137a2.685,2.685,0,0,1,1.812.571,2.042,2.042,0,0,1,.663,1.637V17H-2.017V12.6a1.174,1.174,0,0,0-.314-.889,1.1,1.1,0,0,0-.793-.3,1.27,1.27,0,0,0-.957.383,1.739,1.739,0,0,0-.369,1.237V17H-6.439V12.625a1.205,1.205,0,0,0-.314-.906,1.121,1.121,0,0,0-.813-.3,1.23,1.23,0,0,0-.95.4,1.926,1.926,0,0,0-.369,1.319V17h-1.962V9.973h1.962V10.8A2.39,2.39,0,0,1-6.85,9.836a3,3,0,0,1,1.323.27,1.8,1.8,0,0,1,.831.783A2.485,2.485,0,0,1-2.522,9.836Zm11,3.548-.021.472H3.247a1.819,1.819,0,0,0,.561,1.285,1.793,1.793,0,0,0,1.237.444,1.728,1.728,0,0,0,.926-.243,1.492,1.492,0,0,0,.591-.708l1.8.267a3.068,3.068,0,0,1-1.23,1.647,3.658,3.658,0,0,1-2.078.588,3.8,3.8,0,0,1-2.738-.967,3.529,3.529,0,0,1-1.015-2.683A3.55,3.55,0,0,1,2.324,10.8,3.691,3.691,0,0,1,5,9.822a3.528,3.528,0,0,1,2.522.9A3.513,3.513,0,0,1,8.477,13.384ZM5.011,11.217A1.556,1.556,0,0,0,3.3,12.57H6.528a1.48,1.48,0,0,0-.485-1A1.538,1.538,0,0,0,5.011,11.217Zm9.112-1.381a2.739,2.739,0,0,1,1.941.632,2.345,2.345,0,0,1,.677,1.8V17H14.766V12.693a1.224,1.224,0,0,0-.352-.971,1.326,1.326,0,0,0-.906-.308,1.85,1.85,0,0,0-.588.089,1.51,1.51,0,0,0-.492.277,1.224,1.224,0,0,0-.352.53,2.45,2.45,0,0,0-.133.813V17H9.974V9.973h1.969v.779A2.708,2.708,0,0,1,14.123,9.836ZM21.267,17a2.122,2.122,0,0,1-1.586-.571,2.22,2.22,0,0,1-.561-1.624V11.483H17.739V9.973h.444a1.159,1.159,0,0,0,.875-.294,1.514,1.514,0,0,0,.28-1.046V7.7h1.777v2.27h1.449v1.511H21.116v3.11q0,.909.813.909h.636V17Zm8.559-1.907A6.574,6.574,0,0,0,30,16.809V17H28.157L28,16.234a2.285,2.285,0,0,1-.984.677,3.628,3.628,0,0,1-1.271.226,3.343,3.343,0,0,1-.656-.062,2.231,2.231,0,0,1-.591-.208,1.794,1.794,0,0,1-.489-.366,1.6,1.6,0,0,1-.328-.557,2.219,2.219,0,0,1-.123-.762,2.114,2.114,0,0,1,.13-.762,1.786,1.786,0,0,1,.342-.571,2.073,2.073,0,0,1,.554-.417,4.237,4.237,0,0,1,.7-.3,8.331,8.331,0,0,1,.834-.219l1.155-.26a1.274,1.274,0,0,0,.523-.222.443.443,0,0,0,.154-.352A.725.725,0,0,0,27.6,11.4a1.612,1.612,0,0,0-.837-.205,1.2,1.2,0,0,0-1.374,1.073l-1.743-.314a2.36,2.36,0,0,1,1.019-1.6,4.048,4.048,0,0,1,2.208-.516q2.953,0,2.953,2.536Zm-3.466.711a1.583,1.583,0,0,0,1.217-.509,2.146,2.146,0,0,0,.472-1.507l-1.668.472a1.971,1.971,0,0,0-.7.287.59.59,0,0,0-.243.506.655.655,0,0,0,.26.557A1.075,1.075,0,0,0,26.359,15.8Z" transform="translate(-1363.463 2511.07)" fill="#00223d"/>
      <path id="Trazado_25477" data-name="Trazado 25477" d="M-20.576-9.625h1.217V0h-1.292L-25.84-7.786V0h-1.2V-9.625h1.278l5.188,7.752Zm9.714,6.132-.014.321h-5.25a2.375,2.375,0,0,0,.643,1.719,2.11,2.11,0,0,0,1.531.6,2.015,2.015,0,0,0,1.114-.321,2.085,2.085,0,0,0,.766-.889l1.066.226A3.031,3.031,0,0,1-12.154-.4,3.133,3.133,0,0,1-13.938.13a3.246,3.246,0,0,1-2.42-.937,3.484,3.484,0,0,1-.923-2.557,3.467,3.467,0,0,1,.926-2.55,3.206,3.206,0,0,1,2.382-.937,3.034,3.034,0,0,1,2.259.861A3.4,3.4,0,0,1-10.862-3.493Zm-3.11-2.447a2.1,2.1,0,0,0-1.4.475,2.177,2.177,0,0,0-.708,1.384h4.026a2,2,0,0,0-.588-1.384A1.9,1.9,0,0,0-13.973-5.94Zm9.83-.779h1.148V-.342a3.66,3.66,0,0,1-.868,2.618,3.156,3.156,0,0,1-2.406.916A3.176,3.176,0,0,1-9.529,1.135l.978-.479A2.222,2.222,0,0,0-6.3,2.208a1.929,1.929,0,0,0,1.576-.656A2.793,2.793,0,0,0-4.184-.28V-1.524a2.368,2.368,0,0,1-.957.967,2.785,2.785,0,0,1-1.4.366,2.881,2.881,0,0,1-2.174-.947,3.339,3.339,0,0,1-.9-2.389,3.308,3.308,0,0,1,.9-2.382,2.909,2.909,0,0,1,2.184-.94,2.715,2.715,0,0,1,1.408.376,2.42,2.42,0,0,1,.95.991ZM-6.275-1.2a2.033,2.033,0,0,0,1.548-.69,2.333,2.333,0,0,0,.639-1.641,2.349,2.349,0,0,0-.636-1.647,2.03,2.03,0,0,0-1.552-.69,2.047,2.047,0,0,0-1.548.67,2.336,2.336,0,0,0-.632,1.668A2.316,2.316,0,0,0-7.817-1.87,2.049,2.049,0,0,0-6.275-1.2ZM.964.13A2.287,2.287,0,0,1-.509-.332a1.657,1.657,0,0,1-.578-1.377A1.957,1.957,0,0,1-.9-2.587,1.549,1.549,0,0,1-.355-3.2a3.281,3.281,0,0,1,.79-.379,7.3,7.3,0,0,1,1.022-.243L2.543-4q.595-.109.595-.622a1.174,1.174,0,0,0-.42-1A1.713,1.713,0,0,0,1.654-5.94,1.745,1.745,0,0,0,.6-5.633a1.287,1.287,0,0,0-.5.943L-.964-4.915A2.052,2.052,0,0,1-.123-6.354a3.141,3.141,0,0,1,1.832-.482,3.716,3.716,0,0,1,.974.12A2.647,2.647,0,0,1,3.5-6.34a1.686,1.686,0,0,1,.581.725,2.7,2.7,0,0,1,.208,1.1v2.775a1.136,1.136,0,0,0,.154.7.664.664,0,0,0,.53.181h.109V0H4.491A1.121,1.121,0,0,1,3.22-.909H3.165A2.568,2.568,0,0,1,.964.13Zm.273-.957A1.793,1.793,0,0,0,2.68-1.477a2.674,2.674,0,0,0,.547-1.777l-1.777.342A2.392,2.392,0,0,0,.407-2.54.867.867,0,0,0,.068-1.8a.857.857,0,0,0,.325.738A1.388,1.388,0,0,0,1.237-.827ZM8.853,0A1.766,1.766,0,0,1,7.54-.482a1.823,1.823,0,0,1-.479-1.343V-5.776H5.688V-6.72h.506a.971.971,0,0,0,.742-.236,1.161,1.161,0,0,0,.215-.79V-8.962h1.1V-6.72H9.8v.943H8.251v3.828a1.019,1.019,0,0,0,.256.742.9.9,0,0,0,.673.263H9.8V0Zm3.254-8.3a.77.77,0,0,1-.564-.236.77.77,0,0,1-.236-.564.758.758,0,0,1,.236-.561.775.775,0,0,1,.564-.232.767.767,0,0,1,.557.232A.758.758,0,0,1,12.9-9.1a.77.77,0,0,1-.236.564A.762.762,0,0,1,12.106-8.3ZM11.5,0V-6.72h1.189V0Zm7.786-6.72h1.265L17.821,0h-1L14.1-6.72h1.258l1.969,5.346ZM24.521.13A3.542,3.542,0,0,1,22.8-.287a3.036,3.036,0,0,1-1.213-1.22,3.748,3.748,0,0,1-.448-1.856A3.423,3.423,0,0,1,22.09-5.9a3.292,3.292,0,0,1,2.43-.954,3.289,3.289,0,0,1,2.434.954,3.43,3.43,0,0,1,.95,2.533,3.432,3.432,0,0,1-.954,2.54A3.292,3.292,0,0,1,24.521.13Zm-.007-.984a2.064,2.064,0,0,0,1.589-.69,2.587,2.587,0,0,0,.632-1.818A2.577,2.577,0,0,0,26.1-5.175a2.064,2.064,0,0,0-1.589-.69,2.035,2.035,0,0,0-1.576.69,2.594,2.594,0,0,0-.625,1.812,2.6,2.6,0,0,0,.625,1.818A2.035,2.035,0,0,0,24.514-.854ZM-18.819,17l-2.57-4.348h-.595V17h-2.051V7.122h3.582a4.143,4.143,0,0,1,1.436.229,2.482,2.482,0,0,1,.995.636,2.723,2.723,0,0,1,.561.933,3.413,3.413,0,0,1,.188,1.155,2.412,2.412,0,0,1-.54,1.624,2.721,2.721,0,0,1-1.552.851L-16.393,17Zm-3.165-8.176v2.358h1.21q1.538,0,1.538-1.176a1.071,1.071,0,0,0-.376-.868,1.788,1.788,0,0,0-1.162-.314Zm13.029,4.56-.021.472h-5.209a1.819,1.819,0,0,0,.561,1.285,1.793,1.793,0,0,0,1.237.444,1.728,1.728,0,0,0,.926-.243,1.492,1.492,0,0,0,.591-.708l1.8.267a3.068,3.068,0,0,1-1.23,1.647,3.658,3.658,0,0,1-2.078.588,3.8,3.8,0,0,1-2.738-.967,3.529,3.529,0,0,1-1.015-2.683A3.55,3.55,0,0,1-15.107,10.8a3.691,3.691,0,0,1,2.673-.981,3.528,3.528,0,0,1,2.522.9A3.513,3.513,0,0,1-8.955,13.384Zm-3.466-2.167A1.556,1.556,0,0,0-14.13,12.57H-10.9a1.48,1.48,0,0,0-.485-1A1.538,1.538,0,0,0-12.421,11.217ZM-2.475,6.5H-.506V17H-2.372l-.048-.916a2.007,2.007,0,0,1-.892.8,3,3,0,0,1-1.316.284,3.418,3.418,0,0,1-1.312-.253A3.258,3.258,0,0,1-7.017,16.2a3.256,3.256,0,0,1-.728-1.159A4.274,4.274,0,0,1-8.012,13.5a4,4,0,0,1,.465-1.958A3.185,3.185,0,0,1-6.32,10.267a3.379,3.379,0,0,1,1.692-.431,3.078,3.078,0,0,1,1.275.256,1.99,1.99,0,0,1,.878.728Zm-1.7,9.03a1.753,1.753,0,0,0,1.33-.561,2.052,2.052,0,0,0,.53-1.47,2.057,2.057,0,0,0-.533-1.473,1.751,1.751,0,0,0-1.326-.564,1.771,1.771,0,0,0-1.336.554,2.056,2.056,0,0,0-.53,1.483,2.047,2.047,0,0,0,.53,1.477A1.771,1.771,0,0,0-4.177,15.53ZM6.187,9.973H8.155V17H6.289l-.048-.848a2.684,2.684,0,0,1-2.235.984A2.739,2.739,0,0,1,2.064,16.5a2.345,2.345,0,0,1-.677-1.8V9.973H3.363v4.307a1.215,1.215,0,0,0,.352.964,1.337,1.337,0,0,0,.913.308,1.585,1.585,0,0,0,1.118-.4,1.718,1.718,0,0,0,.441-1.3Zm7.185,7.157a3.755,3.755,0,0,1-2.714-1.012A3.494,3.494,0,0,1,9.6,13.479a3.486,3.486,0,0,1,1.049-2.639,3.766,3.766,0,0,1,2.717-1,3.744,3.744,0,0,1,2.276.677,3.021,3.021,0,0,1,1.176,1.907l-1.818.2a1.558,1.558,0,0,0-.588-.923,1.788,1.788,0,0,0-1.066-.308,1.612,1.612,0,0,0-1.285.574,2.251,2.251,0,0,0-.492,1.518,2.254,2.254,0,0,0,.492,1.514,1.608,1.608,0,0,0,1.285.578,1.772,1.772,0,0,0,1.063-.308A1.594,1.594,0,0,0,15,14.341l1.818.2a3.03,3.03,0,0,1-1.186,1.907A3.729,3.729,0,0,1,13.371,17.13Zm11.464-3.746-.021.472H19.605a1.819,1.819,0,0,0,.561,1.285,1.793,1.793,0,0,0,1.237.444,1.728,1.728,0,0,0,.926-.243,1.492,1.492,0,0,0,.591-.708l1.8.267a3.068,3.068,0,0,1-1.23,1.647,3.658,3.658,0,0,1-2.078.588,3.8,3.8,0,0,1-2.738-.967,3.529,3.529,0,0,1-1.015-2.683A3.55,3.55,0,0,1,18.683,10.8a3.691,3.691,0,0,1,2.673-.981,3.528,3.528,0,0,1,2.522.9A3.513,3.513,0,0,1,24.835,13.384Zm-3.466-2.167A1.556,1.556,0,0,0,19.66,12.57h3.227a1.48,1.48,0,0,0-.485-1A1.538,1.538,0,0,0,21.369,11.217Z" transform="translate(-1480.76 2627.973)" fill="#00223d"/>
      <g id="Grupo_16118" data-name="Grupo 16118" transform="translate(-1561.677 2582.308)">
        <g id="Grupo_16104" data-name="Grupo 16104" transform="translate(125.473 0.047)">
          <path id="Trazado_25237" data-name="Trazado 25237" d="M481.735,424.12h.4v3.46h-.421v-3l-.83.72v-.454Z" transform="translate(-480.882 -424.12)" fill="#990831"/>
        </g>
        <g id="Grupo_16105" data-name="Grupo 16105" transform="translate(105.186 0.021)">
          <path id="Trazado_25238" data-name="Trazado 25238" d="M455.325,427.208h1.722v.391h-2.334v-.322l1.386-1.433a1.626,1.626,0,0,0,.312-.411.818.818,0,0,0,.086-.357.6.6,0,0,0-.174-.458.711.711,0,0,0-.925.015.764.764,0,0,0-.176.557v.256l-.425-.04v-.214a1.1,1.1,0,0,1,.292-.822,1.21,1.21,0,0,1,1.532-.021.914.914,0,0,1,.294.718,1.092,1.092,0,0,1-.116.5,2.188,2.188,0,0,1-.375.5Z" transform="translate(-454.713 -424.087)" fill="#990831"/>
        </g>
        <g id="Grupo_16106" data-name="Grupo 16106" transform="translate(82.9)">
          <path id="Trazado_25239" data-name="Trazado 25239" d="M427.117,427.613q-1.152,0-1.153-1.231l.433-.023a1.083,1.083,0,0,0,.162.651.655.655,0,0,0,.558.216.767.767,0,0,0,.537-.187.632.632,0,0,0,.2-.489.622.622,0,0,0-.2-.486.707.707,0,0,0-.5-.18h-.171v-.361h.167a.513.513,0,0,0,.378-.16.535.535,0,0,0,.157-.393.485.485,0,0,0-.167-.381.613.613,0,0,0-.42-.148.673.673,0,0,0-.277.052.387.387,0,0,0-.176.151.705.705,0,0,0-.088.22,1.3,1.3,0,0,0-.027.28l-.433-.015a1.12,1.12,0,0,1,.26-.794.961.961,0,0,1,.738-.278,1.028,1.028,0,0,1,.709.253.81.81,0,0,1,.284.629.759.759,0,0,1-.137.45.793.793,0,0,1-.346.281.949.949,0,0,1,.486.316.89.89,0,0,1,.189.583.951.951,0,0,1-.33.754A1.243,1.243,0,0,1,427.117,427.613Z" transform="translate(-425.964 -424.06)" fill="#990831"/>
        </g>
        <g id="Grupo_16107" data-name="Grupo 16107" transform="translate(62.775 0.116)">
          <path id="Trazado_25240" data-name="Trazado 25240" d="M402.512,426.488v.375H402v.667h-.408v-.667H400v-.378l1.381-2.276H402v2.278Zm-2.087,0h1.168V424.51Z" transform="translate(-400.003 -424.21)" fill="#990831"/>
        </g>
        <g id="Grupo_16108" data-name="Grupo 16108" transform="translate(43.595 0.098)">
          <path id="Trazado_25241" data-name="Trazado 25241" d="M376.272,425.365a1.287,1.287,0,0,1,.905.28,1.011,1.011,0,0,1,.3.779,1.1,1.1,0,0,1-.307.808,1.083,1.083,0,0,1-.805.312,1.274,1.274,0,0,1-.416-.067,1.106,1.106,0,0,1-.351-.193.885.885,0,0,1-.246-.327,1.074,1.074,0,0,1-.091-.448,1.561,1.561,0,0,1,.012-.17l.418-.035a1.736,1.736,0,0,0-.019.186.749.749,0,0,0,.06.309.534.534,0,0,0,.161.211.729.729,0,0,0,.219.114.78.78,0,0,0,.246.038.679.679,0,0,0,.515-.2.718.718,0,0,0,.195-.521.684.684,0,0,0-.2-.523.9.9,0,0,0-.638-.192h-.84l.205-1.537h1.74v.38h-1.4l-.109.8Z" transform="translate(-375.26 -424.186)" fill="#990831"/>
        </g>
        <g id="Grupo_16109" data-name="Grupo 16109" transform="translate(23.241 0.098)">
          <path id="Trazado_25242" data-name="Trazado 25242" d="M351.305,426.4a1.12,1.12,0,0,1-.151.6,1.055,1.055,0,0,1-.418.405,1.186,1.186,0,0,1-.575.142,1.159,1.159,0,0,1-.825-.312,1.056,1.056,0,0,1-.333-.805,1.3,1.3,0,0,1,.288-.8l1.111-1.443h.481l-.922,1.163a1.043,1.043,0,0,1,.288-.04,1.06,1.06,0,0,1,.509.127,1.019,1.019,0,0,1,.389.381A1.143,1.143,0,0,1,351.305,426.4Zm-1.153.764a.721.721,0,0,0,.754-.771.728.728,0,0,0-.761-.766.714.714,0,0,0-.543.228.762.762,0,0,0-.209.555.731.731,0,0,0,.213.554A.757.757,0,0,0,350.152,427.164Z" transform="translate(-349.004 -424.186)" fill="#990831"/>
        </g>
        <g id="Grupo_16110" data-name="Grupo 16110" transform="translate(3.984 0.116)">
          <path id="Trazado_25243" data-name="Trazado 25243" d="M324.162,424.21h2.271v.342l-1.623,2.978h-.467l1.637-2.943h-1.819Z" transform="translate(-324.162 -424.21)" fill="#990831"/>
        </g>
        <g id="Grupo_16111" data-name="Grupo 16111" transform="translate(121.546 1.56)">
          <path id="Trazado_25244" data-name="Trazado 25244" d="M475.817,426.506v-.433h2.171v.433Z" transform="translate(-475.817 -426.073)" fill="#990831"/>
        </g>
        <g id="Grupo_16112" data-name="Grupo 16112" transform="translate(101.045 1.56)">
          <path id="Trazado_25245" data-name="Trazado 25245" d="M449.37,426.506v-.433h2.171v.433Z" transform="translate(-449.37 -426.073)" fill="#990831"/>
        </g>
        <g id="Grupo_16113" data-name="Grupo 16113" transform="translate(78.698 1.56)">
          <path id="Trazado_25246" data-name="Trazado 25246" d="M420.543,426.506v-.433h2.171v.433Z" transform="translate(-420.543 -426.073)" fill="#990831"/>
        </g>
        <g id="Grupo_16114" data-name="Grupo 16114" transform="translate(58.791 1.56)">
          <path id="Trazado_25247" data-name="Trazado 25247" d="M394.863,426.506v-.433h2.171v.433Z" transform="translate(-394.863 -426.073)" fill="#990831"/>
        </g>
        <g id="Grupo_16115" data-name="Grupo 16115" transform="translate(39.442 1.56)">
          <path id="Trazado_25248" data-name="Trazado 25248" d="M369.9,426.506v-.433h2.171v.433Z" transform="translate(-369.903 -426.073)" fill="#990831"/>
        </g>
        <g id="Grupo_16116" data-name="Grupo 16116" transform="translate(19.349 1.56)">
          <path id="Trazado_25249" data-name="Trazado 25249" d="M343.983,426.506v-.433h2.171v.433Z" transform="translate(-343.983 -426.073)" fill="#990831"/>
        </g>
        <g id="Grupo_16117" data-name="Grupo 16117" transform="translate(0 1.56)">
          <path id="Trazado_25250" data-name="Trazado 25250" d="M319.023,426.506v-.433h2.171v.433Z" transform="translate(-319.023 -426.073)" fill="#990831"/>
        </g>
      </g>
      <g id="Grupo_16134" data-name="Grupo 16134" transform="translate(-1432.726 2591.772)">
        <g id="Grupo_16122" data-name="Grupo 16122" transform="translate(3.574 0)">
          <g id="Grupo_16119" data-name="Grupo 16119" transform="translate(0.542)">
            <path id="Trazado_25251" data-name="Trazado 25251" d="M491.532,436.269h.4v3.46h-.42v-3l-.83.72V437Z" transform="translate(-490.679 -436.269)" fill="#990831"/>
          </g>
          <g id="Grupo_16120" data-name="Grupo 16120" transform="translate(0 19.299)">
            <path id="Trazado_25252" data-name="Trazado 25252" d="M490.592,464.285h1.722v.391H489.98v-.322l1.386-1.433a1.61,1.61,0,0,0,.312-.41.817.817,0,0,0,.086-.357.6.6,0,0,0-.174-.458.711.711,0,0,0-.925.015.764.764,0,0,0-.176.557v.256l-.426-.04v-.214a1.093,1.093,0,0,1,.293-.822,1.211,1.211,0,0,1,1.532-.021.914.914,0,0,1,.294.718,1.091,1.091,0,0,1-.116.5,2.188,2.188,0,0,1-.375.5Z" transform="translate(-489.98 -461.164)" fill="#990831"/>
          </g>
          <g id="Grupo_16121" data-name="Grupo 16121" transform="translate(0.003 38.604)">
            <path id="Trazado_25253" data-name="Trazado 25253" d="M491.137,489.622q-1.152,0-1.153-1.231l.433-.023a1.077,1.077,0,0,0,.163.651.65.65,0,0,0,.557.216.769.769,0,0,0,.537-.186.691.691,0,0,0,.007-.976.7.7,0,0,0-.495-.179h-.172v-.361h.167a.511.511,0,0,0,.378-.16.538.538,0,0,0,.157-.394.487.487,0,0,0-.167-.381.611.611,0,0,0-.42-.147.673.673,0,0,0-.277.051.4.4,0,0,0-.176.151.706.706,0,0,0-.088.22,1.3,1.3,0,0,0-.027.28l-.433-.015a1.121,1.121,0,0,1,.26-.794.963.963,0,0,1,.739-.278,1.024,1.024,0,0,1,.708.253.809.809,0,0,1,.284.629.759.759,0,0,1-.137.45.778.778,0,0,1-.346.281.946.946,0,0,1,.486.317.888.888,0,0,1,.19.582.949.949,0,0,1-.331.754A1.236,1.236,0,0,1,491.137,489.622Z" transform="translate(-489.984 -486.068)" fill="#990831"/>
          </g>
        </g>
        <g id="Grupo_16123" data-name="Grupo 16123" transform="translate(3.487 60.775)">
          <path id="Trazado_25254" data-name="Trazado 25254" d="M492.376,516.947v.375h-.512v.667h-.409v-.667h-1.589v-.377l1.382-2.275h.616v2.278Zm-2.087,0h1.167v-1.978Z" transform="translate(-489.867 -514.669)" fill="#990831"/>
        </g>
        <g id="Grupo_16124" data-name="Grupo 16124" transform="translate(3.633 80.522)">
          <path id="Trazado_25255" data-name="Trazado 25255" d="M491.068,541.32a1.288,1.288,0,0,1,.905.28,1.013,1.013,0,0,1,.3.779,1.1,1.1,0,0,1-.308.808,1.081,1.081,0,0,1-.805.312,1.272,1.272,0,0,1-.415-.067,1.119,1.119,0,0,1-.352-.194.875.875,0,0,1-.245-.326,1.075,1.075,0,0,1-.091-.448,1.539,1.539,0,0,1,.012-.17l.417-.036a1.681,1.681,0,0,0-.019.187.745.745,0,0,0,.06.308.529.529,0,0,0,.161.212.74.74,0,0,0,.218.114.786.786,0,0,0,.246.037.681.681,0,0,0,.515-.2.722.722,0,0,0,.195-.521.69.69,0,0,0-.2-.524.906.906,0,0,0-.638-.191h-.84l.205-1.537h1.74v.379h-1.4l-.108.8Z" transform="translate(-490.056 -540.142)" fill="#990831"/>
        </g>
        <g id="Grupo_16125" data-name="Grupo 16125" transform="translate(3.591 100.079)">
          <path id="Trazado_25256" data-name="Trazado 25256" d="M492.3,567.586a1.117,1.117,0,0,1-.151.6,1.066,1.066,0,0,1-.417.406,1.2,1.2,0,0,1-.575.141,1.158,1.158,0,0,1-.826-.312,1.055,1.055,0,0,1-.333-.805,1.312,1.312,0,0,1,.288-.8l1.111-1.443h.481l-.922,1.163a1.066,1.066,0,0,1,.8.088,1.018,1.018,0,0,1,.389.381A1.136,1.136,0,0,1,492.3,567.586Zm-1.154.764a.769.769,0,1,0-.007-1.537.711.711,0,0,0-.542.228.76.76,0,0,0-.21.555.736.736,0,0,0,.213.554A.758.758,0,0,0,491.149,568.349Z" transform="translate(-490.001 -565.371)" fill="#990831"/>
        </g>
        <g id="Grupo_16126" data-name="Grupo 16126" transform="translate(3.606 119.726)">
          <path id="Trazado_25257" data-name="Trazado 25257" d="M490.021,590.715h2.27v.342l-1.622,2.978H490.2l1.636-2.943h-1.818Z" transform="translate(-490.021 -590.715)" fill="#990831"/>
        </g>
        <g id="Grupo_16127" data-name="Grupo 16127" transform="translate(0 1.514)">
          <path id="Trazado_25258" data-name="Trazado 25258" d="M485.369,438.655v-.433h2.171v.433Z" transform="translate(-485.369 -438.222)" fill="#990831"/>
        </g>
        <g id="Grupo_16128" data-name="Grupo 16128" transform="translate(0 21.074)">
          <path id="Trazado_25259" data-name="Trazado 25259" d="M485.369,463.887v-.433h2.171v.433Z" transform="translate(-485.369 -463.454)" fill="#990831"/>
        </g>
        <g id="Grupo_16129" data-name="Grupo 16129" transform="translate(0 40.164)">
          <path id="Trazado_25260" data-name="Trazado 25260" d="M485.369,488.513v-.433h2.171v.433Z" transform="translate(-485.369 -488.081)" fill="#990831"/>
        </g>
        <g id="Grupo_16130" data-name="Grupo 16130" transform="translate(0 62.162)">
          <path id="Trazado_25261" data-name="Trazado 25261" d="M485.369,516.891v-.433h2.171v.433Z" transform="translate(-485.369 -516.458)" fill="#990831"/>
        </g>
        <g id="Grupo_16131" data-name="Grupo 16131" transform="translate(0 81.984)">
          <path id="Trazado_25262" data-name="Trazado 25262" d="M485.369,542.461v-.433h2.171v.433Z" transform="translate(-485.369 -542.028)" fill="#990831"/>
        </g>
        <g id="Grupo_16132" data-name="Grupo 16132" transform="translate(0 101.982)">
          <path id="Trazado_25263" data-name="Trazado 25263" d="M485.369,568.257v-.432h2.171v.432Z" transform="translate(-485.369 -567.825)" fill="#990831"/>
        </g>
        <g id="Grupo_16133" data-name="Grupo 16133" transform="translate(0 121.169)">
          <path id="Trazado_25264" data-name="Trazado 25264" d="M485.369,593.01v-.433h2.171v.433Z" transform="translate(-485.369 -592.577)" fill="#990831"/>
        </g>
      </g>
    </g>
  </g>
</svg>
