<svg xmlns="http://www.w3.org/2000/svg" xmlns:xlink="http://www.w3.org/1999/xlink" width="308" height="194" viewBox="0 0 308 194">
  <defs>
    <clipPath id="clip-path">
      <path id="Trazado_25125" data-name="Trazado 25125" d="M869.087,1146.287c-11.641-8.263-23.748-14.854-36.759-17.708q-.767,2.173-1.554,4.341c-6.965,5.741-17.4.374-23.231-5.137-.029-.03-.051-.061-.077-.09-.629.068-1.256.149-1.881.233,0-.112-.006-.224-.006-.336-18.032,1.666-33.608,10.947-48.142,23.084-15.95,13.32-28.62,30.085-40.646,47.032a71.866,71.866,0,0,0,16.873,18.331c1.382,1.057,17.076-13.859,31.169-27.733q-2.921,23.523-5.838,47.044c15.208.06,29.6.82,43.876,1.676,1.1-.464,2.207-.9,3.318-1.337,2.569-1.014,5.2-2.142,7.067-4.255a1.4,1.4,0,0,1,2.17,0c2.08,2.183,3.938,4.581,6.078,6.707,12.581.724,25.314,1.318,38.681,1.37q-.312-17.673-.882-35.341c-.243-7.548-.419-16.423-1.3-25.415,16.387,13.913,38.418,32.164,39.909,30.828a71.89,71.89,0,0,0,15.382-19.6C899.981,1174.033,886.033,1158.314,869.087,1146.287Z" transform="translate(-716.792 -1127.589)" fill="none"/>
    </clipPath>
  </defs>
  <g id="Grupo_16511" data-name="Grupo 16511" transform="translate(-3929 -1204)">
    <g id="Grupo_16506" data-name="Grupo 16506">
      <rect id="Rectángulo_4085" data-name="Rectángulo 4085" width="308" height="194" transform="translate(3929 1204)" fill="none"/>
      <g id="Grupo_16502" data-name="Grupo 16502" transform="translate(3260.988 116.355)">
        <path id="Trazado_25113" data-name="Trazado 25113" d="M736.227,1126.624c12.5-9.291,27.343-9.277,40-5.522s24.079,10.825,36.7,14.685c17.289,5.285,36.68,4.329,55.307-2.725,10.5-3.975,21.868-13.2,33.89-11.234,17.37,2.834,15.944,25.547,15.232,38.7-1.333,24.641-15.01,49.4-32.807,65.591s-39.2,24.588-59.948,27.881c-11.032,1.752-22.069,2.156-32.577.3-26.52-4.672-54.812-20.17-69.729-43.484C706.148,1185.572,711.417,1145.068,736.227,1126.624Z" transform="translate(0.02 3.684)" fill="#f8f3ff"/>
        <g id="Grupo_16002" data-name="Grupo 16002" transform="translate(713.012 1133.258)">
          <path id="Trazado_25114" data-name="Trazado 25114" d="M821.02,1130.22c-.166.24-.327.483-.509.715-6.823,8.728-18.743,2.855-25.129-3.183-.029-.03-.051-.06-.077-.09A52.622,52.622,0,0,0,778,1132.317c-15.635,7.535-20.913,20.423-23.019,37.356q-4.079,32.821-8.145,65.644c15.208.06,29.6.82,43.875,1.676,1.1-.464,2.207-.9,3.318-1.337,2.569-1.014,5.2-2.142,7.067-4.255a1.4,1.4,0,0,1,2.17,0c2.081,2.183,3.938,4.581,6.078,6.707,12.581.724,25.314,1.318,38.681,1.37q-.312-17.673-.882-35.341C846.358,1179.789,846.3,1141.642,821.02,1130.22Z" transform="translate(-699.321 -1125.965)" fill="#7c84c6"/>
          <path id="Trazado_25115" data-name="Trazado 25115" d="M806.472,1139.052a70.49,70.49,0,0,1-.892-11.463c-18.032,1.666-33.608,10.947-48.142,23.084-15.95,13.32-28.62,30.085-40.646,47.032a71.866,71.866,0,0,0,16.873,18.331c2.426,1.853,48.937-45.491,53.5-50.054,6.041-6.041,10.2-12.411,15.815-18.785.7-.79,2.2-2.641,4.089-4.89Q806.732,1140.682,806.472,1139.052Z" transform="translate(-711.482 -1125.995)" fill="#7c84c6"/>
          <path id="Trazado_25116" data-name="Trazado 25116" d="M837.932,1146c-11.641-8.263-23.748-14.854-36.759-17.709-2.3,6.5-4.682,12.986-7.412,19.317,5.383,5.428,9.79,10.907,15.738,15.986,4.907,4.191,54.99,47.739,57.263,45.7a71.89,71.89,0,0,0,15.382-19.6C868.826,1173.748,854.877,1158.03,837.932,1146Z" transform="translate(-680.327 -1125.71)" fill="#7c84c6"/>
          <path id="Trazado_25117" data-name="Trazado 25117" d="M866.561,1173.323c-1.4-1.559-4.081-4.764-6.208-5.26-2.656-.618-4.853,2.287-6.795,3.988a117.631,117.631,0,0,0-13.5,13.975c-.781.955-1.592,2.069-1.44,3.294a4.744,4.744,0,0,0,2.065,2.807q1.934,1.57,3.869,3.143a6.83,6.83,0,0,0,3.106,1.719c4.332.663,9-6.573,11.893-9.194,3.433-3.116,8.79-7.982,7.85-13.213a2.033,2.033,0,0,0-.548-.933C866.753,1173.541,866.658,1173.431,866.561,1173.323Z" transform="translate(-662.178 -1109.646)" fill="#e5e5e5"/>
          <path id="Trazado_25118" data-name="Trazado 25118" d="M731.925,1179.954c-3.027-2.307-10.244-10.447-13.423-6q-2.24,3.131-4.258,6.414c-.825,1.342-1.643,2.981-1,4.418a5.008,5.008,0,0,0,1.687,1.8q7.588,5.767,15.174,11.533a10.99,10.99,0,0,0,2.246,1.437c5.2,2.241,11.226-5.528,12.861-9.6C740.662,1186.763,736.341,1183.32,731.925,1179.954Z" transform="translate(-713.012 -1107.756)" fill="#e5e5e5"/>
          <g id="Grupo_16001" data-name="Grupo 16001" transform="translate(5.31 1.594)">
            <g id="Grupo_16000" data-name="Grupo 16000" clip-path="url(#clip-path)">
              <g id="Grupo_15999" data-name="Grupo 15999" transform="translate(25.148 -5.078)">
                <path id="Trazado_25119" data-name="Trazado 25119" d="M756.026,1204.064c2.148-2.5,5.51-3.6,7.965-5.8,3.679-3.291,4.816-8.475,6.267-13.193s3.931-9.8,8.633-11.3c1.705-.545,3.783-.458,5.025.831,1.738,1.807.952,4.8-.249,7-3.631,6.646-10.1,11.782-12.071,19.094-.847,3.147-.812,6.573-2.332,9.454-2.08,3.943-8.453,7.28-12.98,6.243C751.011,1215.186,753.464,1207.045,756.026,1204.064Z" transform="translate(-727.218 -1103.947)" fill="#8ba8bb"/>
                <path id="Trazado_25120" data-name="Trazado 25120" d="M813.711,1165.713a5.683,5.683,0,0,1,5.137-2.734,4.648,4.648,0,0,1,4.175,3.827,8.094,8.094,0,0,1-1.143,4.419,60.6,60.6,0,0,1-6.071,10.4c-1.711,2.253-3.7,4.335-4.955,6.868-1.191,2.4-1.676,5.1-2.873,7.494-5.185,10.373-16.958-.771-11.466-9.147,2.807-4.28,6.719-6.795,10.881-9.472C812.33,1174.191,810.984,1170.136,813.711,1165.713Z" transform="translate(-710.247 -1108.193)" fill="#8ba8bb"/>
                <path id="Trazado_25121" data-name="Trazado 25121" d="M843.45,1155.518c-2.506,2.829-5.663,5.08-7.841,8.169a16.838,16.838,0,0,0-2.5,13.722,2.777,2.777,0,0,0,1.076,1.809,2.526,2.526,0,0,0,1.4.249c3.029-.143,5.692-2.031,7.891-4.12s4.167-4.48,6.753-6.063c1.717-1.051,3.7-1.741,5.109-3.176,2.194-2.231,2.475-5.822,1.51-8.8-.723-2.231-4.348-9.568-6.992-9.925C846.809,1146.973,845.18,1153.563,843.45,1155.518Z" transform="translate(-695.066 -1114.506)" fill="#8ba8bb"/>
                <path id="Trazado_25122" data-name="Trazado 25122" d="M817.389,1141.6c3.123-.444,7,.289,8.124,3.235,1.033,2.7-.909,5.657-3.183,7.447-3.613,2.843-8.254,4.25-11.591,7.412-2.71,2.566-4.32,6.064-6.626,9s-5.88,5.441-9.534,4.678c-3.444-.719-5.778-4.294-5.92-7.81-.261-6.489,5.469-13.348,10.808-16.5C804.674,1145.991,811.423,1142.449,817.389,1141.6Z" transform="translate(-712.853 -1116.887)" fill="#8ba8bb"/>
                <path id="Trazado_25123" data-name="Trazado 25123" d="M762.584,1137.447a30.3,30.3,0,0,0-5.545,6.535,10.061,10.061,0,0,0-1.062,8.264c1,2.687,3.957,4.715,6.746,4.044,1.909-.459,3.349-1.986,4.671-3.44l11.361-12.5c2.713-2.985,5.623-6.631,4.828-10.585-.881-4.38-6.9-7.518-10.728-4.745-1.547,1.122-2.4,3.568-3.516,5.084A61.975,61.975,0,0,1,762.584,1137.447Z" transform="translate(-726.273 -1123.974)" fill="#8ba8bb"/>
                <path id="Trazado_25124" data-name="Trazado 25124" d="M737.162,1160.073c1.048-1.639,2.2-3.245,4.126-3.873a3.208,3.208,0,0,1,3,.395c1.087.9,1.152,2.56.8,3.926a21.408,21.408,0,0,0-1.1,4.077c-.129,2.423,1.943,5.172,2.947,7.313,1.207,2.574,2.1,5.359.733,8.068-1.441,2.863-4.1,2.986-6.763,1.591C733.693,1177.8,733.206,1166.26,737.162,1160.073Z" transform="translate(-734.694 -1111.009)" fill="#8ba8bb"/>
              </g>
            </g>
          </g>
          <path id="Trazado_25126" data-name="Trazado 25126" d="M795.382,1130.8a41.781,41.781,0,0,1-15.995-3.655c2,3.328,2.979,7.235,5.035,10.565,1.16,1.88,2.217,3.817,3.251,5.766.114.145.242.277.348.427a18.517,18.517,0,0,1,2.135,4.248c.834,1.541,2.1,12.709,3.026,14.2,3.065-8.343,6.449-25.274,11.945-32.906A34.542,34.542,0,0,1,795.382,1130.8Z" transform="translate(-686.145 -1126.174)"/>
          <path id="Trazado_25127" data-name="Trazado 25127" d="M846.888,1235.043c-7.254.222-14.583.344-21.83-.116-3.829-.243-8.287-.916-11.286-3.492-3.026-2.6-3.109-6.139-3.268-9.821-.215-4.977-.274-9.967-.27-14.948q.01-14.951,1.15-29.872l3.411-4.89a17.947,17.947,0,0,0,3.117-5.932,1.621,1.621,0,0,0,.032-.846,1.5,1.5,0,0,0-.683-.754c-2.187-1.394-5.073-.833-7.549-1.6-.223-.07-.495-.236-.434-.464.037-.139.185-.214.318-.27a41.468,41.468,0,0,1,6.375-2.271l10.036-2.51c2.1-.526,2.3-1.844,2.262-3.8-.076-4.269-1.325-8.805-2.054-13.007-.249-1.437-1.1-11.862-2.089-12.261a30.607,30.607,0,0,0-4.609-1.451c-.452-.1-.909-.2-1.367-.282-3.313,8.339-7.576,19.979-12.113,27.76-.555.952-.629-1.887-1.107-3.095-1.961-4.967-3.8-9.987-5.431-15.073-.681-2.13-1.061-6.239-2.04-8.323-2.2-.132-4.4-.388-6.6-.6-2.045,9.6-4.327,20.344-6.143,29.984-.19,1-.323,2.176.386,2.905.747.77,2.5.8,3.5.9l8.406.806a5.462,5.462,0,0,1,3.126.968c-1.7.818-3.616.951-5.295,1.877a2.859,2.859,0,0,0-1.138.955c-.548.921-.051,2.094.5,3.015,1.545,2.582,3.519,4.969,4.723,7.694q-.721,16.767-1.233,33.542c-.225,7.365,1.849,18.411-6.67,21.541-4.466,1.639-9.364,1.5-14.042,1.389-9.232-.346-18.463-.879-27.692-1.322-4.484-.215-4.183,6.76.274,6.973,11.675.559,23.943,2.262,35.613,1.285a34.855,34.855,0,0,0,4.071-.591c4.6-.947,8.069-.229,11.729-3.792,11.9,9.719,31.909,7.207,46.188,6.768C851.651,1241.878,851.38,1234.906,846.888,1235.043Z" transform="translate(-699.632 -1126.454)" fill="#e5e5e5"/>
          <path id="Trazado_25128" data-name="Trazado 25128" d="M750.621,1177.707A113.854,113.854,0,0,1,767,1155.4" transform="translate(-697.789 -1114.739)" fill="none" stroke="#8ba8bb" stroke-miterlimit="10" stroke-width="1"/>
          <path id="Trazado_25129" data-name="Trazado 25129" d="M821.485,1169.5c.393-.212.143-.811-.146-1.152l-14.105-16.7" transform="translate(-674.873 -1116.257)" fill="none" stroke="#8ba8bb" stroke-miterlimit="10" stroke-width="1"/>
          <path id="Trazado_25130" data-name="Trazado 25130" d="M785.909,1230.8q2.073-46.381,4.145-92.76" transform="translate(-683.505 -1121.765)" fill="none" stroke="#000" stroke-miterlimit="10" stroke-width="1"/>
        </g>
        <g id="Grupo_16006" data-name="Grupo 16006" transform="translate(918.966 1123.801)">
          <g id="Grupo_16003" data-name="Grupo 16003" transform="translate(5.042 1.523)">
            <rect id="Rectángulo_3892" data-name="Rectángulo 3892" width="1.405" height="129.336" fill="#de5954"/>
          </g>
          <g id="Grupo_16005" data-name="Grupo 16005">
            <g id="Grupo_16004" data-name="Grupo 16004">
              <path id="Trazado_25131" data-name="Trazado 25131" d="M871.111,1125.9l-1.029.958-4.715-5.074-4.716,5.074-1.029-.958,5.745-6.178Z" transform="translate(-859.622 -1119.722)" fill="#de5954"/>
            </g>
          </g>
        </g>
        <g id="Grupo_16010" data-name="Grupo 16010" transform="translate(765.844 1109.645)">
          <g id="Grupo_16007" data-name="Grupo 16007" transform="translate(0 5.041)">
            <rect id="Rectángulo_3893" data-name="Rectángulo 3893" width="129.336" height="1.405" fill="#de5954"/>
          </g>
          <g id="Grupo_16009" data-name="Grupo 16009" transform="translate(123.723)">
            <g id="Grupo_16008" data-name="Grupo 16008">
              <path id="Trazado_25132" data-name="Trazado 25132" d="M839.653,1121.134l-.958-1.029,5.074-4.715-5.074-4.716.958-1.029,6.178,5.745Z" transform="translate(-838.694 -1109.645)" fill="#de5954"/>
            </g>
          </g>
        </g>
      </g>
    </g>
  </g>
</svg>
