<svg xmlns="http://www.w3.org/2000/svg" width="344.322" height="192.592" viewBox="0 0 344.322 192.592">
  <g id="Grupo_16052" data-name="Grupo 16052" transform="translate(461 -1108.241)">
    <path id="Trazado_25218" data-name="Trazado 25218" d="M5.544,13.328a2.138,2.138,0,0,1,1.579-.656,2.183,2.183,0,0,1,1.593.656,2.236,2.236,0,0,1,0,3.179,2.2,2.2,0,0,1-1.593.649,2.248,2.248,0,0,1-1.579-3.828Zm3.22,5.715V20.52a3.273,3.273,0,0,1-.335,1.531A3.062,3.062,0,0,1,7.561,23.1a9.585,9.585,0,0,1-1.463.868,2.958,2.958,0,0,0-1.7,2.871,2.84,2.84,0,0,0,.779,2.153,2.844,2.844,0,0,0,2.051.745A2.8,2.8,0,0,0,9.3,28.962a2.732,2.732,0,0,0,.779-2.03,5.369,5.369,0,0,0-.164-1.2l3.527.451a9.028,9.028,0,0,1,.068,1.025,5.455,5.455,0,0,1-1.723,4.17,6.315,6.315,0,0,1-4.5,1.613,6.5,6.5,0,0,1-4.58-1.647A5.7,5.7,0,0,1,.916,26.932a6.5,6.5,0,0,1,.3-2.037,4.618,4.618,0,0,1,.82-1.538,5.62,5.62,0,0,1,1.1-1.025A5.855,5.855,0,0,1,4.4,21.668a2.133,2.133,0,0,0,.9-.608,1.485,1.485,0,0,0,.287-.95V19.043ZM36.736,27.82l-3.418,1.3-2.529-2.844a11.206,11.206,0,0,1-4.758,1,10.957,10.957,0,0,1-5.243-1.237,9.058,9.058,0,0,1-3.65-3.562A10.58,10.58,0,0,1,15.8,17.115a10.57,10.57,0,0,1,1.333-5.366A9.035,9.035,0,0,1,20.781,8.2a11,11,0,0,1,5.25-1.23,11,11,0,0,1,5.25,1.23,9.035,9.035,0,0,1,3.644,3.548,10.57,10.57,0,0,1,1.333,5.366,9.947,9.947,0,0,1-2.625,7.123ZM19.893,17.115a6.606,6.606,0,0,0,1.723,4.833,5.917,5.917,0,0,0,4.416,1.757,5.917,5.917,0,0,0,4.416-1.757,6.606,6.606,0,0,0,1.723-4.833,6.254,6.254,0,0,0-1.736-4.648,5.991,5.991,0,0,0-4.4-1.723,5.991,5.991,0,0,0-4.4,1.723A6.254,6.254,0,0,0,19.893,17.115Zm29.135-4.17h3.938V27H49.232l-.1-1.7a5.367,5.367,0,0,1-4.471,1.969,5.479,5.479,0,0,1-3.883-1.265,4.689,4.689,0,0,1-1.354-3.6V12.945h3.951v8.613a2.429,2.429,0,0,0,.7,1.928,2.673,2.673,0,0,0,1.825.615,3.17,3.17,0,0,0,2.235-.8,3.436,3.436,0,0,0,.882-2.6Zm18.7-5.633-3.1,3.664h-2.42l3.582-5.031ZM70.26,19.768l-.041.943H59.8a3.639,3.639,0,0,0,1.121,2.57,3.585,3.585,0,0,0,2.475.889,3.455,3.455,0,0,0,1.853-.485,2.983,2.983,0,0,0,1.183-1.415l3.609.533A6.136,6.136,0,0,1,67.58,26.1a7.317,7.317,0,0,1-4.156,1.176,7.609,7.609,0,0,1-5.476-1.935,7.059,7.059,0,0,1-2.03-5.366,7.1,7.1,0,0,1,2.037-5.366A7.383,7.383,0,0,1,63.3,12.645a7.055,7.055,0,0,1,5.045,1.791A7.026,7.026,0,0,1,70.26,19.768Zm-6.932-4.334a3.111,3.111,0,0,0-3.418,2.707h6.453a2.96,2.96,0,0,0-.971-2.01A3.077,3.077,0,0,0,63.328,15.434Zm30.42,4.334-.041.943H83.289a3.639,3.639,0,0,0,1.121,2.57,3.585,3.585,0,0,0,2.475.889,3.455,3.455,0,0,0,1.853-.485A2.983,2.983,0,0,0,89.92,22.27l3.609.533A6.136,6.136,0,0,1,91.068,26.1a7.317,7.317,0,0,1-4.156,1.176,7.609,7.609,0,0,1-5.476-1.935,7.059,7.059,0,0,1-2.03-5.366,7.1,7.1,0,0,1,2.037-5.366,7.383,7.383,0,0,1,5.346-1.962,7.055,7.055,0,0,1,5.045,1.791A7.026,7.026,0,0,1,93.748,19.768Zm-6.932-4.334A3.111,3.111,0,0,0,83.4,18.141h6.453a2.96,2.96,0,0,0-.971-2.01A3.077,3.077,0,0,0,86.816,15.434Zm14.875,11.84a7.855,7.855,0,0,1-4.1-.984,4.161,4.161,0,0,1-2.01-2.926l3.295-.93a2.648,2.648,0,0,0,2.816,2.092,2.909,2.909,0,0,0,1.436-.321,1.118,1.118,0,0,0,.561-1.087,1.15,1.15,0,0,0-.232-.725,1.841,1.841,0,0,0-.718-.52,8.942,8.942,0,0,0-.957-.369q-.472-.15-1.251-.362t-1.3-.4a8.7,8.7,0,0,1-1.237-.526,5.277,5.277,0,0,1-1.025-.725,2.921,2.921,0,0,1-.766-1.1,3.97,3.97,0,0,1-.267-1.5,3.591,3.591,0,0,1,1.524-3.145,6.811,6.811,0,0,1,3.985-1.066,6.983,6.983,0,0,1,3.678.9,4.084,4.084,0,0,1,1.887,2.816l-3.049.684a2.388,2.388,0,0,0-2.5-1.777,2.74,2.74,0,0,0-1.381.314,1.01,1.01,0,0,0-.547.93,1.065,1.065,0,0,0,.082.424.839.839,0,0,0,.287.342,4.188,4.188,0,0,0,.4.26,2.991,2.991,0,0,0,.561.226q.369.116.615.178t.718.185l.731.191q.752.205,1.319.41a7.727,7.727,0,0,1,1.21.574,4.343,4.343,0,0,1,1.06.827,3.689,3.689,0,0,1,.69,1.162,4.292,4.292,0,0,1,.273,1.565A4.228,4.228,0,0,1,107,24.922a3.541,3.541,0,0,1-1.292,1.374,6.288,6.288,0,0,1-1.825.738A9.468,9.468,0,0,1,101.691,27.273ZM15.258,53.368l-.041.943H4.8a3.639,3.639,0,0,0,1.121,2.57,3.585,3.585,0,0,0,2.475.889,3.455,3.455,0,0,0,1.853-.485A2.983,2.983,0,0,0,11.43,55.87l3.609.533A6.136,6.136,0,0,1,12.578,59.7a7.317,7.317,0,0,1-4.156,1.176,7.609,7.609,0,0,1-5.476-1.935,7.059,7.059,0,0,1-2.03-5.366,7.1,7.1,0,0,1,2.037-5.366A7.383,7.383,0,0,1,8.3,46.245a7.055,7.055,0,0,1,5.045,1.791A7.026,7.026,0,0,1,15.258,53.368ZM8.326,49.034a3.111,3.111,0,0,0-3.418,2.707h6.453a2.96,2.96,0,0,0-.971-2.01A3.077,3.077,0,0,0,8.326,49.034ZM18.252,60.6v-21H22.23v21ZM46.8,53.368l-.041.943H36.34a3.639,3.639,0,0,0,1.121,2.57,3.585,3.585,0,0,0,2.475.889,3.455,3.455,0,0,0,1.853-.485,2.983,2.983,0,0,0,1.183-1.415l3.609.533A6.136,6.136,0,0,1,44.119,59.7a7.317,7.317,0,0,1-4.156,1.176,7.609,7.609,0,0,1-5.476-1.935,7.059,7.059,0,0,1-2.03-5.366,7.1,7.1,0,0,1,2.037-5.366,7.383,7.383,0,0,1,5.346-1.962A6.434,6.434,0,0,1,46.8,53.368Zm-6.932-4.334a3.111,3.111,0,0,0-3.418,2.707H42.9a2.96,2.96,0,0,0-.971-2.01A3.077,3.077,0,0,0,39.867,49.034Zm14.875,11.84a7.855,7.855,0,0,1-4.1-.984,4.161,4.161,0,0,1-2.01-2.926l3.295-.93a2.648,2.648,0,0,0,2.816,2.092,2.909,2.909,0,0,0,1.436-.321,1.118,1.118,0,0,0,.561-1.087,1.15,1.15,0,0,0-.232-.725,1.841,1.841,0,0,0-.718-.52,8.943,8.943,0,0,0-.957-.369q-.472-.15-1.251-.362t-1.3-.4a8.7,8.7,0,0,1-1.237-.526,5.278,5.278,0,0,1-1.025-.725,2.921,2.921,0,0,1-.766-1.1,3.97,3.97,0,0,1-.267-1.5,3.591,3.591,0,0,1,1.524-3.145A6.811,6.811,0,0,1,54.5,46.272a6.983,6.983,0,0,1,3.678.9,4.084,4.084,0,0,1,1.887,2.816l-3.049.684a2.388,2.388,0,0,0-2.5-1.777,2.74,2.74,0,0,0-1.381.314,1.01,1.01,0,0,0-.547.93,1.065,1.065,0,0,0,.082.424.839.839,0,0,0,.287.342,4.187,4.187,0,0,0,.4.26,2.991,2.991,0,0,0,.561.226q.369.116.615.178t.718.185l.731.191q.752.205,1.319.41a7.727,7.727,0,0,1,1.21.574,4.343,4.343,0,0,1,1.06.827,3.689,3.689,0,0,1,.69,1.162,4.292,4.292,0,0,1,.273,1.565,4.228,4.228,0,0,1-.472,2.037A3.541,3.541,0,0,1,58.762,59.9a6.288,6.288,0,0,1-1.825.738A9.468,9.468,0,0,1,54.742,60.873Zm14.971-.014a7.509,7.509,0,0,1-5.428-2.023,6.989,6.989,0,0,1-2.105-5.277,6.973,6.973,0,0,1,2.1-5.277,8.344,8.344,0,0,1,9.987-.656,6.043,6.043,0,0,1,2.352,3.814l-3.637.4A3.116,3.116,0,0,0,71.8,49.991a3.575,3.575,0,0,0-2.133-.615,3.224,3.224,0,0,0-2.57,1.148,5.161,5.161,0,0,0,0,6.063,3.216,3.216,0,0,0,2.57,1.155,3.544,3.544,0,0,0,2.126-.615,3.188,3.188,0,0,0,1.183-1.846l3.637.4a6.059,6.059,0,0,1-2.372,3.814A7.458,7.458,0,0,1,69.713,60.86Zm21.232-4.074a13.148,13.148,0,0,0,.342,3.432V60.6H87.609l-.314-1.531a4.57,4.57,0,0,1-1.969,1.354,7.256,7.256,0,0,1-2.543.451,6.687,6.687,0,0,1-1.312-.123,4.462,4.462,0,0,1-1.183-.417,3.589,3.589,0,0,1-.978-.731,3.208,3.208,0,0,1-.656-1.114,4.439,4.439,0,0,1-.246-1.524,4.227,4.227,0,0,1,.26-1.524,3.573,3.573,0,0,1,.684-1.142,4.147,4.147,0,0,1,1.107-.834,8.473,8.473,0,0,1,1.395-.6,16.662,16.662,0,0,1,1.668-.437l2.311-.52a2.548,2.548,0,0,0,1.046-.444.886.886,0,0,0,.308-.7A1.45,1.45,0,0,0,86.5,49.4a3.224,3.224,0,0,0-1.675-.41q-2.42,0-2.748,2.146l-3.486-.629A4.719,4.719,0,0,1,80.623,47.3a8.1,8.1,0,0,1,4.416-1.032q5.906,0,5.906,5.072Zm-6.932,1.422a3.167,3.167,0,0,0,2.434-1.019,4.292,4.292,0,0,0,.943-3.015l-3.336.943a3.942,3.942,0,0,0-1.4.574,1.179,1.179,0,0,0-.485,1.012,1.309,1.309,0,0,0,.52,1.114A2.15,2.15,0,0,0,84.014,58.207ZM94.773,60.6v-21h3.979v21Zm19.578-3.814a13.148,13.148,0,0,0,.342,3.432V60.6h-3.678l-.314-1.531a4.57,4.57,0,0,1-1.969,1.354,7.256,7.256,0,0,1-2.543.451,6.687,6.687,0,0,1-1.312-.123,4.462,4.462,0,0,1-1.183-.417,3.589,3.589,0,0,1-.978-.731,3.208,3.208,0,0,1-.656-1.114,4.439,4.439,0,0,1-.246-1.524,4.227,4.227,0,0,1,.26-1.524,3.573,3.573,0,0,1,.684-1.142,4.147,4.147,0,0,1,1.107-.834,8.473,8.473,0,0,1,1.395-.6,16.662,16.662,0,0,1,1.668-.437l2.311-.52a2.548,2.548,0,0,0,1.046-.444.886.886,0,0,0,.308-.7,1.45,1.45,0,0,0-.69-1.354,3.224,3.224,0,0,0-1.675-.41q-2.42,0-2.748,2.146l-3.486-.629a4.719,4.719,0,0,1,2.037-3.206,8.1,8.1,0,0,1,4.416-1.032q5.906,0,5.906,5.072Zm-6.932,1.422a3.167,3.167,0,0,0,2.434-1.019,4.292,4.292,0,0,0,.943-3.015l-3.336.943a3.942,3.942,0,0,0-1.4.574,1.179,1.179,0,0,0-.485,1.012,1.309,1.309,0,0,0,.52,1.114A2.15,2.15,0,0,0,107.42,58.207ZM127.832,39.6h3.938v21h-3.732l-.1-1.832a4.014,4.014,0,0,1-1.784,1.593,6.006,6.006,0,0,1-2.632.567,6.836,6.836,0,0,1-2.625-.506,6.322,6.322,0,0,1-3.609-3.746,8.548,8.548,0,0,1-.533-3.076,7.99,7.99,0,0,1,.93-3.917,6.37,6.37,0,0,1,2.454-2.55,6.758,6.758,0,0,1,3.384-.861,6.156,6.156,0,0,1,2.55.513,3.981,3.981,0,0,1,1.757,1.456Zm-3.4,18.061a3.505,3.505,0,0,0,2.659-1.121,4.605,4.605,0,0,0-.007-5.886,3.5,3.5,0,0,0-2.652-1.128,3.542,3.542,0,0,0-2.673,1.107,4.664,4.664,0,0,0,0,5.92A3.542,3.542,0,0,0,124.428,57.661Zm17.965,3.213a8.838,8.838,0,0,1-3.979-.861,6.438,6.438,0,0,1-2.728-2.529,7.538,7.538,0,0,1-.991-3.924,6.875,6.875,0,0,1,2.133-5.332,8.916,8.916,0,0,1,11.143,0,6.875,6.875,0,0,1,2.133,5.332,6.913,6.913,0,0,1-2.133,5.353A7.915,7.915,0,0,1,142.393,60.873Zm-.041-3.131a3.608,3.608,0,0,0,2.782-1.148,4.877,4.877,0,0,0,0-6.07,3.608,3.608,0,0,0-2.782-1.148,3.476,3.476,0,0,0-2.7,1.155,4.907,4.907,0,0,0,0,6.057A3.476,3.476,0,0,0,142.352,57.743Zm14.3-3.24V53.026a3.273,3.273,0,0,1,.335-1.531,3.062,3.062,0,0,1,.868-1.046,9.585,9.585,0,0,1,1.463-.868,2.958,2.958,0,0,0,1.7-2.871,2.639,2.639,0,0,0-2.83-2.9,2.8,2.8,0,0,0-2.064.772,2.732,2.732,0,0,0-.779,2.03,5.369,5.369,0,0,0,.164,1.2l-3.527-.451a9.027,9.027,0,0,1-.068-1.025,5.455,5.455,0,0,1,1.723-4.17,6.315,6.315,0,0,1,4.5-1.613,6.5,6.5,0,0,1,4.58,1.647,5.7,5.7,0,0,1,1.791,4.409,6.505,6.505,0,0,1-.3,2.037,4.617,4.617,0,0,1-.82,1.538,5.62,5.62,0,0,1-1.1,1.025,5.855,5.855,0,0,1-1.265.663,2.133,2.133,0,0,0-.9.608,1.485,1.485,0,0,0-.287.95V54.5Zm3.22,5.715a2.138,2.138,0,0,1-1.579.656,2.183,2.183,0,0,1-1.593-.656,2.236,2.236,0,0,1,0-3.179,2.2,2.2,0,0,1,1.593-.649,2.248,2.248,0,0,1,1.579,3.828Z" transform="translate(-281.178 1173.355)" fill="#673ab7"/>
    <g id="Grupo_16051" data-name="Grupo 16051" transform="translate(-1226.75 298.728)">
      <path id="Trazado_25013" data-name="Trazado 25013" d="M868.73,848.224c7.9,9.914,8.288,21.99,5.577,32.391s-8.152,19.88-10.95,30.255c-3.829,14.207-2.526,29.954,3.719,44.915,3.518,8.431,11.327,17.431,10.058,27.264-1.835,14.206-20.348,13.663-31.065,13.441-20.082-.416-40.593-10.869-54.245-24.906s-21.066-31.218-24.308-48.007a80.571,80.571,0,0,1-1.132-26.492c3.081-21.7,14.92-45.134,33.479-57.9C819.962,825.355,853.053,828.543,868.73,848.224Z" transform="translate(0 -2.412)" fill="#f8f3ff"/>
      <g id="Grupo_15956" data-name="Grupo 15956" transform="translate(837.1 809.513)">
        <g id="Grupo_15954" data-name="Grupo 15954">
          <circle id="Elipse_871" data-name="Elipse 871" cx="3.837" cy="3.837" r="3.837" transform="translate(11.531 26.408)" fill="#f1bb65" opacity="0.61"/>
          <path id="Trazado_25014" data-name="Trazado 25014" d="M865.927,840.648a3.833,3.833,0,0,1-6.2,4.356,3.835,3.835,0,1,0,6.2-4.356Z" transform="translate(-847.79 -813.055)" fill="#f1c782" opacity="0.61"/>
          <rect id="Rect치ngulo_3886" data-name="Rect치ngulo 3886" width="1.045" height="14.321" transform="translate(14.323 0)" fill="#f7e3d9"/>
          <path id="Trazado_25015" data-name="Trazado 25015" d="M863.026,809.513v10.5a1.042,1.042,0,0,1-.607.946v2.872h1.046V809.513Z" transform="translate(-848.096 -809.513)" fill="#f0ddd3"/>
          <path id="Trazado_25016" data-name="Trazado 25016" d="M875.369,841.724a.49.49,0,0,1-.062.066c-.555.5-1.754.192-2.435.167-1.243-.049-2.49-.041-3.734-.056q-3.616-.047-7.232-.058c-4.587-.015-9.174.082-13.762.078-3.858,0-.722-8.48.02-10.048a14.262,14.262,0,0,1,12.94-8.347,14.541,14.541,0,0,1,12.675,7.7,16.792,16.792,0,0,1,1.815,7.3C875.611,839.18,875.829,841.137,875.369,841.724Z" transform="translate(-846.258 -811.107)" fill="#f7e3d9"/>
          <path id="Trazado_25017" data-name="Trazado 25017" d="M875.594,838.635a16.792,16.792,0,0,0-1.815-7.3,14.54,14.54,0,0,0-8.029-6.89,14.136,14.136,0,0,1,3.723,4.5,16.793,16.793,0,0,1,1.815,7.3c.017.65.235,2.606-.225,3.194a.5.5,0,0,1-.062.066c-.555.5-1.754.193-2.435.167-1.243-.048-2.49-.041-3.734-.056q-3.616-.047-7.232-.058c-3.779-.012-7.558.049-11.337.069.051,1.389.549,2.4,1.881,2.4,4.587,0,9.174-.093,13.762-.078q3.616.012,7.232.058c1.243.015,2.49.007,3.734.056.682.026,1.881.334,2.435-.167a.49.49,0,0,0,.062-.066C875.829,841.241,875.611,839.284,875.594,838.635Z" transform="translate(-846.259 -811.211)" fill="#f0ddd3"/>
        </g>
        <g id="Grupo_15955" data-name="Grupo 15955" transform="translate(33.285)">
          <circle id="Elipse_872" data-name="Elipse 872" cx="3.837" cy="3.837" r="3.837" transform="translate(9.942 56.416) rotate(-45)" fill="#f1bb65" opacity="0.61"/>
          <path id="Trazado_25018" data-name="Trazado 25018" d="M903.485,870.178a3.833,3.833,0,0,1-6.2,4.356,3.835,3.835,0,1,0,6.2-4.356Z" transform="translate(-885.347 -816.414)" fill="#f1c782" opacity="0.61"/>
          <rect id="Rect치ngulo_3887" data-name="Rect치ngulo 3887" width="1.046" height="40.493" transform="translate(14.323 0)" fill="#f7e3d9"/>
          <path id="Trazado_25019" data-name="Trazado 25019" d="M900.584,809.513v36.675a1.043,1.043,0,0,1-.607.946v2.872h1.046V809.513Z" transform="translate(-885.654 -809.513)" fill="#f0ddd3"/>
          <path id="Trazado_25020" data-name="Trazado 25020" d="M912.927,871.254a.5.5,0,0,1-.062.066c-.555.5-1.754.193-2.436.167-1.242-.048-2.49-.041-3.734-.056q-3.615-.045-7.231-.058c-4.588-.014-9.174.082-13.762.079-3.859,0-.723-8.481.019-10.049a14.265,14.265,0,0,1,12.941-8.347,14.541,14.541,0,0,1,12.675,7.7,16.793,16.793,0,0,1,1.815,7.3C913.169,868.71,913.386,870.667,912.927,871.254Z" transform="translate(-883.815 -814.466)" fill="#f7e3d9"/>
          <path id="Trazado_25021" data-name="Trazado 25021" d="M913.152,868.165a16.793,16.793,0,0,0-1.815-7.3,14.539,14.539,0,0,0-8.029-6.89,14.137,14.137,0,0,1,3.724,4.5,16.792,16.792,0,0,1,1.815,7.3c.017.65.234,2.606-.225,3.194a.49.49,0,0,1-.062.066c-.555.5-1.754.193-2.435.167-1.243-.048-2.49-.04-3.734-.056q-3.616-.045-7.232-.058c-3.779-.011-7.559.049-11.338.069.051,1.389.549,2.4,1.881,2.4,4.587,0,9.174-.093,13.762-.079q3.616.012,7.231.058c1.243.015,2.491.008,3.734.056.682.027,1.881.334,2.436-.167a.5.5,0,0,0,.062-.066C913.386,870.771,913.169,868.814,913.152,868.165Z" transform="translate(-883.816 -814.57)" fill="#f0ddd3"/>
        </g>
        <path id="Trazado_25022" data-name="Trazado 25022" d="M899.018,875.063l-.257-.09-.128-.044-.044-.13-.087-.257-.084.259-.04.124-.125.038-.261.079.255.092.13.047.042.128.085.259.086-.257.043-.127.127-.04Z" transform="translate(-852.143 -816.91)" fill="#fff"/>
        <path id="Trazado_25023" data-name="Trazado 25023" d="M861.753,845.187l-.257-.09-.128-.044-.044-.13-.087-.257-.084.259-.04.124-.125.038-.261.08.255.092.13.047.042.128.085.259.086-.256.043-.127.127-.04Z" transform="translate(-847.904 -813.512)" fill="#fff"/>
      </g>
      <g id="Grupo_15967" data-name="Grupo 15967" transform="translate(776.341 864.13)">
        <g id="Grupo_15958" data-name="Grupo 15958" transform="translate(1.301 101.151)">
          <path id="Trazado_25024" data-name="Trazado 25024" d="M788,985.574l-3.631-.3c.2,6.423.158,3.3.718,22.973H788.7Z" transform="translate(-779.76 -985.273)" fill="#a568c3"/>
          <path id="Trazado_25025" data-name="Trazado 25025" d="M788.79,1008.276l-.7-22.672-.893-.074.636,12.762a3.551,3.551,0,0,1-2.684,3.5c.019.761.01,5.84.027,6.486Z" transform="translate(-779.848 -985.302)" fill="#a568c3"/>
          <g id="Grupo_15957" data-name="Grupo 15957" transform="translate(0 22.896)">
            <path id="Trazado_25026" data-name="Trazado 25026" d="M793.924,1013.025v-.014c.018-1-.156-1.824-.384-1.825l-13.946-.078c-.22,0-.409.766-.426,1.729h0c-.019,1,.155,1.824.383,1.826l13.946.092C793.718,1014.756,793.907,1013.989,793.924,1013.025Z" transform="translate(-779.167 -1011.108)" fill="#a568c3"/>
            <path id="Trazado_25027" data-name="Trazado 25027" d="M793.544,1011.2h-.212c.016.212.023.442.019.684v.014c-.018.963-.207,1.731-.426,1.73l-13.734-.091c.051.665.191,1.139.364,1.141l13.946.092c.22,0,.409-.766.426-1.73v-.014C793.945,1012.022,793.771,1011.2,793.544,1011.2Z" transform="translate(-779.17 -1011.118)" fill="#a568c3"/>
          </g>
        </g>
        <g id="Grupo_15960" data-name="Grupo 15960" transform="translate(76.045 101.151)">
          <path id="Trazado_25028" data-name="Trazado 25028" d="M872.342,985.574l-3.632-.3c.2,6.423.159,3.3.719,22.973h3.611Z" transform="translate(-864.097 -985.273)" fill="#a568c3"/>
          <path id="Trazado_25029" data-name="Trazado 25029" d="M873.128,1008.276l-.7-22.672-.893-.074.636,12.762a3.552,3.552,0,0,1-2.684,3.5c.019.761.01,5.84.027,6.486Z" transform="translate(-864.185 -985.302)" fill="#a568c3"/>
          <g id="Grupo_15959" data-name="Grupo 15959" transform="translate(0 22.896)">
            <path id="Trazado_25030" data-name="Trazado 25030" d="M878.262,1013.025v-.014c.019-1-.155-1.824-.383-1.825l-13.946-.078c-.221,0-.409.766-.427,1.729h0c-.018,1,.155,1.824.384,1.826l13.946.092C878.055,1014.756,878.244,1013.989,878.262,1013.025Z" transform="translate(-863.505 -1011.108)" fill="#a568c3"/>
            <path id="Trazado_25031" data-name="Trazado 25031" d="M877.882,1011.2h-.212c.016.212.023.442.019.684v.014c-.018.963-.206,1.731-.427,1.73l-13.733-.091c.051.665.191,1.139.364,1.141l13.946.092c.22,0,.409-.766.426-1.73v-.014C878.283,1012.022,878.109,1011.2,877.882,1011.2Z" transform="translate(-863.507 -1011.118)" fill="#a568c3"/>
          </g>
        </g>
        <g id="Grupo_15966" data-name="Grupo 15966">
          <g id="Grupo_15961" data-name="Grupo 15961">
            <path id="Trazado_25032" data-name="Trazado 25032" d="M868.461,980.311a4.37,4.37,0,0,1-1.044,1c-1.386.938-3.19.962-4.874.952l-80.773-.475a4.721,4.721,0,0,1-2.9-.652c-1.087-.84-1.174-2.395-1.17-3.751q.186-47.87.372-95.738c.038-9.733,5.708-10.55,14.508-10.5l72.87.408a4.038,4.038,0,0,1,2.7.669,3.846,3.846,0,0,1,.876,2.96q.386,49.471.771,98.943C869.819,976.255,869.691,978.676,868.461,980.311Z" transform="translate(-777.7 -871.14)" fill="#a568c3"/>
            <path id="Trazado_25033" data-name="Trazado 25033" d="M786.843,977.681a3.648,3.648,0,0,1-3.666-3.624l.356-91.789c.015-3.918,1.107-4.571,1.466-4.787,1.468-.879,4.635-1,7.54-1l.636,0,66.518.372a5.145,5.145,0,0,1,5.169,5.051l.724,92.857c.005.624-.01,1.134-.036,1.551a1.965,1.965,0,0,1-1.975,1.815h-.029Z" transform="translate(-778.323 -871.748)" fill="#fff"/>
          </g>
          <g id="Grupo_15965" data-name="Grupo 15965" transform="translate(12.857 11.051)">
            <path id="Trazado_25034" data-name="Trazado 25034" d="M837.091,911.656l-.017-.005c-2.444-.833-6.381-.14-8.964-.136q-5.121.007-10.24,0c-5.061-.014-8.24,7.039-9.907,11.063-3.858,9.308-5,19.736-5.186,29.735-.03,1.587.022,3.144,1.627,3.975a7.838,7.838,0,0,0,3.661.578q19.239-.065,38.477-.06a4.838,4.838,0,0,0,1.713-.2,3.278,3.278,0,0,0,1.871-2.4c.743-3.245-.055-7.545-.3-10.85a84.508,84.508,0,0,0-1.445-10.923c-1.453-7.027-4.167-13.969-9.195-19.226A5.585,5.585,0,0,0,837.091,911.656Z" transform="translate(-793.409 -886.752)" fill="none" stroke="#f77a77" stroke-miterlimit="10" stroke-width="0.5"/>
            <path id="Trazado_25035" data-name="Trazado 25035" d="M829.1,897.143c-1.388,24.609,3.107,49.3,1.332,73.88" transform="translate(-796.372 -885.148)" fill="none" stroke="#f2aa94" stroke-linecap="round" stroke-linejoin="round" stroke-width="0.75" stroke-dasharray="3"/>
            <path id="Trazado_25036" data-name="Trazado 25036" d="M792.207,937.652c12.9,1.088,25.871-.191,38.806-.819q14.49-.7,29.006-.313" transform="translate(-792.207 -889.612)" fill="none" stroke="#f2aa94" stroke-linecap="round" stroke-linejoin="round" stroke-width="0.75" stroke-dasharray="3"/>
            <g id="Grupo_15964" data-name="Grupo 15964" transform="translate(6.822)">
              <path id="Trazado_25037" data-name="Trazado 25037" d="M803.224,886.291c15.033.406,29.065.609,45.1,1.218" transform="translate(-800.283 -883.914)" fill="none" stroke="#ddd" stroke-miterlimit="10" stroke-width="0.75"/>
              <g id="Grupo_15962" data-name="Grupo 15962">
                <path id="Trazado_25038" data-name="Trazado 25038" d="M799.905,885.908c1.358.912,2.933,1.435,4.179,2.582L803.258,886c.308-.786.528-1.305.9-2.388C803.171,884.27,800.7,885.412,799.905,885.908Z" transform="translate(-799.905 -883.609)" fill="#ddd"/>
              </g>
              <g id="Grupo_15963" data-name="Grupo 15963" transform="translate(46.67 1.076)">
                <path id="Trazado_25039" data-name="Trazado 25039" d="M856.887,887.413a11.154,11.154,0,0,0-1.727.787,12.537,12.537,0,0,0-2.595,1.575l.96-2.444c-.276-.833-.58-1.665-.823-2.507C853.945,886.006,855.607,886.432,856.887,887.413Z" transform="translate(-852.565 -884.823)" fill="#ddd"/>
              </g>
            </g>
            <path id="Trazado_25040" data-name="Trazado 25040" d="M861.091,900.645l.014,73.177c-17.573-.925-41.96.411-61.909.557" transform="translate(-793.002 -885.547)" fill="none" stroke="#ddd" stroke-miterlimit="10" stroke-width="0.5"/>
          </g>
        </g>
      </g>
      <g id="Grupo_15973" data-name="Grupo 15973" transform="translate(855.76 882.011)">
        <g id="Grupo_15971" data-name="Grupo 15971" transform="translate(0 3.112)">
          <g id="Grupo_15968" data-name="Grupo 15968" transform="translate(10.165 61.737)">
            <path id="Trazado_25041" data-name="Trazado 25041" d="M896.063,964.489h-2.968q.689,26.861,1.376,53.724h2.955Z" transform="translate(-880.411 -964.489)" fill="#f0bda3"/>
            <path id="Trazado_25042" data-name="Trazado 25042" d="M897.6,1018.213l-1.363-53.724h-.91l1.25,49.259a2.883,2.883,0,0,1-1.975,2.808q.021.828.043,1.657Z" transform="translate(-880.582 -964.489)" fill="#e3b39a"/>
            <path id="Trazado_25043" data-name="Trazado 25043" d="M910.147,1025v-.012c.039-.83-.33-1.515-.815-1.516l-29.64-.065c-.467,0-.869.636-.907,1.437h0c-.038.83.33,1.515.815,1.516l29.64.077C909.707,1026.436,910.109,1025.8,910.147,1025Z" transform="translate(-878.783 -971.191)" fill="#f0bda3"/>
            <path id="Trazado_25044" data-name="Trazado 25044" d="M909.338,1023.479h-.45a2.41,2.41,0,0,1,.041.569v.012c-.037.8-.44,1.437-.907,1.437l-29.189-.075c.107.551.407.946.774.947l29.64.077c.467,0,.869-.636.907-1.437V1025C910.191,1024.165,909.822,1023.48,909.338,1023.479Z" transform="translate(-878.789 -971.199)" fill="#e3b39a"/>
          </g>
          <g id="Grupo_15970" data-name="Grupo 15970">
            <path id="Trazado_25045" data-name="Trazado 25045" d="M908.391,940.225c-.044-.788-.107-1.4-.136-1.55-.549-2.74-1.817-5.275-2.59-7.95a23.039,23.039,0,0,1-.682-9.379c.416-3.144,1.889-5.775,2.675-8.778,1.679-6.421-1.227-11.86-3.7-17.586-3.317,0-6.538-.131-9.844-.154-.107,0-.213,0-.32,0s-.213,0-.322,0c-3.3.017-6.525.148-9.842.148-.4,0-3.144,7-3.354,7.657-1.522,4.78-.543,8.772,1.006,13.3a22.591,22.591,0,0,1,.321,13.614c-1.2,4.078-5.616,10.981-2.629,15.163h28.807C908.5,944.712,908.491,942.024,908.391,940.225Z" transform="translate(-868.523 -894.828)" fill="#fac5aa"/>
            <path id="Trazado_25046" data-name="Trazado 25046" d="M908.453,940.244c-.044-.788-.107-1.4-.136-1.55-.549-2.739-1.817-5.275-2.59-7.95a23.039,23.039,0,0,1-.682-9.379c.416-3.144,1.889-5.775,2.675-8.778,1.679-6.421-1.227-11.86-3.7-17.586-.45,0-.894-.007-1.341-.011,2.367,5.383,4.873,10.573,3.288,16.639-.785,3-2.26,5.634-2.676,8.778a23.04,23.04,0,0,0,.682,9.379c.773,2.675,2.04,5.21,2.59,7.949.029.145.092.763.136,1.551.1,1.8.1,4.486-.61,4.486H878.5a5.107,5.107,0,0,0,.535.957h28.807C908.557,944.73,908.553,942.042,908.453,940.244Z" transform="translate(-868.586 -894.846)" fill="#f0bda3"/>
            <path id="Trazado_25047" data-name="Trazado 25047" d="M903.546,927.547H881.11s-13.049,6.885-13.8,43.82c-.043,2.123,1.289,3.878,2.957,3.878h44.115c1.667,0,3-1.756,2.957-3.878C916.595,934.432,903.546,927.547,903.546,927.547Z" transform="translate(-867.313 -898.55)" fill="#f3d35a"/>
            <path id="Trazado_25048" data-name="Trazado 25048" d="M903.546,927.547H900.96s12.118,6.366,12.812,40.519c.04,1.963-1.2,3.586-2.746,3.586H870.06a2.987,2.987,0,0,1-2.675-2.718c-.029.8-.054,1.605-.071,2.433-.043,2.123,1.289,3.878,2.957,3.878h44.115c1.667,0,3-1.756,2.957-3.878C916.595,934.432,903.546,927.547,903.546,927.547Z" transform="translate(-867.313 -898.55)" fill="#ddbb50"/>
            <path id="Trazado_25049" data-name="Trazado 25049" d="M883.528,903.455q10.62.13,21.243-.067" transform="translate(-869.157 -895.802)" fill="none" stroke="#f2aa94" stroke-miterlimit="10" stroke-width="1"/>
            <path id="Trazado_25050" data-name="Trazado 25050" d="M883.321,908.806q11.03.183,22.062.157" transform="translate(-869.134 -896.418)" fill="none" stroke="#f2aa94" stroke-miterlimit="10" stroke-width="1"/>
            <path id="Trazado_25051" data-name="Trazado 25051" d="M895.909,897.93q-.322,11.622-.111,23.249" transform="translate(-870.544 -895.181)" fill="none" stroke="#f2aa94" stroke-linecap="round" stroke-linejoin="round" stroke-width="0.75" stroke-dasharray="3"/>
            <path id="Trazado_25052" data-name="Trazado 25052" d="M896.479,930.029v26.115" transform="translate(-870.631 -898.832)" fill="none" stroke="#fff" stroke-linecap="round" stroke-linejoin="round" stroke-width="1" stroke-dasharray="4 2"/>
            <g id="Grupo_15969" data-name="Grupo 15969" transform="translate(9.523 32.385)">
              <path id="Trazado_25053" data-name="Trazado 25053" d="M905.844,931.369c-.046,4.58,2.933,10.108,8.027,10.268" transform="translate(-881.219 -931.369)" fill="none" stroke="#fff" stroke-linecap="round" stroke-linejoin="round" stroke-width="1" stroke-dasharray="4 2"/>
              <path id="Trazado_25054" data-name="Trazado 25054" d="M886.085,931.369c.045,4.56-2.971,10.109-8.027,10.268" transform="translate(-878.058 -931.369)" fill="none" stroke="#fff" stroke-linecap="round" stroke-linejoin="round" stroke-width="1" stroke-dasharray="4 2"/>
            </g>
          </g>
        </g>
        <g id="Grupo_15972" data-name="Grupo 15972" transform="translate(12.985)">
          <path id="Trazado_25055" data-name="Trazado 25055" d="M910.982,926.132a29.576,29.576,0,0,0-5.391-5.949,36,36,0,0,0-6.719-4.469c-2.642-1.367-5.435-2.44-8.006-3.937a15.115,15.115,0,0,1-6.254-6.177c-1.29-2.681-1.265-6.132.631-8.424a8.27,8.27,0,0,1,5.5-2.7c.229-.026.459-.05.688-.063a14.5,14.5,0,0,1,1.82.027c.236,0,.471-.008.707-.009.108-.006.214,0,.322,0s.213,0,.32,0c3.306.023,6.526.154,9.844.154.343.8.695,1.586,1.041,2.372l1.68.382a1.963,1.963,0,0,0-.393-1.938,5.217,5.217,0,0,0-1.668-1.214,25.26,25.26,0,0,0-7.115-2.56,17.667,17.667,0,0,0-4.419-.27,14.036,14.036,0,0,0-7.9,3.215c-2.819,2.38-4.479,5.887-3.341,9.885a11.491,11.491,0,0,0,4.327,5.776,57.106,57.106,0,0,0,6.29,3.78c9.686,5.542,17.882,14.374,20.733,25.162a7.125,7.125,0,0,0,1.47,3.346,1.766,1.766,0,0,0,.505-1.292c.009-.16.009-.322.005-.478A27.388,27.388,0,0,0,910.982,926.132Z" transform="translate(-881.964 -891.316)" fill="#de5954"/>
          <path id="Trazado_25056" data-name="Trazado 25056" d="M893.429,891.843a17.664,17.664,0,0,1,4.419.27,25.072,25.072,0,0,1,6.936,2.469h.039l.011.025c.042.023.086.043.128.066a5.2,5.2,0,0,1,1.669,1.214,2.188,2.188,0,0,1,.505,1.357l.409.093a1.963,1.963,0,0,0-.393-1.938,5.217,5.217,0,0,0-1.668-1.214,25.26,25.26,0,0,0-7.115-2.56,17.667,17.667,0,0,0-4.419-.27,14.036,14.036,0,0,0-7.9,3.215c-.253.214-.495.44-.729.673.07-.061.136-.125.207-.184A14.036,14.036,0,0,1,893.429,891.843Z" transform="translate(-882.346 -891.316)" fill="#de5954"/>
        </g>
      </g>
    </g>
  </g>
</svg>
