<?xml version="1.0" encoding="utf-8"?>
<!-- Generator: Adobe Illustrator 25.2.0, SVG Export Plug-In . SVG Version: 6.00 Build 0)  -->
<svg version="1.1" id="Layer_1" xmlns="http://www.w3.org/2000/svg" xmlns:xlink="http://www.w3.org/1999/xlink" x="0px" y="0px"
	 viewBox="0 0 1024 768" style="enable-background:new 0 0 1024 768;" xml:space="preserve">
<style type="text/css">
	.st0{fill:#BBBDC3;}
	.st1{fill:#DBDBDB;}
	.st2{fill:#D9DDDF;}
	.st3{fill:#FFCF14;}
	.st4{fill:#FD5953;}
	.st5{fill:#B768C6;}
	.st6{fill:#FDD34F;}
	.st7{fill:#001C3B;}
	.st8{fill:#00C4DE;}
	.st9{fill:#FDE090;}
</style>
<g>
	<g>
		<path class="st0" d="M755.6,383.4c0,0-4.9,103.6-5.7,112.4s-2,31.6-2,33.7c0,0,1.7,18.2,1.4,34.4s-3.1,53-4.6,65.9
			s-1.5,24.5,0,32.5s7.6,22.7,4.9,27.3s-10.1,3.7-11.3,7.3s-4.6,22.7-14.1,22.4s-27.6-0.3-24.5-8.6s13.2-13.2,16.5-17.5
			s13.8-18.4,12.6-24.8s-9.2-96.5-8-114.9s0.3-38.6,0.3-38.6s-17-102-14.3-157.8l29-6.7L755.6,383.4z"/>
		<path class="st0" d="M760.9,383.4c0,0,4.9,103.6,5.7,112.4s2,31.6,2,33.7c0,0-1.7,18.2-1.4,34.4s3.1,53,4.6,65.9s1.5,24.5,0,32.5
			s-7.6,22.7-4.9,27.3s10.1,3.7,11.3,7.3s4.6,22.7,14.1,22.4s27.6-0.3,24.5-8.6s-13.2-13.2-16.5-17.5s-13.8-18.4-12.6-24.8
			s9.2-96.5,8-114.9s-0.3-38.6-0.3-38.6s17-102,14.3-157.8l-29-6.7L760.9,383.4z"/>
		<path class="st0" d="M677.2,403.2c0.6,0.7,1.7,0.8,2.5,0.2c0.7-0.6,0.8-1.7,0.2-2.5l0,0c0,0-0.1-0.1-0.1-0.1
			c-2.5-3.1-8.6-11.4-8.9-18.2c-0.1-1.7,1.2-3.2,3-3.3c0.1,0,0.2,0,0.3,0c1.2,0.1,2.3,0.9,2.7,2.1c2,4,1,10,4,9.6s1.4-12,0-20.1
			s-3.8-12.9-2-20.7s14.7-35.1,18.5-51s2.3-19.8,3.4-24.7s8.8-25.3,9.1-31s13.4-40.1,13.4-40.1l-9.5-20.1c0,0-20.1-3.2-24.6,19.4
			s-6.1,53.8-8.1,62.8s-5.7,13.3-11.5,58.4c0,0-3.4,30-5,36.3s-4,14.4-3.1,17.8S662.7,387.6,677.2,403.2z"/>
		<path class="st0" d="M837.7,403.2c-0.7,0.7-1.8,0.7-2.5,0c-0.6-0.6-0.7-1.5-0.2-2.2c0,0,0.1-0.1,0.1-0.1
			c2.5-3.1,8.6-11.4,8.9-18.2c0.1-1.7-1.2-3.2-3-3.3c-0.1,0-0.2,0-0.3,0c-1.2,0.1-2.3,0.9-2.7,2.1c-2,4-1,10-4,9.6s-1.4-12,0-20.1
			s3.8-12.9,2-20.7s-14.7-35.1-18.5-51s-2.3-19.8-3.4-24.7s-8.8-25.3-9.1-31s-13.4-40.1-13.4-40.1l9.4-20.1c0,0,20.1-3.2,24.6,19.4
			s6.1,53.8,8.1,62.8s5.7,13.3,11.5,58.4c0,0,3.4,30,5.1,36.3s4,14.4,3.1,17.8S852.3,387.6,837.7,403.2z"/>
		<path class="st1" d="M776.8,175l25.3,8c0,0-4.5,4.5,5.5,39.4c0,0,0.8,14.7-5.3,38.2c0,0-7.3,25.5-2.2,47.2s9.2,44.9,9.2,48.8
			c0,0-29.2,7.8-47.6,26.8h-6.1c0,0-27.6-22.7-48.8-26.4c0,0,8.6-46.6,10-52.7s3.5-22.1-1.4-41s-6.7-18.8-6.7-36.4
			c0,0,1-11,3.7-18.6s4.7-16.3,1.6-24.9l25.1-9.6L776.8,175z"/>
		<path class="st0" d="M773.7,154.8l3.1,20.2c0,0-5.2,12.5-18.5,12.5S739,173.8,739,173.8l3.6-20.1L773.7,154.8z"/>
		<path class="st2" d="M783.9,114.6c0,0,5.1-2,5.1,5.1s-5.1,12.7-6.4,12"/>
		<path class="st2" d="M733.2,114.6c0,0-5.1-2-5.1,5.1s5.2,12.7,6.5,12"/>
		<path class="st2" d="M733.1,110.5c-0.9,7-0.5,14.1,1.2,21c3,12.4,9.8,32.8,22.9,32.5c18.8-0.4,25.5-25.3,26.6-41.9
			s-1.6-35.9-25.6-35.9C740.1,86.2,734.7,98.3,733.1,110.5z"/>
	</g>
	<path class="st3" d="M757.2,252.2c-1.4,0-2.8,0-4.1,0v-1.7c1.4,0,2.8,0,4.2,0v1.5L757.2,252.2L757.2,252.2z M761.6,252.2v-1.7
		c1.4,0,2.8,0,4.2-0.1v1.7C764.5,252.1,763,252.1,761.6,252.2L761.6,252.2z M748.9,252.1c-1.4,0-2.8-0.1-4.2-0.1l0.1-1.7l4.2,0.1
		L748.9,252.1z M770.1,252l0-1.7l4.2-0.2l0.1,1.7L770.1,252z M740.4,251.8l-4.2-0.2l0.1-1.7c1.4,0.1,2.8,0.1,4.2,0.2L740.4,251.8z
		 M778.6,251.6l-0.1-1.7l4.2-0.3l0.1,1.7C781.4,251.4,780,251.5,778.6,251.6L778.6,251.6z M731.9,251.3l-4.2-0.3l0.1-1.7
		c1.4,0.1,2.8,0.2,4.2,0.3L731.9,251.3z M787,251l-0.2-1.7l4.2-0.4l0.2,1.7C789.9,250.7,788.5,250.9,787,251z M723.4,250.6
		c-1.5-0.1-2.9-0.3-4.2-0.5l0.2-1.7c1.4,0.2,2.8,0.3,4.2,0.5L723.4,250.6z M795.4,250.1l-0.2-1.7c1.4-0.2,2.8-0.4,4.2-0.6l0.2,1.7
		C798.3,249.7,796.9,249.9,795.4,250.1L795.4,250.1z M715,249.6c-1.5-0.2-2.9-0.4-4.2-0.7l0.3-1.7c1.3,0.2,2.7,0.4,4.2,0.6
		L715,249.6z M803.9,248.9l-0.3-1.7c1.4-0.2,2.8-0.5,4.1-0.8l0.3,1.7C806.8,248.4,805.4,248.6,803.9,248.9L803.9,248.9z
		 M706.6,248.1c-1.5-0.3-2.9-0.6-4.2-1l0.4-1.6c1.2,0.3,2.6,0.6,4.1,0.9L706.6,248.1z M812.2,247.1l-0.4-1.6c1.5-0.4,2.8-0.8,4-1.2
		l0.6,1.6C815.2,246.4,813.8,246.8,812.2,247.1L812.2,247.1z M698.3,245.9c-1.4-0.5-2.7-1-4-1.8l0.8-1.5c1.2,0.6,2.4,1.2,3.7,1.6
		L698.3,245.9z M820.3,244.1l-0.8-1.5c1.4-0.8,2.2-1.6,2.2-2.3l1.7-0.1v0.2C823.4,241.7,822.4,243,820.3,244.1L820.3,244.1z
		 M691.2,240.4L691.2,240.4c0-1.4,1-2.7,3-3.8l0.9,1.5c-1.4,0.8-2.1,1.6-2.1,2.3L691.2,240.4z M819.5,238c-1.2-0.6-2.4-1.2-3.7-1.6
		l0.5-1.6c1.4,0.5,2.7,1,4,1.7L819.5,238z M698.8,236.4l-0.6-1.6c1.2-0.4,2.6-0.8,4.1-1.2l0.4,1.6C701.3,235.6,700,236,698.8,236.4
		L698.8,236.4z M811.7,235.2c-1.2-0.3-2.6-0.6-4.1-0.9l0.3-1.7c1.5,0.3,2.9,0.6,4.2,1L811.7,235.2z M706.9,234.3l-0.3-1.7
		c1.3-0.3,2.7-0.5,4.2-0.8l0.3,1.7C709.6,233.8,708.2,234,706.9,234.3L706.9,234.3z M803.5,233.5c-1.3-0.2-2.7-0.4-4.2-0.6l0.2-1.7
		c1.5,0.2,2.9,0.4,4.2,0.6L803.5,233.5z M715.2,232.9l-0.2-1.7c1.3-0.2,2.8-0.4,4.2-0.6l0.2,1.7
		C717.9,232.5,716.5,232.7,715.2,232.9L715.2,232.9z M795.2,232.3c-1.4-0.2-2.8-0.3-4.2-0.5l0.2-1.7c1.4,0.1,2.8,0.3,4.2,0.5
		L795.2,232.3z M723.6,231.9l-0.2-1.7c1.4-0.1,2.8-0.3,4.2-0.4l0.2,1.7C726.3,231.6,724.9,231.7,723.6,231.9L723.6,231.9z
		 M786.8,231.4l-4.2-0.3l0.1-1.7c1.4,0.1,2.8,0.2,4.2,0.3L786.8,231.4z M732,231.1l-0.1-1.7c1.4-0.1,2.8-0.2,4.2-0.3l0.1,1.7
		C734.7,230.9,733.3,231,732,231.1z M778.4,230.9l-4.2-0.2l0.1-1.7l4.2,0.2L778.4,230.9z M740.4,230.6l-0.1-1.7l4.2-0.2l0.1,1.7
		L740.4,230.6z M770,230.5c-1.4-0.1-2.8-0.1-4.2-0.1v-1.7c1.4,0,2.8,0.1,4.2,0.1L770,230.5z M748.9,230.4v-1.7
		c1.4,0,2.8-0.1,4.2-0.1v1.7C751.6,230.3,750.2,230.3,748.9,230.4L748.9,230.4z M761.5,230.3c-1.4,0-2.8,0-4.2,0l-0.1-1.7h0.1h4.2
		L761.5,230.3z"/>
	<path class="st3" d="M757.2,362.1h-4.1v-1.7h4.2v1.5L757.2,362.1L757.2,362.1z M761.6,362.1v-1.7l4.2-0.1v1.7L761.6,362.1z
		 M748.9,362l-4.2-0.1l0.1-1.7c1.4,0,2.8,0.1,4.2,0.1L748.9,362z M770.1,361.9l0-1.7c1.4,0,2.8-0.1,4.2-0.2l0.1,1.7
		C772.9,361.8,771.5,361.8,770.1,361.9z M740.4,361.7c-1.4-0.1-2.8-0.1-4.2-0.2l0.1-1.7c1.4,0.1,2.8,0.1,4.2,0.2L740.4,361.7z
		 M778.6,361.5l-0.1-1.7c1.4-0.1,2.8-0.2,4.2-0.3l0.1,1.7C781.4,361.3,780,361.4,778.6,361.5z M731.9,361.2
		c-1.4-0.1-2.8-0.2-4.2-0.3l0.1-1.7l4.2,0.3L731.9,361.2z M787,360.9l-0.2-1.7c1.4-0.1,2.8-0.2,4.2-0.4l0.2,1.7
		C789.9,360.6,788.5,360.8,787,360.9L787,360.9z M723.5,360.5c-1.5-0.1-2.9-0.3-4.2-0.5l0.2-1.7c1.4,0.2,2.8,0.3,4.2,0.5
		L723.5,360.5z M795.5,360l-0.2-1.7c1.4-0.2,2.8-0.4,4.2-0.5l0.2,1.7C798.3,359.7,796.9,359.9,795.5,360L795.5,360z M715,359.5
		c-1.5-0.2-2.9-0.4-4.2-0.7l0.3-1.7c1.3,0.2,2.7,0.4,4.2,0.6L715,359.5z M803.9,358.8l-0.3-1.7c1.4-0.2,2.8-0.5,4.1-0.8l0.3,1.7
		C806.8,358.3,805.4,358.6,803.9,358.8L803.9,358.8z M706.6,358c-1.5-0.3-2.9-0.6-4.2-1l0.4-1.6c1.3,0.3,2.6,0.6,4.1,0.9L706.6,358z
		 M812.2,357l-0.4-1.6c1.5-0.4,2.8-0.8,4-1.2l0.6,1.6C815.2,356.3,813.8,356.7,812.2,357L812.2,357z M698.3,355.8
		c-1.4-0.5-2.7-1-4-1.8l0.8-1.5c1.2,0.7,2.4,1.2,3.7,1.6L698.3,355.8z M820.3,354.1l-0.8-1.5c1.4-0.8,2.2-1.6,2.2-2.3l1.7-0.1v0.1
		C823.4,351.7,822.4,352.9,820.3,354.1L820.3,354.1z M691.2,350.3L691.2,350.3c0-1.4,1-2.7,3-3.8l0.9,1.5c-1.4,0.8-2.1,1.6-2.1,2.3
		L691.2,350.3z M819.4,347.9c-1.2-0.6-2.4-1.2-3.7-1.6l0.5-1.6c1.4,0.5,2.7,1,4,1.7L819.4,347.9z M698.7,346.3l-0.6-1.6
		c1.2-0.4,2.6-0.8,4.1-1.2l0.4,1.6C701.3,345.5,700,346,698.7,346.3L698.7,346.3z M811.6,345.1c-1.2-0.3-2.6-0.6-4.1-0.9l0.3-1.7
		c1.5,0.3,2.9,0.6,4.2,1L811.6,345.1z M706.8,344.2l-0.3-1.7c1.3-0.3,2.7-0.5,4.2-0.8l0.3,1.7C709.6,343.7,708.2,344,706.8,344.2
		L706.8,344.2z M803.4,343.4c-1.3-0.2-2.7-0.4-4.2-0.6l0.2-1.7c1.5,0.2,2.9,0.4,4.2,0.6L803.4,343.4z M715.1,342.8l-0.2-1.7
		c1.3-0.2,2.8-0.4,4.2-0.5l0.2,1.7C717.9,342.4,716.5,342.6,715.1,342.8L715.1,342.8z M795.1,342.2c-1.4-0.2-2.8-0.3-4.2-0.5
		l0.2-1.7c1.4,0.1,2.8,0.3,4.2,0.5L795.1,342.2z M723.5,341.7l-0.2-1.7c1.4-0.1,2.8-0.3,4.2-0.4l0.2,1.7
		C726.3,341.5,724.9,341.6,723.5,341.7L723.5,341.7z M786.7,341.3c-1.4-0.1-2.8-0.2-4.2-0.3l0.1-1.7l4.2,0.3L786.7,341.3z M732,341
		l-0.1-1.7l4.2-0.3l0.1,1.7C734.7,340.9,733.3,341,732,341z M778.4,340.8c-1.4-0.1-2.8-0.1-4.2-0.2l0.1-1.7c1.4,0.1,2.8,0.1,4.2,0.2
		L778.4,340.8z M740.4,340.6l-0.1-1.7l4.2-0.2l0.1,1.7C743.2,340.5,741.8,340.5,740.4,340.6L740.4,340.6z M770,340.4l-4.2-0.1v-1.7
		l4.2,0.1L770,340.4z M748.9,340.3v-1.7l4.2-0.1v1.7L748.9,340.3z M761.5,340.2h-4.2l-0.1-1.7h0.1h4.2L761.5,340.2z"/>
	<path class="st4" d="M759.1,294.3l-1.6-0.6l1.6-4l1.6,0.6L759.1,294.3z M762.2,286.4l-1.6-0.6l1.6-4l1.6,0.6L762.2,286.4z
		 M765.3,278.5l-1.6-0.6l1.6-4l1.6,0.6L765.3,278.5z M768.5,270.5l-1.6-0.6l1.6-4l1.6,0.6L768.5,270.5z M771.6,262.6L770,262l1.6-4
		l1.6,0.6L771.6,262.6z M774.7,254.7l-1.6-0.6l1.6-4l1.6,0.6L774.7,254.7z M777.8,246.8l-1.6-0.6l1.6-4l1.6,0.6L777.8,246.8z
		 M781,238.9l-1.6-0.6l1.6-4l1.6,0.6L781,238.9z M784.1,231l-1.6-0.6l1.6-4l1.6,0.6L784.1,231z M787.2,223.1l-1.6-0.6l1.6-4l1.6,0.6
		L787.2,223.1z M790.3,215.2l-1.6-0.6l1.6-4l1.6,0.6L790.3,215.2z M793.5,207.2l-1.6-0.6l1.6-4l1.6,0.6L793.5,207.2z M796.6,199.3
		l-1.6-0.6l1.6-4l1.6,0.6L796.6,199.3z M799.7,191.4l-1.6-0.6l1.6-3.9l1.6,0.6L799.7,191.4z M802.9,183.5l-1.6-0.6l0.1-0.2l1.6,0.6
		L802.9,183.5z"/>
	<g>
		<g>
			<rect x="756.2" y="74.7" class="st5" width="4.2" height="434.5"/>
			<rect x="541" y="289.8" class="st5" width="434.5" height="4.2"/>
		</g>
		<path class="st6" d="M753.1,303.5c-5.2-2.9-7.2-9.5-4.3-14.7c2.9-5.2,9.5-7.2,14.7-4.3c5.2,2.9,7.2,9.5,4.3,14.7
			C764.9,304.4,758.3,306.4,753.1,303.5C753.1,303.5,753.1,303.5,753.1,303.5z"/>
	</g>
	<path class="st4" d="M818,675h-1.7v-4.2h1.7V675z M818,666.5h-1.7v-4.2h1.7V666.5z M818,658h-1.7v-4.2h1.7V658z M818,649.5h-1.7
		v-4.2h1.7V649.5z M818,641h-1.7v-4.2h1.7V641z M818,632.4h-1.7v-4.2h1.7V632.4z M818,623.9h-1.7v-4.2h1.7V623.9z M818,615.4h-1.7
		v-4.2h1.7V615.4z M818,606.9h-1.7v-4.3h1.7V606.9z M818,598.4h-1.7v-4.3h1.7V598.4z M818,589.9h-1.7v-4.3h1.7V589.9z M818,581.4
		h-1.7v-4.3h1.7V581.4z M818,572.9h-1.7v-4.3h1.7V572.9z M818,564.4h-1.7v-4.3h1.7V564.4z M818,555.8h-1.7v-4.2h1.7V555.8z
		 M818,547.3h-1.7v-4.2h1.7V547.3z M818,538.8h-1.7v-4.2h1.7V538.8z M818,530.3h-1.7v-4.2h1.7V530.3z M818,521.8h-1.7v-4.2h1.7
		V521.8z M818,513.3h-1.7V509h1.7V513.3z M818,504.8h-1.7v-4.2h1.7V504.8z M818,496.3h-1.7V492h1.7V496.3z M818,487.8h-1.7v-4.3h1.7
		V487.8z M818,479.3h-1.7V475h1.7V479.3z M818,470.7h-1.7v-4.3h1.7V470.7z M818,462.2h-1.7V458h1.7V462.2z M818,453.7h-1.7v-4.2h1.7
		V453.7z M818,445.2h-1.7V441h1.7V445.2z M818,436.7h-1.7v-4.3h1.7V436.7z M818,428.2h-1.7V424h1.7V428.2z M818,419.7h-1.7v-4.2h1.7
		V419.7z M818,411.2h-1.7V407h1.7V411.2z M818,402.7h-1.7v-4.2h1.7V402.7z M818,394.1h-1.7v-4.2h1.7V394.1z M818,385.6h-1.7v-4.2
		h1.7V385.6z M818,377.1h-1.7v-4.2h1.7V377.1z M818,368.6h-1.7v-4.3h1.7V368.6z M818,360.1h-1.7v-4.3h1.7V360.1z M818,351.6h-1.7
		v-4.3h1.7V351.6z M818,343.1h-1.7v-4.3h1.7V343.1z M818,334.6h-1.7v-4.3h1.7V334.6z M818,326.1h-1.7v-4.3h1.7V326.1z M818,317.6
		h-1.7v-4.3h1.7V317.6z M818,309h-1.7v-4.2h1.7V309z"/>
	<g>
		<g>
			<g>
				<rect x="245.5" y="74.7" class="st5" width="4.2" height="434.5"/>
				<rect x="30.3" y="289.8" class="st5" width="434.5" height="4.2"/>
			</g>
			<path class="st6" d="M242.4,303.5c-5.2-2.9-7.2-9.5-4.3-14.7c2.9-5.2,9.5-7.2,14.7-4.3c5.2,2.9,7.2,9.5,4.3,14.7
				C254.2,304.4,247.6,306.4,242.4,303.5C242.4,303.5,242.4,303.5,242.4,303.5z"/>
		</g>
		<g>
			<path class="st7" d="M228.7,239v-4.1h1.4v5.6h-11.7V239H228.7z"/>
			<path class="st7" d="M230.2,231.1c0,0.6-0.2,1.3-0.6,1.8c-0.4,0.5-1,0.7-1.7,0.7c-0.4,0-0.7-0.1-1.1-0.2
				c-0.3-0.1-0.6-0.4-0.7-0.7c-0.2-0.3-0.4-0.6-0.5-1c-0.1-0.4-0.2-0.8-0.3-1.2l-0.2-1.3c-0.1-0.5-0.3-0.7-0.8-0.7
				c-0.5,0-0.9,0.2-1.2,0.5c-0.3,0.4-0.4,0.8-0.4,1.3c0,0.5,0.1,0.9,0.4,1.3c0.3,0.4,0.7,0.6,1.1,0.6l-0.3,1.3
				c-0.7-0.1-1.3-0.4-1.8-1c-0.4-0.7-0.6-1.4-0.6-2.2c0-0.4,0-0.8,0.1-1.2c0.1-0.4,0.3-0.7,0.5-1c0.2-0.3,0.5-0.6,0.9-0.7
				c0.4-0.2,0.9-0.3,1.3-0.2h3.4c0.3,0,0.6,0,0.9-0.2c0.2-0.2,0.2-0.4,0.2-0.6V226h1v0.7c0.1,0.7-0.4,1.4-1.1,1.5v0.1
				C229.8,229,230.3,230,230.2,231.1z M229.1,230.7c0-0.7-0.3-1.3-0.8-1.8c-0.6-0.5-1.4-0.7-2.2-0.7l0.4,2.2c0,0.5,0.2,0.9,0.4,1.3
				c0.4,0.5,1.2,0.5,1.7,0.1c0,0,0.1-0.1,0.1-0.1C229,231.4,229.1,231.1,229.1,230.7L229.1,230.7z"/>
			<path class="st7" d="M223.3,222.6c-0.5-0.2-0.8-0.6-1.1-1c-0.3-0.5-0.4-1-0.4-1.6h1.4c-0.1,0.7,0.2,1.4,0.6,1.9
				c0.5,0.5,1.2,0.7,1.9,0.7h4.4v1.4h-8.2v-1.4L223.3,222.6z"/>
			<path class="st7" d="M221.9,212.5v-1.4h7.8c1.2-0.1,2.3,0.3,3.2,1.1c1.6,1.8,1.4,4.6-0.4,6.2c-0.3,0.3-0.7,0.5-1,0.7l-0.6-1.2
				c1.2-0.4,2-1.5,1.9-2.7c0-0.7-0.2-1.4-0.8-1.9c-0.6-0.5-1.4-0.7-2.2-0.7h-1.5c0.5,0.3,0.9,0.7,1.2,1.2c0.3,0.5,0.5,1.1,0.4,1.7
				c0,1-0.4,2-1.1,2.6c-1.7,1.5-4.1,1.5-5.8,0c-0.7-0.7-1.2-1.7-1.1-2.7c0-0.6,0.1-1.2,0.5-1.7c0.3-0.5,0.7-0.9,1.2-1.2L221.9,212.5
				z M228.6,215.1c0-0.7-0.3-1.4-0.8-1.9c-1.1-1-2.9-1-4,0c-0.5,0.5-0.8,1.2-0.8,1.9c0,0.7,0.3,1.4,0.8,1.9c1.1,1,2.9,1,4,0
				C228.3,216.5,228.6,215.9,228.6,215.1L228.6,215.1z"/>
			<path class="st7" d="M230.2,204.8c0,0.7-0.2,1.4-0.5,2.1c-0.3,0.6-0.9,1.1-1.5,1.5c-0.7,0.4-1.5,0.6-2.3,0.5
				c-1.1,0.1-2.3-0.4-3.1-1.2c-1.5-1.7-1.5-4.2,0-5.9c1.8-1.5,4.4-1.5,6.2,0C229.8,202.6,230.3,203.7,230.2,204.8z M229,204.8
				c0-0.7-0.3-1.4-0.8-1.9c-1.3-1-3.1-1-4.4,0c-0.5,0.5-0.9,1.2-0.8,1.9c0,0.7,0.3,1.4,0.8,1.9c1.3,1,3.1,1,4.4,0
				C228.7,206.2,229,205.5,229,204.8L229,204.8z"/>
			<path class="st7" d="M230.2,195.8c0,0.8-0.2,1.5-0.6,2.2c-0.4,0.6-1,1-1.6,1.1l-0.4-1.2c0.5-0.1,0.9-0.3,1.1-0.7
				c0.3-0.4,0.4-0.9,0.4-1.4c0-0.3,0-0.5-0.1-0.8c-0.1-0.2-0.2-0.4-0.4-0.6c-0.2-0.2-0.5-0.3-0.8-0.2c-0.2,0-0.4,0.1-0.6,0.2
				c-0.1,0.1-0.2,0.1-0.2,0.2c-0.1,0.2-0.3,0.4-0.3,0.6l-0.1,0.4c0,0.1-0.1,0.3-0.1,0.5s-0.1,0.4-0.1,0.5c-0.1,0.3-0.2,0.6-0.3,0.8
				c-0.1,0.2-0.2,0.5-0.4,0.7c-0.2,0.2-0.4,0.4-0.6,0.5c-0.3,0.1-0.6,0.2-0.9,0.2c-0.5,0-0.9-0.1-1.3-0.4c-0.3-0.3-0.6-0.6-0.8-1
				c-0.2-0.5-0.2-1-0.2-1.4c0-0.7,0.2-1.4,0.5-2c0.4-0.6,0.9-0.9,1.6-1l0.3,1.2c-0.4,0.1-0.8,0.3-1,0.6c-0.4,0.7-0.5,1.6-0.1,2.3
				c0.2,0.3,0.5,0.5,0.9,0.5c0.2,0,0.3,0,0.4-0.1c0.1-0.1,0.2-0.1,0.3-0.2c0.1-0.1,0.2-0.3,0.2-0.4c0.1-0.2,0.1-0.4,0.2-0.5
				s0.1-0.3,0.2-0.6c0,0,0-0.1,0-0.1c0.1-0.3,0.1-0.6,0.2-0.8c0.1-0.2,0.2-0.5,0.3-0.7c0.1-0.2,0.3-0.5,0.4-0.6
				c0.2-0.2,0.4-0.3,0.6-0.4c0.3-0.1,0.6-0.2,0.9-0.2c0.4,0,0.8,0.1,1.1,0.2c0.3,0.2,0.6,0.4,0.8,0.7c0.2,0.3,0.3,0.6,0.4,1
				C230.2,195.1,230.2,195.5,230.2,195.8z"/>
			<path class="st7" d="M226.2,186.2H225v-6h1.2L226.2,186.2z"/>
			<path class="st7" d="M218.4,166.8h1.4v3h10.4v1.5h-10.4v3h-1.4V166.8z"/>
			<path class="st7" d="M230.2,164.3c0,0.6-0.2,1.3-0.6,1.8c-0.4,0.5-1,0.7-1.7,0.7c-0.4,0-0.7-0.1-1.1-0.2
				c-0.3-0.1-0.6-0.4-0.7-0.7c-0.2-0.3-0.4-0.6-0.5-1c-0.1-0.4-0.2-0.8-0.3-1.2l-0.2-1.3c-0.1-0.5-0.3-0.7-0.8-0.7
				c-0.5,0-0.9,0.2-1.2,0.5c-0.5,0.8-0.5,1.8,0,2.6c0.3,0.4,0.7,0.6,1.1,0.6l-0.3,1.3c-0.7-0.1-1.3-0.4-1.8-1
				c-0.4-0.7-0.6-1.4-0.6-2.2c0-0.4,0-0.8,0.1-1.2c0.1-0.4,0.3-0.7,0.5-1c0.2-0.3,0.5-0.6,0.9-0.7c0.4-0.2,0.9-0.3,1.3-0.3h3.4
				c0.3,0,0.6,0,0.9-0.2c0.2-0.2,0.2-0.4,0.2-0.6v-0.1h1v0.7c0.1,0.7-0.4,1.4-1.1,1.6v0.1C229.8,162.2,230.3,163.2,230.2,164.3z
				 M229.1,164c0-0.7-0.3-1.3-0.8-1.8c-0.6-0.5-1.4-0.7-2.2-0.7l0.4,2.2c0.1,0.5,0.2,0.9,0.5,1.3c0.2,0.3,0.5,0.4,0.9,0.4
				c0.3,0,0.7-0.1,0.9-0.4C229,164.7,229.1,164.4,229.1,164L229.1,164z"/>
			<path class="st7" d="M230.1,157.3h-12.8v-1.4h12.8V157.3z"/>
			<path class="st7" d="M230.1,152.9h-12.8v-1.4h12.8V152.9z"/>
			<path class="st7" d="M225.8,141.4h0.4v6.4c0.8,0,1.5-0.2,2.1-0.8c0.5-0.5,0.7-1.2,0.7-1.9c0-0.5-0.1-1-0.4-1.4
				c-0.3-0.4-0.6-0.7-1.1-0.9l0.3-1.3c0.7,0.3,1.3,0.8,1.8,1.4c0.4,0.6,0.6,1.4,0.6,2.2c0,1.1-0.4,2.2-1.1,2.9
				c-1.8,1.5-4.4,1.5-6.2,0c-0.8-0.8-1.2-1.8-1.1-2.9c0-1,0.3-2,1.1-2.7C223.6,141.6,224.7,141.3,225.8,141.4z M222.8,145.1
				c0,0.6,0.2,1.2,0.6,1.7c0.4,0.5,1,0.8,1.7,0.9v-4.9c-0.6,0-1.2,0.3-1.7,0.7C223,144,222.8,144.6,222.8,145.1L222.8,145.1z"/>
			<path class="st7" d="M230.2,136.5c0,0.8-0.2,1.5-0.6,2.2c-0.4,0.6-1,0.9-1.6,1.1l-0.4-1.3c0.5-0.1,0.9-0.3,1.1-0.7
				c0.3-0.4,0.4-0.9,0.4-1.4c0-0.3,0-0.5-0.1-0.8c-0.1-0.2-0.2-0.4-0.4-0.6c-0.2-0.2-0.5-0.3-0.8-0.2c-0.2,0-0.4,0.1-0.6,0.2
				c-0.1,0.1-0.2,0.1-0.2,0.2c-0.1,0.2-0.3,0.4-0.3,0.6l-0.1,0.4c0,0.1-0.1,0.3-0.1,0.5l-0.1,0.5c-0.1,0.3-0.2,0.6-0.3,0.9
				c-0.1,0.2-0.2,0.5-0.4,0.7c-0.2,0.2-0.4,0.4-0.6,0.5c-0.3,0.1-0.6,0.2-0.9,0.2c-0.5,0-0.9-0.1-1.3-0.4c-0.3-0.3-0.6-0.6-0.8-1
				c-0.2-0.5-0.2-1-0.2-1.4c0-0.7,0.2-1.4,0.5-2c0.4-0.6,0.9-0.9,1.6-1l0.3,1.2c-0.4,0.1-0.8,0.3-1,0.6c-0.2,0.3-0.4,0.8-0.3,1.2
				c0,0.4,0.1,0.8,0.3,1.1c0.2,0.3,0.5,0.5,0.9,0.5c0.2,0,0.3,0,0.4-0.1c0.1-0.1,0.2-0.1,0.3-0.2c0.1-0.1,0.2-0.3,0.2-0.4
				c0.1-0.2,0.1-0.4,0.2-0.5s0.1-0.3,0.2-0.6c0,0,0-0.1,0-0.1c0.1-0.3,0.1-0.6,0.2-0.8c0.1-0.2,0.2-0.5,0.3-0.7
				c0.1-0.2,0.3-0.5,0.4-0.6c0.2-0.2,0.4-0.3,0.6-0.4c0.3-0.1,0.6-0.2,0.9-0.2c0.4,0,0.8,0.1,1.1,0.2c0.3,0.2,0.6,0.4,0.8,0.7
				c0.2,0.3,0.3,0.6,0.4,0.9C230.2,135.8,230.2,136.1,230.2,136.5z"/>
		</g>
		<g>
			<path class="st7" d="M303.3,323.9l-1-2.8H297l-1,2.8h-1.5l4.3-11.7h1.8l4.3,11.7H303.3z M297.5,319.8h4.4l-2.2-6.1L297.5,319.8z"
				/>
			<path class="st7" d="M310.7,315.6c0.8,0,1.5,0.2,2.1,0.7c0.5,0.6,0.8,1.3,0.8,2.1v5.5H312v-5.2c0-0.5-0.1-1.1-0.5-1.5
				c-0.3-0.3-0.8-0.5-1.3-0.5c-0.5,0-1.1,0.2-1.5,0.6c-0.4,0.5-0.6,1.1-0.6,1.7v4.9h-1.4v-8.2h1.4v1
				C308.8,316,309.7,315.5,310.7,315.6z"/>
			<path class="st7" d="M319.7,324.1c-1.1,0-2.2-0.4-2.9-1.2c-1.5-1.8-1.5-4.4,0-6.1c0.8-0.8,1.8-1.2,2.9-1.2c0.8,0,1.7,0.2,2.4,0.7
				c0.7,0.5,1.2,1.2,1.4,2l-1.4,0.2c-0.2-0.5-0.5-1-0.9-1.3c-0.4-0.3-1-0.5-1.5-0.5c-0.7,0-1.4,0.3-1.9,0.8c-1,1.3-1,3.1,0,4.4
				c0.5,0.5,1.2,0.8,1.9,0.8c1.1,0,2.1-0.7,2.4-1.7l1.4,0.2c-0.2,0.8-0.7,1.5-1.4,2C321.3,323.9,320.5,324.1,319.7,324.1z"/>
			<path class="st7" d="M329.4,315.6c0.7,0,1.5,0.2,2,0.8c0.5,0.6,0.8,1.4,0.8,2.2v5.4h-1.4v-5.1c0-0.5-0.1-1.1-0.5-1.5
				c-0.3-0.3-0.8-0.5-1.3-0.5c-0.5,0-1.1,0.2-1.4,0.6c-0.4,0.5-0.6,1.1-0.6,1.7v4.9h-1.4v-12.8h1.5v5.7c0.2-0.4,0.6-0.7,1-0.9
				C328.4,315.7,328.9,315.6,329.4,315.6z"/>
			<path class="st7" d="M338.4,324.1c-0.7,0-1.5-0.2-2.1-0.5c-0.6-0.3-1.1-0.9-1.5-1.5c-0.4-0.7-0.6-1.5-0.5-2.2
				c-0.1-1.1,0.4-2.3,1.2-3.1c1.7-1.5,4.2-1.5,5.9,0c0.8,0.8,1.2,1.9,1.1,3.1c0.1,1.1-0.4,2.3-1.2,3.1
				C340.6,323.7,339.5,324.1,338.4,324.1z M338.4,322.9c0.7,0,1.4-0.3,1.9-0.8c1-1.3,1-3.1,0-4.4c-1-1.1-2.7-1.1-3.7-0.1
				c0,0-0.1,0.1-0.1,0.1c-1,1.3-1,3.1,0,4.4C337,322.6,337.7,322.9,338.4,322.9L338.4,322.9z"/>
			<path class="st7" d="M347.4,324.1c-0.8,0-1.5-0.2-2.2-0.6c-0.6-0.4-1-1-1.1-1.7l1.3-0.4c0.1,0.5,0.3,0.9,0.7,1.1
				c0.4,0.3,0.9,0.4,1.3,0.4c0.3,0,0.5,0,0.8-0.1c0.2-0.1,0.4-0.2,0.6-0.4c0.2-0.2,0.2-0.5,0.2-0.8c0-0.1,0-0.2-0.1-0.3
				c0-0.1-0.1-0.2-0.1-0.3c-0.1-0.1-0.1-0.2-0.2-0.2c-0.1-0.1-0.2-0.1-0.3-0.2c-0.1-0.1-0.2-0.1-0.4-0.2l-0.4-0.1l-0.5-0.1l-0.5-0.1
				c-0.4-0.1-0.6-0.2-0.9-0.3c-0.2-0.1-0.5-0.2-0.7-0.4c-0.2-0.2-0.4-0.4-0.5-0.6c-0.1-0.3-0.2-0.6-0.2-0.9c0-0.5,0.1-0.9,0.4-1.3
				c0.3-0.3,0.6-0.6,1-0.8c0.5-0.2,1-0.2,1.5-0.2c0.7,0,1.4,0.2,2,0.5c0.5,0.4,0.9,0.9,1,1.6l-1.2,0.3c-0.1-0.4-0.3-0.8-0.6-1
				c-0.3-0.2-0.8-0.4-1.2-0.4c-0.4,0-0.8,0.1-1.1,0.3c-0.3,0.2-0.5,0.5-0.5,0.9c0,0.2,0,0.3,0.1,0.5c0.1,0.1,0.2,0.2,0.2,0.3
				c0.1,0.1,0.3,0.2,0.5,0.2l0.5,0.2l0.6,0.1h0.1c0.3,0.1,0.6,0.1,0.8,0.2c0.2,0.1,0.5,0.2,0.7,0.3c0.2,0.1,0.4,0.3,0.6,0.4
				c0.2,0.2,0.3,0.4,0.4,0.6c0.1,0.3,0.2,0.6,0.2,0.9c0,0.4-0.1,0.8-0.2,1.1c-0.2,0.3-0.4,0.6-0.7,0.8c-0.3,0.2-0.6,0.3-1,0.4
				C348.1,324,347.7,324.1,347.4,324.1z"/>
			<path class="st7" d="M357,320.1v-1.2h6v1.2H357z"/>
			<path class="st7" d="M375.7,324.1c-0.8,0-1.6-0.1-2.3-0.4c-0.7-0.3-1.3-0.7-1.9-1.2c-0.5-0.5-1-1.2-1.2-1.9
				c-0.3-0.8-0.4-1.7-0.4-2.5c0-0.9,0.1-1.7,0.5-2.5c0.5-1.4,1.7-2.5,3.1-3.1c0.7-0.3,1.5-0.4,2.3-0.4c1.1,0,2.2,0.3,3.1,0.8
				c0.9,0.5,1.6,1.3,2.1,2.3l-1.4,0.6c-0.3-0.7-0.9-1.3-1.5-1.7c-0.7-0.4-1.5-0.6-2.3-0.6c-0.6,0-1.2,0.1-1.7,0.3
				c-0.5,0.2-1,0.5-1.4,0.9c-0.4,0.4-0.7,0.9-0.9,1.4c-0.5,1.3-0.5,2.6,0,3.9c0.2,0.5,0.5,1,0.9,1.5c0.4,0.4,0.9,0.7,1.4,0.9
				c0.5,0.2,1.1,0.3,1.7,0.3c0.8,0,1.6-0.2,2.3-0.6c0.7-0.4,1.2-1,1.5-1.7l1.4,0.6c-0.4,1-1.2,1.8-2.1,2.3
				C377.8,323.8,376.8,324.1,375.7,324.1z"/>
			<path class="st7" d="M386.5,324.1c-0.7,0-1.4-0.2-2.1-0.5c-0.6-0.3-1.1-0.9-1.5-1.5c-0.4-0.7-0.6-1.5-0.5-2.2
				c-0.1-1.1,0.4-2.3,1.2-3.1c1.7-1.5,4.2-1.5,5.9,0c1.5,1.8,1.5,4.4,0,6.2C388.6,323.7,387.6,324.1,386.5,324.1z M386.5,322.9
				c0.7,0,1.4-0.3,1.9-0.8c1-1.3,1-3.1,0-4.4c-1-1.1-2.7-1.1-3.7-0.1c0,0-0.1,0.1-0.1,0.1c-1,1.3-1,3.1,0,4.4
				C385,322.6,385.7,322.9,386.5,322.9z"/>
			<path class="st7" d="M396.7,315.6c0.8,0,1.5,0.2,2,0.7c0.5,0.6,0.8,1.3,0.8,2.1v5.5h-1.4v-5.2c0-0.5-0.1-1.1-0.5-1.5
				c-0.3-0.3-0.8-0.5-1.3-0.5c-0.5,0-1.1,0.2-1.5,0.6c-0.4,0.5-0.6,1.1-0.6,1.7v4.9h-1.4v-8.2h1.4v1
				C394.8,316,395.7,315.5,396.7,315.6z"/>
			<path class="st7" d="M404.9,323.9c-0.6,0-1.2-0.2-1.6-0.6c-0.4-0.4-0.6-1-0.6-1.6v-4.8H401v-1.1h0.6c0.3,0,0.7-0.1,0.9-0.3
				c0.2-0.3,0.3-0.6,0.3-1V313h1.3v2.7h1.9v1.1h-1.9v4.7c0,0.3,0.1,0.7,0.3,0.9c0.2,0.2,0.5,0.3,0.8,0.3h0.8v1.1L404.9,323.9z"/>
			<path class="st7" d="M411.5,324.1c-0.7,0-1.4-0.2-2.1-0.5c-0.6-0.3-1.1-0.9-1.5-1.5c-0.4-0.7-0.6-1.5-0.5-2.2
				c-0.1-1.1,0.4-2.3,1.2-3.1c1.7-1.5,4.2-1.5,5.9,0c1.5,1.8,1.5,4.4,0,6.2C413.6,323.7,412.6,324.1,411.5,324.1z M411.5,322.9
				c0.7,0,1.4-0.3,1.9-0.8c1-1.3,1-3.1,0-4.4c-1-1.1-2.7-1.1-3.7-0.1c0,0-0.1,0.1-0.1,0.1c-1,1.3-1,3.1,0,4.4
				C410,322.6,410.7,322.9,411.5,322.9z"/>
			<path class="st7" d="M419.2,317.2c0.2-0.5,0.6-0.8,1-1.1c0.5-0.3,1-0.4,1.6-0.4v1.3c-0.7,0-1.4,0.2-1.9,0.6
				c-0.5,0.5-0.7,1.2-0.6,1.9v4.4h-1.4v-8.2h1.4L419.2,317.2z"/>
			<path class="st7" d="M427.4,315.6c0.8,0,1.5,0.2,2.1,0.7c0.5,0.6,0.8,1.3,0.8,2.1v5.5h-1.4v-5.2c0-0.5-0.1-1.1-0.5-1.5
				c-0.3-0.3-0.8-0.5-1.3-0.5c-0.5,0-1.1,0.2-1.5,0.6c-0.4,0.5-0.6,1.1-0.6,1.7v4.9h-1.4v-8.2h1.4v1
				C425.5,316,426.4,315.5,427.4,315.6z"/>
			<path class="st7" d="M436.4,324.1c-0.7,0-1.5-0.2-2.1-0.5c-0.6-0.3-1.1-0.9-1.5-1.5c-0.4-0.7-0.6-1.5-0.5-2.2
				c-0.1-1.1,0.4-2.3,1.2-3.1c1.7-1.5,4.2-1.5,5.9,0c1.5,1.8,1.5,4.4,0,6.2C438.6,323.7,437.5,324.1,436.4,324.1z M436.4,322.9
				c0.7,0,1.4-0.3,1.9-0.8c1-1.3,1-3.1,0-4.4c-1-1.1-2.7-1.1-3.7-0.1c0,0-0.1,0.1-0.1,0.1c-1,1.3-1,3.1,0,4.4
				C435,322.6,435.7,322.9,436.4,322.9L436.4,322.9z"/>
			<path class="st7" d="M445.4,324.1c-0.8,0-1.5-0.2-2.2-0.6c-0.6-0.4-1-1-1.1-1.7l1.3-0.4c0.1,0.5,0.3,0.9,0.7,1.1
				c0.4,0.3,0.9,0.4,1.3,0.4c0.3,0,0.5,0,0.8-0.1c0.2-0.1,0.4-0.2,0.6-0.4c0.2-0.2,0.2-0.5,0.2-0.8c0-0.1,0-0.2-0.1-0.3
				c0-0.1-0.1-0.2-0.1-0.3c-0.1-0.1-0.1-0.2-0.2-0.2c-0.1-0.1-0.2-0.1-0.3-0.2c-0.1-0.1-0.2-0.1-0.4-0.2l-0.4-0.1l-0.5-0.1l-0.5-0.1
				c-0.4-0.1-0.6-0.2-0.9-0.3c-0.2-0.1-0.5-0.2-0.7-0.4c-0.2-0.2-0.4-0.4-0.5-0.6c-0.3-0.7-0.2-1.6,0.2-2.2c0.3-0.3,0.6-0.6,1-0.8
				c0.5-0.2,1-0.2,1.5-0.2c0.7,0,1.4,0.2,2,0.5c0.5,0.4,0.9,0.9,1,1.6l-1.2,0.3c-0.1-0.4-0.3-0.8-0.6-1c-0.3-0.2-0.8-0.4-1.2-0.4
				c-0.4,0-0.8,0.1-1.1,0.3c-0.3,0.2-0.5,0.5-0.5,0.9c0,0.2,0,0.3,0.1,0.5c0.1,0.1,0.2,0.2,0.2,0.3c0.1,0.1,0.3,0.2,0.5,0.2l0.5,0.2
				l0.6,0.1h0.1c0.3,0.1,0.6,0.1,0.8,0.2c0.2,0.1,0.5,0.2,0.7,0.3c0.2,0.1,0.4,0.3,0.6,0.4c0.2,0.2,0.3,0.4,0.4,0.6
				c0.1,0.3,0.2,0.6,0.2,0.9c0,0.4-0.1,0.8-0.2,1.1c-0.2,0.3-0.4,0.6-0.7,0.8c-0.3,0.2-0.6,0.3-1,0.4
				C446.1,324,445.7,324.1,445.4,324.1z"/>
		</g>
		<path class="st0" d="M242.1,60.5l4.6-6.1l-4.4-5.6h1.8l3.4,4.5l3.4-4.5h1.8l-4.4,5.6l4.6,6.1h-1.9l-3.6-5l-3.6,5H242.1z"/>
		<path class="st0" d="M483,284.8l-3.9,6.2v5.6h-1.5V291l-3.9-6.1h1.7l2.9,4.8l2.9-4.8L483,284.8z"/>
	</g>
	<path class="st0" d="M752.8,60.5l4.6-6.1l-4.3-5.6h1.8l3.4,4.5l3.4-4.5h1.8l-4.3,5.6l4.6,6.1h-1.9l-3.6-5l-3.5,5H752.8z"/>
	<path class="st0" d="M993.7,284.8l-3.8,6.2v5.6h-1.5V291l-3.8-6.1h1.7l2.9,4.8l2.9-4.8L993.7,284.8z"/>
	<path class="st8" d="M805.2,214.4h-0.9v-1.7h0.9V214.4z M800.1,214.4h-4.2v-1.7h4.2V214.4z M791.6,214.4h-4.3v-1.7h4.3V214.4z
		 M783.1,214.4h-4.3v-1.7h4.3V214.4z M774.6,214.4h-4.3v-1.7h4.3V214.4z M766.1,214.4h-4.3v-1.7h4.3V214.4z M757.6,214.4h-4.3v-1.7
		h4.3V214.4z M749.1,214.4h-4.3v-1.7h4.3L749.1,214.4z M740.5,214.4h-4.3v-1.7h4.3V214.4z M732,214.4h-4.2v-1.7h4.2L732,214.4z
		 M723.5,214.4h-4.2v-1.7h4.2V214.4z M715,214.4h-4.2v-1.7h4.2L715,214.4z"/>
	<path class="st9" d="M899.5,175.4L899.5,175.4c0,8.1-6.5,14.6-14.6,14.6c0,0,0,0,0,0h-67.6c-1.3,0-2.6,0.5-3.5,1.5l-15.2,15.2v-31
		c0-8.2,6.7-14.9,14.9-14.9c0,0,0,0,0,0h71.5C892.9,160.8,899.5,167.3,899.5,175.4C899.5,175.4,899.5,175.4,899.5,175.4z"/>
	<path class="st9" d="M610.9,209.1L610.9,209.1c0,8.1,6.5,14.6,14.6,14.6h67.6c1.3,0,2.6,0.5,3.5,1.4l15.3,15.2v-31
		c0-8.2-6.7-14.9-14.9-14.9h-71.5C617.4,194.5,610.9,201,610.9,209.1C610.9,209.1,610.9,209.1,610.9,209.1z"/>
	<path class="st9" d="M863.8,271.7L863.8,271.7c0-8.1-6.5-14.6-14.6-14.6l0,0h-44.6c-1.3,0-2.6-0.5-3.5-1.4l-15.2-15.3v31
		c0,8.2,6.7,14.9,14.9,14.9h48.5C857.3,286.3,863.8,279.7,863.8,271.7C863.8,271.7,863.8,271.7,863.8,271.7z"/>
	<g>
		<path class="st7" d="M831.4,180l-1-2.8h-5.3l-1,2.8h-1.6l4.3-11.7h1.8L833,180H831.4z M825.6,175.9h4.4l-2.2-6.1L825.6,175.9z"/>
		<path class="st7" d="M838.8,171.7c0.8,0,1.5,0.2,2,0.7c0.5,0.6,0.8,1.3,0.8,2.1v5.5h-1.4v-5.2c0-0.5-0.1-1.1-0.5-1.5
			c-0.3-0.3-0.8-0.5-1.3-0.5c-0.5,0-1.1,0.2-1.5,0.6c-0.4,0.5-0.6,1.1-0.6,1.7v4.9H835v-8.2h1.4v1
			C837,172.1,837.9,171.6,838.8,171.7z"/>
		<path class="st7" d="M847.8,180.2c-1.1,0-2.2-0.4-2.9-1.2c-1.5-1.8-1.5-4.4,0-6.1c1.4-1.4,3.6-1.6,5.3-0.5c0.7,0.5,1.2,1.2,1.4,2
			l-1.3,0.2c-0.2-0.5-0.5-1-0.9-1.3c-0.4-0.3-1-0.5-1.5-0.4c-0.7,0-1.4,0.3-1.9,0.8c-1,1.3-1,3.1,0,4.4c0.5,0.5,1.2,0.8,1.9,0.8
			c0.5,0,1-0.1,1.5-0.4c0.4-0.3,0.8-0.8,0.9-1.3l1.3,0.2c-0.2,0.8-0.7,1.5-1.4,2C849.5,179.9,848.6,180.2,847.8,180.2z"/>
		<path class="st7" d="M857.6,171.7c0.7,0,1.5,0.2,2,0.8c0.5,0.6,0.8,1.4,0.8,2.2v5.4h-1.4v-5.1c0-0.5-0.1-1.1-0.5-1.5
			c-0.3-0.3-0.8-0.5-1.3-0.5c-0.5,0-1.1,0.2-1.5,0.6c-0.4,0.5-0.6,1.1-0.6,1.7v4.9h-1.4v-12.8h1.4v5.7c0.3-0.4,0.6-0.7,1-0.9
			C856.6,171.8,857.1,171.7,857.6,171.7z"/>
		<path class="st7" d="M866.5,180.2c-0.7,0-1.4-0.2-2.1-0.5c-0.6-0.3-1.1-0.9-1.5-1.5c-0.4-0.7-0.6-1.5-0.5-2.3
			c-0.1-1.1,0.4-2.3,1.2-3.1c1.7-1.5,4.2-1.5,5.9,0c1.5,1.8,1.5,4.4,0,6.2C868.7,179.8,867.7,180.2,866.5,180.2z M866.5,179
			c0.7,0,1.4-0.3,1.9-0.8c1-1.3,1-3.1,0-4.4c-0.5-0.6-1.2-0.9-1.9-0.8c-0.7,0-1.4,0.3-1.9,0.8c-1,1.3-1,3.1,0,4.4
			C865.1,178.7,865.8,179,866.5,179L866.5,179z"/>
		<path class="st7" d="M875.5,180.2c-0.8,0-1.5-0.2-2.2-0.6c-0.6-0.4-1-1-1.1-1.7l1.2-0.4c0.1,0.5,0.3,0.9,0.7,1.1
			c0.4,0.3,0.9,0.4,1.3,0.4c0.3,0,0.5,0,0.8-0.1c0.2-0.1,0.4-0.2,0.6-0.4c0.2-0.2,0.3-0.5,0.2-0.8c0-0.1,0-0.2-0.1-0.3
			c0-0.1-0.1-0.2-0.1-0.3c-0.1-0.1-0.1-0.2-0.2-0.2l-0.3-0.2c-0.1-0.1-0.2-0.1-0.4-0.2l-0.4-0.1l-0.5-0.1l-0.5-0.1
			c-0.3-0.1-0.6-0.2-0.8-0.3c-0.2-0.1-0.5-0.2-0.7-0.4c-0.2-0.2-0.4-0.4-0.5-0.6c-0.1-0.3-0.2-0.6-0.2-0.9c0-0.5,0.1-0.9,0.4-1.3
			c0.3-0.3,0.6-0.6,1-0.8c0.5-0.2,1-0.2,1.5-0.2c0.7,0,1.4,0.2,2,0.5c0.5,0.4,0.9,0.9,1,1.6l-1.2,0.3c-0.1-0.4-0.3-0.8-0.6-1
			c-0.3-0.2-0.8-0.4-1.2-0.4c-0.4,0-0.8,0.1-1.1,0.3c-0.3,0.2-0.5,0.5-0.5,0.9c0,0.2,0,0.3,0.1,0.4c0.1,0.1,0.1,0.2,0.2,0.3
			c0.1,0.1,0.3,0.2,0.5,0.2l0.5,0.2l0.6,0.1h0.1c0.3,0.1,0.6,0.1,0.8,0.2c0.2,0.1,0.5,0.2,0.7,0.3c0.2,0.1,0.4,0.3,0.6,0.4
			c0.2,0.2,0.3,0.4,0.4,0.6c0.1,0.3,0.2,0.6,0.2,0.9c0,0.4-0.1,0.8-0.2,1.1c-0.2,0.3-0.4,0.6-0.7,0.8c-0.3,0.2-0.6,0.3-1,0.4
			C876.2,180.1,875.9,180.2,875.5,180.2z"/>
	</g>
	<path class="st9" d="M925.8,436.4L925.8,436.4c0,8-6.5,14.6-14.6,14.6h-67.6c-1.3,0-2.6,0.5-3.5,1.5l-15.2,15.2v-31
		c0-8.2,6.7-14.9,14.9-14.9c0,0,0,0,0,0h71.5C919.2,421.8,925.8,428.3,925.8,436.4C925.8,436.4,925.8,436.4,925.8,436.4z"/>
	<g>
		<path class="st7" d="M855.2,439.7h4.1v1.4h-5.5v-11.7h1.5V439.7z"/>
		<path class="st7" d="M863.1,441.2c-0.6,0-1.3-0.2-1.8-0.6c-0.5-0.4-0.7-1-0.7-1.7c0-0.4,0.1-0.7,0.2-1.1c0.1-0.3,0.4-0.6,0.7-0.7
			c0.3-0.2,0.6-0.4,1-0.5c0.4-0.1,0.8-0.2,1.2-0.3l1.3-0.2c0.5-0.1,0.7-0.3,0.7-0.8c0-0.5-0.2-0.9-0.5-1.2c-0.4-0.3-0.8-0.4-1.3-0.4
			c-0.5,0-0.9,0.1-1.3,0.4c-0.4,0.3-0.6,0.7-0.6,1.1l-1.3-0.3c0.1-0.7,0.4-1.3,1-1.8c0.7-0.4,1.4-0.6,2.2-0.6c0.4,0,0.8,0,1.2,0.1
			c0.4,0.1,0.7,0.3,1,0.5c0.3,0.2,0.6,0.5,0.7,0.9c0.2,0.4,0.3,0.9,0.2,1.3v3.4c0,0.3,0,0.6,0.2,0.9c0.2,0.2,0.4,0.2,0.6,0.2h0.1v1
			h-0.7c-0.7,0.1-1.4-0.4-1.5-1.1h-0.1C865.2,440.8,864.1,441.3,863.1,441.2z M863.4,440c0.7,0,1.3-0.3,1.8-0.8
			c0.5-0.6,0.7-1.4,0.7-2.2l-2.2,0.4c-0.5,0-0.9,0.2-1.3,0.5c-0.5,0.4-0.5,1.2-0.1,1.7c0,0,0.1,0.1,0.1,0.1
			C862.7,439.9,863.1,440,863.4,440L863.4,440z"/>
		<path class="st7" d="M871.5,434.3c0.2-0.5,0.6-0.8,1-1.1c0.5-0.3,1-0.4,1.6-0.4v1.4c-0.7-0.1-1.4,0.2-1.9,0.6
			c-0.5,0.5-0.7,1.2-0.7,1.9v4.4h-1.4v-8.2h1.4L871.5,434.3z"/>
		<path class="st7" d="M881.6,432.9h1.4v7.8c0.1,1.2-0.3,2.3-1.1,3.2c-1.8,1.6-4.6,1.4-6.2-0.4c-0.3-0.3-0.5-0.7-0.7-1l1.2-0.6
			c0.4,1.2,1.5,2,2.7,1.9c0.7,0,1.4-0.2,1.9-0.8c0.5-0.6,0.7-1.4,0.7-2.2v-1.5c-0.3,0.5-0.7,0.9-1.2,1.2c-0.5,0.3-1.1,0.5-1.7,0.5
			c-1,0-2-0.4-2.6-1.2c-0.7-0.8-1.1-1.8-1.1-2.9c0-1.1,0.4-2.1,1.1-2.9c0.7-0.7,1.7-1.2,2.7-1.1c0.6,0,1.2,0.1,1.7,0.5
			c0.5,0.3,0.9,0.7,1.2,1.2L881.6,432.9z M879,439.6c0.7,0,1.4-0.3,1.9-0.8c1-1.1,1-2.9,0-4c-0.5-0.5-1.2-0.8-1.9-0.8
			c-0.7,0-1.4,0.3-1.9,0.8c-1,1.1-1,2.9,0,4C877.6,439.3,878.3,439.6,879,439.6z"/>
		<path class="st7" d="M889.4,441.2c-0.7,0-1.4-0.2-2.1-0.5c-0.6-0.3-1.1-0.9-1.5-1.5c-0.4-0.7-0.6-1.5-0.5-2.3
			c-0.1-1.1,0.4-2.3,1.2-3.1c1.7-1.5,4.2-1.5,5.9,0c1.5,1.8,1.5,4.4,0,6.2C891.5,440.8,890.5,441.2,889.4,441.2z M889.4,440
			c0.7,0,1.4-0.3,1.9-0.8c1-1.3,1-3.1,0-4.4c-0.5-0.5-1.2-0.9-1.9-0.8c-0.7,0-1.4,0.3-1.9,0.8c-1,1.3-1,3.1,0,4.4
			C887.9,439.7,888.6,440,889.4,440L889.4,440z"/>
		<path class="st7" d="M898.3,441.2c-0.8,0-1.5-0.2-2.2-0.6c-0.6-0.4-1-1-1.1-1.7l1.2-0.4c0.1,0.4,0.3,0.9,0.7,1.1
			c0.4,0.3,0.9,0.4,1.3,0.4c0.3,0,0.5,0,0.8-0.1c0.2-0.1,0.4-0.2,0.6-0.4c0.2-0.2,0.3-0.5,0.2-0.8c0-0.1,0-0.2-0.1-0.3
			c0-0.1-0.1-0.2-0.1-0.3c-0.1-0.1-0.1-0.2-0.2-0.2l-0.3-0.2c-0.1-0.1-0.2-0.1-0.4-0.2l-0.4-0.1l-0.5-0.1l-0.5-0.1
			c-0.3-0.1-0.6-0.2-0.8-0.3c-0.2-0.1-0.5-0.2-0.7-0.4c-0.2-0.2-0.4-0.4-0.5-0.6c-0.1-0.3-0.2-0.6-0.2-0.9c0-0.5,0.1-0.9,0.4-1.3
			c0.3-0.3,0.6-0.6,1-0.8c0.5-0.2,1-0.2,1.5-0.2c0.7,0,1.4,0.2,2,0.5c0.5,0.4,0.9,0.9,1,1.6l-1.2,0.3c-0.1-0.4-0.3-0.8-0.6-1
			c-0.7-0.4-1.6-0.5-2.3-0.1c-0.3,0.2-0.5,0.5-0.5,0.9c0,0.2,0,0.3,0.1,0.5c0.1,0.1,0.1,0.2,0.2,0.3c0.1,0.1,0.3,0.2,0.4,0.2
			l0.5,0.2l0.6,0.1h0.1c0.3,0.1,0.6,0.1,0.8,0.2c0.2,0.1,0.5,0.2,0.7,0.3c0.2,0.1,0.5,0.3,0.6,0.4c0.2,0.2,0.3,0.4,0.4,0.6
			c0.1,0.3,0.2,0.6,0.2,0.9c0,0.4-0.1,0.8-0.2,1.1c-0.2,0.3-0.4,0.6-0.7,0.8c-0.3,0.2-0.6,0.3-1,0.4
			C899.1,441.2,898.7,441.2,898.3,441.2z"/>
	</g>
	<g>
		<path class="st7" d="M811.8,266.5v1.4h-3v10.3h-1.5v-10.3h-3v-1.4H811.8z"/>
		<path class="st7" d="M814.2,278.4c-0.6,0-1.3-0.2-1.8-0.6c-0.5-0.4-0.8-1-0.7-1.7c0-0.4,0.1-0.7,0.2-1.1c0.2-0.3,0.4-0.6,0.7-0.8
			c0.3-0.2,0.6-0.3,1-0.5c0.4-0.1,0.8-0.2,1.2-0.3l1.3-0.2c0.5-0.1,0.7-0.3,0.7-0.8c0-0.5-0.2-0.9-0.5-1.2c-0.4-0.3-0.8-0.4-1.3-0.4
			c-0.5,0-0.9,0.1-1.3,0.4c-0.4,0.3-0.6,0.7-0.6,1.1l-1.3-0.3c0.1-0.7,0.4-1.3,1-1.8c0.7-0.4,1.4-0.6,2.2-0.6c0.4,0,0.8,0,1.2,0.1
			c0.4,0.1,0.7,0.3,1,0.5c0.3,0.2,0.6,0.5,0.7,0.9c0.2,0.4,0.3,0.9,0.3,1.3v3.4c0,0.3,0,0.6,0.2,0.9c0.2,0.2,0.4,0.3,0.7,0.2h0.1v1
			h-0.7c-0.9,0-1.4-0.4-1.5-1.1h-0.1C816.3,277.9,815.3,278.4,814.2,278.4z M814.5,277.2c0.7,0,1.3-0.3,1.8-0.8
			c0.5-0.6,0.7-1.4,0.7-2.2l-2.2,0.4c-0.5,0.1-0.9,0.2-1.3,0.5c-0.3,0.2-0.4,0.5-0.4,0.9c0,0.3,0.1,0.7,0.4,0.9
			C813.8,277.1,814.2,277.2,814.5,277.2L814.5,277.2z"/>
		<path class="st7" d="M821.2,278.2v-12.8h1.5v12.8H821.2z"/>
		<path class="st7" d="M825.6,278.2v-12.8h1.5v12.8H825.6z"/>
		<path class="st7" d="M837.2,274v0.4h-6.4c0,0.8,0.2,1.5,0.8,2.1c0.5,0.5,1.2,0.7,1.9,0.7c0.5,0,0.9-0.1,1.3-0.4
			c0.4-0.3,0.7-0.6,0.9-1.1l1.3,0.3c-0.3,0.7-0.8,1.3-1.4,1.8c-0.6,0.4-1.4,0.7-2.2,0.6c-1.1,0-2.2-0.4-3-1.1
			c-1.5-1.8-1.5-4.4,0-6.2c0.8-0.8,1.8-1.2,2.9-1.1c1-0.1,2,0.3,2.7,1C836.9,271.8,837.3,272.9,837.2,274z M833.4,271
			c-0.6,0-1.2,0.2-1.7,0.6c-0.5,0.4-0.8,1-0.9,1.7h4.9c0-0.6-0.3-1.2-0.7-1.7C834.6,271.2,834,271,833.4,271L833.4,271z"/>
		<path class="st7" d="M842,278.4c-0.8,0-1.5-0.2-2.2-0.6c-0.6-0.4-1-1-1.1-1.7l1.2-0.4c0.1,0.4,0.3,0.9,0.7,1.1
			c0.4,0.3,0.9,0.4,1.3,0.4c0.3,0,0.5,0,0.8-0.1c0.2-0.1,0.4-0.2,0.6-0.4c0.2-0.2,0.3-0.5,0.2-0.7c0-0.1,0-0.2-0.1-0.3
			c0-0.1-0.1-0.2-0.1-0.3c-0.1-0.1-0.1-0.2-0.2-0.2c-0.1-0.1-0.2-0.1-0.3-0.2l-0.4-0.1l-0.4-0.1l-0.5-0.1l-0.5-0.1
			c-0.3-0.1-0.6-0.2-0.8-0.3c-0.2-0.1-0.5-0.2-0.7-0.4c-0.2-0.2-0.4-0.4-0.5-0.6c-0.1-0.3-0.2-0.6-0.2-0.9c0-0.5,0.1-0.9,0.4-1.3
			c0.3-0.3,0.6-0.6,1-0.8c0.5-0.2,1-0.3,1.5-0.2c0.7,0,1.4,0.2,2,0.5c0.5,0.4,0.9,0.9,1,1.6l-1.2,0.3c-0.1-0.4-0.3-0.8-0.6-1
			c-0.7-0.4-1.6-0.4-2.3,0c-0.3,0.2-0.5,0.5-0.5,0.9c0,0.2,0,0.3,0.1,0.5c0.1,0.1,0.2,0.2,0.2,0.3c0.1,0.1,0.3,0.2,0.4,0.2
			c0.2,0.1,0.3,0.1,0.5,0.2l0.6,0.1h0.1l0.8,0.2c0.2,0.1,0.5,0.2,0.7,0.3c0.2,0.1,0.5,0.3,0.6,0.5c0.2,0.2,0.3,0.4,0.4,0.6
			c0.1,0.3,0.2,0.6,0.2,0.9c0,0.4-0.1,0.8-0.2,1.1c-0.2,0.3-0.4,0.6-0.7,0.8c-0.3,0.2-0.6,0.3-1,0.4
			C842.7,278.4,842.4,278.4,842,278.4z"/>
	</g>
	<g>
		<path class="st7" d="M627.9,213.8c-0.8,0-1.6-0.1-2.3-0.4c-0.7-0.3-1.3-0.7-1.8-1.2c-0.5-0.5-1-1.2-1.2-1.9
			c-0.3-0.8-0.4-1.7-0.4-2.5c0-0.9,0.1-1.7,0.5-2.5c0.3-0.7,0.7-1.4,1.2-1.9c0.5-0.5,1.2-0.9,1.8-1.2c0.7-0.3,1.5-0.4,2.3-0.4
			c1.1,0,2.2,0.3,3.1,0.8c0.9,0.5,1.6,1.3,2,2.3l-1.4,0.6c-0.3-0.7-0.9-1.3-1.5-1.7c-0.7-0.4-1.5-0.6-2.3-0.6
			c-0.6,0-1.2,0.1-1.7,0.3c-1.1,0.4-1.9,1.3-2.3,2.3c-0.4,1.3-0.4,2.6,0,3.9c0.2,0.5,0.5,1,0.9,1.4c0.4,0.4,0.9,0.7,1.4,0.9
			c0.5,0.2,1.1,0.3,1.7,0.3c0.8,0,1.6-0.2,2.3-0.6c0.7-0.4,1.2-1,1.5-1.7l1.4,0.6c-0.4,1-1.1,1.8-2,2.3
			C630.1,213.5,629,213.8,627.9,213.8z"/>
		<path class="st7" d="M638.7,213.8c-0.7,0-1.4-0.2-2.1-0.5c-0.6-0.3-1.1-0.9-1.5-1.5c-0.4-0.7-0.6-1.5-0.5-2.3
			c-0.1-1.1,0.4-2.3,1.2-3.1c1.7-1.5,4.2-1.5,5.9,0c1.5,1.8,1.5,4.4,0,6.2C640.9,213.4,639.8,213.8,638.7,213.8z M638.7,212.6
			c0.7,0,1.4-0.3,1.9-0.8c1-1.3,1-3.1,0-4.4c-0.5-0.5-1.2-0.9-1.9-0.8c-0.7,0-1.4,0.3-1.9,0.8c-1,1.3-1,3.1,0,4.4
			C637.3,212.3,638,212.6,638.7,212.6L638.7,212.6z"/>
		<path class="st7" d="M649,205.3c0.7,0,1.5,0.2,2,0.7c0.5,0.6,0.8,1.3,0.8,2.1v5.5h-1.4v-5.2c0-0.5-0.1-1.1-0.5-1.5
			c-0.3-0.3-0.8-0.5-1.3-0.5c-0.5,0-1.1,0.2-1.5,0.6c-0.4,0.5-0.6,1.1-0.6,1.7v4.9h-1.4v-8.2h1.4v1.1
			C647.1,205.7,648,205.2,649,205.3z"/>
		<path class="st7" d="M657.2,213.6c-0.6,0-1.2-0.2-1.6-0.6c-0.4-0.4-0.6-1-0.6-1.6v-4.8h-1.7v-1.1h0.6c0.3,0,0.7-0.1,0.9-0.3
			c0.2-0.3,0.3-0.6,0.3-1v-1.4h1.3v2.7h1.9v1.1h-1.9v4.6c0,0.3,0.1,0.7,0.3,0.9c0.2,0.2,0.5,0.3,0.8,0.3h0.7v1.1H657.2z"/>
		<path class="st7" d="M663.7,213.8c-0.7,0-1.4-0.2-2.1-0.5c-0.6-0.3-1.1-0.9-1.5-1.5c-0.4-0.7-0.6-1.5-0.5-2.3
			c-0.1-1.1,0.4-2.3,1.2-3.1c1.7-1.5,4.2-1.5,5.9,0c1.5,1.8,1.5,4.4,0,6.2C665.9,213.4,664.8,213.8,663.7,213.8z M663.7,212.6
			c0.7,0,1.4-0.3,1.9-0.8c1-1.3,1-3.1,0-4.4c-0.5-0.5-1.2-0.9-1.9-0.8c-0.7,0-1.4,0.3-1.9,0.8c-1,1.3-1,3.1,0,4.4
			C662.3,212.3,663,212.6,663.7,212.6L663.7,212.6z"/>
		<path class="st7" d="M671.5,206.9c0.2-0.5,0.6-0.8,1-1.1c0.5-0.3,1-0.4,1.6-0.4v1.4c-0.7,0-1.4,0.2-1.9,0.6
			c-0.5,0.5-0.7,1.2-0.7,1.9v4.4h-1.4v-8.2h1.4V206.9z"/>
		<path class="st7" d="M679.6,205.3c0.8,0,1.5,0.2,2.1,0.7c0.5,0.6,0.8,1.3,0.8,2.1v5.5H681v-5.2c0-0.5-0.1-1.1-0.5-1.5
			c-0.3-0.3-0.8-0.5-1.3-0.5c-0.5,0-1.1,0.2-1.5,0.6c-0.4,0.5-0.6,1.1-0.6,1.7v4.9h-1.4v-8.2h1.4v1.1
			C677.7,205.7,678.7,205.2,679.6,205.3z"/>
		<path class="st7" d="M688.7,213.8c-0.7,0-1.4-0.2-2.1-0.5c-0.6-0.3-1.1-0.9-1.5-1.5c-0.4-0.7-0.6-1.5-0.5-2.3
			c0-1.1,0.4-2.3,1.2-3.1c1.7-1.5,4.2-1.5,5.9,0c1.5,1.8,1.5,4.4,0,6.2C690.8,213.4,689.8,213.8,688.7,213.8z M688.7,212.6
			c0.7,0,1.4-0.3,1.9-0.8c1-1.3,1-3.1,0-4.4c-1-1.1-2.7-1.1-3.7-0.1c0,0-0.1,0.1-0.1,0.1c-1,1.3-1,3.1,0,4.4
			C687.2,212.3,687.9,212.6,688.7,212.6z"/>
		<path class="st7" d="M697.6,213.8c-0.8,0-1.5-0.2-2.2-0.6c-0.6-0.4-1-1-1.1-1.7l1.3-0.4c0.1,0.5,0.3,0.9,0.7,1.1
			c0.4,0.3,0.9,0.4,1.3,0.4c0.3,0,0.5,0,0.8-0.1c0.2-0.1,0.5-0.2,0.6-0.4c0.2-0.3,0.3-0.7,0.2-1.1c0-0.1-0.1-0.2-0.1-0.3
			c-0.1-0.1-0.1-0.2-0.2-0.2c-0.1-0.1-0.2-0.1-0.3-0.2c-0.1-0.1-0.2-0.1-0.4-0.1l-0.4-0.1l-0.5-0.1l-0.5-0.1
			c-0.3-0.1-0.6-0.2-0.8-0.3c-0.2-0.1-0.5-0.2-0.7-0.4c-0.2-0.2-0.4-0.4-0.5-0.6c-0.1-0.3-0.2-0.6-0.2-0.9c0-0.5,0.1-0.9,0.4-1.3
			c0.3-0.3,0.6-0.6,1-0.8c0.5-0.2,1-0.3,1.5-0.2c0.7,0,1.4,0.2,2,0.5c0.5,0.4,0.9,0.9,1,1.6l-1.2,0.3c-0.1-0.4-0.3-0.8-0.6-1
			c-0.3-0.2-0.8-0.4-1.2-0.3c-0.4,0-0.8,0.1-1.1,0.3c-0.3,0.2-0.5,0.5-0.5,0.9c0,0.2,0,0.3,0.1,0.4c0.1,0.1,0.1,0.2,0.2,0.3
			c0.1,0.1,0.3,0.2,0.5,0.2c0.2,0.1,0.3,0.1,0.5,0.2c0.2,0.1,0.4,0.1,0.6,0.2h0.1l0.8,0.2c0.2,0.1,0.5,0.2,0.7,0.3
			c0.2,0.1,0.5,0.3,0.6,0.4c0.2,0.2,0.3,0.4,0.4,0.6c0.1,0.3,0.2,0.6,0.2,0.9c0,0.4-0.1,0.8-0.2,1.1c-0.2,0.3-0.4,0.6-0.7,0.8
			c-0.3,0.2-0.6,0.3-1,0.4C698.3,213.7,698,213.7,697.6,213.8z"/>
	</g>
	<path class="st9" d="M610.9,319.4L610.9,319.4c0,8.1,6.5,14.6,14.6,14.6l0,0h67.6c1.3,0,2.6,0.5,3.5,1.5l15.3,15.2v-31
		c0-8.2-6.7-14.9-14.9-14.9h-71.5C617.4,304.8,610.9,311.4,610.9,319.4L610.9,319.4z"/>
	<g>
		<path class="st7" d="M627.9,324.1c-0.8,0-1.6-0.1-2.3-0.4c-0.7-0.3-1.3-0.7-1.8-1.2c-0.5-0.5-1-1.2-1.2-1.9
			c-0.3-0.8-0.4-1.7-0.4-2.5c0-0.9,0.1-1.7,0.5-2.5c0.5-1.4,1.7-2.5,3.1-3.1c0.7-0.3,1.5-0.4,2.3-0.4c1.1,0,2.2,0.3,3.1,0.8
			c0.9,0.5,1.6,1.3,2,2.3l-1.4,0.6c-0.3-0.7-0.9-1.3-1.5-1.7c-0.7-0.4-1.5-0.6-2.3-0.6c-0.6,0-1.2,0.1-1.7,0.3
			c-0.5,0.2-1,0.5-1.4,0.9c-0.4,0.4-0.7,0.9-0.9,1.4c-0.4,1.3-0.4,2.6,0,3.9c0.4,1.1,1.2,1.9,2.3,2.3c0.5,0.2,1.1,0.3,1.7,0.3
			c0.8,0,1.6-0.2,2.3-0.6c0.7-0.4,1.2-1,1.5-1.7l1.4,0.6c-0.4,1-1.1,1.8-2,2.3C630.1,323.8,629,324.1,627.9,324.1z"/>
		<path class="st7" d="M638.7,324.1c-0.7,0-1.4-0.2-2.1-0.5c-0.6-0.3-1.1-0.9-1.5-1.5c-0.4-0.7-0.6-1.5-0.5-2.2
			c-0.1-1.1,0.4-2.3,1.2-3.1c1.7-1.5,4.2-1.5,5.9,0c1.5,1.8,1.5,4.4,0,6.2C640.9,323.7,639.8,324.1,638.7,324.1z M638.7,322.9
			c0.7,0,1.4-0.3,1.9-0.8c1-1.3,1-3.1,0-4.4c-0.5-0.5-1.2-0.9-1.9-0.8c-0.7,0-1.4,0.3-1.9,0.8c-1,1.3-1,3.1,0,4.4
			C637.3,322.6,638,322.9,638.7,322.9L638.7,322.9z"/>
		<path class="st7" d="M649,315.6c0.8,0,1.5,0.2,2.1,0.7c0.5,0.6,0.8,1.3,0.8,2.1v5.5h-1.4v-5.2c0-0.5-0.1-1.1-0.5-1.5
			c-0.3-0.3-0.8-0.5-1.3-0.5c-0.5,0-1.1,0.2-1.5,0.6c-0.4,0.5-0.6,1.1-0.6,1.7v4.9h-1.5v-8.2h1.4v1C647.1,316,648,315.5,649,315.6z"
			/>
		<path class="st7" d="M657.2,323.9c-0.6,0-1.2-0.2-1.6-0.6c-0.4-0.4-0.6-1-0.6-1.6v-4.8h-1.7v-1.1h0.6c0.3,0,0.7-0.1,0.9-0.3
			c0.2-0.3,0.3-0.6,0.3-1V313h1.3v2.7h1.9v1.1h-1.9v4.7c0,0.3,0.1,0.7,0.3,0.9c0.2,0.2,0.5,0.3,0.8,0.3h0.7v1.1L657.2,323.9z"/>
		<path class="st7" d="M663.7,324.1c-0.7,0-1.4-0.2-2.1-0.5c-0.6-0.3-1.1-0.9-1.5-1.5c-0.4-0.7-0.6-1.5-0.5-2.2
			c-0.1-1.1,0.4-2.3,1.2-3.1c1.7-1.5,4.2-1.5,5.9,0c1.5,1.8,1.5,4.4,0,6.2C665.9,323.7,664.8,324.1,663.7,324.1z M663.7,322.9
			c0.7,0,1.4-0.3,1.9-0.8c1-1.3,1-3.1,0-4.4c-0.5-0.5-1.2-0.9-1.9-0.8c-0.7,0-1.4,0.3-1.9,0.8c-1,1.3-1,3.1,0,4.4
			C662.3,322.6,663,322.9,663.7,322.9L663.7,322.9z"/>
		<path class="st7" d="M671.5,317.2c0.2-0.5,0.6-0.8,1-1.1c0.5-0.3,1-0.4,1.6-0.4v1.3c-0.7-0.1-1.4,0.2-1.9,0.6
			c-0.5,0.5-0.7,1.2-0.7,1.9v4.4h-1.4v-8.2h1.4V317.2z"/>
		<path class="st7" d="M679.6,315.6c0.8,0,1.5,0.2,2.1,0.7c0.5,0.6,0.8,1.3,0.8,2.1v5.5H681v-5.2c0-0.5-0.1-1.1-0.5-1.5
			c-0.3-0.3-0.8-0.5-1.3-0.5c-0.5,0-1.1,0.2-1.5,0.6c-0.4,0.5-0.6,1.1-0.6,1.7v4.9h-1.4v-8.2h1.4v1
			C677.7,316,678.7,315.5,679.6,315.6z"/>
		<path class="st7" d="M688.7,324.1c-0.7,0-1.4-0.2-2.1-0.5c-0.6-0.3-1.1-0.9-1.5-1.5c-0.4-0.7-0.6-1.5-0.5-2.2
			c-0.1-1.1,0.4-2.3,1.2-3.1c1.7-1.5,4.2-1.5,5.9,0c1.5,1.8,1.5,4.4,0,6.2C690.8,323.7,689.8,324.1,688.7,324.1z M688.7,322.9
			c0.7,0,1.4-0.3,1.9-0.8c1-1.3,1-3.1,0-4.4c-1-1.1-2.7-1.1-3.7-0.1c0,0-0.1,0.1-0.1,0.1c-1,1.3-1,3.1,0,4.4
			C687.2,322.6,687.9,322.9,688.7,322.9z"/>
		<path class="st7" d="M697.6,324.1c-0.8,0-1.5-0.2-2.2-0.6c-0.6-0.4-1-1-1.1-1.7l1.3-0.4c0.1,0.4,0.3,0.9,0.7,1.1
			c0.4,0.3,0.9,0.4,1.3,0.4c0.3,0,0.5,0,0.8-0.1c0.2-0.1,0.4-0.2,0.6-0.4c0.2-0.2,0.2-0.5,0.2-0.8c0-0.1,0-0.2-0.1-0.3
			c0-0.1-0.1-0.2-0.1-0.3c-0.1-0.1-0.1-0.2-0.2-0.2l-0.3-0.2c-0.1-0.1-0.2-0.1-0.4-0.2l-0.4-0.1l-0.5-0.1l-0.5-0.1
			c-0.3-0.1-0.6-0.2-0.8-0.3c-0.2-0.1-0.5-0.2-0.7-0.4c-0.2-0.2-0.4-0.4-0.5-0.6c-0.1-0.3-0.2-0.6-0.2-0.9c0-0.5,0.1-0.9,0.4-1.3
			c0.3-0.3,0.6-0.6,1-0.8c0.5-0.2,1-0.2,1.5-0.2c0.7,0,1.4,0.2,2,0.5c0.5,0.4,0.9,0.9,1,1.6l-1.2,0.3c-0.1-0.4-0.3-0.8-0.6-1
			c-0.3-0.2-0.8-0.4-1.2-0.4c-0.4,0-0.8,0.1-1.1,0.3c-0.3,0.2-0.5,0.5-0.5,0.9c0,0.2,0,0.3,0.1,0.5c0.1,0.1,0.1,0.2,0.2,0.3
			c0.1,0.1,0.3,0.2,0.5,0.2l0.5,0.2l0.6,0.1h0.1c0.3,0.1,0.6,0.1,0.8,0.2c0.2,0.1,0.5,0.2,0.7,0.3c0.2,0.1,0.5,0.3,0.6,0.4
			c0.2,0.2,0.3,0.4,0.4,0.6c0.1,0.3,0.2,0.6,0.2,0.9c0,0.4-0.1,0.8-0.2,1.1c-0.2,0.3-0.4,0.6-0.7,0.8c-0.3,0.2-0.6,0.3-1,0.4
			C698.4,324,698,324.1,697.6,324.1z"/>
	</g>
</g>
</svg>
