<svg xmlns="http://www.w3.org/2000/svg" width="485" height="148.331" viewBox="0 0 485 148.331">
  <g id="Grupo_16054" data-name="Grupo 16054" transform="translate(761 -6524.309)">
    <path id="Trazado_25222" data-name="Trazado 25222" d="M17,0A17,17,0,1,1,0,17,17,17,0,0,1,17,0Z" transform="translate(-482 6571)" fill="#ffe292"/>
    <path id="Trazado_25223" data-name="Trazado 25223" d="M17,0A17,17,0,1,1,0,17,17,17,0,0,1,17,0Z" transform="translate(-482 6616)" fill="#ffe292"/>
    <path id="Trazado_24814" data-name="Trazado 24814" d="M222,3560H707" transform="translate(-983 3049.597)" fill="none" stroke="#d2bef6" stroke-width="1"/>
    <path id="Trazado_25226" data-name="Trazado 25226" d="M24.7,14.727h3.82V16H23.3V5h1.4Zm7.414,1.422a2.613,2.613,0,0,1-1.684-.527,1.894,1.894,0,0,1-.66-1.574,2.237,2.237,0,0,1,.211-1,1.77,1.77,0,0,1,.625-.7,3.749,3.749,0,0,1,.9-.434,8.341,8.341,0,0,1,1.168-.277l1.242-.2q.68-.125.68-.711a1.342,1.342,0,0,0-.48-1.145A1.958,1.958,0,0,0,32.9,9.211a1.994,1.994,0,0,0-1.2.352,1.471,1.471,0,0,0-.57,1.078l-1.219-.258a2.346,2.346,0,0,1,.961-1.645,3.59,3.59,0,0,1,2.094-.551,4.247,4.247,0,0,1,1.113.137,3.025,3.025,0,0,1,.93.43,1.927,1.927,0,0,1,.664.828,3.081,3.081,0,0,1,.238,1.262v3.172a1.3,1.3,0,0,0,.176.8.759.759,0,0,0,.605.207h.125V16h-.672a1.281,1.281,0,0,1-1.453-1.039h-.062A2.935,2.935,0,0,1,32.109,16.148Zm.313-1.094a2.049,2.049,0,0,0,1.648-.742,3.056,3.056,0,0,0,.625-2.031l-2.031.391a2.734,2.734,0,0,0-1.191.426.99.99,0,0,0-.387.84.979.979,0,0,0,.371.844A1.586,1.586,0,0,0,32.422,15.055Zm7.617-5.383a2.322,2.322,0,0,1,.953-1.031,2.87,2.87,0,0,1,1.477-.406V9.508a2.53,2.53,0,0,0-1.785.57,2.382,2.382,0,0,0-.613,1.82V16H38.719V8.32h1.32ZM49.523,8.32h1.313v7.289a4.183,4.183,0,0,1-.992,2.992,3.607,3.607,0,0,1-2.75,1.047A3.63,3.63,0,0,1,43.367,17.3l1.117-.547a2.539,2.539,0,0,0,2.57,1.773,2.2,2.2,0,0,0,1.8-.75,3.192,3.192,0,0,0,.621-2.094V14.258a2.707,2.707,0,0,1-1.094,1.105,3.182,3.182,0,0,1-1.6.418A3.293,3.293,0,0,1,44.3,14.7a3.816,3.816,0,0,1-1.023-2.73A3.78,3.78,0,0,1,44.3,9.246a3.325,3.325,0,0,1,2.5-1.074,3.1,3.1,0,0,1,1.609.43,2.766,2.766,0,0,1,1.086,1.133Zm-2.437,6.313a2.323,2.323,0,0,0,1.77-.789,2.787,2.787,0,0,0,0-3.758,2.407,2.407,0,0,0-3.543-.023,2.67,2.67,0,0,0-.723,1.906,2.647,2.647,0,0,0,.73,1.895A2.341,2.341,0,0,0,47.086,14.633Zm9.734,1.516a4.048,4.048,0,0,1-1.969-.477,3.47,3.47,0,0,1-1.387-1.395,4.283,4.283,0,0,1-.512-2.121,3.912,3.912,0,0,1,1.09-2.895,4.089,4.089,0,0,1,5.559,0,3.92,3.92,0,0,1,1.086,2.895,3.923,3.923,0,0,1-1.09,2.9A3.762,3.762,0,0,1,56.82,16.148Zm-.008-1.125a2.359,2.359,0,0,0,1.816-.789,2.957,2.957,0,0,0,.723-2.078,2.945,2.945,0,0,0-.723-2.07A2.359,2.359,0,0,0,56.813,9.3a2.326,2.326,0,0,0-1.8.789,2.965,2.965,0,0,0-.715,2.07,2.976,2.976,0,0,0,.715,2.078A2.326,2.326,0,0,0,56.813,15.023ZM27.086,60l-.945-2.633H21.164L20.227,60H18.766L22.82,49h1.672l4.055,11Zm-5.477-3.867H25.7l-2.047-5.727Zm12.406-3.961a2.671,2.671,0,0,1,1.934.7,2.594,2.594,0,0,1,.723,1.961V60H35.32V55.133a1.816,1.816,0,0,0-.469-1.375,1.676,1.676,0,0,0-1.2-.445,1.858,1.858,0,0,0-1.367.527,2.14,2.14,0,0,0-.539,1.566V60H30.391V52.32h1.352V53.3A2.565,2.565,0,0,1,34.016,52.172Zm8.453,7.969a3.7,3.7,0,0,1-2.75-1.1,4.375,4.375,0,0,1,0-5.766,4,4,0,0,1,4.977-.43,3.391,3.391,0,0,1,1.293,1.867l-1.266.2a2.337,2.337,0,0,0-.867-1.2,2.361,2.361,0,0,0-1.391-.422,2.27,2.27,0,0,0-1.777.789,3.409,3.409,0,0,0,0,4.137,2.275,2.275,0,0,0,1.777.785,2.361,2.361,0,0,0,1.391-.422,2.337,2.337,0,0,0,.867-1.2l1.266.211a3.4,3.4,0,0,1-1.3,1.863A3.72,3.72,0,0,1,42.469,60.141Zm9.18-7.969a2.566,2.566,0,0,1,1.9.711,2.76,2.76,0,0,1,.711,2.039V60H52.906V55.18a1.889,1.889,0,0,0-.469-1.414,1.67,1.67,0,0,0-1.211-.453,1.859,1.859,0,0,0-1.355.523,2.128,2.128,0,0,0-.543,1.57V60H47.977V48h1.352v5.336a2.5,2.5,0,0,1,.965-.859A2.942,2.942,0,0,1,51.648,52.172Zm8.445,7.977a4.048,4.048,0,0,1-1.969-.477,3.47,3.47,0,0,1-1.387-1.395,4.284,4.284,0,0,1-.512-2.121,3.912,3.912,0,0,1,1.09-2.895,4.089,4.089,0,0,1,5.559,0,4.405,4.405,0,0,1,0,5.8A3.762,3.762,0,0,1,60.094,60.148Zm-.008-1.125a2.359,2.359,0,0,0,1.816-.789,3.338,3.338,0,0,0,0-4.148,2.359,2.359,0,0,0-1.816-.789,2.326,2.326,0,0,0-1.8.789,3.367,3.367,0,0,0,0,4.148A2.326,2.326,0,0,0,60.086,59.023Z" transform="translate(-723.565 6577.688)" fill="#00223d"/>
    <path id="Trazado_25227" data-name="Trazado 25227" d="M31.223,14.758H36.7V16H29.277V14.977l4.406-4.555a5.219,5.219,0,0,0,.992-1.3,2.6,2.6,0,0,0,.273-1.133,1.9,1.9,0,0,0-.555-1.457,2.264,2.264,0,0,0-2.941.047,2.437,2.437,0,0,0-.559,1.77v.813l-1.352-.125v-.68a3.477,3.477,0,0,1,.93-2.613,3.849,3.849,0,0,1,4.871-.066,2.907,2.907,0,0,1,.934,2.281,3.459,3.459,0,0,1-.371,1.59,6.835,6.835,0,0,1-1.191,1.582Zm0,44H36.7V60H29.277V58.977l4.406-4.555a5.219,5.219,0,0,0,.992-1.3,2.6,2.6,0,0,0,.273-1.133,1.9,1.9,0,0,0-.555-1.457,2.264,2.264,0,0,0-2.941.047,2.437,2.437,0,0,0-.559,1.77v.813l-1.352-.125v-.68a3.477,3.477,0,0,1,.93-2.613,3.849,3.849,0,0,1,4.871-.066,2.907,2.907,0,0,1,.934,2.281,3.459,3.459,0,0,1-.371,1.59,6.835,6.835,0,0,1-1.191,1.582Z" transform="translate(-604 6577.688)" fill="#00223d"/>
    <path id="Trazado_25228" data-name="Trazado 25228" d="M40.184,12.547v1.242h-1.7V16H37.137V13.789H31.871v-1.25L36.449,5h2.039v7.547Zm-6.914,0h3.867V5.992Zm6.914,44v1.242h-1.7V60H37.137V57.789H31.871v-1.25L36.449,49h2.039v7.547Zm-6.914,0h3.867V49.992Z" transform="translate(-501.435 6577.688)" fill="#00223d"/>
    <path id="Trazado_25229" data-name="Trazado 25229" d="M39.817,12.336a3.712,3.712,0,0,1-.5,1.977,3.533,3.533,0,0,1-1.383,1.344,3.944,3.944,0,0,1-1.906.469,3.84,3.84,0,0,1-2.734-1.035,3.5,3.5,0,0,1-1.1-2.668,4.331,4.331,0,0,1,.953-2.641L36.824,5h1.594L35.364,8.852a3.425,3.425,0,0,1,.953-.133A3.5,3.5,0,0,1,38,9.141,3.379,3.379,0,0,1,39.293,10.4,3.77,3.77,0,0,1,39.817,12.336ZM36,14.867a2.389,2.389,0,0,0,2.5-2.555,2.417,2.417,0,0,0-2.523-2.539,2.364,2.364,0,0,0-1.8.754,2.526,2.526,0,0,0-.7,1.84,2.435,2.435,0,0,0,.707,1.836A2.519,2.519,0,0,0,36,14.867Zm3.82,41.469a3.712,3.712,0,0,1-.5,1.977,3.533,3.533,0,0,1-1.383,1.344,3.944,3.944,0,0,1-1.906.469,3.84,3.84,0,0,1-2.734-1.035,3.5,3.5,0,0,1-1.1-2.668,4.331,4.331,0,0,1,.953-2.641L36.824,49h1.594l-3.055,3.852a3.425,3.425,0,0,1,.953-.133A3.5,3.5,0,0,1,38,53.141,3.379,3.379,0,0,1,39.293,54.4,3.77,3.77,0,0,1,39.817,56.336ZM36,58.867a2.389,2.389,0,0,0,2.5-2.555,2.417,2.417,0,0,0-2.523-2.539,2.364,2.364,0,0,0-1.8.754,2.526,2.526,0,0,0-.7,1.84,2.435,2.435,0,0,0,.707,1.836A2.519,2.519,0,0,0,36,58.867Z" transform="translate(-392.869 6577.688)" fill="#00223d"/>
    <path id="Trazado_25230" data-name="Trazado 25230" d="M0,0H485V40H0Z" transform="translate(-761 6524.309)" fill="#673ab7"/>
    <path id="Trazado_25231" data-name="Trazado 25231" d="M14.4,16H12.063L11.32,7.492,8.461,16H6.945L4.086,7.492,3.336,16H.992L1.938,4.711H5.281L7.688,11.8l2.438-7.086h3.344Zm9.664-4.133-.023.539H18.086a2.079,2.079,0,0,0,.641,1.469,2.049,2.049,0,0,0,1.414.508,1.974,1.974,0,0,0,1.059-.277,1.7,1.7,0,0,0,.676-.809l2.063.3a3.506,3.506,0,0,1-1.406,1.883,4.181,4.181,0,0,1-2.375.672,4.348,4.348,0,0,1-3.129-1.105,4.034,4.034,0,0,1-1.16-3.066,4.058,4.058,0,0,1,1.164-3.066A4.219,4.219,0,0,1,20.086,7.8,4.032,4.032,0,0,1,22.969,8.82,4.015,4.015,0,0,1,24.063,11.867ZM20.1,9.391a1.778,1.778,0,0,0-1.953,1.547h3.688a1.691,1.691,0,0,0-.555-1.148A1.758,1.758,0,0,0,20.1,9.391ZM31.469,4h2.25V16H31.586l-.055-1.047a2.294,2.294,0,0,1-1.02.91,3.432,3.432,0,0,1-1.5.324,3.906,3.906,0,0,1-1.5-.289,3.613,3.613,0,0,1-2.062-2.141,4.885,4.885,0,0,1-.3-1.758,4.566,4.566,0,0,1,.531-2.238,3.64,3.64,0,0,1,1.4-1.457,3.862,3.862,0,0,1,1.934-.492,3.518,3.518,0,0,1,1.457.293,2.275,2.275,0,0,1,1,.832ZM29.523,14.32a2,2,0,0,0,1.52-.641A2.345,2.345,0,0,0,31.648,12a2.35,2.35,0,0,0-.609-1.684,2,2,0,0,0-1.516-.645A2.024,2.024,0,0,0,28,10.3a2.35,2.35,0,0,0-.605,1.7A2.339,2.339,0,0,0,28,13.688,2.024,2.024,0,0,0,29.523,14.32ZM37.2,6.766a1.263,1.263,0,0,1-.922-.379,1.244,1.244,0,0,1-.383-.918,1.229,1.229,0,0,1,.387-.91A1.267,1.267,0,0,1,37.2,4.18a1.3,1.3,0,0,1,1.289,1.289,1.3,1.3,0,0,1-1.289,1.3ZM36.047,16V7.969h2.266V16ZM46.336,4h2.25V16H46.453L46.4,14.953a2.294,2.294,0,0,1-1.02.91,3.432,3.432,0,0,1-1.5.324,3.906,3.906,0,0,1-1.5-.289,3.613,3.613,0,0,1-2.062-2.141,4.885,4.885,0,0,1-.3-1.758,4.566,4.566,0,0,1,.531-2.238,3.64,3.64,0,0,1,1.4-1.457,3.862,3.862,0,0,1,1.934-.492,3.518,3.518,0,0,1,1.457.293,2.275,2.275,0,0,1,1,.832ZM44.391,14.32a2,2,0,0,0,1.52-.641A2.345,2.345,0,0,0,46.516,12a2.35,2.35,0,0,0-.609-1.684,2,2,0,0,0-1.516-.645,2.024,2.024,0,0,0-1.527.633,2.35,2.35,0,0,0-.605,1.7,2.339,2.339,0,0,0,.605,1.688A2.024,2.024,0,0,0,44.391,14.32Zm13.109-.5a7.513,7.513,0,0,0,.2,1.961V16h-2.1l-.18-.875a2.611,2.611,0,0,1-1.125.773,4.146,4.146,0,0,1-1.453.258,3.821,3.821,0,0,1-.75-.07,2.55,2.55,0,0,1-.676-.238,2.051,2.051,0,0,1-.559-.418,1.833,1.833,0,0,1-.375-.637,2.536,2.536,0,0,1-.141-.871,2.416,2.416,0,0,1,.148-.871,2.042,2.042,0,0,1,.391-.652,2.369,2.369,0,0,1,.633-.477,4.842,4.842,0,0,1,.8-.344,9.521,9.521,0,0,1,.953-.25l1.32-.3a1.456,1.456,0,0,0,.6-.254.506.506,0,0,0,.176-.4.829.829,0,0,0-.395-.773A1.842,1.842,0,0,0,54,9.367a1.377,1.377,0,0,0-1.57,1.227l-1.992-.359A2.7,2.7,0,0,1,51.6,8.4a4.627,4.627,0,0,1,2.523-.59q3.375,0,3.375,2.9Zm-3.961.813a1.81,1.81,0,0,0,1.391-.582,2.453,2.453,0,0,0,.539-1.723l-1.906.539a2.253,2.253,0,0,0-.8.328.674.674,0,0,0-.277.578.748.748,0,0,0,.3.637A1.229,1.229,0,0,0,53.539,14.633Zm8.977,1.523a4.488,4.488,0,0,1-2.344-.562,2.378,2.378,0,0,1-1.148-1.672l1.883-.531a1.513,1.513,0,0,0,1.609,1.2,1.662,1.662,0,0,0,.82-.184.639.639,0,0,0,.32-.621.657.657,0,0,0-.133-.414,1.052,1.052,0,0,0-.41-.3,5.11,5.11,0,0,0-.547-.211q-.27-.086-.715-.207t-.742-.23a4.972,4.972,0,0,1-.707-.3,3.016,3.016,0,0,1-.586-.414,1.669,1.669,0,0,1-.437-.629,2.269,2.269,0,0,1-.152-.859,2.052,2.052,0,0,1,.871-1.8,3.892,3.892,0,0,1,2.277-.609,3.99,3.99,0,0,1,2.1.516,2.334,2.334,0,0,1,1.078,1.609l-1.742.391a1.365,1.365,0,0,0-1.43-1.016,1.566,1.566,0,0,0-.789.18.577.577,0,0,0-.312.531.609.609,0,0,0,.047.242.479.479,0,0,0,.164.2,2.393,2.393,0,0,0,.227.148,1.709,1.709,0,0,0,.32.129q.211.066.352.1l.41.105.418.109q.43.117.754.234a4.415,4.415,0,0,1,.691.328,2.481,2.481,0,0,1,.605.473,2.108,2.108,0,0,1,.395.664,2.453,2.453,0,0,1,.156.895,2.416,2.416,0,0,1-.27,1.164,2.023,2.023,0,0,1-.738.785,3.593,3.593,0,0,1-1.043.422A5.41,5.41,0,0,1,62.516,16.156Z" transform="translate(-712.871 6533.559)" fill="#fff"/>
    <path id="Trazado_25232" data-name="Trazado 25232" d="M6.156,4.711a3.4,3.4,0,0,1,2.6,1.051,3.655,3.655,0,0,1,.984,2.6,3.565,3.565,0,0,1-.977,2.582,3.459,3.459,0,0,1-2.609,1.012H3.8V16H1.461V4.711ZM5.766,9.992a1.722,1.722,0,0,0,1.289-.441,1.679,1.679,0,0,0,.43-1.223,1.665,1.665,0,0,0-.434-1.207,1.707,1.707,0,0,0-1.285-.449H3.8v3.32ZM18.7,11.867l-.023.539H12.719a2.079,2.079,0,0,0,.641,1.469,2.049,2.049,0,0,0,1.414.508,1.974,1.974,0,0,0,1.059-.277,1.7,1.7,0,0,0,.676-.809l2.063.3a3.506,3.506,0,0,1-1.406,1.883,4.181,4.181,0,0,1-2.375.672,4.348,4.348,0,0,1-3.129-1.105,4.034,4.034,0,0,1-1.16-3.066,4.058,4.058,0,0,1,1.164-3.066A4.219,4.219,0,0,1,14.719,7.8,4.032,4.032,0,0,1,17.6,8.82,4.015,4.015,0,0,1,18.7,11.867ZM14.734,9.391a1.778,1.778,0,0,0-1.953,1.547h3.688a1.691,1.691,0,0,0-.555-1.148A1.758,1.758,0,0,0,14.734,9.391ZM26.211,7.969h2.133V19.906h-2.25V15.063a2.316,2.316,0,0,1-1.008.828,3.466,3.466,0,0,1-1.445.3,3.906,3.906,0,0,1-1.5-.289,3.754,3.754,0,0,1-1.23-.812,3.676,3.676,0,0,1-.832-1.324,5.246,5.246,0,0,1,0-3.523,3.676,3.676,0,0,1,.832-1.324,3.754,3.754,0,0,1,1.23-.812,3.906,3.906,0,0,1,1.5-.289,3.5,3.5,0,0,1,1.5.316,2.216,2.216,0,0,1,1.012.895ZM24.148,14.32a2.012,2.012,0,0,0,1.527-.641A2.345,2.345,0,0,0,26.281,12a2.336,2.336,0,0,0-.609-1.68,2.141,2.141,0,0,0-3.043-.012A2.336,2.336,0,0,0,22.023,12a2.336,2.336,0,0,0,.605,1.691A2.021,2.021,0,0,0,24.148,14.32ZM36,7.969h2.25V16H36.117l-.055-.969a3.067,3.067,0,0,1-2.555,1.125,3.131,3.131,0,0,1-2.219-.723,2.68,2.68,0,0,1-.773-2.059V7.969h2.258v4.922a1.388,1.388,0,0,0,.4,1.1,1.527,1.527,0,0,0,1.043.352,1.811,1.811,0,0,0,1.277-.457A1.963,1.963,0,0,0,36,12.4Zm12.133,3.9-.023.539H42.156a2.079,2.079,0,0,0,.641,1.469,2.049,2.049,0,0,0,1.414.508,1.974,1.974,0,0,0,1.059-.277,1.7,1.7,0,0,0,.676-.809l2.063.3A3.506,3.506,0,0,1,46.6,15.484a4.181,4.181,0,0,1-2.375.672A4.348,4.348,0,0,1,41.1,15.051a4.034,4.034,0,0,1-1.16-3.066A4.058,4.058,0,0,1,41.1,8.918,4.219,4.219,0,0,1,44.156,7.8,4.032,4.032,0,0,1,47.039,8.82,4.015,4.015,0,0,1,48.133,11.867ZM44.172,9.391a1.778,1.778,0,0,0-1.953,1.547h3.688a1.691,1.691,0,0,0-.555-1.148A1.758,1.758,0,0,0,44.172,9.391Zm8.656-3.57a.44.44,0,0,0-.406.273,1.6,1.6,0,0,0-.141.727h-1.07a2.4,2.4,0,0,1,.426-1.477,1.363,1.363,0,0,1,1.152-.57,1.528,1.528,0,0,1,1.367.8.547.547,0,0,0,.469.3q.523,0,.523-1h1.078a2.44,2.44,0,0,1-.418,1.473,1.355,1.355,0,0,1-1.16.574,1.56,1.56,0,0,1-1.375-.8A.545.545,0,0,0,52.828,5.82Zm1.758,1.992a3.131,3.131,0,0,1,2.219.723,2.68,2.68,0,0,1,.773,2.059V16H55.32V11.078a1.4,1.4,0,0,0-.4-1.109,1.516,1.516,0,0,0-1.035-.352,2.115,2.115,0,0,0-.672.1,1.726,1.726,0,0,0-.562.316,1.4,1.4,0,0,0-.4.605,2.8,2.8,0,0,0-.152.93V16h-2.25V7.969h2.25v.891A3.1,3.1,0,0,1,54.586,7.813ZM63.5,16.156a5.05,5.05,0,0,1-2.273-.492,3.679,3.679,0,0,1-1.559-1.445,4.307,4.307,0,0,1-.566-2.242A3.929,3.929,0,0,1,60.32,8.93a5.095,5.095,0,0,1,6.367,0,3.929,3.929,0,0,1,1.219,3.047,3.951,3.951,0,0,1-1.219,3.059A4.523,4.523,0,0,1,63.5,16.156Zm-.023-1.789a2.061,2.061,0,0,0,1.59-.656,2.457,2.457,0,0,0,.605-1.734,2.457,2.457,0,0,0-.605-1.734,2.061,2.061,0,0,0-1.59-.656,1.986,1.986,0,0,0-1.543.66,2.479,2.479,0,0,0-.6,1.73,2.479,2.479,0,0,0,.6,1.73A1.986,1.986,0,0,0,63.477,14.367Z" transform="translate(-607.5 6533.559)" fill="#fff"/>
    <path id="Trazado_25233" data-name="Trazado 25233" d="M19.406,16H17.07l-.742-8.508L13.469,16H11.953L9.094,7.492,8.344,16H6L6.945,4.711h3.344L12.7,11.8l2.438-7.086h3.344Zm9.664-4.133-.023.539H23.094a2.079,2.079,0,0,0,.641,1.469,2.049,2.049,0,0,0,1.414.508,1.974,1.974,0,0,0,1.059-.277,1.7,1.7,0,0,0,.676-.809l2.063.3a3.506,3.506,0,0,1-1.406,1.883,4.181,4.181,0,0,1-2.375.672,4.348,4.348,0,0,1-3.129-1.105,4.034,4.034,0,0,1-1.16-3.066,4.058,4.058,0,0,1,1.164-3.066A4.219,4.219,0,0,1,25.094,7.8,4.032,4.032,0,0,1,27.977,8.82,4.015,4.015,0,0,1,29.07,11.867ZM25.109,9.391a1.778,1.778,0,0,0-1.953,1.547h3.688a1.691,1.691,0,0,0-.555-1.148A1.758,1.758,0,0,0,25.109,9.391ZM36.477,4h2.25V16H36.594l-.055-1.047a2.294,2.294,0,0,1-1.02.91,3.432,3.432,0,0,1-1.5.324,3.906,3.906,0,0,1-1.5-.289,3.613,3.613,0,0,1-2.062-2.141,4.885,4.885,0,0,1-.3-1.758,4.566,4.566,0,0,1,.531-2.238,3.64,3.64,0,0,1,1.4-1.457,3.862,3.862,0,0,1,1.934-.492,3.518,3.518,0,0,1,1.457.293,2.275,2.275,0,0,1,1,.832ZM34.531,14.32a2,2,0,0,0,1.52-.641A2.345,2.345,0,0,0,36.656,12a2.35,2.35,0,0,0-.609-1.684,2,2,0,0,0-1.516-.645A2.024,2.024,0,0,0,33,10.3,2.35,2.35,0,0,0,32.4,12,2.339,2.339,0,0,0,33,13.688,2.024,2.024,0,0,0,34.531,14.32ZM42.2,6.766a1.263,1.263,0,0,1-.922-.379,1.244,1.244,0,0,1-.383-.918,1.229,1.229,0,0,1,.387-.91A1.267,1.267,0,0,1,42.2,4.18a1.3,1.3,0,0,1,1.289,1.289,1.3,1.3,0,0,1-1.289,1.3ZM41.055,16V7.969H43.32V16Zm11.18-2.18a7.513,7.513,0,0,0,.2,1.961V16h-2.1l-.18-.875a2.611,2.611,0,0,1-1.125.773,4.146,4.146,0,0,1-1.453.258,3.821,3.821,0,0,1-.75-.07,2.55,2.55,0,0,1-.676-.238,2.051,2.051,0,0,1-.559-.418,1.833,1.833,0,0,1-.375-.637,2.536,2.536,0,0,1-.141-.871,2.416,2.416,0,0,1,.148-.871,2.042,2.042,0,0,1,.391-.652,2.369,2.369,0,0,1,.633-.477,4.842,4.842,0,0,1,.8-.344,9.521,9.521,0,0,1,.953-.25l1.32-.3a1.456,1.456,0,0,0,.6-.254.506.506,0,0,0,.176-.4.829.829,0,0,0-.395-.773,1.842,1.842,0,0,0-.957-.234,1.377,1.377,0,0,0-1.57,1.227l-1.992-.359A2.7,2.7,0,0,1,46.336,8.4a4.627,4.627,0,0,1,2.523-.59q3.375,0,3.375,2.9Zm-3.961.813a1.81,1.81,0,0,0,1.391-.582,2.453,2.453,0,0,0,.539-1.723l-1.906.539a2.253,2.253,0,0,0-.8.328.674.674,0,0,0-.277.578.748.748,0,0,0,.3.637A1.229,1.229,0,0,0,48.273,14.633Zm10.891-6.82a3.131,3.131,0,0,1,2.219.723,2.68,2.68,0,0,1,.773,2.059V16H59.9V11.078a1.4,1.4,0,0,0-.4-1.109,1.516,1.516,0,0,0-1.035-.352,2.115,2.115,0,0,0-.672.1,1.726,1.726,0,0,0-.562.316,1.4,1.4,0,0,0-.4.605,2.8,2.8,0,0,0-.152.93V16h-2.25V7.969h2.25v.891A3.1,3.1,0,0,1,59.164,7.813Zm8.914,8.344a5.05,5.05,0,0,1-2.273-.492,3.679,3.679,0,0,1-1.559-1.445,4.307,4.307,0,0,1-.566-2.242A3.929,3.929,0,0,1,64.9,8.93a5.095,5.095,0,0,1,6.367,0,3.929,3.929,0,0,1,1.219,3.047,3.951,3.951,0,0,1-1.219,3.059A4.523,4.523,0,0,1,68.078,16.156Zm-.023-1.789a2.061,2.061,0,0,0,1.59-.656,2.457,2.457,0,0,0,.605-1.734,2.457,2.457,0,0,0-.605-1.734,2.061,2.061,0,0,0-1.59-.656,1.986,1.986,0,0,0-1.543.66,2.479,2.479,0,0,0-.6,1.73,2.479,2.479,0,0,0,.6,1.73A1.986,1.986,0,0,0,68.055,14.367Z" transform="translate(-503.629 6533.559)" fill="#fff"/>
    <path id="Trazado_25234" data-name="Trazado 25234" d="M16.789,16.156a6.1,6.1,0,0,1-2.254-.41,5.284,5.284,0,0,1-1.8-1.152,5.177,5.177,0,0,1-1.18-1.828,6.473,6.473,0,0,1-.426-2.383,6.453,6.453,0,0,1,.438-2.41,5.245,5.245,0,0,1,1.2-1.844,5.38,5.38,0,0,1,1.832-1.16,6.3,6.3,0,0,1,2.3-.414,6.152,6.152,0,0,1,2.934.691,5.028,5.028,0,0,1,2.035,1.965L19.82,8.3a3.012,3.012,0,0,0-1.191-1.281,3.417,3.417,0,0,0-1.723-.43,3.273,3.273,0,0,0-2.465.992,3.785,3.785,0,0,0-.957,2.742,3.9,3.9,0,0,0,.953,2.758,3.311,3.311,0,0,0,2.555,1.031,3.775,3.775,0,0,0,1.375-.242,2.743,2.743,0,0,0,1.094-.785,2.844,2.844,0,0,0,.625-1.34H17V9.867h5.3V16H20.461V14.438A4.119,4.119,0,0,1,16.789,16.156Zm9.8-6.914a2.607,2.607,0,0,1,1.055-.965,3.218,3.218,0,0,1,1.57-.4V9.883a3.043,3.043,0,0,0-1.922.484,2.115,2.115,0,0,0-.594,1.719V16H24.438V7.969h2.156ZM37.078,13.82a7.513,7.513,0,0,0,.2,1.961V16h-2.1l-.18-.875a2.611,2.611,0,0,1-1.125.773,4.146,4.146,0,0,1-1.453.258,3.821,3.821,0,0,1-.75-.07,2.55,2.55,0,0,1-.676-.238,2.051,2.051,0,0,1-.559-.418,1.833,1.833,0,0,1-.375-.637,2.536,2.536,0,0,1-.141-.871,2.416,2.416,0,0,1,.148-.871,2.042,2.042,0,0,1,.391-.652,2.369,2.369,0,0,1,.633-.477,4.842,4.842,0,0,1,.8-.344,9.521,9.521,0,0,1,.953-.25l1.32-.3a1.456,1.456,0,0,0,.6-.254.506.506,0,0,0,.176-.4.829.829,0,0,0-.395-.773,1.842,1.842,0,0,0-.957-.234,1.377,1.377,0,0,0-1.57,1.227l-1.992-.359A2.7,2.7,0,0,1,31.18,8.4a4.627,4.627,0,0,1,2.523-.59q3.375,0,3.375,2.9Zm-3.961.813a1.81,1.81,0,0,0,1.391-.582,2.453,2.453,0,0,0,.539-1.723l-1.906.539a2.253,2.253,0,0,0-.8.328.674.674,0,0,0-.277.578.748.748,0,0,0,.3.637A1.229,1.229,0,0,0,33.117,14.633Zm10.891-6.82a3.131,3.131,0,0,1,2.219.723A2.68,2.68,0,0,1,47,10.594V16H44.742V11.078a1.4,1.4,0,0,0-.4-1.109A1.516,1.516,0,0,0,43.3,9.617a2.115,2.115,0,0,0-.672.1,1.726,1.726,0,0,0-.562.316,1.4,1.4,0,0,0-.4.605,2.8,2.8,0,0,0-.152.93V16h-2.25V7.969h2.25v.891A3.1,3.1,0,0,1,44.008,7.813ZM54.875,4h2.25V16H54.992l-.055-1.047a2.294,2.294,0,0,1-1.02.91,3.432,3.432,0,0,1-1.5.324,3.906,3.906,0,0,1-1.5-.289,3.613,3.613,0,0,1-2.062-2.141,4.885,4.885,0,0,1-.3-1.758,4.566,4.566,0,0,1,.531-2.238A3.64,3.64,0,0,1,50.48,8.3a3.862,3.862,0,0,1,1.934-.492,3.518,3.518,0,0,1,1.457.293,2.275,2.275,0,0,1,1,.832ZM52.93,14.32a2,2,0,0,0,1.52-.641A2.345,2.345,0,0,0,55.055,12a2.35,2.35,0,0,0-.609-1.684,2,2,0,0,0-1.516-.645A2.024,2.024,0,0,0,51.4,10.3,2.35,2.35,0,0,0,50.8,12a2.339,2.339,0,0,0,.605,1.688A2.024,2.024,0,0,0,52.93,14.32Zm14.078-2.453-.023.539H61.031a2.079,2.079,0,0,0,.641,1.469,2.049,2.049,0,0,0,1.414.508,1.974,1.974,0,0,0,1.059-.277,1.7,1.7,0,0,0,.676-.809l2.063.3a3.506,3.506,0,0,1-1.406,1.883,4.181,4.181,0,0,1-2.375.672,4.348,4.348,0,0,1-3.129-1.105,4.034,4.034,0,0,1-1.16-3.066,4.058,4.058,0,0,1,1.164-3.066A4.219,4.219,0,0,1,63.031,7.8,4.032,4.032,0,0,1,65.914,8.82,4.015,4.015,0,0,1,67.008,11.867ZM63.047,9.391a1.778,1.778,0,0,0-1.953,1.547h3.688a1.691,1.691,0,0,0-.555-1.148A1.758,1.758,0,0,0,63.047,9.391Z" transform="translate(-395.063 6533.559)" fill="#fff"/>
    <g id="Grupo_16012" data-name="Grupo 16012" transform="translate(-400.663 6587.233) rotate(90)">
      <rect id="Rectángulo_3894" data-name="Rectángulo 3894" width="1.533" height="38.27" fill="#673ab7"/>
    </g>
    <g id="Grupo_16014" data-name="Grupo 16014" transform="translate(-399 6581.73) rotate(90)">
      <g id="Grupo_16013" data-name="Grupo 16013">
        <path id="Trazado_25133" data-name="Trazado 25133" d="M906.433,1126.466l-1.123,1.046-5.146-5.538-5.148,5.538-1.123-1.046,6.271-6.743Z" transform="translate(-893.893 -1119.722)" fill="#673ab7"/>
      </g>
    </g>
    <g id="Grupo_16012-2" data-name="Grupo 16012" transform="translate(-491.067 6587.233) rotate(90)">
      <rect id="Rectángulo_3894-2" data-name="Rectángulo 3894" width="1.533" height="38.27" fill="#673ab7"/>
    </g>
    <g id="Grupo_16014-2" data-name="Grupo 16014" transform="translate(-523.211 6581.73) rotate(90)">
      <g id="Grupo_16013-2" data-name="Grupo 16013">
        <path id="Trazado_25133-2" data-name="Trazado 25133" d="M12.54,1.046,11.417,0,6.271,5.538,1.123,0,0,1.046,6.271,7.789Z" fill="#673ab7"/>
      </g>
    </g>
    <g id="Grupo_16012-3" data-name="Grupo 16012" transform="translate(-400.663 6632.233) rotate(90)">
      <rect id="Rectángulo_3894-3" data-name="Rectángulo 3894" width="1.533" height="38.27" fill="#673ab7"/>
    </g>
    <g id="Grupo_16014-3" data-name="Grupo 16014" transform="translate(-399 6626.73) rotate(90)">
      <g id="Grupo_16013-3" data-name="Grupo 16013">
        <path id="Trazado_25133-3" data-name="Trazado 25133" d="M906.433,1126.466l-1.123,1.046-5.146-5.538-5.148,5.538-1.123-1.046,6.271-6.743Z" transform="translate(-893.893 -1119.722)" fill="#673ab7"/>
      </g>
    </g>
    <g id="Grupo_16012-4" data-name="Grupo 16012" transform="translate(-491.067 6632.233) rotate(90)">
      <rect id="Rectángulo_3894-4" data-name="Rectángulo 3894" width="1.533" height="38.27" fill="#673ab7"/>
    </g>
    <g id="Grupo_16014-4" data-name="Grupo 16014" transform="translate(-523.211 6626.73) rotate(90)">
      <g id="Grupo_16013-4" data-name="Grupo 16013">
        <path id="Trazado_25133-4" data-name="Trazado 25133" d="M12.54,1.046,11.417,0,6.271,5.538,1.123,0,0,1.046,6.271,7.789Z" fill="#673ab7"/>
      </g>
    </g>
    <path id="Trazado_25224" data-name="Trazado 25224" d="M5.375,12.4V11.281h5.6V12.4Zm9.672,2.359h5.477V16H13.1V14.977l4.406-4.555a5.219,5.219,0,0,0,.992-1.3,2.6,2.6,0,0,0,.273-1.133,1.9,1.9,0,0,0-.555-1.457,2.018,2.018,0,0,0-1.437-.52,2.017,2.017,0,0,0-1.5.566,2.437,2.437,0,0,0-.559,1.77v.813l-1.352-.125v-.68a3.477,3.477,0,0,1,.93-2.613,3.415,3.415,0,0,1,2.484-.9,3.443,3.443,0,0,1,2.387.836A2.907,2.907,0,0,1,20.1,7.953a3.459,3.459,0,0,1-.371,1.59,6.835,6.835,0,0,1-1.191,1.582Zm10.844,1.383a3.7,3.7,0,0,1-2.75-1.1,3.929,3.929,0,0,1-1.086-2.883,3.937,3.937,0,0,1,1.082-2.883,4,4,0,0,1,4.977-.43,3.391,3.391,0,0,1,1.293,1.867l-1.266.2a2.337,2.337,0,0,0-.867-1.2A2.361,2.361,0,0,0,25.883,9.3a2.27,2.27,0,0,0-1.777.789,3.006,3.006,0,0,0-.7,2.07,2.991,2.991,0,0,0,.7,2.066,2.275,2.275,0,0,0,1.777.785,2.361,2.361,0,0,0,1.391-.422,2.337,2.337,0,0,0,.867-1.2l1.266.211a3.4,3.4,0,0,1-1.3,1.863A3.72,3.72,0,0,1,25.891,16.141ZM39.25,8.172a2.476,2.476,0,0,1,1.789.652,2.42,2.42,0,0,1,.68,1.832V16H40.367V11.008a1.735,1.735,0,0,0-.422-1.266,1.436,1.436,0,0,0-1.07-.43A1.517,1.517,0,0,0,37.7,9.8a2.083,2.083,0,0,0-.445,1.453V16H35.883V11.063a1.815,1.815,0,0,0-.426-1.309,1.448,1.448,0,0,0-1.09-.441,1.5,1.5,0,0,0-1.168.5A2.155,2.155,0,0,0,32.75,11.3V16H31.4V8.32H32.75v.992a2.333,2.333,0,0,1,.879-.844,2.506,2.506,0,0,1,1.223-.3,2.609,2.609,0,0,1,1.313.324,2.018,2.018,0,0,1,.852.934,2.39,2.39,0,0,1,.922-.934A2.637,2.637,0,0,1,39.25,8.172Z" transform="translate(-534.534 6656.499)" fill="#ba68c8"/>
    <path id="Trazado_25225" data-name="Trazado 25225" d="M10.906,14.758h5.477V16H8.961V14.977l4.406-4.555a5.219,5.219,0,0,0,.992-1.3,2.6,2.6,0,0,0,.273-1.133,1.9,1.9,0,0,0-.555-1.457,2.018,2.018,0,0,0-1.437-.52,2.017,2.017,0,0,0-1.5.566,2.437,2.437,0,0,0-.559,1.77v.813L9.227,9.031v-.68a3.477,3.477,0,0,1,.93-2.613,3.415,3.415,0,0,1,2.484-.9,3.443,3.443,0,0,1,2.387.836,2.907,2.907,0,0,1,.934,2.281,3.459,3.459,0,0,1-.371,1.59A6.835,6.835,0,0,1,14.4,11.125ZM21.75,16.141a3.7,3.7,0,0,1-2.75-1.1,3.929,3.929,0,0,1-1.086-2.883A3.937,3.937,0,0,1,19,9.273a4,4,0,0,1,4.977-.43,3.391,3.391,0,0,1,1.293,1.867l-1.266.2a2.337,2.337,0,0,0-.867-1.2A2.361,2.361,0,0,0,21.742,9.3a2.27,2.27,0,0,0-1.777.789,3.006,3.006,0,0,0-.7,2.07,2.991,2.991,0,0,0,.7,2.066,2.275,2.275,0,0,0,1.777.785,2.361,2.361,0,0,0,1.391-.422,2.337,2.337,0,0,0,.867-1.2l1.266.211a3.4,3.4,0,0,1-1.3,1.863A3.72,3.72,0,0,1,21.75,16.141ZM35.109,8.172a2.476,2.476,0,0,1,1.789.652,2.42,2.42,0,0,1,.68,1.832V16H36.227V11.008A1.735,1.735,0,0,0,35.8,9.742a1.436,1.436,0,0,0-1.07-.43,1.517,1.517,0,0,0-1.172.484,2.083,2.083,0,0,0-.445,1.453V16H31.742V11.063a1.815,1.815,0,0,0-.426-1.309,1.448,1.448,0,0,0-1.09-.441,1.5,1.5,0,0,0-1.168.5,2.155,2.155,0,0,0-.449,1.488V16H27.258V8.32h1.352v.992a2.333,2.333,0,0,1,.879-.844,2.506,2.506,0,0,1,1.223-.3,2.609,2.609,0,0,1,1.313.324,2.018,2.018,0,0,1,.852.934A2.39,2.39,0,0,1,33.8,8.5,2.637,2.637,0,0,1,35.109,8.172Z" transform="translate(-442.466 6656.499)" fill="#ba68c8"/>
  </g>
</svg>
