<svg xmlns="http://www.w3.org/2000/svg" width="187.179" height="235.966" viewBox="0 0 187.179 235.966">
  <g id="Grupo_15927" data-name="Grupo 15927" transform="translate(-596.305 -724.874)">
    <g id="Grupo_15912" data-name="Grupo 15912" transform="translate(634.383 764.535)">
      <path id="Trazado_24926" data-name="Trazado 24926" d="M708.907,743.6c11.885,7.464,16.72,19.939,17.7,31.8s-1.231,23.762-.352,35.627c1.2,16.249,8.339,32.227,20.348,45.571,6.766,7.519,18.224,14.063,20.5,24.8,3.291,15.517-16.255,21.736-27.535,25.43-21.136,6.926-46.4,3.519-65.811-6.145s-33.454-24.9-43-41.255c-5.072-8.695-9.017-17.835-10.892-27.266-4.47-22.48,1.235-55.044,14.674-75.677C646.715,737.8,687.9,730.4,708.907,743.6Z" transform="translate(-618.37 -736.911)" fill="#f6e094"/>
    </g>
    <g id="Grupo_15926" data-name="Grupo 15926" transform="translate(596.305 724.874)">
      <g id="Grupo_15913" data-name="Grupo 15913" transform="translate(111.106)">
        <path id="Trazado_24928" data-name="Trazado 24928" d="M673.684,724.984c-8.144,4.686-11.131,217.761-11.131,217.761S683.675,719.233,673.684,724.984Zm-.527,22.514c-.592-.025-.936-3.364-.768-7.458s.783-7.4,1.373-7.371.936,3.363.768,7.458S673.749,747.521,673.157,747.5Z" transform="translate(-662.553 -724.873)" fill="#6a249d"/>
        <path id="Trazado_24929" data-name="Trazado 24929" d="M673.684,724.983a3.825,3.825,0,0,0-1.125,2.033c.188,1.771.282,4.552.292,8.176.262-1.555.59-2.536.912-2.522.592.023.936,3.363.768,7.458s-.781,7.394-1.374,7.371c-.178-.007-.332-.317-.458-.85-1.053,43-7.28,137.594-9.779,174.426-.25,13.365-.367,21.672-.367,21.672S683.675,719.234,673.684,724.983Z" transform="translate(-662.553 -724.874)" fill="#a568c3"/>
      </g>
      <g id="Grupo_15914" data-name="Grupo 15914" transform="translate(59.258 43.503)">
        <path id="Trazado_24930" data-name="Trazado 24930" d="M706.3,767.326l-11.928-4.511-62.73,165.867,11.928,4.511,5.174,1.957,62.73-165.867Z" transform="translate(-631.638 -742.687)" fill="#de5954"/>
        <rect id="Rectángulo_3872" data-name="Rectángulo 3872" width="177.333" height="5.532" transform="translate(11.928 190.506) rotate(-69.284)" fill="#bf4343"/>
        <path id="Trazado_24931" data-name="Trazado 24931" d="M669.042,770.941l17.386-20.128-.284,26.6Z" transform="translate(-606.312 -750.813)" fill="#fff"/>
        <path id="Trazado_24932" data-name="Trazado 24932" d="M682.181,750.813l-6.866,7.949,6.754,2.554Z" transform="translate(-602.064 -750.813)" fill="#de5954"/>
      </g>
      <g id="Grupo_15917" data-name="Grupo 15917" transform="translate(0 46.549)">
        <path id="Trazado_24933" data-name="Trazado 24933" d="M643.162,801.848l-7.549,16.9,34.968,74.717s2.7,3.054,5,1.716l-28.172-96.607Z" transform="translate(-569.689 -721.522)" fill="#dbdbdb"/>
        <path id="Trazado_24934" data-name="Trazado 24934" d="M668.516,894.809a3.236,3.236,0,0,0,3.386.369L643.73,798.571l-2.678,2.063Z" transform="translate(-566.006 -721.522)" fill="#dedede"/>
        <path id="Trazado_24935" data-name="Trazado 24935" d="M628.313,769.343c-.247,12.1,2.759,19.5,4.661,22.943a57.472,57.472,0,0,1,5.263,12.634c.473,1.732.87,3.41,1.2,4.949A61.246,61.246,0,0,1,640.651,821c.186,6.781,3.1,16.067,3.1,16.067,3.688,3.292,9.368-4.954,9.368-4.954h0a48.541,48.541,0,0,1,1.773-22.239c.49-1.513.842-2.511.845-2.646.007-.232,1.553-3.669,3.077-7.009a54.53,54.53,0,0,0,5.06-22.5c.008-5.088-.728-10.494-3.111-14.762-6.356-11.381-15.99-10.3-15.99-10.3C628.244,753.155,628.313,769.343,628.313,769.343Zm15.782-12.315c7.525-.849,14.577,6.918,15.753,17.345s-3.971,19.57-11.5,20.419-14.576-6.918-15.752-17.346S636.569,757.875,644.094,757.028Z" transform="translate(-574.641 -752.629)" fill="#42755a"/>
        <path id="Trazado_24936" data-name="Trazado 24936" d="M651.584,763.352a26.158,26.158,0,0,1,2.871,10.016c.049.334.094.669.132,1.006a25.88,25.88,0,0,1,.064,5.2,54.793,54.793,0,0,1-5.015,21.044c-1.526,3.339-3.071,6.777-3.078,7.009,0,.136-.357,1.134-.845,2.647a48.485,48.485,0,0,0-1.773,22.237A19.846,19.846,0,0,1,639,837.435c3.678,2.187,8.855-5.323,8.855-5.323a48.529,48.529,0,0,1,1.773-22.237c.49-1.514.842-2.512.845-2.648.007-.232,1.553-3.669,3.078-7.007a54.545,54.545,0,0,0,5.06-22.505c.008-5.088-.728-10.494-3.111-14.762-6.356-11.381-15.99-10.3-15.99-10.3a21.875,21.875,0,0,0-3.447.376C638.068,752.988,646.063,753.464,651.584,763.352Z" transform="translate(-569.381 -752.629)" fill="#325b45"/>
        <g id="Grupo_15915" data-name="Grupo 15915" transform="translate(0 24.374)">
          <path id="Trazado_24937" data-name="Trazado 24937" d="M635.7,803.58l17.7,5.412,33.344,75.457s.528,4.042-1.994,4.9L630.44,804.632Z" transform="translate(-573.192 -742.504)" fill="#dbdbdb"/>
          <path id="Trazado_24938" data-name="Trazado 24938" d="M648.79,808.854l33.343,75.457a7.781,7.781,0,0,1-.23,2.883l1.382,2.155c2.522-.859,1.994-4.9,1.994-4.9l-33.344-75.457-17.7-5.412-1.63.325Z" transform="translate(-571.725 -742.504)" fill="#c9c9c9"/>
          <path id="Trazado_24939" data-name="Trazado 24939" d="M600.484,772.958s-7.15,6.547-2.747,18.819c1.652,4.6,5.241,8.708,9.083,12.043a54.518,54.518,0,0,0,20.29,10.973c3.519,1.045,7.126,2.14,7.3,2.286.106.086,1.09.476,2.551,1.1a48.481,48.481,0,0,1,17.927,13.275h0s9.95,1.137,9.892-3.805c0,0-5.087-8.3-10.073-12.9a61.031,61.031,0,0,1-7.594-8.229c-.944-1.26-1.947-2.662-2.942-4.156a57.576,57.576,0,0,1-6.066-12.268c-1.345-3.7-4.948-10.824-14.232-18.591C623.877,771.512,611.721,760.824,600.484,772.958Zm26.685,7.109c7.087,7.74,8.308,18.158,2.724,23.273s-15.855,2.987-22.945-4.751-8.308-18.158-2.725-23.272S620.08,772.329,627.169,780.067Z" transform="translate(-596.305 -767.163)" fill="#42755a"/>
          <path id="Trazado_24940" data-name="Trazado 24940" d="M598.989,772.625c10.182-7.188,20.067,1.5,20.067,1.5a63.147,63.147,0,0,1,4.785,4.429c.516.48,1.021.981,1.511,1.513a27.049,27.049,0,0,1,1.8,2.212,37.268,37.268,0,0,1,6.14,10.438,57.64,57.64,0,0,0,6.064,12.266c1,1.5,2,2.9,2.943,4.156a61.027,61.027,0,0,0,7.592,8.229c4.988,4.6,10.074,12.9,10.074,12.9a3.187,3.187,0,0,1-.082.756c1.731-.525,3.109-1.523,3.086-3.369,0,0-5.087-8.3-10.073-12.9a61.024,61.024,0,0,1-7.594-8.229c-.944-1.259-1.947-2.662-2.942-4.156a57.575,57.575,0,0,1-6.066-12.268c-1.345-3.7-4.948-10.824-14.23-18.591C622.061,771.508,610.135,761.036,598.989,772.625Z" transform="translate(-594.487 -767.159)" fill="#325b45"/>
          <path id="Trazado_24941" data-name="Trazado 24941" d="M623.677,795.669c-4.426,4.055-11.795,3.544-18.193-.693a10.879,10.879,0,0,0,1.508,2.113c4.434,4.842,12.325,4.828,17.626-.027s6-12.718,1.571-17.558a10.969,10.969,0,0,0-1.082-1.013C628.226,784.952,627.885,791.815,623.677,795.669Z" transform="translate(-590.089 -759.491)" fill="#325b45"/>
        </g>
        <path id="Trazado_24942" data-name="Trazado 24942" d="M646.227,782.729c-6.19.7-12.06-4.438-14.6-12.085a13.068,13.068,0,1,0,25.863.659c-.035-.292-.092-.574-.144-.859C655.9,777.122,651.689,782.113,646.227,782.729Z" transform="translate(-572.516 -740.567)" fill="#325b45"/>
        <g id="Grupo_15916" data-name="Grupo 15916" transform="translate(70.575 93.965)">
          <path id="Trazado_24943" data-name="Trazado 24943" d="M641.777,808.684a3.839,3.839,0,1,1-3.364,4.26A3.84,3.84,0,0,1,641.777,808.684Z" transform="translate(-638.386 -808.657)" fill="#c9c9c9"/>
          <path id="Trazado_24944" data-name="Trazado 24944" d="M643.365,812.24a3.839,3.839,0,0,1-2.563,4.073,3.882,3.882,0,0,0,.825,0,3.839,3.839,0,1,0-1.7-7.44A3.84,3.84,0,0,1,643.365,812.24Z" transform="translate(-637.342 -808.657)" fill="#b8b8b8"/>
        </g>
      </g>
      <g id="Grupo_15921" data-name="Grupo 15921" transform="translate(71.044 111.39)">
        <path id="Trazado_24945" data-name="Trazado 24945" d="M697.347,898.286q-26.983,0-53.969,0c-.99-25.925,0-52.064,0-78.011V796H697.35c.639.335.027,7.782.028,8.5q.035,36.027-.017,72.052C697.362,877.641,697.35,898.286,697.347,898.286Z" transform="translate(-635.773 -788.104)" fill="#729acc"/>
        <path id="Trazado_24946" data-name="Trazado 24946" d="M697.347,898.286q-26.983,0-53.969,0c-.99-25.925,0-52.064,0-78.011V796H697.35c.639.335.027,7.782.028,8.5q.035,36.027-.017,72.052C697.362,877.641,697.35,898.286,697.347,898.286Z" transform="translate(-635.773 -788.104)" fill="#729acc"/>
        <path id="Trazado_24947" data-name="Trazado 24947" d="M676.637,796c7.921,8.173,13.135,22.051,13.135,37.8,0,25.14-13.279,45.518-29.658,45.518-6.289,0-12.115-3.012-16.914-8.136v28.8l53.973.37V796Z" transform="translate(-635.596 -788.104)" fill="#6d92c2"/>
        <g id="Grupo_15918" data-name="Grupo 15918" transform="translate(0 110.19)">
          <path id="Trazado_24948" data-name="Trazado 24948" d="M638.718,864.11c.788-5.781,6.678-7.146,11.584-7.116l46.816.288c4.639.029,10.615,1.162,10.546,6.925a6.932,6.932,0,0,1-4.342,6.232,13.559,13.559,0,0,1-4.894.6q-24.419-.023-48.841.047a17.2,17.2,0,0,1-6.846-.917C639.478,868.769,638.4,866.431,638.718,864.11Z" transform="translate(-638.666 -856.994)" fill="#567499"/>
          <path id="Trazado_24949" data-name="Trazado 24949" d="M697.117,857.175l-3.646-.022c4.092.163,8.813,1.31,8.753,5.8a5.875,5.875,0,0,1-4,5.241,13.686,13.686,0,0,1-4.508.5q-22.5-.02-44.992.039a17.281,17.281,0,0,1-6.306-.771c-2.4-.937-3.5-2.381-3.7-3.918-.3,2.308.78,4.627,4.025,6.014a17.2,17.2,0,0,0,6.846.917q24.42-.05,48.841-.047a13.558,13.558,0,0,0,4.894-.6,6.931,6.931,0,0,0,4.342-6.232C707.732,858.337,701.756,857.2,697.117,857.175Z" transform="translate(-638.664 -856.886)" fill="#4d688a"/>
        </g>
        <g id="Grupo_15919" data-name="Grupo 15919" transform="translate(7.605 7.895)">
          <path id="Trazado_24950" data-name="Trazado 24950" d="M643.2,800.768c1.06.523,2.1,1.093,3.161,1.6,1.08.461,2.135.986,3.23,1.394a69.249,69.249,0,0,0,6.6,2.3,80.471,80.471,0,0,0,13.58,2.784,71.667,71.667,0,0,0,13.791.421c1.151-.067,2.294-.216,3.443-.32,1.146-.132,2.279-.362,3.423-.535,1.137-.2,2.261-.5,3.395-.745,1.119-.315,2.227-.682,3.349-1.008a44.854,44.854,0,0,1-13.563,3.324,66.649,66.649,0,0,1-13.927-.21,74.274,74.274,0,0,1-13.662-3.022A55.213,55.213,0,0,1,643.2,800.768Z" transform="translate(-643.2 -792.77)" fill="#84a7d3"/>
          <path id="Trazado_24951" data-name="Trazado 24951" d="M643.2,796c1.06.523,2.1,1.094,3.161,1.6,1.08.461,2.135.986,3.23,1.4a69.219,69.219,0,0,0,6.6,2.294,80.285,80.285,0,0,0,13.58,2.784,71.53,71.53,0,0,0,13.791.421c1.151-.067,2.294-.216,3.443-.319,1.146-.134,2.279-.364,3.423-.537,1.137-.2,2.261-.5,3.395-.745,1.119-.315,2.227-.681,3.349-1.008a44.85,44.85,0,0,1-13.563,3.324,66.654,66.654,0,0,1-13.927-.21,74.264,74.264,0,0,1-13.662-3.022A55.2,55.2,0,0,1,643.2,796Z" transform="translate(-643.2 -795.999)" fill="#84a7d3"/>
          <path id="Trazado_24952" data-name="Trazado 24952" d="M643.2,805.669c1.06.523,2.1,1.093,3.161,1.6,1.08.461,2.135.986,3.23,1.4a69.715,69.715,0,0,0,6.6,2.294,80.5,80.5,0,0,0,13.58,2.784,71.677,71.677,0,0,0,13.791.421c1.151-.067,2.294-.216,3.443-.32,1.146-.132,2.279-.362,3.423-.537,1.137-.2,2.261-.5,3.395-.743,1.119-.315,2.227-.683,3.349-1.008a44.845,44.845,0,0,1-13.563,3.324,66.641,66.641,0,0,1-13.927-.21,74.254,74.254,0,0,1-13.662-3.022A55.21,55.21,0,0,1,643.2,805.669Z" transform="translate(-643.2 -789.451)" fill="#84a7d3"/>
          <path id="Trazado_24953" data-name="Trazado 24953" d="M643.2,810.57c1.06.523,2.1,1.093,3.161,1.6,1.08.461,2.135.986,3.23,1.394a69.232,69.232,0,0,0,6.6,2.3,80.459,80.459,0,0,0,13.58,2.784,71.658,71.658,0,0,0,13.791.421c1.151-.067,2.294-.216,3.443-.32,1.146-.132,2.279-.362,3.423-.537,1.137-.2,2.261-.5,3.395-.743,1.119-.315,2.227-.682,3.349-1.008a44.852,44.852,0,0,1-13.563,3.324,66.645,66.645,0,0,1-13.927-.21,74.284,74.284,0,0,1-13.662-3.022A55.213,55.213,0,0,1,643.2,810.57Z" transform="translate(-643.2 -786.133)" fill="#84a7d3"/>
          <path id="Trazado_24954" data-name="Trazado 24954" d="M643.2,815.471c1.06.523,2.1,1.093,3.161,1.6,1.08.461,2.135.986,3.23,1.394a69.3,69.3,0,0,0,6.6,2.3,80.489,80.489,0,0,0,13.58,2.784,71.663,71.663,0,0,0,13.791.421c1.151-.067,2.294-.216,3.443-.32,1.146-.133,2.279-.362,3.423-.537,1.137-.2,2.261-.5,3.395-.743,1.119-.315,2.227-.682,3.349-1.008a44.847,44.847,0,0,1-13.563,3.324,66.649,66.649,0,0,1-13.927-.21,74.234,74.234,0,0,1-13.662-3.022A55.2,55.2,0,0,1,643.2,815.471Z" transform="translate(-643.2 -782.814)" fill="#84a7d3"/>
          <path id="Trazado_24955" data-name="Trazado 24955" d="M643.2,820.372c1.06.523,2.1,1.093,3.161,1.6,1.08.461,2.135.986,3.23,1.394a69.249,69.249,0,0,0,6.6,2.3,80.465,80.465,0,0,0,13.58,2.784,71.677,71.677,0,0,0,13.791.421c1.151-.067,2.294-.216,3.443-.32,1.146-.132,2.279-.362,3.423-.537,1.137-.2,2.261-.5,3.395-.743,1.119-.315,2.227-.682,3.349-1.008a44.856,44.856,0,0,1-13.563,3.324,66.654,66.654,0,0,1-13.927-.21,74.269,74.269,0,0,1-13.662-3.022A55.213,55.213,0,0,1,643.2,820.372Z" transform="translate(-643.2 -779.496)" fill="#84a7d3"/>
          <path id="Trazado_24956" data-name="Trazado 24956" d="M643.2,825.273c1.06.523,2.1,1.093,3.161,1.6,1.08.461,2.135.986,3.23,1.394a69.3,69.3,0,0,0,6.6,2.3,80.482,80.482,0,0,0,13.58,2.784,71.672,71.672,0,0,0,13.791.421c1.151-.067,2.294-.216,3.443-.32,1.146-.133,2.279-.362,3.423-.537,1.137-.2,2.261-.5,3.395-.743,1.119-.315,2.227-.683,3.349-1.008a44.9,44.9,0,0,1-13.563,3.324,66.654,66.654,0,0,1-13.927-.21,74.254,74.254,0,0,1-13.662-3.022A55.208,55.208,0,0,1,643.2,825.273Z" transform="translate(-643.2 -776.177)" fill="#84a7d3"/>
          <path id="Trazado_24957" data-name="Trazado 24957" d="M643.2,830.174c1.06.523,2.1,1.093,3.161,1.6,1.08.461,2.135.986,3.23,1.394a69.232,69.232,0,0,0,6.6,2.3,80.459,80.459,0,0,0,13.58,2.784,71.653,71.653,0,0,0,13.791.421c1.151-.067,2.294-.216,3.443-.32,1.146-.132,2.279-.362,3.423-.537,1.137-.2,2.261-.5,3.395-.743,1.119-.315,2.227-.682,3.349-1.008a44.852,44.852,0,0,1-13.563,3.324,66.645,66.645,0,0,1-13.927-.21,74.269,74.269,0,0,1-13.662-3.022A55.213,55.213,0,0,1,643.2,830.174Z" transform="translate(-643.2 -772.859)" fill="#84a7d3"/>
          <path id="Trazado_24958" data-name="Trazado 24958" d="M643.2,835.075c1.06.523,2.1,1.093,3.161,1.6,1.08.461,2.135.986,3.23,1.394a69.266,69.266,0,0,0,6.6,2.3,80.476,80.476,0,0,0,13.58,2.784,71.658,71.658,0,0,0,13.791.421c1.151-.067,2.294-.216,3.443-.32,1.146-.133,2.279-.362,3.423-.537,1.137-.2,2.261-.5,3.395-.743,1.119-.315,2.227-.683,3.349-1.008a44.9,44.9,0,0,1-13.563,3.324,66.649,66.649,0,0,1-13.927-.21,74.249,74.249,0,0,1-13.662-3.022A55.2,55.2,0,0,1,643.2,835.075Z" transform="translate(-643.2 -769.54)" fill="#84a7d3"/>
          <path id="Trazado_24959" data-name="Trazado 24959" d="M643.2,839.976c1.06.523,2.1,1.094,3.161,1.6,1.08.461,2.135.986,3.23,1.394a69.265,69.265,0,0,0,6.6,2.3,80.447,80.447,0,0,0,13.58,2.784,71.663,71.663,0,0,0,13.791.421c1.151-.067,2.294-.216,3.443-.32,1.146-.133,2.279-.362,3.423-.537,1.137-.2,2.261-.5,3.395-.743,1.119-.315,2.227-.682,3.349-1.008a44.9,44.9,0,0,1-13.563,3.324,66.649,66.649,0,0,1-13.927-.21,74.269,74.269,0,0,1-13.662-3.022A55.208,55.208,0,0,1,643.2,839.976Z" transform="translate(-643.2 -766.222)" fill="#84a7d3"/>
          <path id="Trazado_24960" data-name="Trazado 24960" d="M643.2,844.877c1.06.523,2.1,1.094,3.161,1.6,1.08.461,2.135.986,3.23,1.394a69.3,69.3,0,0,0,6.6,2.3,80.482,80.482,0,0,0,13.58,2.784,71.672,71.672,0,0,0,13.791.421c1.151-.067,2.294-.216,3.443-.32,1.146-.132,2.279-.362,3.423-.537,1.137-.2,2.261-.5,3.395-.743,1.119-.315,2.227-.682,3.349-1.008a44.9,44.9,0,0,1-13.563,3.324,66.654,66.654,0,0,1-13.927-.21,74.254,74.254,0,0,1-13.662-3.022A55.2,55.2,0,0,1,643.2,844.877Z" transform="translate(-643.2 -762.903)" fill="#84a7d3"/>
          <path id="Trazado_24961" data-name="Trazado 24961" d="M643.2,849.778c1.06.523,2.1,1.093,3.161,1.6,1.08.461,2.135.986,3.23,1.394a69.266,69.266,0,0,0,6.6,2.3,80.471,80.471,0,0,0,13.58,2.784,71.677,71.677,0,0,0,13.791.421c1.151-.067,2.294-.216,3.443-.32,1.146-.133,2.279-.364,3.423-.537,1.137-.2,2.261-.5,3.395-.743,1.119-.315,2.227-.682,3.349-1.008a44.908,44.908,0,0,1-13.563,3.324,66.658,66.658,0,0,1-13.927-.21,74.274,74.274,0,0,1-13.662-3.022A55.213,55.213,0,0,1,643.2,849.778Z" transform="translate(-643.2 -759.585)" fill="#84a7d3"/>
        </g>
        <g id="Grupo_15920" data-name="Grupo 15920">
          <path id="Trazado_24962" data-name="Trazado 24962" d="M638.718,798.408c.788-5.781,6.678-7.146,11.584-7.116l46.816.289c4.639.029,10.615,1.164,10.546,6.925a6.932,6.932,0,0,1-4.342,6.232,13.56,13.56,0,0,1-4.894.6q-24.419-.022-48.841.047a17.2,17.2,0,0,1-6.846-.917C639.478,803.067,638.4,800.729,638.718,798.408Z" transform="translate(-638.666 -791.292)" fill="#567499"/>
          <path id="Trazado_24963" data-name="Trazado 24963" d="M697.117,791.473l-3.646-.022c4.092.164,8.813,1.31,8.753,5.8a5.875,5.875,0,0,1-4,5.241,13.6,13.6,0,0,1-4.508.5q-22.5-.02-44.992.039a17.244,17.244,0,0,1-6.306-.771c-2.4-.936-3.5-2.382-3.7-3.918-.3,2.308.78,4.627,4.025,6.014a17.2,17.2,0,0,0,6.846.917q24.42-.051,48.841-.047a13.557,13.557,0,0,0,4.894-.6,6.931,6.931,0,0,0,4.342-6.232C707.732,792.637,701.756,791.5,697.117,791.473Z" transform="translate(-638.664 -791.184)" fill="#4d688a"/>
        </g>
      </g>
      <g id="Grupo_15925" data-name="Grupo 15925" transform="translate(75.18 87.501)">
        <path id="Trazado_24964" data-name="Trazado 24964" d="M645.513,777.943a.349.349,0,0,0-.142.474l2.918,5.466,1.451,2.736c.476.916.973,1.823,1.417,2.754-.391-.956-.837-1.888-1.26-2.831l-1.295-2.814L646,778.1l-.01-.018A.349.349,0,0,0,645.513,777.943Zm.569.669c.128.25.149.493.05.542s-.28-.111-.407-.361-.149-.493-.05-.542S645.955,778.362,646.081,778.612Z" transform="translate(-638.291 -776.47)" fill="#383134"/>
        <path id="Trazado_24965" data-name="Trazado 24965" d="M659.219,779.248a.351.351,0,0,0-.476.139l-2.984,5.429-1.5,2.71c-.506.9-.995,1.811-1.531,2.692.587-.85,1.125-1.733,1.682-2.6l1.652-2.621,3.287-5.253.01-.018A.35.35,0,0,0,659.219,779.248Zm-.25.842c-.141.241-.332.394-.428.339s-.059-.3.081-.54.33-.393.426-.337S659.108,779.846,658.969,780.09Z" transform="translate(-633.281 -775.588)" fill="#383134"/>
        <path id="Trazado_24966" data-name="Trazado 24966" d="M667.725,797.25A12.149,12.149,0,0,0,655.247,782.4a12.367,12.367,0,0,0-11.495,12.124,12.238,12.238,0,0,0,.246,2.445l.19.347Z" transform="translate(-639.358 -773.432)" fill="#f3d35a"/>
        <path id="Trazado_24967" data-name="Trazado 24967" d="M655.247,782.4c-.052,0-.1.013-.151.017,5.447.4,10.007,5.472,10.007,11.43a12.338,12.338,0,0,1-.27,2.571l-20.7.065-.168-.327a12.474,12.474,0,0,1-.2-1.956c0,.107-.017.215-.017.324a12.238,12.238,0,0,0,.246,2.445l.19.347,23.537-.07A12.149,12.149,0,0,0,655.247,782.4Z" transform="translate(-639.358 -773.432)" fill="#d8b74c"/>
        <g id="Grupo_15922" data-name="Grupo 15922" transform="translate(22.376 8.272)">
          <path id="Trazado_24968" data-name="Trazado 24968" d="M654.474,792.4c.173-.149,5.137-8.733,5.137-8.733" transform="translate(-654.474 -780.834)" fill="none" stroke="#383134" stroke-linecap="round" stroke-linejoin="round" stroke-width="0.5"/>
          <path id="Trazado_24969" data-name="Trazado 24969" d="M660.355,783.731a1.752,1.752,0,1,1-1.753-1.751A1.751,1.751,0,0,1,660.355,783.731Z" transform="translate(-652.865 -781.98)" fill="#e3706d"/>
          <path id="Trazado_24970" data-name="Trazado 24970" d="M659.8,783.679a1.461,1.461,0,1,1-1.452-1.622A1.544,1.544,0,0,1,659.8,783.679Z" transform="translate(-652.834 -781.928)" fill="#f77a77"/>
        </g>
        <g id="Grupo_15923" data-name="Grupo 15923" transform="translate(14.958)">
          <path id="Trazado_24971" data-name="Trazado 24971" d="M650.772,788.952c.084-.215.513-10.12.513-10.12" transform="translate(-649.563 -775.84)" fill="none" stroke="#383134" stroke-linecap="round" stroke-linejoin="round" stroke-width="0.5"/>
          <path id="Trazado_24972" data-name="Trazado 24972" d="M653.355,777.989a1.751,1.751,0,1,1-2.363-.743A1.751,1.751,0,0,1,653.355,777.989Z" transform="translate(-650.051 -777.048)" fill="#4d688a"/>
          <path id="Trazado_24973" data-name="Trazado 24973" d="M652.865,778.123a1.461,1.461,0,1,1-2.038-.766A1.546,1.546,0,0,1,652.865,778.123Z" transform="translate(-650.026 -776.94)" fill="#567499"/>
        </g>
        <g id="Grupo_15924" data-name="Grupo 15924" transform="translate(0 7.167)">
          <path id="Trazado_24974" data-name="Trazado 24974" d="M648.449,791.246c-.065-.22-5.83-8.287-5.83-8.287" transform="translate(-640.125 -780.212)" fill="none" stroke="#383134" stroke-linecap="round" stroke-linejoin="round" stroke-width="0.5"/>
          <path id="Trazado_24975" data-name="Trazado 24975" d="M643.607,781.479a1.751,1.751,0,1,1-2.318.871A1.75,1.75,0,0,1,643.607,781.479Z" transform="translate(-641.132 -781.321)" fill="#a8c48d"/>
          <path id="Trazado_24976" data-name="Trazado 24976" d="M643.366,781.764a1.461,1.461,0,1,1-2.078.653A1.547,1.547,0,0,1,643.366,781.764Z" transform="translate(-641.107 -781.13)" fill="#acca90"/>
        </g>
        <path id="Trazado_24977" data-name="Trazado 24977" d="M647.009,788.86a.873.873,0,0,0,.563-.463,1.172,1.172,0,0,0,.07-.533.654.654,0,0,0-.084-.34.493.493,0,0,0-.163-.148.755.755,0,0,0-1.127.515c-.032.173-.02.362-.186.465-.141.087-.33.027-.242.26C645.977,788.964,646.73,788.94,647.009,788.86Z" transform="translate(-637.959 -770.125)" fill="#d8b74c"/>
        <path id="Trazado_24978" data-name="Trazado 24978" d="M651.582,785.058a.158.158,0,0,1,.092.008.142.142,0,0,1,.059.075.652.652,0,0,1-.434.889,1.107,1.107,0,0,1-.758-.143.78.78,0,0,1-.327-.258.869.869,0,0,1-.089-.414c-.012-.3.092-.879.523-.669.163.081.255.268.409.367A.871.871,0,0,0,651.582,785.058Z" transform="translate(-635.044 -772)" fill="#d8b74c"/>
        <path id="Trazado_24979" data-name="Trazado 24979" d="M655.13,789.415c.062.052.144.1.163.174a.226.226,0,0,1-.072.194.643.643,0,0,1-.756.1c-.445-.235-.726-1.337-.119-1.54C654.969,788.137,654.8,789.152,655.13,789.415Z" transform="translate(-632.422 -769.416)" fill="#d8b74c"/>
      </g>
    </g>
  </g>
</svg>
