<svg xmlns="http://www.w3.org/2000/svg" width="140" height="140" viewBox="0 0 140 140">
  <g id="Grupo_16500" data-name="Grupo 16500" transform="translate(-3546 -20)">
    <rect id="Rectángulo_4081" data-name="Rectángulo 4081" width="140" height="140" transform="translate(3546 20)" fill="none"/>
    <g id="Grupo_16496" data-name="Grupo 16496" transform="translate(2938.257 -444.874)">
      <circle id="Elipse_867" data-name="Elipse 867" cx="50.618" cy="50.618" r="50.618" transform="translate(626.743 483.874)" fill="#f6e094"/>
      <g id="Grupo_15930" data-name="Grupo 15930">
        <path id="Trazado_24980" data-name="Trazado 24980" d="M710.318,492.92H646.35a3.978,3.978,0,0,0-3.978,3.978v80.184a4.661,4.661,0,0,0,4.661,4.661h67.216V496.85A3.931,3.931,0,0,0,710.318,492.92Z" fill="#f8f3ff"/>
        <path id="Trazado_24981" data-name="Trazado 24981" d="M714.248,581.743H647.033a4.661,4.661,0,0,0,4.661-4.661v-5.723a1.269,1.269,0,0,1,1.268-1.269h64.5a1.451,1.451,0,0,1,1.451,1.45v5.542A4.662,4.662,0,0,1,714.248,581.743Z" fill="#e1dfea"/>
        <g id="Grupo_15929" data-name="Grupo 15929">
          <path id="Trazado_24982" data-name="Trazado 24982" d="M657.123,521.019a2.184,2.184,0,1,1,0-4.369h0a2.184,2.184,0,0,1,0,4.369Z" fill="#a568c3"/>
          <path id="Trazado_24983" data-name="Trazado 24983" d="M701.729,521.019H665.013a2.184,2.184,0,1,1,0-4.369h36.716a2.184,2.184,0,1,1,0,4.369Z" fill="#a568c3"/>
          <path id="Trazado_24984" data-name="Trazado 24984" d="M697.172,529.767H665.013a2.185,2.185,0,0,1,0-4.37h32.159a2.185,2.185,0,0,1,0,4.37Z" fill="#a568c3"/>
          <path id="Trazado_24985" data-name="Trazado 24985" d="M694.745,538.514H665.013a2.184,2.184,0,1,1,0-4.369h29.731a2.184,2.184,0,1,1,0,4.369Z" fill="#a568c3"/>
          <path id="Trazado_24986" data-name="Trazado 24986" d="M694.745,547.263H665.013a2.185,2.185,0,0,1,0-4.37h29.731a2.185,2.185,0,0,1,0,4.37Z" fill="#a568c3"/>
          <path id="Trazado_24987" data-name="Trazado 24987" d="M657.123,538.514a2.184,2.184,0,1,1,0-4.369h0a2.184,2.184,0,0,1,0,4.369Z" fill="#a568c3"/>
        </g>
        <path id="Trazado_24988" data-name="Trazado 24988" d="M664.512,575.917a6.345,6.345,0,0,1,3.832-5.827H652.962a1.269,1.269,0,0,0-1.268,1.269v5.723a4.661,4.661,0,0,1-4.661,4.661h21.311A6.344,6.344,0,0,1,664.512,575.917Z" fill="#cecdd3"/>
      </g>
    </g>
  </g>
</svg>
