<svg xmlns="http://www.w3.org/2000/svg" width="276.111" height="276.11" viewBox="0 0 276.111 276.11">
  <g id="Grupo_16053" data-name="Grupo 16053" transform="translate(399.874 -1456.52)">
    <path id="Trazado_24911" data-name="Trazado 24911" d="M-463.7,1516.627a76.757,76.757,0,0,1,31.254-9.262c45.7-3.2,76.518,33.257,92.511,71.781,8.691,20.93,15.851,45.118,9.193,67.629-2.19,7.408-6.934,16.612-14.529,19.571-5.673,2.21-12.139.486-17.589-2.229-33.514-16.7-66.8-26.2-104-31.289-12.391-1.693-25.424-5.583-33.194-15.382-4.676-5.9-6.953-13.409-7.721-20.9C-511.141,1563.792-491.9,1531.94-463.7,1516.627Z" transform="translate(167.382 17.255)" fill="#f8f3ff"/>
    <g id="Grupo_15867" data-name="Grupo 15867" transform="translate(-255.707 1478.63)">
      <g id="Grupo_15862" data-name="Grupo 15862" transform="translate(2.409 0.76)">
        <rect id="Rectángulo_3856" data-name="Rectángulo 3856" width="5.07" height="252.48" fill="#ba68c8"/>
      </g>
      <g id="Grupo_15864" data-name="Grupo 15864">
        <g id="Grupo_15863" data-name="Grupo 15863">
          <rect id="Rectángulo_3857" data-name="Rectángulo 3857" width="9.887" height="1.521" fill="#ba68c8"/>
        </g>
      </g>
      <g id="Grupo_15866" data-name="Grupo 15866" transform="translate(0 252.479)">
        <g id="Grupo_15865" data-name="Grupo 15865">
          <rect id="Rectángulo_3858" data-name="Rectángulo 3858" width="9.887" height="1.521" fill="#ba68c8"/>
        </g>
      </g>
    </g>
    <g id="Grupo_15873" data-name="Grupo 15873" transform="translate(-377.763 1600.686)">
      <g id="Grupo_15868" data-name="Grupo 15868" transform="translate(0.761 2.408)">
        <rect id="Rectángulo_3859" data-name="Rectángulo 3859" width="252.479" height="5.07" fill="#7b1fa2"/>
      </g>
      <g id="Grupo_15870" data-name="Grupo 15870" transform="translate(252.479)">
        <g id="Grupo_15869" data-name="Grupo 15869">
          <rect id="Rectángulo_3860" data-name="Rectángulo 3860" width="1.521" height="9.887" fill="#7b1fa2"/>
        </g>
      </g>
      <g id="Grupo_15872" data-name="Grupo 15872">
        <g id="Grupo_15871" data-name="Grupo 15871">
          <rect id="Rectángulo_3861" data-name="Rectángulo 3861" width="1.521" height="9.887" fill="#7b1fa2"/>
        </g>
      </g>
    </g>
    <path id="Trazado_24912" data-name="Trazado 24912" d="M-440.049,1582.956a10.774,10.774,0,0,1-4.274-14.625,10.774,10.774,0,0,1,14.624-4.274,10.775,10.775,0,0,1,4.274,14.625A10.775,10.775,0,0,1-440.049,1582.956Z" transform="translate(184.111 32.124)" fill="#ffd54f"/>
    <path id="Trazado_24915" data-name="Trazado 24915" d="M-434.157,1604.231a22.107,22.107,0,0,1-8.771-30.009,22.108,22.108,0,0,1,30.008-8.771,22.109,22.109,0,0,1,8.771,30.009A22.11,22.11,0,0,1-434.157,1604.231Z" transform="translate(45.775 59.899)" fill="#ffe292"/>
    <path id="Trazado_25219" data-name="Trazado 25219" d="M5.05,19l5.5-7.363L5.206,4.889H8.771l3.516,4.629L15.8,4.889h3.564l-5.342,6.748L19.522,19h-3.73l-3.506-4.99L8.78,19Z" transform="translate(-390.263 1632.24)" fill="#673ab7"/>
    <path id="Trazado_24916" data-name="Trazado 24916" d="M-434.157,1604.231a22.107,22.107,0,0,1-8.771-30.009,22.108,22.108,0,0,1,30.008-8.771,22.109,22.109,0,0,1,8.771,30.009A22.11,22.11,0,0,1-434.157,1604.231Z" transform="translate(207.234 -106.211)" fill="#ffe292"/>
    <path id="Trazado_25220" data-name="Trazado 25220" d="M18.414,4.889l-4.639,7.354V19H10.836V12.311L6.168,4.889H9.41l2.881,4.8,2.891-4.8Z" transform="translate(-228.804 1466.13)" fill="#673ab7"/>
    <path id="Trazado_24917" data-name="Trazado 24917" d="M-434.157,1604.231a22.107,22.107,0,0,1-8.771-30.009,22.108,22.108,0,0,1,30.008-8.771,22.109,22.109,0,0,1,8.771,30.009A22.11,22.11,0,0,1-434.157,1604.231Z" transform="translate(207.234 51.178)" fill="#ffe292"/>
    <path id="Trazado_25221" data-name="Trazado 25221" d="M12.3,19.2a4.4,4.4,0,0,1-3.794-1.826,9.225,9.225,0,0,1-1.323-5.43A9.224,9.224,0,0,1,8.5,6.51a4.406,4.406,0,0,1,3.8-1.816A4.4,4.4,0,0,1,16.09,6.51a9.224,9.224,0,0,1,1.318,5.43,9.225,9.225,0,0,1-1.323,5.43A4.391,4.391,0,0,1,12.3,19.2Zm0-2.539A1.855,1.855,0,0,0,14,15.5a8.057,8.057,0,0,0,.6-3.56,8,8,0,0,0-.605-3.56A1.859,1.859,0,0,0,12.3,7.223q-2.3,0-2.3,4.717T12.3,16.656Z" transform="translate(-228.804 1623.52)" fill="#673ab7"/>
  </g>
</svg>
