<svg xmlns="http://www.w3.org/2000/svg" xmlns:xlink="http://www.w3.org/1999/xlink" width="308" height="194" viewBox="0 0 308 194">
  <defs>
    <clipPath id="clip-path">
      <path id="Trazado_25069" data-name="Trazado 25069" d="M603.32,947.786c-7.541-5.352-15.381-9.622-23.81-11.471q-.5,1.408-1.005,2.812c-4.512,3.718-11.272.242-15.047-3.327a.642.642,0,0,1-.051-.059c-.407.045-.812.1-1.218.152,0-.072,0-.145,0-.217-11.679,1.079-21.768,7.09-31.182,14.953-10.332,8.627-18.539,19.486-26.328,30.463A46.525,46.525,0,0,0,515.6,992.964c.9.684,11.061-8.978,20.189-17.964q-1.892,15.237-3.782,30.472c9.851.039,19.171.532,28.419,1.085.71-.3,1.43-.581,2.15-.865a11.434,11.434,0,0,0,4.577-2.757.906.906,0,0,1,1.406,0c1.347,1.415,2.549,2.968,3.937,4.345,8.149.468,16.4.853,25.054.886q-.2-11.446-.572-22.891c-.156-4.89-.271-10.639-.839-16.463,10.615,9.012,24.885,20.833,25.85,19.969a46.579,46.579,0,0,0,9.963-12.695C623.331,965.757,614.3,955.576,603.32,947.786Z" transform="translate(-504.675 -935.675)" fill="none"/>
    </clipPath>
    <clipPath id="clip-path-2">
      <path id="Trazado_25086" data-name="Trazado 25086" d="M688.4,986.674c-9.932-7.05-20.26-12.674-31.361-15.109q-.656,1.856-1.325,3.7c-5.943,4.9-14.847.319-19.82-4.383-.026-.025-.044-.051-.067-.077-.536.058-1.07.128-1.6.2,0-.1,0-.191,0-.287-15.383,1.421-28.671,9.34-41.072,19.695-13.607,11.363-24.417,25.666-34.677,40.125a61.3,61.3,0,0,0,14.4,15.639c1.179.9,14.569-11.824,26.591-23.661q-2.49,20.067-4.98,40.136c12.974.051,25.25.7,37.432,1.428.934-.4,1.882-.765,2.83-1.14a15.07,15.07,0,0,0,6.03-3.63,1.193,1.193,0,0,1,1.851,0c1.776,1.863,3.359,3.908,5.187,5.722,10.733.617,21.6,1.124,33,1.169q-.265-15.077-.752-30.151c-.209-6.44-.358-14.011-1.105-21.684,13.979,11.872,32.775,27.442,34.047,26.3a61.315,61.315,0,0,0,13.123-16.721C714.752,1010.345,702.854,996.935,688.4,986.674Z" transform="translate(-558.466 -970.722)" fill="none"/>
    </clipPath>
  </defs>
  <g id="Grupo_16509" data-name="Grupo 16509" transform="translate(-3238 -1204)">
    <g id="Grupo_16508" data-name="Grupo 16508">
      <rect id="Rectángulo_4083" data-name="Rectángulo 4083" width="308" height="194" transform="translate(3238 1204)" fill="none"/>
      <g id="Grupo_16504" data-name="Grupo 16504" transform="translate(2763.7 291.038)">
        <path id="Trazado_25057" data-name="Trazado 25057" d="M676.256,1069.144c-13.152,6.569-26.949,4.1-38.1-1.483s-20.592-14.043-31.69-19.718c-15.195-7.771-33.378-10.09-51.859-6.612-10.413,1.96-22.508,8.65-33.359,4.838-15.677-5.506-10.6-26.383-7.761-38.488,5.314-22.685,22.121-43.437,41.341-55.542s40.5-16.375,60.332-16c10.543.2,20.87,1.644,30.331,5.1,23.877,8.729,47.613,27.812,57.624,51.95C713.963,1019.325,702.368,1056.1,676.256,1069.144Z" transform="translate(3.63 0.516)" fill="#f8f3ff"/>
        <g id="Grupo_15978" data-name="Grupo 15978" transform="translate(502.3 934.962)">
          <path id="Trazado_25058" data-name="Trazado 25058" d="M571.6,937.377c-.107.156-.213.314-.33.464-4.419,5.653-12.14,1.85-16.275-2.061a.641.641,0,0,1-.051-.059,34.091,34.091,0,0,0-11.21,3.016c-10.128,4.881-13.546,13.229-14.909,24.2q-2.644,21.26-5.277,42.519c9.851.039,19.171.532,28.419,1.085.71-.3,1.43-.581,2.15-.865a11.433,11.433,0,0,0,4.577-2.757.906.906,0,0,1,1.406,0c1.347,1.415,2.549,2.968,3.937,4.345,8.149.468,16.4.853,25.054.886q-.2-11.446-.572-22.891C588.01,969.486,587.974,944.776,571.6,937.377Z" transform="translate(-492.771 -934.622)" fill="#7c84c6"/>
          <path id="Trazado_25059" data-name="Trazado 25059" d="M562.762,943.1a45.818,45.818,0,0,1-.578-7.425c-11.679,1.079-21.768,7.09-31.182,14.953-10.332,8.627-18.539,19.486-26.328,30.463A46.525,46.525,0,0,0,515.6,992.964c1.572,1.2,31.7-29.465,34.652-32.42,3.914-3.914,6.6-8.039,10.245-12.167.45-.513,1.425-1.712,2.648-3.168Q562.93,944.155,562.762,943.1Z" transform="translate(-501.235 -934.642)" fill="#7c84c6"/>
          <path id="Trazado_25060" data-name="Trazado 25060" d="M581.635,947.588c-7.541-5.352-15.381-9.622-23.81-11.471-1.488,4.209-3.032,8.411-4.8,12.512,3.488,3.515,6.341,7.064,10.194,10.355,3.178,2.713,35.617,30.921,37.09,29.6a46.58,46.58,0,0,0,9.963-12.695C601.646,965.559,592.612,955.378,581.635,947.588Z" transform="translate(-479.551 -934.444)" fill="#7c84c6"/>
          <path id="Trazado_25061" data-name="Trazado 25061" d="M599.3,964.509c-.908-1.011-2.644-3.087-4.021-3.407-1.721-.4-3.145,1.48-4.4,2.583a76.165,76.165,0,0,0-8.746,9.052,3.018,3.018,0,0,0-.934,2.134,3.076,3.076,0,0,0,1.338,1.818l2.506,2.035a4.424,4.424,0,0,0,2.012,1.115c2.806.429,5.832-4.259,7.7-5.956,2.225-2.018,5.694-5.17,5.086-8.559a1.33,1.33,0,0,0-.355-.6C599.428,964.649,599.366,964.578,599.3,964.509Z" transform="translate(-466.92 -923.263)" fill="#e5e5e5"/>
          <path id="Trazado_25062" data-name="Trazado 25062" d="M514.55,968.713c-1.96-1.493-6.634-6.767-8.694-3.886q-1.449,2.029-2.758,4.156c-.533.868-1.065,1.929-.649,2.861a3.242,3.242,0,0,0,1.094,1.163l9.828,7.471a7.093,7.093,0,0,0,1.456.93c3.369,1.451,7.271-3.579,8.33-6.217C520.21,973.123,517.411,970.893,514.55,968.713Z" transform="translate(-502.3 -921.948)" fill="#e5e5e5"/>
          <g id="Grupo_15977" data-name="Grupo 15977" transform="translate(3.44 1.033)">
            <g id="Grupo_15976" data-name="Grupo 15976" clip-path="url(#clip-path)">
              <g id="Grupo_15975" data-name="Grupo 15975" transform="translate(16.288 -3.289)">
                <path id="Trazado_25063" data-name="Trazado 25063" d="M529.378,984.314c1.391-1.619,3.568-2.333,5.158-3.756,2.384-2.132,3.12-5.49,4.059-8.546s2.546-6.349,5.593-7.322a3.2,3.2,0,0,1,3.255.537c1.125,1.17.617,3.113-.161,4.538-2.352,4.3-6.544,7.631-7.82,12.367-.547,2.038-.524,4.257-1.509,6.123-1.349,2.555-5.475,4.716-8.407,4.044C526.129,991.517,527.718,986.245,529.378,984.314Z" transform="translate(-510.717 -919.465)" fill="#8ba8bb"/>
                <path id="Trazado_25064" data-name="Trazado 25064" d="M565.921,959.678a3.679,3.679,0,0,1,3.329-1.771,3.012,3.012,0,0,1,2.7,2.478,5.259,5.259,0,0,1-.742,2.862,39.24,39.24,0,0,1-3.933,6.735,29.358,29.358,0,0,0-3.208,4.448c-.772,1.554-1.086,3.3-1.861,4.854-3.358,6.719-10.984-.5-7.426-5.924,1.818-2.772,4.353-4.4,7.048-6.136C565.027,965.169,564.155,962.542,565.921,959.678Z" transform="translate(-498.905 -922.42)" fill="#8ba8bb"/>
                <path id="Trazado_25065" data-name="Trazado 25065" d="M584.451,953.378c-1.624,1.834-3.668,3.291-5.078,5.291a10.908,10.908,0,0,0-1.622,8.888,1.8,1.8,0,0,0,.7,1.172,1.636,1.636,0,0,0,.908.162,8.367,8.367,0,0,0,5.112-2.67,28.034,28.034,0,0,1,4.374-3.927,16.154,16.154,0,0,0,3.308-2.057,5.7,5.7,0,0,0,.978-5.7c-.468-1.446-2.816-6.2-4.528-6.43C586.626,947.843,585.572,952.112,584.451,953.378Z" transform="translate(-488.339 -926.814)" fill="#8ba8bb"/>
                <path id="Trazado_25066" data-name="Trazado 25066" d="M568.43,944.48c2.022-.287,4.532.188,5.261,2.1.669,1.751-.588,3.663-2.061,4.822-2.339,1.843-5.346,2.754-7.508,4.8-1.756,1.663-2.8,3.928-4.292,5.829s-3.809,3.524-6.175,3.03A5.322,5.322,0,0,1,549.82,960c-.168-4.2,3.543-8.646,7-10.687C560.194,947.322,564.565,945.029,568.43,944.48Z" transform="translate(-500.719 -928.471)" fill="#8ba8bb"/>
                <path id="Trazado_25067" data-name="Trazado 25067" d="M533.58,942.131a19.625,19.625,0,0,0-3.592,4.233,6.515,6.515,0,0,0-.688,5.352,3.974,3.974,0,0,0,4.37,2.62,6.445,6.445,0,0,0,3.024-2.228q3.681-4.048,7.36-8.1c1.757-1.932,3.642-4.295,3.127-6.856-.571-2.838-4.471-4.87-6.95-3.074-1,.727-1.553,2.31-2.277,3.292A40.338,40.338,0,0,1,533.58,942.131Z" transform="translate(-510.059 -933.404)" fill="#8ba8bb"/>
                <path id="Trazado_25068" data-name="Trazado 25068" d="M517.519,956.16a5.329,5.329,0,0,1,2.672-2.509,2.076,2.076,0,0,1,1.941.256,2.485,2.485,0,0,1,.52,2.543,13.938,13.938,0,0,0-.713,2.641c-.083,1.569,1.259,3.35,1.909,4.737.782,1.667,1.359,3.472.475,5.226-.933,1.854-2.654,1.934-4.38,1.03C515.271,967.642,514.957,960.166,517.519,956.16Z" transform="translate(-515.92 -924.38)" fill="#8ba8bb"/>
              </g>
            </g>
          </g>
          <path id="Trazado_25070" data-name="Trazado 25070" d="M554.356,937.764A27.088,27.088,0,0,1,544,935.4c1.3,2.155,1.931,4.686,3.262,6.843.752,1.217,1.435,2.473,2.106,3.736.074.093.156.18.225.277A11.968,11.968,0,0,1,550.971,949c.542,1,1.359,8.232,1.96,9.2,1.986-5.4,4.177-16.371,7.738-21.314A22.4,22.4,0,0,1,554.356,937.764Z" transform="translate(-483.601 -934.767)"/>
          <path id="Trazado_25071" data-name="Trazado 25071" d="M588.368,1005.3c-4.7.143-9.446.223-14.139-.075-2.481-.158-5.368-.594-7.31-2.263-1.96-1.683-2.013-3.976-2.118-6.36-.139-3.224-.177-6.456-.174-9.683q.007-9.684.745-19.349l2.21-3.166a11.626,11.626,0,0,0,2.018-3.843,1.037,1.037,0,0,0,.022-.547.982.982,0,0,0-.443-.49c-1.417-.9-3.285-.539-4.889-1.037-.146-.045-.32-.152-.282-.3.025-.09.12-.138.207-.175a26.922,26.922,0,0,1,4.128-1.47q3.25-.812,6.5-1.627c1.36-.339,1.488-1.193,1.464-2.461-.049-2.765-.857-5.7-1.33-8.424-.161-.931-.714-7.684-1.353-7.942a19.924,19.924,0,0,0-2.985-.94c-.293-.068-.59-.126-.885-.182-2.147,5.4-4.907,12.941-7.846,17.98-.361.617-.409-1.222-.717-2-1.272-3.217-2.464-6.468-3.518-9.763-.442-1.379-.687-4.041-1.321-5.391-1.425-.086-2.849-.251-4.275-.39-1.324,6.218-2.8,13.178-3.979,19.421a2.114,2.114,0,0,0,.251,1.881c.484.5,1.619.519,2.267.581l5.445.523a3.532,3.532,0,0,1,2.025.626c-1.1.53-2.342.617-3.43,1.217a1.851,1.851,0,0,0-.737.619,1.99,1.99,0,0,0,.324,1.953A48.221,48.221,0,0,1,557.3,967.2q-.467,10.861-.8,21.726c-.145,4.771,1.2,11.925-4.319,13.953-2.893,1.062-6.066.969-9.1.9-5.981-.223-11.96-.569-17.938-.856-2.9-.139-2.71,4.379.178,4.516,7.563.362,15.508,1.464,23.066.833a22.216,22.216,0,0,0,2.638-.384c2.982-.613,5.228-.148,7.6-2.455,7.71,6.3,20.669,4.668,29.917,4.385C591.454,1009.724,591.278,1005.208,588.368,1005.3Z" transform="translate(-492.987 -934.962)" fill="#e5e5e5"/>
          <path id="Trazado_25072" data-name="Trazado 25072" d="M525.926,967.594a73.69,73.69,0,0,1,10.607-14.452" transform="translate(-491.704 -926.809)" fill="none" stroke="#8ba8bb" stroke-miterlimit="10" stroke-width="1"/>
          <path id="Trazado_25073" data-name="Trazado 25073" d="M570.719,962.351c.255-.138.093-.526-.094-.746l-9.137-10.819" transform="translate(-475.755 -927.865)" fill="none" stroke="#8ba8bb" stroke-miterlimit="10" stroke-width="1"/>
          <path id="Trazado_25074" data-name="Trazado 25074" d="M548.093,1002.322q1.343-30.042,2.684-60.083" transform="translate(-481.763 -931.698)" fill="none" stroke="#000" stroke-miterlimit="10" stroke-width="1"/>
        </g>
        <g id="Grupo_15982" data-name="Grupo 15982" transform="translate(579.125 985.4)">
          <path id="Trazado_25075" data-name="Trazado 25075" d="M646.614,972.965c-.14.206-.28.413-.435.61-5.82,7.447-15.99,2.435-21.438-2.716-.026-.025-.044-.051-.067-.077a44.91,44.91,0,0,0-14.764,3.972c-13.339,6.43-17.842,17.424-19.639,31.871q-3.481,28-6.948,56c12.974.051,25.25.7,37.432,1.428.934-.4,1.882-.765,2.83-1.14a15.067,15.067,0,0,0,6.03-3.63,1.193,1.193,0,0,1,1.851,0c1.776,1.863,3.359,3.908,5.187,5.722,10.733.617,21.6,1.124,33,1.169q-.265-15.077-.752-30.151C668.231,1015.255,668.184,982.709,646.614,972.965Z" transform="translate(-542.787 -969.335)" fill="#7c84c6"/>
          <path id="Trazado_25076" data-name="Trazado 25076" d="M634.976,980.5a60.014,60.014,0,0,1-.762-9.779c-15.383,1.421-28.671,9.34-41.072,19.695-13.607,11.363-24.417,25.666-34.677,40.125a61.3,61.3,0,0,0,14.4,15.639c2.07,1.58,41.75-38.811,45.643-42.7,5.154-5.154,8.7-10.588,13.493-16.026.6-.675,1.879-2.254,3.488-4.173Q635.2,981.893,634.976,980.5Z" transform="translate(-553.936 -969.362)" fill="#7c84c6"/>
          <path id="Trazado_25077" data-name="Trazado 25077" d="M659.835,986.413c-9.932-7.05-20.26-12.674-31.361-15.109-1.96,5.545-3.995,11.079-6.324,16.481,4.593,4.631,8.352,9.305,13.427,13.639,4.186,3.575,46.914,40.729,48.853,38.989a61.316,61.316,0,0,0,13.123-16.721C686.19,1010.084,674.293,996.674,659.835,986.413Z" transform="translate(-525.374 -969.101)" fill="#7c84c6"/>
          <path id="Trazado_25078" data-name="Trazado 25078" d="M683.105,1008.7c-1.2-1.333-3.481-4.066-5.3-4.489-2.267-.527-4.141,1.951-5.8,3.4a100.2,100.2,0,0,0-11.521,11.921,3.978,3.978,0,0,0-1.23,2.812,4.049,4.049,0,0,0,1.763,2.394l3.3,2.681a5.84,5.84,0,0,0,2.649,1.467c3.7.565,7.681-5.609,10.147-7.845,2.929-2.658,7.5-6.809,6.7-11.272a1.747,1.747,0,0,0-.468-.8C683.27,1008.885,683.188,1008.793,683.105,1008.7Z" transform="translate(-508.737 -954.375)" fill="#e5e5e5"/>
          <path id="Trazado_25079" data-name="Trazado 25079" d="M571.473,1014.237c-2.583-1.967-8.737-8.913-11.45-5.119q-1.91,2.672-3.633,5.474c-.7,1.144-1.4,2.542-.855,3.769a4.257,4.257,0,0,0,1.44,1.532l12.945,9.84a9.39,9.39,0,0,0,1.916,1.225c4.438,1.912,9.577-4.715,10.974-8.188C578.928,1020.047,575.241,1017.109,571.473,1014.237Z" transform="translate(-555.338 -952.642)" fill="#e5e5e5"/>
          <g id="Grupo_15981" data-name="Grupo 15981" transform="translate(4.53 1.36)">
            <g id="Grupo_15980" data-name="Grupo 15980" clip-path="url(#clip-path-2)">
              <g id="Grupo_15979" data-name="Grupo 15979" transform="translate(21.455 -4.332)">
                <path id="Trazado_25080" data-name="Trazado 25080" d="M591,1034.786c1.832-2.132,4.7-3.072,6.795-4.947,3.139-2.809,4.109-7.231,5.346-11.256s3.353-8.362,7.364-9.644a4.211,4.211,0,0,1,4.288.708c1.482,1.541.813,4.1-.212,5.976-3.1,5.669-8.62,10.051-10.3,16.29-.723,2.684-.691,5.607-1.989,8.065-1.774,3.363-7.21,6.211-11.074,5.326C586.724,1044.275,588.817,1037.329,591,1034.786Z" transform="translate(-566.425 -949.372)" fill="#8ba8bb"/>
                <path id="Trazado_25081" data-name="Trazado 25081" d="M639.136,1002.336a4.846,4.846,0,0,1,4.383-2.332,3.964,3.964,0,0,1,3.562,3.265,6.9,6.9,0,0,1-.976,3.77,51.679,51.679,0,0,1-5.18,8.871,38.538,38.538,0,0,0-4.225,5.859c-1.017,2.047-1.431,4.35-2.452,6.394-4.424,8.85-14.467-.658-9.782-7.8,2.394-3.652,5.733-5.8,9.283-8.081C637.959,1009.57,636.81,1006.11,639.136,1002.336Z" transform="translate(-550.867 -953.264)" fill="#8ba8bb"/>
                <path id="Trazado_25082" data-name="Trazado 25082" d="M663.542,994.041c-2.138,2.413-4.831,4.334-6.689,6.969a14.363,14.363,0,0,0-2.137,11.707,2.377,2.377,0,0,0,.918,1.544,2.149,2.149,0,0,0,1.2.211c2.584-.122,4.857-1.732,6.731-3.514s3.555-3.823,5.762-5.174c1.464-.9,3.155-1.485,4.358-2.709,1.871-1.9,2.112-4.967,1.288-7.506-.616-1.9-3.708-8.164-5.965-8.468C666.407,986.75,665.018,992.372,663.542,994.041Z" transform="translate(-536.95 -959.052)" fill="#8ba8bb"/>
                <path id="Trazado_25083" data-name="Trazado 25083" d="M642.441,982.321c2.664-.378,5.969.248,6.93,2.761.882,2.306-.775,4.826-2.714,6.353-3.082,2.425-7.043,3.626-9.89,6.323-2.31,2.19-3.684,5.174-5.652,7.677s-5.018,4.641-8.135,3.991c-2.939-.614-4.929-3.663-5.051-6.664-.222-5.535,4.667-11.388,9.222-14.076C631.593,986.063,637.35,983.042,642.441,982.321Z" transform="translate(-553.256 -961.234)" fill="#8ba8bb"/>
                <path id="Trazado_25084" data-name="Trazado 25084" d="M596.537,979.225a25.868,25.868,0,0,0-4.731,5.575,8.582,8.582,0,0,0-.905,7.051c.85,2.293,3.375,4.022,5.753,3.45,1.63-.391,2.859-1.693,3.986-2.935l9.692-10.664c2.315-2.546,4.8-5.658,4.12-9.03-.752-3.737-5.89-6.415-9.153-4.048-1.32.956-2.045,3.043-3,4.337A52.973,52.973,0,0,1,596.537,979.225Z" transform="translate(-565.558 -967.732)" fill="#8ba8bb"/>
                <path id="Trazado_25085" data-name="Trazado 25085" d="M575.384,997.7c.894-1.4,1.874-2.77,3.52-3.3a2.73,2.73,0,0,1,2.557.336,3.274,3.274,0,0,1,.684,3.35,18.263,18.263,0,0,0-.937,3.478c-.11,2.067,1.657,4.412,2.514,6.239,1.03,2.2,1.787,4.573.626,6.883-1.23,2.442-3.5,2.548-5.771,1.357C572.424,1012.827,572.009,1002.981,575.384,997.7Z" transform="translate(-573.278 -955.845)" fill="#8ba8bb"/>
              </g>
            </g>
          </g>
          <path id="Trazado_25087" data-name="Trazado 25087" d="M623.9,973.475a35.7,35.7,0,0,1-13.646-3.119c1.711,2.839,2.542,6.172,4.3,9.012.989,1.6,1.89,3.256,2.774,4.92.1.123.2.236.3.364a15.812,15.812,0,0,1,1.821,3.626c.713,1.314,1.79,10.842,2.581,12.111,2.616-7.118,5.5-21.561,10.19-28.073A29.483,29.483,0,0,1,623.9,973.475Z" transform="translate(-530.708 -969.526)"/>
          <path id="Trazado_25088" data-name="Trazado 25088" d="M668.7,1062.425c-6.188.19-12.441.294-18.625-.1-3.266-.207-7.069-.781-9.628-2.98-2.581-2.218-2.652-5.236-2.788-8.378-.184-4.245-.233-8.5-.23-12.753q.011-12.754.982-25.485l2.91-4.172a15.322,15.322,0,0,0,2.659-5.062,1.367,1.367,0,0,0,.027-.72,1.278,1.278,0,0,0-.582-.645c-1.867-1.188-4.328-.71-6.44-1.366-.193-.059-.423-.2-.371-.4.03-.119.158-.183.271-.23a35.4,35.4,0,0,1,5.439-1.938l8.561-2.141c1.792-.449,1.96-1.574,1.929-3.242-.065-3.643-1.13-7.513-1.751-11.1-.213-1.227-.94-10.121-1.782-10.461a26.185,26.185,0,0,0-3.932-1.239c-.385-.088-.775-.167-1.166-.24-2.826,7.113-6.465,17.044-10.335,23.683-.474.813-.537-1.609-.944-2.641-1.673-4.238-3.245-8.519-4.634-12.86-.581-1.817-.905-5.322-1.74-7.1-1.879-.113-3.753-.33-5.629-.514-1.745,8.193-3.692,17.359-5.242,25.582a2.783,2.783,0,0,0,.33,2.478c.637.656,2.132.684,2.985.765l7.171.688a4.652,4.652,0,0,1,2.667.826c-1.45.7-3.085.811-4.516,1.6a2.436,2.436,0,0,0-.97.816,2.62,2.62,0,0,0,.426,2.573c1.318,2.2,3,4.238,4.03,6.563q-.615,14.305-1.053,28.616c-.191,6.284,1.577,15.707-5.69,18.377-3.811,1.4-7.99,1.278-11.98,1.187-7.877-.294-15.751-.75-23.625-1.127-3.827-.184-3.571,5.767.233,5.948,9.96.478,20.427,1.931,30.382,1.1a29.3,29.3,0,0,0,3.474-.5c3.928-.808,6.885-.194,10.006-3.234,10.157,8.293,27.224,6.149,39.4,5.775C672.766,1068.257,672.536,1062.308,668.7,1062.425Z" transform="translate(-543.072 -969.783)" fill="#e5e5e5"/>
          <path id="Trazado_25089" data-name="Trazado 25089" d="M586.456,1012.764a97.1,97.1,0,0,1,13.974-19.035" transform="translate(-541.383 -959.044)" fill="none" stroke="#8ba8bb" stroke-miterlimit="10" stroke-width="1"/>
          <path id="Trazado_25090" data-name="Trazado 25090" d="M645.456,1005.857c.336-.181.122-.691-.125-.982q-6.016-7.124-12.034-14.249" transform="translate(-520.375 -960.435)" fill="none" stroke="#8ba8bb" stroke-miterlimit="10" stroke-width="1"/>
          <path id="Trazado_25091" data-name="Trazado 25091" d="M615.654,1058.506q1.769-39.568,3.536-79.138" transform="translate(-528.288 -965.484)" fill="none" stroke="#000" stroke-miterlimit="10" stroke-width="1"/>
        </g>
      </g>
    </g>
  </g>
</svg>
