<svg xmlns="http://www.w3.org/2000/svg" width="346" height="314" viewBox="0 0 346 314">
  <g id="Grupo_16490" data-name="Grupo 16490" transform="translate(886 -2412)">
    <rect id="Rectángulo_4073" data-name="Rectángulo 4073" width="346" height="314" transform="translate(-886 2412)" fill="#fff"/>
    <g id="Grupo_16486" data-name="Grupo 16486" transform="translate(-19.232 -2.867)">
      <g id="Grupo_16051" data-name="Grupo 16051" transform="translate(-684.022 2514.003)">
        <path id="Trazado_25218" data-name="Trazado 25218" d="M1418.19,395.646h-1.551v-2.326h1.551Zm0-4.651h-1.551V388.67h1.551Zm0-4.651h-1.551v-2.326h1.551Zm0-4.651h-1.551v-2.326h1.551Zm0-4.651h-1.551v-2.326h1.551Zm0-4.651h-1.551v-2.326h1.551Zm0-4.651h-1.551v-2.326h1.551Zm0-4.651h-1.551v-2.326h1.551Zm0-4.651h-1.551v-2.326h1.551Zm0-4.651h-1.551V351.46h1.551Zm0-4.651h-1.551v-2.326h1.551Zm0-4.651h-1.551v-2.326h1.551Zm0-4.651h-1.551v-2.326h1.551Zm-2.316-2.335h-2.326v-1.55h2.326Zm-4.651,0H1408.9v-1.55h2.325Zm-4.651,0h-2.326v-1.55h2.326Zm-4.651,0h-2.326v-1.55h2.326Z" transform="translate(-1399.594 -335.947)" fill="#f3d35a"/>
      </g>
      <path id="Trazado_25481" data-name="Trazado 25481" d="M-22.661,0l-.827-2.3h-4.354l-.82,2.3h-1.278l3.548-9.625h1.463L-21.383,0Zm-4.792-3.384h3.582l-1.791-5.011ZM-15.586-6.72H-14.4V0h-1.135l-.027-.889a2.1,2.1,0,0,1-.834.755A2.565,2.565,0,0,1-17.575.13a2.337,2.337,0,0,1-1.692-.608A2.269,2.269,0,0,1-19.9-2.194V-6.72h1.183v4.259a1.6,1.6,0,0,0,.414,1.2,1.464,1.464,0,0,0,1.056.4,1.608,1.608,0,0,0,1.193-.465A1.893,1.893,0,0,0-15.586-2.7Zm10.459-.13a2.166,2.166,0,0,1,1.565.571,2.117,2.117,0,0,1,.595,1.6V0H-4.149V-4.368a1.518,1.518,0,0,0-.369-1.107,1.257,1.257,0,0,0-.937-.376,1.327,1.327,0,0,0-1.025.424,1.822,1.822,0,0,0-.39,1.271V0h-1.2V-4.32a1.589,1.589,0,0,0-.373-1.145A1.267,1.267,0,0,0-9.4-5.852a1.315,1.315,0,0,0-1.022.434,1.885,1.885,0,0,0-.393,1.3V0H-12V-6.72h1.183v.868a2.041,2.041,0,0,1,.769-.738,2.193,2.193,0,0,1,1.07-.26,2.283,2.283,0,0,1,1.148.284,1.766,1.766,0,0,1,.745.817,2.091,2.091,0,0,1,.807-.817A2.307,2.307,0,0,1-5.127-6.85ZM5.2-3.493l-.014.321H-.062A2.375,2.375,0,0,0,.581-1.453a2.11,2.11,0,0,0,1.531.6,2.015,2.015,0,0,0,1.114-.321,2.085,2.085,0,0,0,.766-.889l1.066.226A3.031,3.031,0,0,1,3.91-.4,3.133,3.133,0,0,1,2.126.13,3.246,3.246,0,0,1-.294-.807a3.484,3.484,0,0,1-.923-2.557,3.467,3.467,0,0,1,.926-2.55A3.206,3.206,0,0,1,2.092-6.85a3.034,3.034,0,0,1,2.259.861A3.4,3.4,0,0,1,5.2-3.493ZM2.092-5.94a2.1,2.1,0,0,0-1.4.475A2.177,2.177,0,0,0-.014-4.081H4.013a2,2,0,0,0-.588-1.384A1.9,1.9,0,0,0,2.092-5.94Zm8.135-.909a2.337,2.337,0,0,1,1.692.608,2.269,2.269,0,0,1,.632,1.716V0H11.368V-4.259a1.589,1.589,0,0,0-.41-1.2,1.466,1.466,0,0,0-1.053-.39,1.626,1.626,0,0,0-1.2.461A1.872,1.872,0,0,0,8.237-4.02V0H7.055V-6.72H8.237v.861A2.244,2.244,0,0,1,10.227-6.85ZM16.98,0a1.766,1.766,0,0,1-1.312-.482,1.823,1.823,0,0,1-.479-1.343V-5.776H13.815V-6.72h.506a.971.971,0,0,0,.742-.236,1.161,1.161,0,0,0,.215-.79V-8.962h1.1V-6.72h1.545v.943H16.379v3.828a1.019,1.019,0,0,0,.256.742.9.9,0,0,0,.673.263h.615V0ZM21.1.13a2.287,2.287,0,0,1-1.473-.461,1.657,1.657,0,0,1-.578-1.377,1.957,1.957,0,0,1,.185-.878,1.549,1.549,0,0,1,.547-.612,3.281,3.281,0,0,1,.79-.379,7.3,7.3,0,0,1,1.022-.243L22.682-4q.595-.109.595-.622a1.174,1.174,0,0,0-.42-1,1.713,1.713,0,0,0-1.063-.318,1.745,1.745,0,0,0-1.053.308,1.287,1.287,0,0,0-.5.943l-1.066-.226a2.052,2.052,0,0,1,.841-1.439,3.141,3.141,0,0,1,1.832-.482,3.716,3.716,0,0,1,.974.12,2.647,2.647,0,0,1,.813.376,1.686,1.686,0,0,1,.581.725,2.7,2.7,0,0,1,.208,1.1v2.775a1.136,1.136,0,0,0,.154.7.664.664,0,0,0,.53.181h.109V0H24.63a1.121,1.121,0,0,1-1.271-.909H23.3A2.568,2.568,0,0,1,21.1.13Zm.273-.957a1.793,1.793,0,0,0,1.442-.649,2.674,2.674,0,0,0,.547-1.777l-1.777.342a2.392,2.392,0,0,0-1.042.373.867.867,0,0,0-.338.735.857.857,0,0,0,.325.738A1.388,1.388,0,0,0,21.376-.827Zm6.665-4.71a2.032,2.032,0,0,1,.834-.9,2.512,2.512,0,0,1,1.292-.355v1.114a2.214,2.214,0,0,0-1.562.5,2.084,2.084,0,0,0-.537,1.593V0H26.886V-6.72h1.155ZM-65.321,17l-.718-2.037h-4.149L-70.906,17H-73l3.637-9.878h2.509L-63.222,17Zm-4.266-3.753h2.946l-1.47-4.19Zm8.818,3.89a1.078,1.078,0,0,1-.79-.332,1.078,1.078,0,0,1-.332-.79,1.1,1.1,0,0,1,.332-.8,1.073,1.073,0,0,1,.79-.335,1.092,1.092,0,0,1,.8.335,1.092,1.092,0,0,1,.335.8,1.073,1.073,0,0,1-.335.79A1.1,1.1,0,0,1-60.768,17.137ZM-46.98,17l-.718-2.037h-4.149L-52.565,17h-2.1l3.637-9.878h2.509L-44.881,17Zm-4.266-3.753H-48.3l-1.47-4.19Zm11.737-3.411a2.739,2.739,0,0,1,1.941.632,2.345,2.345,0,0,1,.677,1.8V17h-1.976V12.693a1.224,1.224,0,0,0-.352-.971,1.326,1.326,0,0,0-.906-.308,1.85,1.85,0,0,0-.588.089,1.51,1.51,0,0,0-.492.277,1.224,1.224,0,0,0-.352.53,2.45,2.45,0,0,0-.133.813V17h-1.969V9.973h1.969v.779A2.708,2.708,0,0,1-39.508,9.836Zm7.7,7.294a3.755,3.755,0,0,1-2.714-1.012,3.494,3.494,0,0,1-1.053-2.639,3.486,3.486,0,0,1,1.049-2.639,3.766,3.766,0,0,1,2.717-1,3.744,3.744,0,0,1,2.276.677,3.021,3.021,0,0,1,1.176,1.907l-1.818.2a1.558,1.558,0,0,0-.588-.923,1.788,1.788,0,0,0-1.066-.308,1.612,1.612,0,0,0-1.285.574,2.251,2.251,0,0,0-.492,1.518,2.254,2.254,0,0,0,.492,1.514,1.608,1.608,0,0,0,1.285.578,1.772,1.772,0,0,0,1.063-.308,1.594,1.594,0,0,0,.591-.923l1.818.2a3.03,3.03,0,0,1-1.186,1.907A3.729,3.729,0,0,1-31.8,17.13ZM-22.7,9.836a2.494,2.494,0,0,1,1.856.667,2.682,2.682,0,0,1,.66,1.965V17h-1.976V12.789a1.377,1.377,0,0,0-.349-1.049,1.309,1.309,0,0,0-.93-.325,1.8,1.8,0,0,0-.55.082,1.574,1.574,0,0,0-.489.263,1.19,1.19,0,0,0-.366.53,2.434,2.434,0,0,0-.14.834V17h-1.969V6.5h1.969v4.313A2.782,2.782,0,0,1-22.7,9.836Zm7.684,7.3A4.419,4.419,0,0,1-17,16.706a3.219,3.219,0,0,1-1.364-1.265,3.769,3.769,0,0,1-.5-1.962A3.437,3.437,0,0,1-17.8,10.813a3.956,3.956,0,0,1,2.782-.978,3.966,3.966,0,0,1,2.789.978,3.437,3.437,0,0,1,1.066,2.666,3.457,3.457,0,0,1-1.066,2.676A3.957,3.957,0,0,1-15.015,17.137Zm-.021-1.565A1.8,1.8,0,0,0-13.645,15a2.15,2.15,0,0,0,.53-1.518,2.15,2.15,0,0,0-.53-1.518,1.8,1.8,0,0,0-1.391-.574,1.738,1.738,0,0,0-1.35.578,2.169,2.169,0,0,0-.523,1.514,2.169,2.169,0,0,0,.523,1.514A1.738,1.738,0,0,0-15.036,15.571Zm6.487-2.912a1.073,1.073,0,0,1-.79-.335,1.1,1.1,0,0,1-.332-.8,1.078,1.078,0,0,1,.332-.79,1.078,1.078,0,0,1,.79-.332,1.1,1.1,0,0,1,.8.332,1.073,1.073,0,0,1,.335.79,1.092,1.092,0,0,1-.335.8A1.092,1.092,0,0,1-8.548,12.659Zm0,4.478a1.078,1.078,0,0,1-.79-.332,1.078,1.078,0,0,1-.332-.79,1.1,1.1,0,0,1,.332-.8,1.073,1.073,0,0,1,.79-.335,1.092,1.092,0,0,1,.8.335,1.092,1.092,0,0,1,.335.8,1.073,1.073,0,0,1-.335.79A1.1,1.1,0,0,1-8.548,17.137Zm9.994,0a3.544,3.544,0,0,1-2.693-.9A3.913,3.913,0,0,1-2.1,13.473l2.017-.089a7.141,7.141,0,0,0,.031.725,2.5,2.5,0,0,0,.123.561,1,1,0,0,0,.26.42,1.18,1.18,0,0,0,.444.243,2.2,2.2,0,0,0,.667.089,1.6,1.6,0,0,0,1.166-.4,1.386,1.386,0,0,0,.407-1.039,1.4,1.4,0,0,0-.39-1.07,1.466,1.466,0,0,0-1.046-.366H1.2V11.019h.355a1.069,1.069,0,0,0,.817-.349A1.243,1.243,0,0,0,2.7,9.788a.994.994,0,0,0-.355-.82A1.445,1.445,0,0,0,1.4,8.681a1.4,1.4,0,0,0-.533.092.994.994,0,0,0-.359.236A1.043,1.043,0,0,0,.3,9.371,1.9,1.9,0,0,0,.2,9.8a4.3,4.3,0,0,0-.024.479l-1.989-.1A3.162,3.162,0,0,1-.967,7.809a3.232,3.232,0,0,1,2.352-.824,3.362,3.362,0,0,1,2.256.755,2.366,2.366,0,0,1,.889,1.876,2.136,2.136,0,0,1-.379,1.271,2.172,2.172,0,0,1-.865.752,2.434,2.434,0,0,1,.629.28,2.578,2.578,0,0,1,.55.472,2.1,2.1,0,0,1,.407.718,2.888,2.888,0,0,1,.15.957A2.791,2.791,0,0,1,4.043,16.3,3.856,3.856,0,0,1,1.446,17.137Zm8.832-2.953V12.536h4.9v1.647Zm12.865,1h3.1V17H21.092V7.122h2.051Zm10.165-.1a6.574,6.574,0,0,0,.171,1.716V17H31.64l-.157-.766a2.285,2.285,0,0,1-.984.677,3.628,3.628,0,0,1-1.271.226,3.343,3.343,0,0,1-.656-.062,2.231,2.231,0,0,1-.591-.208,1.794,1.794,0,0,1-.489-.366,1.6,1.6,0,0,1-.328-.557,2.219,2.219,0,0,1-.123-.762,2.114,2.114,0,0,1,.13-.762,1.786,1.786,0,0,1,.342-.571,2.073,2.073,0,0,1,.554-.417,4.237,4.237,0,0,1,.7-.3,8.331,8.331,0,0,1,.834-.219l1.155-.26a1.274,1.274,0,0,0,.523-.222.443.443,0,0,0,.154-.352.725.725,0,0,0-.345-.677,1.612,1.612,0,0,0-.837-.205,1.2,1.2,0,0,0-1.374,1.073l-1.743-.314a2.36,2.36,0,0,1,1.019-1.6,4.048,4.048,0,0,1,2.208-.516q2.953,0,2.953,2.536Zm-3.466.711a1.583,1.583,0,0,0,1.217-.509,2.146,2.146,0,0,0,.472-1.507l-1.668.472a1.971,1.971,0,0,0-.7.287.59.59,0,0,0-.243.506.655.655,0,0,0,.26.557A1.075,1.075,0,0,0,29.842,15.8Zm7.267-4.717a2.281,2.281,0,0,1,.923-.844,2.816,2.816,0,0,1,1.374-.352v1.757a2.662,2.662,0,0,0-1.682.424,1.85,1.85,0,0,0-.52,1.5V17H35.222V9.973h1.887ZM45.36,9.973h1.873v6.5a5.257,5.257,0,0,1-.263,1.75,2.886,2.886,0,0,1-.762,1.2,3.177,3.177,0,0,1-1.169.673,4.928,4.928,0,0,1-1.531.219,3.464,3.464,0,0,1-3.623-2.181l1.634-.7a2.384,2.384,0,0,0,.759,1.019,1.934,1.934,0,0,0,1.155.328q1.825,0,1.825-2.167V15.8a2.214,2.214,0,0,1-.885.694,2.943,2.943,0,0,1-1.248.263,3.147,3.147,0,0,1-2.256-.947,3.246,3.246,0,0,1-.694-1.1,4.081,4.081,0,0,1,0-2.847,3.116,3.116,0,0,1,.7-1.09,3.208,3.208,0,0,1,1.025-.684,3.164,3.164,0,0,1,1.241-.246,2.858,2.858,0,0,1,1.3.291,2.077,2.077,0,0,1,.872.776Zm-3.018,4.648a1.8,1.8,0,0,0,2.581-.007,1.964,1.964,0,0,0,0-2.673,1.82,1.82,0,0,0-2.591-.01,1.87,1.87,0,0,0-.516,1.35A1.851,1.851,0,0,0,42.342,14.621Zm10.209,2.516a4.419,4.419,0,0,1-1.989-.431A3.219,3.219,0,0,1,49.2,15.441a3.769,3.769,0,0,1-.5-1.962,3.437,3.437,0,0,1,1.066-2.666,4.458,4.458,0,0,1,5.571,0,3.437,3.437,0,0,1,1.066,2.666,3.457,3.457,0,0,1-1.066,2.676A3.957,3.957,0,0,1,52.551,17.137Zm-.021-1.565A1.8,1.8,0,0,0,53.922,15a2.15,2.15,0,0,0,.53-1.518,2.15,2.15,0,0,0-.53-1.518,1.8,1.8,0,0,0-1.391-.574,1.738,1.738,0,0,0-1.35.578,2.169,2.169,0,0,0-.523,1.514,2.169,2.169,0,0,0,.523,1.514A1.738,1.738,0,0,0,52.531,15.571Zm6.487-2.912a1.073,1.073,0,0,1-.79-.335,1.1,1.1,0,0,1-.332-.8A1.132,1.132,0,0,1,59.018,10.4a1.1,1.1,0,0,1,.8.332,1.073,1.073,0,0,1,.335.79,1.144,1.144,0,0,1-1.135,1.135Zm0,4.478A1.132,1.132,0,0,1,57.9,16.016a1.1,1.1,0,0,1,.332-.8,1.073,1.073,0,0,1,.79-.335,1.144,1.144,0,0,1,1.135,1.135,1.073,1.073,0,0,1-.335.79A1.1,1.1,0,0,1,59.018,17.137ZM68.759,7.122h1.873V17H68.67V9.146L66.4,11.258V9.234Zm-134.5,21.662a2.31,2.31,0,0,1,1.859,2.447,2.653,2.653,0,0,1-.786,2.027A3.248,3.248,0,0,1-66.982,34h-4.067V24.122h3.2a3.624,3.624,0,0,1,2.417.714,2.478,2.478,0,0,1,.837,1.993A2.324,2.324,0,0,1-64.887,28,1.913,1.913,0,0,1-65.745,28.784Zm-2.085-2.96h-1.244v2.324h1.333a1.249,1.249,0,0,0,.943-.328,1.193,1.193,0,0,0,.314-.861,1.06,1.06,0,0,0-.342-.824A1.446,1.446,0,0,0-67.83,25.824Zm.465,6.419a1.575,1.575,0,0,0,1.131-.349,1.186,1.186,0,0,0,.359-.889,1.242,1.242,0,0,0-.362-.916,1.6,1.6,0,0,0-1.169-.362h-1.668v2.516Zm5.715,1.894a1.078,1.078,0,0,1-.79-.332,1.078,1.078,0,0,1-.332-.79,1.1,1.1,0,0,1,.332-.8,1.073,1.073,0,0,1,.79-.335,1.092,1.092,0,0,1,.8.335,1.092,1.092,0,0,1,.335.8,1.073,1.073,0,0,1-.335.79A1.1,1.1,0,0,1-61.65,34.137ZM-47.862,34l-.718-2.037h-4.149L-53.447,34h-2.1l3.637-9.878H-49.4L-45.763,34Zm-4.266-3.753h2.946l-1.47-4.19Zm11.737-3.411a2.739,2.739,0,0,1,1.941.632,2.345,2.345,0,0,1,.677,1.8V34h-1.976V29.693a1.224,1.224,0,0,0-.352-.971,1.326,1.326,0,0,0-.906-.308,1.85,1.85,0,0,0-.588.089,1.51,1.51,0,0,0-.492.277,1.224,1.224,0,0,0-.352.53,2.45,2.45,0,0,0-.133.813V34H-44.54V26.973h1.969v.779A2.708,2.708,0,0,1-40.39,26.836Zm7.7,7.294A3.755,3.755,0,0,1-35.4,33.118a3.494,3.494,0,0,1-1.053-2.639A3.486,3.486,0,0,1-35.4,27.841a3.766,3.766,0,0,1,2.717-1,3.744,3.744,0,0,1,2.276.677,3.021,3.021,0,0,1,1.176,1.907l-1.818.2a1.558,1.558,0,0,0-.588-.923,1.788,1.788,0,0,0-1.066-.308,1.612,1.612,0,0,0-1.285.574,2.251,2.251,0,0,0-.492,1.518,2.254,2.254,0,0,0,.492,1.514,1.608,1.608,0,0,0,1.285.578,1.772,1.772,0,0,0,1.063-.308,1.594,1.594,0,0,0,.591-.923l1.818.2a3.03,3.03,0,0,1-1.186,1.907A3.729,3.729,0,0,1-32.686,34.13Zm9.105-7.294a2.494,2.494,0,0,1,1.856.667,2.682,2.682,0,0,1,.66,1.965V34h-1.976V29.789a1.377,1.377,0,0,0-.349-1.049,1.309,1.309,0,0,0-.93-.325,1.8,1.8,0,0,0-.55.082,1.574,1.574,0,0,0-.489.263,1.19,1.19,0,0,0-.366.53,2.434,2.434,0,0,0-.14.834V34h-1.969V23.5h1.969v4.313A2.782,2.782,0,0,1-23.581,26.836Zm7.684,7.3a4.419,4.419,0,0,1-1.989-.431,3.219,3.219,0,0,1-1.364-1.265,3.769,3.769,0,0,1-.5-1.962,3.437,3.437,0,0,1,1.066-2.666,3.956,3.956,0,0,1,2.782-.978,3.966,3.966,0,0,1,2.789.978,3.437,3.437,0,0,1,1.066,2.666,3.457,3.457,0,0,1-1.066,2.676A3.957,3.957,0,0,1-15.9,34.137Zm-.021-1.565A1.8,1.8,0,0,0-14.526,32,2.15,2.15,0,0,0-14,30.479a2.15,2.15,0,0,0-.53-1.518,1.8,1.8,0,0,0-1.391-.574,1.738,1.738,0,0,0-1.35.578,2.169,2.169,0,0,0-.523,1.514,2.169,2.169,0,0,0,.523,1.514A1.738,1.738,0,0,0-15.917,32.571Zm6.487-2.912a1.073,1.073,0,0,1-.79-.335,1.1,1.1,0,0,1-.332-.8,1.078,1.078,0,0,1,.332-.79,1.078,1.078,0,0,1,.79-.332,1.1,1.1,0,0,1,.8.332,1.073,1.073,0,0,1,.335.79,1.092,1.092,0,0,1-.335.8A1.092,1.092,0,0,1-9.43,29.659Zm0,4.478a1.078,1.078,0,0,1-.79-.332,1.078,1.078,0,0,1-.332-.79,1.1,1.1,0,0,1,.332-.8,1.073,1.073,0,0,1,.79-.335,1.092,1.092,0,0,1,.8.335,1.092,1.092,0,0,1,.335.8,1.073,1.073,0,0,1-.335.79A1.1,1.1,0,0,1-9.43,34.137ZM.311,24.122H2.184V34H.222V26.146l-2.27,2.112V26.234ZM9.4,31.184V29.536h4.9v1.647Zm12.865,1h3.1V34H20.21V24.122h2.051Zm10.165-.1a6.574,6.574,0,0,0,.171,1.716V34H30.758l-.157-.766a2.285,2.285,0,0,1-.984.677,3.628,3.628,0,0,1-1.271.226,3.343,3.343,0,0,1-.656-.062,2.231,2.231,0,0,1-.591-.208,1.794,1.794,0,0,1-.489-.366,1.6,1.6,0,0,1-.328-.557,2.219,2.219,0,0,1-.123-.762,2.114,2.114,0,0,1,.13-.762,1.786,1.786,0,0,1,.342-.571,2.073,2.073,0,0,1,.554-.417,4.237,4.237,0,0,1,.7-.3,8.331,8.331,0,0,1,.834-.219l1.155-.26a1.274,1.274,0,0,0,.523-.222.443.443,0,0,0,.154-.352A.725.725,0,0,0,30.2,28.4a1.612,1.612,0,0,0-.837-.205A1.2,1.2,0,0,0,27.99,29.27l-1.743-.314a2.36,2.36,0,0,1,1.019-1.6,4.048,4.048,0,0,1,2.208-.516q2.953,0,2.953,2.536ZM28.96,32.8a1.583,1.583,0,0,0,1.217-.509,2.146,2.146,0,0,0,.472-1.507l-1.668.472a1.971,1.971,0,0,0-.7.287.59.59,0,0,0-.243.506.655.655,0,0,0,.26.557A1.075,1.075,0,0,0,28.96,32.8Zm7.267-4.717a2.281,2.281,0,0,1,.923-.844,2.816,2.816,0,0,1,1.374-.352v1.757a2.662,2.662,0,0,0-1.682.424,1.85,1.85,0,0,0-.52,1.5V34H34.34V26.973h1.887Zm8.251-1.114h1.873v6.5a5.257,5.257,0,0,1-.263,1.75,2.886,2.886,0,0,1-.762,1.2,3.177,3.177,0,0,1-1.169.673,4.928,4.928,0,0,1-1.531.219A3.464,3.464,0,0,1,39,35.135l1.634-.7a2.384,2.384,0,0,0,.759,1.019,1.934,1.934,0,0,0,1.155.328q1.825,0,1.825-2.167V32.8a2.214,2.214,0,0,1-.885.694,2.943,2.943,0,0,1-1.248.263,3.147,3.147,0,0,1-2.256-.947,3.246,3.246,0,0,1-.694-1.1,4.081,4.081,0,0,1,0-2.847,3.116,3.116,0,0,1,.7-1.09,3.209,3.209,0,0,1,1.025-.684,3.164,3.164,0,0,1,1.241-.246,2.858,2.858,0,0,1,1.3.291,2.077,2.077,0,0,1,.872.776ZM41.46,31.621a1.8,1.8,0,0,0,2.581-.007,1.964,1.964,0,0,0,0-2.673,1.82,1.82,0,0,0-2.591-.01,1.87,1.87,0,0,0-.516,1.35A1.851,1.851,0,0,0,41.46,31.621Zm10.209,2.516a4.419,4.419,0,0,1-1.989-.431,3.219,3.219,0,0,1-1.364-1.265,3.769,3.769,0,0,1-.5-1.962,3.437,3.437,0,0,1,1.066-2.666,4.458,4.458,0,0,1,5.571,0,3.437,3.437,0,0,1,1.066,2.666,3.457,3.457,0,0,1-1.066,2.676A3.957,3.957,0,0,1,51.669,34.137Zm-.021-1.565A1.8,1.8,0,0,0,53.04,32a2.438,2.438,0,0,0,0-3.035,1.8,1.8,0,0,0-1.391-.574,1.738,1.738,0,0,0-1.35.578,2.454,2.454,0,0,0,0,3.028A1.738,1.738,0,0,0,51.649,32.571Zm6.487-2.912a1.073,1.073,0,0,1-.79-.335,1.1,1.1,0,0,1-.332-.8A1.132,1.132,0,0,1,58.136,27.4a1.1,1.1,0,0,1,.8.332,1.073,1.073,0,0,1,.335.79,1.144,1.144,0,0,1-1.135,1.135Zm0,4.478a1.132,1.132,0,0,1-1.121-1.121,1.1,1.1,0,0,1,.332-.8,1.073,1.073,0,0,1,.79-.335,1.144,1.144,0,0,1,1.135,1.135,1.073,1.073,0,0,1-.335.79A1.1,1.1,0,0,1,58.136,34.137Zm9.994,0a3.544,3.544,0,0,1-2.693-.9,3.913,3.913,0,0,1-.848-2.762l2.017-.089a7.141,7.141,0,0,0,.031.725,2.5,2.5,0,0,0,.123.561,1,1,0,0,0,.26.42,1.18,1.18,0,0,0,.444.243,2.2,2.2,0,0,0,.667.089,1.6,1.6,0,0,0,1.166-.4,1.595,1.595,0,0,0,.017-2.109,1.466,1.466,0,0,0-1.046-.366h-.383V28.019h.355a1.069,1.069,0,0,0,.817-.349,1.243,1.243,0,0,0,.325-.882.994.994,0,0,0-.355-.82,1.445,1.445,0,0,0-.937-.287,1.4,1.4,0,0,0-.533.092.994.994,0,0,0-.359.236,1.043,1.043,0,0,0-.212.362,1.9,1.9,0,0,0-.1.431,4.3,4.3,0,0,0-.024.479l-1.989-.1a3.162,3.162,0,0,1,.848-2.375,3.232,3.232,0,0,1,2.352-.824,3.362,3.362,0,0,1,2.256.755,2.366,2.366,0,0,1,.889,1.876,2.136,2.136,0,0,1-.379,1.271,2.172,2.172,0,0,1-.865.752,2.434,2.434,0,0,1,.629.28,2.578,2.578,0,0,1,.55.472,2.1,2.1,0,0,1,.407.718,2.888,2.888,0,0,1,.15.957,2.791,2.791,0,0,1-.978,2.232A3.856,3.856,0,0,1,68.13,34.137Z" transform="translate(-599.326 2443.199)" fill="#606060"/>
      <path id="Trazado_25482" data-name="Trazado 25482" d="M-17.127,0-19.6-4.341h-1.511V0h-1.224V-9.625h3.192a2.875,2.875,0,0,1,2.157.762A2.691,2.691,0,0,1-16.246-6.9a2.511,2.511,0,0,1-.564,1.675,2.521,2.521,0,0,1-1.569.841L-15.7,0Zm-3.985-8.552V-5.3h1.8A2.016,2.016,0,0,0-17.9-5.739a1.524,1.524,0,0,0,.472-1.179A1.551,1.551,0,0,0-17.9-8.107a1.987,1.987,0,0,0-1.4-.444ZM-8.466-3.493l-.014.321h-5.25a2.375,2.375,0,0,0,.643,1.719,2.11,2.11,0,0,0,1.531.6,2.015,2.015,0,0,0,1.114-.321,2.085,2.085,0,0,0,.766-.889l1.066.226A3.031,3.031,0,0,1-9.758-.4,3.133,3.133,0,0,1-11.542.13a3.246,3.246,0,0,1-2.42-.937,3.484,3.484,0,0,1-.923-2.557,3.467,3.467,0,0,1,.926-2.55,3.206,3.206,0,0,1,2.382-.937,3.034,3.034,0,0,1,2.259.861A3.4,3.4,0,0,1-8.466-3.493Zm-3.11-2.447a2.1,2.1,0,0,0-1.4.475,2.177,2.177,0,0,0-.708,1.384h4.026a2,2,0,0,0-.588-1.384A1.9,1.9,0,0,0-11.577-5.94Zm9.926-4.56H-.468V0H-1.61l-.027-1.306a2.473,2.473,0,0,1-.957,1.06,2.667,2.667,0,0,1-1.422.39,3.02,3.02,0,0,1-1.217-.25,3.049,3.049,0,0,1-1-.7,3.236,3.236,0,0,1-.677-1.111,4.064,4.064,0,0,1-.25-1.442,3.533,3.533,0,0,1,.913-2.522A2.946,2.946,0,0,1-4.016-6.85a2.678,2.678,0,0,1,1.4.379,2.487,2.487,0,0,1,.96,1.029ZM-3.77-.882a2.012,2.012,0,0,0,1.562-.708,2.554,2.554,0,0,0,.632-1.767A2.549,2.549,0,0,0-2.211-5.12,2.011,2.011,0,0,0-3.77-5.831a2.056,2.056,0,0,0-1.572.687,2.528,2.528,0,0,0-.636,1.788,2.528,2.528,0,0,0,.636,1.788A2.056,2.056,0,0,0-3.77-.882ZM6.122-6.72H7.3V0H6.169L6.142-.889a2.1,2.1,0,0,1-.834.755A2.565,2.565,0,0,1,4.132.13,2.337,2.337,0,0,1,2.44-.479a2.269,2.269,0,0,1-.632-1.716V-6.72H2.991v4.259a1.6,1.6,0,0,0,.414,1.2,1.464,1.464,0,0,0,1.056.4,1.608,1.608,0,0,0,1.193-.465A1.893,1.893,0,0,0,6.122-2.7ZM12.5.123a3.237,3.237,0,0,1-2.406-.964,3.438,3.438,0,0,1-.95-2.522,3.445,3.445,0,0,1,.947-2.522A3.234,3.234,0,0,1,12.5-6.85a3.26,3.26,0,0,1,1.945.588,2.967,2.967,0,0,1,1.131,1.634l-1.107.178A2.045,2.045,0,0,0,13.709-5.5a2.066,2.066,0,0,0-1.217-.369,1.987,1.987,0,0,0-1.555.69,2.63,2.63,0,0,0-.612,1.812,2.617,2.617,0,0,0,.612,1.808,1.991,1.991,0,0,0,1.555.687,2.066,2.066,0,0,0,1.217-.369,2.045,2.045,0,0,0,.759-1.046l1.107.185a2.97,2.97,0,0,1-1.138,1.63A3.255,3.255,0,0,1,12.5.123ZM23.2-3.493l-.014.321h-5.25a2.375,2.375,0,0,0,.643,1.719,2.11,2.11,0,0,0,1.531.6,2.015,2.015,0,0,0,1.114-.321,2.085,2.085,0,0,0,.766-.889l1.066.226A3.031,3.031,0,0,1,21.906-.4,3.133,3.133,0,0,1,20.122.13,3.246,3.246,0,0,1,17.7-.807a3.484,3.484,0,0,1-.923-2.557,3.467,3.467,0,0,1,.926-2.55,3.206,3.206,0,0,1,2.382-.937,3.034,3.034,0,0,1,2.259.861A3.4,3.4,0,0,1,23.2-3.493ZM20.087-5.94a2.1,2.1,0,0,0-1.4.475,2.177,2.177,0,0,0-.708,1.384h4.026a2,2,0,0,0-.588-1.384A1.9,1.9,0,0,0,20.087-5.94ZM-65.321,17l-.718-2.037h-4.149L-70.906,17H-73l3.637-9.878h2.509L-63.222,17Zm-4.266-3.753h2.946l-1.47-4.19Zm8.818,3.89a1.078,1.078,0,0,1-.79-.332,1.078,1.078,0,0,1-.332-.79,1.1,1.1,0,0,1,.332-.8,1.073,1.073,0,0,1,.79-.335,1.092,1.092,0,0,1,.8.335,1.092,1.092,0,0,1,.335.8,1.073,1.073,0,0,1-.335.79A1.1,1.1,0,0,1-60.768,17.137ZM-46.98,17l-.718-2.037h-4.149L-52.565,17h-2.1l3.637-9.878h2.509L-44.881,17Zm-4.266-3.753H-48.3l-1.47-4.19Zm11.737-3.411a2.739,2.739,0,0,1,1.941.632,2.345,2.345,0,0,1,.677,1.8V17h-1.976V12.693a1.224,1.224,0,0,0-.352-.971,1.326,1.326,0,0,0-.906-.308,1.85,1.85,0,0,0-.588.089,1.51,1.51,0,0,0-.492.277,1.224,1.224,0,0,0-.352.53,2.45,2.45,0,0,0-.133.813V17h-1.969V9.973h1.969v.779A2.708,2.708,0,0,1-39.508,9.836Zm7.7,7.294a3.755,3.755,0,0,1-2.714-1.012,3.494,3.494,0,0,1-1.053-2.639,3.486,3.486,0,0,1,1.049-2.639,3.766,3.766,0,0,1,2.717-1,3.744,3.744,0,0,1,2.276.677,3.021,3.021,0,0,1,1.176,1.907l-1.818.2a1.558,1.558,0,0,0-.588-.923,1.788,1.788,0,0,0-1.066-.308,1.612,1.612,0,0,0-1.285.574,2.251,2.251,0,0,0-.492,1.518,2.254,2.254,0,0,0,.492,1.514,1.608,1.608,0,0,0,1.285.578,1.772,1.772,0,0,0,1.063-.308,1.594,1.594,0,0,0,.591-.923l1.818.2a3.03,3.03,0,0,1-1.186,1.907A3.729,3.729,0,0,1-31.8,17.13ZM-22.7,9.836a2.494,2.494,0,0,1,1.856.667,2.682,2.682,0,0,1,.66,1.965V17h-1.976V12.789a1.377,1.377,0,0,0-.349-1.049,1.309,1.309,0,0,0-.93-.325,1.8,1.8,0,0,0-.55.082,1.574,1.574,0,0,0-.489.263,1.19,1.19,0,0,0-.366.53,2.434,2.434,0,0,0-.14.834V17h-1.969V6.5h1.969v4.313A2.782,2.782,0,0,1-22.7,9.836Zm7.684,7.3A4.419,4.419,0,0,1-17,16.706a3.219,3.219,0,0,1-1.364-1.265,3.769,3.769,0,0,1-.5-1.962A3.437,3.437,0,0,1-17.8,10.813a3.956,3.956,0,0,1,2.782-.978,3.966,3.966,0,0,1,2.789.978,3.437,3.437,0,0,1,1.066,2.666,3.457,3.457,0,0,1-1.066,2.676A3.957,3.957,0,0,1-15.015,17.137Zm-.021-1.565A1.8,1.8,0,0,0-13.645,15a2.15,2.15,0,0,0,.53-1.518,2.15,2.15,0,0,0-.53-1.518,1.8,1.8,0,0,0-1.391-.574,1.738,1.738,0,0,0-1.35.578,2.169,2.169,0,0,0-.523,1.514,2.169,2.169,0,0,0,.523,1.514A1.738,1.738,0,0,0-15.036,15.571Zm6.487-2.912a1.073,1.073,0,0,1-.79-.335,1.1,1.1,0,0,1-.332-.8,1.078,1.078,0,0,1,.332-.79,1.078,1.078,0,0,1,.79-.332,1.1,1.1,0,0,1,.8.332,1.073,1.073,0,0,1,.335.79,1.092,1.092,0,0,1-.335.8A1.092,1.092,0,0,1-8.548,12.659Zm0,4.478a1.078,1.078,0,0,1-.79-.332,1.078,1.078,0,0,1-.332-.79,1.1,1.1,0,0,1,.332-.8,1.073,1.073,0,0,1,.79-.335,1.092,1.092,0,0,1,.8.335,1.092,1.092,0,0,1,.335.8,1.073,1.073,0,0,1-.335.79A1.1,1.1,0,0,1-8.548,17.137Zm9.994,0a3.544,3.544,0,0,1-2.693-.9A3.913,3.913,0,0,1-2.1,13.473l2.017-.089a7.141,7.141,0,0,0,.031.725,2.5,2.5,0,0,0,.123.561,1,1,0,0,0,.26.42,1.18,1.18,0,0,0,.444.243,2.2,2.2,0,0,0,.667.089,1.6,1.6,0,0,0,1.166-.4,1.386,1.386,0,0,0,.407-1.039,1.4,1.4,0,0,0-.39-1.07,1.466,1.466,0,0,0-1.046-.366H1.2V11.019h.355a1.069,1.069,0,0,0,.817-.349A1.243,1.243,0,0,0,2.7,9.788a.994.994,0,0,0-.355-.82A1.445,1.445,0,0,0,1.4,8.681a1.4,1.4,0,0,0-.533.092.994.994,0,0,0-.359.236A1.043,1.043,0,0,0,.3,9.371,1.9,1.9,0,0,0,.2,9.8a4.3,4.3,0,0,0-.024.479l-1.989-.1A3.162,3.162,0,0,1-.967,7.809a3.232,3.232,0,0,1,2.352-.824,3.362,3.362,0,0,1,2.256.755,2.366,2.366,0,0,1,.889,1.876,2.136,2.136,0,0,1-.379,1.271,2.172,2.172,0,0,1-.865.752,2.434,2.434,0,0,1,.629.28,2.578,2.578,0,0,1,.55.472,2.1,2.1,0,0,1,.407.718,2.888,2.888,0,0,1,.15.957A2.791,2.791,0,0,1,4.043,16.3,3.856,3.856,0,0,1,1.446,17.137Zm8.832-2.953V12.536h4.9v1.647Zm12.865,1h3.1V17H21.092V7.122h2.051Zm10.165-.1a6.574,6.574,0,0,0,.171,1.716V17H31.64l-.157-.766a2.285,2.285,0,0,1-.984.677,3.628,3.628,0,0,1-1.271.226,3.343,3.343,0,0,1-.656-.062,2.231,2.231,0,0,1-.591-.208,1.794,1.794,0,0,1-.489-.366,1.6,1.6,0,0,1-.328-.557,2.219,2.219,0,0,1-.123-.762,2.114,2.114,0,0,1,.13-.762,1.786,1.786,0,0,1,.342-.571,2.073,2.073,0,0,1,.554-.417,4.237,4.237,0,0,1,.7-.3,8.331,8.331,0,0,1,.834-.219l1.155-.26a1.274,1.274,0,0,0,.523-.222.443.443,0,0,0,.154-.352.725.725,0,0,0-.345-.677,1.612,1.612,0,0,0-.837-.205,1.2,1.2,0,0,0-1.374,1.073l-1.743-.314a2.36,2.36,0,0,1,1.019-1.6,4.048,4.048,0,0,1,2.208-.516q2.953,0,2.953,2.536Zm-3.466.711a1.583,1.583,0,0,0,1.217-.509,2.146,2.146,0,0,0,.472-1.507l-1.668.472a1.971,1.971,0,0,0-.7.287.59.59,0,0,0-.243.506.655.655,0,0,0,.26.557A1.075,1.075,0,0,0,29.842,15.8Zm7.267-4.717a2.281,2.281,0,0,1,.923-.844,2.816,2.816,0,0,1,1.374-.352v1.757a2.662,2.662,0,0,0-1.682.424,1.85,1.85,0,0,0-.52,1.5V17H35.222V9.973h1.887ZM45.36,9.973h1.873v6.5a5.257,5.257,0,0,1-.263,1.75,2.886,2.886,0,0,1-.762,1.2,3.177,3.177,0,0,1-1.169.673,4.928,4.928,0,0,1-1.531.219,3.464,3.464,0,0,1-3.623-2.181l1.634-.7a2.384,2.384,0,0,0,.759,1.019,1.934,1.934,0,0,0,1.155.328q1.825,0,1.825-2.167V15.8a2.214,2.214,0,0,1-.885.694,2.943,2.943,0,0,1-1.248.263,3.147,3.147,0,0,1-2.256-.947,3.246,3.246,0,0,1-.694-1.1,4.081,4.081,0,0,1,0-2.847,3.116,3.116,0,0,1,.7-1.09,3.208,3.208,0,0,1,1.025-.684,3.164,3.164,0,0,1,1.241-.246,2.858,2.858,0,0,1,1.3.291,2.077,2.077,0,0,1,.872.776Zm-3.018,4.648a1.8,1.8,0,0,0,2.581-.007,1.964,1.964,0,0,0,0-2.673,1.82,1.82,0,0,0-2.591-.01,1.87,1.87,0,0,0-.516,1.35A1.851,1.851,0,0,0,42.342,14.621Zm10.209,2.516a4.419,4.419,0,0,1-1.989-.431A3.219,3.219,0,0,1,49.2,15.441a3.769,3.769,0,0,1-.5-1.962,3.437,3.437,0,0,1,1.066-2.666,4.458,4.458,0,0,1,5.571,0,3.437,3.437,0,0,1,1.066,2.666,3.457,3.457,0,0,1-1.066,2.676A3.957,3.957,0,0,1,52.551,17.137Zm-.021-1.565A1.8,1.8,0,0,0,53.922,15a2.15,2.15,0,0,0,.53-1.518,2.15,2.15,0,0,0-.53-1.518,1.8,1.8,0,0,0-1.391-.574,1.738,1.738,0,0,0-1.35.578,2.169,2.169,0,0,0-.523,1.514,2.169,2.169,0,0,0,.523,1.514A1.738,1.738,0,0,0,52.531,15.571Zm6.487-2.912a1.073,1.073,0,0,1-.79-.335,1.1,1.1,0,0,1-.332-.8A1.132,1.132,0,0,1,59.018,10.4a1.1,1.1,0,0,1,.8.332,1.073,1.073,0,0,1,.335.79,1.144,1.144,0,0,1-1.135,1.135Zm0,4.478A1.132,1.132,0,0,1,57.9,16.016a1.1,1.1,0,0,1,.332-.8,1.073,1.073,0,0,1,.79-.335,1.144,1.144,0,0,1,1.135,1.135,1.073,1.073,0,0,1-.335.79A1.1,1.1,0,0,1,59.018,17.137ZM68.759,7.122h1.873V17H68.67V9.146L66.4,11.258V9.234Zm-134.5,21.662a2.31,2.31,0,0,1,1.859,2.447,2.653,2.653,0,0,1-.786,2.027A3.248,3.248,0,0,1-66.982,34h-4.067V24.122h3.2a3.624,3.624,0,0,1,2.417.714,2.478,2.478,0,0,1,.837,1.993A2.324,2.324,0,0,1-64.887,28,1.913,1.913,0,0,1-65.745,28.784Zm-2.085-2.96h-1.244v2.324h1.333a1.249,1.249,0,0,0,.943-.328,1.193,1.193,0,0,0,.314-.861,1.06,1.06,0,0,0-.342-.824A1.446,1.446,0,0,0-67.83,25.824Zm.465,6.419a1.575,1.575,0,0,0,1.131-.349,1.186,1.186,0,0,0,.359-.889,1.242,1.242,0,0,0-.362-.916,1.6,1.6,0,0,0-1.169-.362h-1.668v2.516Zm5.715,1.894a1.078,1.078,0,0,1-.79-.332,1.078,1.078,0,0,1-.332-.79,1.1,1.1,0,0,1,.332-.8,1.073,1.073,0,0,1,.79-.335,1.092,1.092,0,0,1,.8.335,1.092,1.092,0,0,1,.335.8,1.073,1.073,0,0,1-.335.79A1.1,1.1,0,0,1-61.65,34.137ZM-47.862,34l-.718-2.037h-4.149L-53.447,34h-2.1l3.637-9.878H-49.4L-45.763,34Zm-4.266-3.753h2.946l-1.47-4.19Zm11.737-3.411a2.739,2.739,0,0,1,1.941.632,2.345,2.345,0,0,1,.677,1.8V34h-1.976V29.693a1.224,1.224,0,0,0-.352-.971,1.326,1.326,0,0,0-.906-.308,1.85,1.85,0,0,0-.588.089,1.51,1.51,0,0,0-.492.277,1.224,1.224,0,0,0-.352.53,2.45,2.45,0,0,0-.133.813V34H-44.54V26.973h1.969v.779A2.708,2.708,0,0,1-40.39,26.836Zm7.7,7.294A3.755,3.755,0,0,1-35.4,33.118a3.494,3.494,0,0,1-1.053-2.639A3.486,3.486,0,0,1-35.4,27.841a3.766,3.766,0,0,1,2.717-1,3.744,3.744,0,0,1,2.276.677,3.021,3.021,0,0,1,1.176,1.907l-1.818.2a1.558,1.558,0,0,0-.588-.923,1.788,1.788,0,0,0-1.066-.308,1.612,1.612,0,0,0-1.285.574,2.251,2.251,0,0,0-.492,1.518,2.254,2.254,0,0,0,.492,1.514,1.608,1.608,0,0,0,1.285.578,1.772,1.772,0,0,0,1.063-.308,1.594,1.594,0,0,0,.591-.923l1.818.2a3.03,3.03,0,0,1-1.186,1.907A3.729,3.729,0,0,1-32.686,34.13Zm9.105-7.294a2.494,2.494,0,0,1,1.856.667,2.682,2.682,0,0,1,.66,1.965V34h-1.976V29.789a1.377,1.377,0,0,0-.349-1.049,1.309,1.309,0,0,0-.93-.325,1.8,1.8,0,0,0-.55.082,1.574,1.574,0,0,0-.489.263,1.19,1.19,0,0,0-.366.53,2.434,2.434,0,0,0-.14.834V34h-1.969V23.5h1.969v4.313A2.782,2.782,0,0,1-23.581,26.836Zm7.684,7.3a4.419,4.419,0,0,1-1.989-.431,3.219,3.219,0,0,1-1.364-1.265,3.769,3.769,0,0,1-.5-1.962,3.437,3.437,0,0,1,1.066-2.666,3.956,3.956,0,0,1,2.782-.978,3.966,3.966,0,0,1,2.789.978,3.437,3.437,0,0,1,1.066,2.666,3.457,3.457,0,0,1-1.066,2.676A3.957,3.957,0,0,1-15.9,34.137Zm-.021-1.565A1.8,1.8,0,0,0-14.526,32,2.15,2.15,0,0,0-14,30.479a2.15,2.15,0,0,0-.53-1.518,1.8,1.8,0,0,0-1.391-.574,1.738,1.738,0,0,0-1.35.578,2.169,2.169,0,0,0-.523,1.514,2.169,2.169,0,0,0,.523,1.514A1.738,1.738,0,0,0-15.917,32.571Zm6.487-2.912a1.073,1.073,0,0,1-.79-.335,1.1,1.1,0,0,1-.332-.8,1.078,1.078,0,0,1,.332-.79,1.078,1.078,0,0,1,.79-.332,1.1,1.1,0,0,1,.8.332,1.073,1.073,0,0,1,.335.79,1.092,1.092,0,0,1-.335.8A1.092,1.092,0,0,1-9.43,29.659Zm0,4.478a1.078,1.078,0,0,1-.79-.332,1.078,1.078,0,0,1-.332-.79,1.1,1.1,0,0,1,.332-.8,1.073,1.073,0,0,1,.79-.335,1.092,1.092,0,0,1,.8.335,1.092,1.092,0,0,1,.335.8,1.073,1.073,0,0,1-.335.79A1.1,1.1,0,0,1-9.43,34.137ZM.311,24.122H2.184V34H.222V26.146l-2.27,2.112V26.234ZM9.4,31.184V29.536h4.9v1.647Zm12.865,1h3.1V34H20.21V24.122h2.051Zm10.165-.1a6.574,6.574,0,0,0,.171,1.716V34H30.758l-.157-.766a2.285,2.285,0,0,1-.984.677,3.628,3.628,0,0,1-1.271.226,3.343,3.343,0,0,1-.656-.062,2.231,2.231,0,0,1-.591-.208,1.794,1.794,0,0,1-.489-.366,1.6,1.6,0,0,1-.328-.557,2.219,2.219,0,0,1-.123-.762,2.114,2.114,0,0,1,.13-.762,1.786,1.786,0,0,1,.342-.571,2.073,2.073,0,0,1,.554-.417,4.237,4.237,0,0,1,.7-.3,8.331,8.331,0,0,1,.834-.219l1.155-.26a1.274,1.274,0,0,0,.523-.222.443.443,0,0,0,.154-.352A.725.725,0,0,0,30.2,28.4a1.612,1.612,0,0,0-.837-.205A1.2,1.2,0,0,0,27.99,29.27l-1.743-.314a2.36,2.36,0,0,1,1.019-1.6,4.048,4.048,0,0,1,2.208-.516q2.953,0,2.953,2.536ZM28.96,32.8a1.583,1.583,0,0,0,1.217-.509,2.146,2.146,0,0,0,.472-1.507l-1.668.472a1.971,1.971,0,0,0-.7.287.59.59,0,0,0-.243.506.655.655,0,0,0,.26.557A1.075,1.075,0,0,0,28.96,32.8Zm7.267-4.717a2.281,2.281,0,0,1,.923-.844,2.816,2.816,0,0,1,1.374-.352v1.757a2.662,2.662,0,0,0-1.682.424,1.85,1.85,0,0,0-.52,1.5V34H34.34V26.973h1.887Zm8.251-1.114h1.873v6.5a5.257,5.257,0,0,1-.263,1.75,2.886,2.886,0,0,1-.762,1.2,3.177,3.177,0,0,1-1.169.673,4.928,4.928,0,0,1-1.531.219A3.464,3.464,0,0,1,39,35.135l1.634-.7a2.384,2.384,0,0,0,.759,1.019,1.934,1.934,0,0,0,1.155.328q1.825,0,1.825-2.167V32.8a2.214,2.214,0,0,1-.885.694,2.943,2.943,0,0,1-1.248.263,3.147,3.147,0,0,1-2.256-.947,3.246,3.246,0,0,1-.694-1.1,4.081,4.081,0,0,1,0-2.847,3.116,3.116,0,0,1,.7-1.09,3.209,3.209,0,0,1,1.025-.684,3.164,3.164,0,0,1,1.241-.246,2.858,2.858,0,0,1,1.3.291,2.077,2.077,0,0,1,.872.776ZM41.46,31.621a1.8,1.8,0,0,0,2.581-.007,1.964,1.964,0,0,0,0-2.673,1.82,1.82,0,0,0-2.591-.01,1.87,1.87,0,0,0-.516,1.35A1.851,1.851,0,0,0,41.46,31.621Zm10.209,2.516a4.419,4.419,0,0,1-1.989-.431,3.219,3.219,0,0,1-1.364-1.265,3.769,3.769,0,0,1-.5-1.962,3.437,3.437,0,0,1,1.066-2.666,4.458,4.458,0,0,1,5.571,0,3.437,3.437,0,0,1,1.066,2.666,3.457,3.457,0,0,1-1.066,2.676A3.957,3.957,0,0,1,51.669,34.137Zm-.021-1.565A1.8,1.8,0,0,0,53.04,32a2.438,2.438,0,0,0,0-3.035,1.8,1.8,0,0,0-1.391-.574,1.738,1.738,0,0,0-1.35.578,2.454,2.454,0,0,0,0,3.028A1.738,1.738,0,0,0,51.649,32.571Zm6.487-2.912a1.073,1.073,0,0,1-.79-.335,1.1,1.1,0,0,1-.332-.8A1.132,1.132,0,0,1,58.136,27.4a1.1,1.1,0,0,1,.8.332,1.073,1.073,0,0,1,.335.79,1.144,1.144,0,0,1-1.135,1.135Zm0,4.478a1.132,1.132,0,0,1-1.121-1.121,1.1,1.1,0,0,1,.332-.8,1.073,1.073,0,0,1,.79-.335,1.144,1.144,0,0,1,1.135,1.135,1.073,1.073,0,0,1-.335.79A1.1,1.1,0,0,1,58.136,34.137Zm9.994,0a3.544,3.544,0,0,1-2.693-.9,3.913,3.913,0,0,1-.848-2.762l2.017-.089a7.141,7.141,0,0,0,.031.725,2.5,2.5,0,0,0,.123.561,1,1,0,0,0,.26.42,1.18,1.18,0,0,0,.444.243,2.2,2.2,0,0,0,.667.089,1.6,1.6,0,0,0,1.166-.4,1.595,1.595,0,0,0,.017-2.109,1.466,1.466,0,0,0-1.046-.366h-.383V28.019h.355a1.069,1.069,0,0,0,.817-.349,1.243,1.243,0,0,0,.325-.882.994.994,0,0,0-.355-.82,1.445,1.445,0,0,0-.937-.287,1.4,1.4,0,0,0-.533.092.994.994,0,0,0-.359.236,1.043,1.043,0,0,0-.212.362,1.9,1.9,0,0,0-.1.431,4.3,4.3,0,0,0-.024.479l-1.989-.1a3.162,3.162,0,0,1,.848-2.375,3.232,3.232,0,0,1,2.352-.824,3.362,3.362,0,0,1,2.256.755,2.366,2.366,0,0,1,.889,1.876,2.136,2.136,0,0,1-.379,1.271,2.172,2.172,0,0,1-.865.752,2.434,2.434,0,0,1,.629.28,2.578,2.578,0,0,1,.55.472,2.1,2.1,0,0,1,.407.718,2.888,2.888,0,0,1,.15.957,2.791,2.791,0,0,1-.978,2.232A3.856,3.856,0,0,1,68.13,34.137Z" transform="translate(-786.764 2650.804)" fill="#606060"/>
      <g id="Grupo_16223" data-name="Grupo 16223" transform="translate(-685.395 2553.364)">
        <g id="Grupo_16218" data-name="Grupo 16218" transform="translate(57.783 18.89)">
          <rect id="Rectángulo_3969" data-name="Rectángulo 3969" width="1.55" height="1.163" fill="#f3d35a"/>
        </g>
        <g id="Grupo_16219" data-name="Grupo 16219" transform="translate(57.783 4.36)">
          <path id="Trazado_25312" data-name="Trazado 25312" d="M1473.913,404.455h-1.551v-2.422h1.551Zm0-4.843h-1.551v-2.422h1.551Zm0-4.843h-1.551v-2.422h1.551Z" transform="translate(-1472.363 -392.346)" fill="#f3d35a"/>
        </g>
        <g id="Grupo_16220" data-name="Grupo 16220" transform="translate(57.396 0)">
          <path id="Trazado_25313" data-name="Trazado 25313" d="M1473.8,388.66h-1.55v-.388h-.388v-1.55h1.938Z" transform="translate(-1471.863 -386.722)" fill="#f3d35a"/>
        </g>
        <g id="Grupo_16221" data-name="Grupo 16221" transform="translate(3.412 0)">
          <path id="Trazado_25314" data-name="Trazado 25314" d="M1453.958,388.272h-2.249v-1.55h2.249Zm-4.5,0h-2.251v-1.55h2.251Zm-4.5,0h-2.249v-1.55h2.249Zm-4.5,0h-2.25v-1.55h2.25Zm-4.5,0h-2.25v-1.55h2.25Zm-4.5,0h-2.25v-1.55h2.25Zm-4.5,0h-2.249v-1.55h2.249Zm-4.5,0h-2.25v-1.55h2.25Zm-4.5,0h-2.25v-1.55h2.25Zm-4.5,0h-2.25v-1.55h2.25Zm-4.5,0h-2.249v-1.55h2.249Zm-4.5,0h-2.25v-1.55h2.25Z" transform="translate(-1402.224 -386.722)" fill="#f3d35a"/>
        </g>
        <g id="Grupo_16222" data-name="Grupo 16222" transform="translate(0 0)">
          <rect id="Rectángulo_3970" data-name="Rectángulo 3970" width="1.163" height="1.55" fill="#f3d35a"/>
        </g>
      </g>
      <g id="Grupo_16224" data-name="Grupo 16224" transform="translate(-705.621 2572.927)">
        <path id="Trazado_25315" data-name="Trazado 25315" d="M1371.731,411.959h1.55v2.326h-1.55Zm0,4.651h1.55v2.326h-1.55Zm0,4.651h1.55v2.326h-1.55Zm0,4.651h1.55v2.326h-1.55Zm0,4.651h1.55v2.326h-1.55Zm0,4.651h1.55v2.326h-1.55Zm0,4.651h1.55v2.326h-1.55Zm0,4.651h1.55v2.326h-1.55Zm0,4.651h1.55v2.326h-1.55Zm0,4.651h1.55v2.326h-1.55Zm0,4.651h1.55V460.8h-1.55Zm0,4.651h1.55v2.326h-1.55Zm0,4.651h1.55V470.1h-1.55Zm2.316,2.336h2.326v1.55h-2.326Zm4.651,0h2.326v1.55H1378.7Zm4.651,0h2.326v1.55h-2.326Zm4.651,0h2.326v1.55H1388Z" transform="translate(-1371.731 -411.959)" fill="#00cea1"/>
      </g>
      <g id="Grupo_16230" data-name="Grupo 16230" transform="translate(-744.986 2573.214)">
        <g id="Grupo_16225" data-name="Grupo 16225">
          <rect id="Rectángulo_3971" data-name="Rectángulo 3971" width="1.55" height="1.163" fill="#00cea1"/>
        </g>
        <g id="Grupo_16226" data-name="Grupo 16226" transform="translate(0 3.585)">
          <path id="Trazado_25316" data-name="Trazado 25316" d="M1320.95,416.953h1.551v2.422h-1.551Zm0,4.843h1.551v2.422h-1.551Zm0,4.843h1.551v2.422h-1.551Z" transform="translate(-1320.95 -416.953)" fill="#00cea1"/>
        </g>
        <g id="Grupo_16227" data-name="Grupo 16227" transform="translate(0 18.115)">
          <path id="Trazado_25317" data-name="Trazado 25317" d="M1320.95,435.7h1.55v.388h.388v1.55h-1.938Z" transform="translate(-1320.95 -435.697)" fill="#00cea1"/>
        </g>
        <g id="Grupo_16228" data-name="Grupo 16228" transform="translate(4.187 18.503)">
          <path id="Trazado_25318" data-name="Trazado 25318" d="M1326.351,436.2h2.249v1.55h-2.249Zm4.5,0h2.25v1.55h-2.25Zm4.5,0h2.25v1.55h-2.25Zm4.5,0h2.25v1.55h-2.25Zm4.5,0h2.249v1.55h-2.249Zm4.5,0h2.25v1.55h-2.25Zm4.5,0h2.25v1.55h-2.25Zm4.5,0h2.25v1.55h-2.25Zm4.5,0h2.249v1.55h-2.249Zm4.5,0h2.25v1.55h-2.25Zm4.5,0h2.25v1.55h-2.25Zm4.5,0h2.25v1.55h-2.25Z" transform="translate(-1326.351 -436.197)" fill="#00cea1"/>
        </g>
        <g id="Grupo_16229" data-name="Grupo 16229" transform="translate(58.171 18.503)">
          <rect id="Rectángulo_3972" data-name="Rectángulo 3972" width="1.163" height="1.55" fill="#00cea1"/>
        </g>
      </g>
      <g id="Grupo_16231" data-name="Grupo 16231" transform="translate(-689.725 2417.867)">
        <path id="Trazado_25319" data-name="Trazado 25319" d="M1398.4,211.932l-2.334,3.7v3.4h-1.48v-3.367l-2.35-3.735h1.632l1.45,2.418,1.455-2.418Z" transform="translate(-1392.236 -211.932)" fill="#00223d"/>
      </g>
      <g id="Grupo_16232" data-name="Grupo 16232" transform="translate(-539.284 2570.152)">
        <path id="Trazado_25320" data-name="Trazado 25320" d="M1586.305,415.481l2.766-3.705-2.688-3.4h1.794l1.77,2.329,1.769-2.329h1.794l-2.688,3.4,2.768,3.705h-1.878l-1.764-2.512-1.764,2.512Z" transform="translate(-1586.305 -408.379)" fill="#00223d"/>
      </g>
      <g id="Grupo_16235" data-name="Grupo 16235" transform="translate(-837.143 2572.158)">
        <g id="Grupo_16234" data-name="Grupo 16234">
          <g id="Grupo_16233" data-name="Grupo 16233">
            <rect id="Rectángulo_3973" data-name="Rectángulo 3973" width="295.771" height="2.516" fill="#d50f73"/>
          </g>
        </g>
      </g>
      <g id="Grupo_16250" data-name="Grupo 16250" transform="translate(-825.355 2568.871)">
        <g id="Grupo_16236" data-name="Grupo 16236" transform="translate(100.707)">
          <rect id="Rectángulo_3974" data-name="Rectángulo 3974" width="0.472" height="9.663" fill="#604053"/>
        </g>
        <g id="Grupo_16237" data-name="Grupo 16237" transform="translate(81.144)">
          <rect id="Rectángulo_3975" data-name="Rectángulo 3975" width="0.472" height="9.663" fill="#604053"/>
        </g>
        <g id="Grupo_16238" data-name="Grupo 16238" transform="translate(120.269)">
          <rect id="Rectángulo_3976" data-name="Rectángulo 3976" width="0.472" height="9.663" fill="#604053"/>
        </g>
        <g id="Grupo_16239" data-name="Grupo 16239" transform="translate(178.957)">
          <rect id="Rectángulo_3977" data-name="Rectángulo 3977" width="0.472" height="9.663" fill="#604053"/>
        </g>
        <g id="Grupo_16240" data-name="Grupo 16240" transform="translate(159.394)">
          <rect id="Rectángulo_3978" data-name="Rectángulo 3978" width="0.472" height="9.663" fill="#604053"/>
        </g>
        <g id="Grupo_16241" data-name="Grupo 16241" transform="translate(198.519)">
          <rect id="Rectángulo_3979" data-name="Rectángulo 3979" width="0.472" height="9.663" fill="#604053"/>
        </g>
        <g id="Grupo_16242" data-name="Grupo 16242" transform="translate(237.644)">
          <rect id="Rectángulo_3980" data-name="Rectángulo 3980" width="0.472" height="9.663" fill="#604053"/>
        </g>
        <g id="Grupo_16243" data-name="Grupo 16243" transform="translate(218.082)">
          <rect id="Rectángulo_3981" data-name="Rectángulo 3981" width="0.472" height="9.663" fill="#604053"/>
        </g>
        <g id="Grupo_16244" data-name="Grupo 16244" transform="translate(257.207)">
          <rect id="Rectángulo_3982" data-name="Rectángulo 3982" width="0.472" height="9.663" fill="#604053"/>
        </g>
        <g id="Grupo_16245" data-name="Grupo 16245" transform="translate(277.228)">
          <rect id="Rectángulo_3983" data-name="Rectángulo 3983" width="0.472" height="9.663" fill="#604053"/>
        </g>
        <g id="Grupo_16246" data-name="Grupo 16246" transform="translate(19.563)">
          <rect id="Rectángulo_3984" data-name="Rectángulo 3984" width="0.472" height="9.663" fill="#604053"/>
        </g>
        <g id="Grupo_16247" data-name="Grupo 16247">
          <rect id="Rectángulo_3985" data-name="Rectángulo 3985" width="0.472" height="9.663" fill="#604053"/>
        </g>
        <g id="Grupo_16248" data-name="Grupo 16248" transform="translate(39.125)">
          <rect id="Rectángulo_3986" data-name="Rectángulo 3986" width="0.472" height="9.663" fill="#604053"/>
        </g>
        <g id="Grupo_16249" data-name="Grupo 16249" transform="translate(59.146)">
          <rect id="Rectángulo_3987" data-name="Rectángulo 3987" width="0.472" height="9.663" fill="#604053"/>
        </g>
      </g>
      <g id="Grupo_16253" data-name="Grupo 16253" transform="translate(-686.939 2429.786)">
        <g id="Grupo_16252" data-name="Grupo 16252" transform="translate(0)">
          <g id="Grupo_16251" data-name="Grupo 16251">
            <rect id="Rectángulo_3988" data-name="Rectángulo 3988" width="2.516" height="295.771" fill="#d50f73"/>
          </g>
        </g>
      </g>
      <path id="Trazado_25321" data-name="Trazado 25321" d="M1395.167,414.823a3.447,3.447,0,1,1,4.679-1.368A3.448,3.448,0,0,1,1395.167,414.823Z" transform="translate(-2082.218 2161.779)" fill="#f3d35a"/>
      <g id="Grupo_16268" data-name="Grupo 16268" transform="translate(-691.192 2436.069)">
        <g id="Grupo_16254" data-name="Grupo 16254" transform="translate(0 176.522)">
          <rect id="Rectángulo_3989" data-name="Rectángulo 3989" width="9.663" height="0.472" fill="#604053"/>
        </g>
        <g id="Grupo_16255" data-name="Grupo 16255" transform="translate(0 196.084)">
          <rect id="Rectángulo_3990" data-name="Rectángulo 3990" width="9.663" height="0.472" fill="#604053"/>
        </g>
        <g id="Grupo_16256" data-name="Grupo 16256" transform="translate(0 156.959)">
          <rect id="Rectángulo_3991" data-name="Rectángulo 3991" width="9.663" height="0.472" fill="#604053"/>
        </g>
        <g id="Grupo_16257" data-name="Grupo 16257" transform="translate(0 98.271)">
          <rect id="Rectángulo_3992" data-name="Rectángulo 3992" width="9.663" height="0.472" fill="#604053"/>
        </g>
        <g id="Grupo_16258" data-name="Grupo 16258" transform="translate(0 117.834)">
          <rect id="Rectángulo_3993" data-name="Rectángulo 3993" width="9.663" height="0.472" fill="#604053"/>
        </g>
        <g id="Grupo_16259" data-name="Grupo 16259" transform="translate(0 78.709)">
          <rect id="Rectángulo_3994" data-name="Rectángulo 3994" width="9.663" height="0.472" fill="#604053"/>
        </g>
        <g id="Grupo_16260" data-name="Grupo 16260" transform="translate(0 39.584)">
          <rect id="Rectángulo_3995" data-name="Rectángulo 3995" width="9.663" height="0.472" fill="#604053"/>
        </g>
        <g id="Grupo_16261" data-name="Grupo 16261" transform="translate(0 59.146)">
          <rect id="Rectángulo_3996" data-name="Rectángulo 3996" width="9.663" height="0.472" fill="#604053"/>
        </g>
        <g id="Grupo_16262" data-name="Grupo 16262" transform="translate(0 20.021)">
          <rect id="Rectángulo_3997" data-name="Rectángulo 3997" width="9.663" height="0.472" fill="#604053"/>
        </g>
        <g id="Grupo_16263" data-name="Grupo 16263" transform="translate(0)">
          <rect id="Rectángulo_3998" data-name="Rectángulo 3998" width="9.663" height="0.472" fill="#604053"/>
        </g>
        <g id="Grupo_16264" data-name="Grupo 16264" transform="translate(0 257.666)">
          <rect id="Rectángulo_3999" data-name="Rectángulo 3999" width="9.663" height="0.472" fill="#604053"/>
        </g>
        <g id="Grupo_16265" data-name="Grupo 16265" transform="translate(0 277.228)">
          <rect id="Rectángulo_4000" data-name="Rectángulo 4000" width="9.663" height="0.472" fill="#604053"/>
        </g>
        <g id="Grupo_16266" data-name="Grupo 16266" transform="translate(0 238.103)">
          <rect id="Rectángulo_4001" data-name="Rectángulo 4001" width="9.663" height="0.472" fill="#604053"/>
        </g>
        <g id="Grupo_16267" data-name="Grupo 16267" transform="translate(0 218.082)">
          <rect id="Rectángulo_4002" data-name="Rectángulo 4002" width="9.663" height="0.472" fill="#604053"/>
        </g>
      </g>
      <g id="Grupo_16269" data-name="Grupo 16269" transform="translate(-697.418 2552.173)">
        <path id="Trazado_25322" data-name="Trazado 25322" d="M1383.166,385.186h.4v3.46h-.42v-3l-.83.72v-.454Z" transform="translate(-1382.313 -385.186)" fill="#604053"/>
      </g>
      <g id="Grupo_16270" data-name="Grupo 16270" transform="translate(-697.96 2532.403)">
        <path id="Trazado_25323" data-name="Trazado 25323" d="M1382.226,362.8h1.723v.391h-2.334v-.322L1383,361.44a1.636,1.636,0,0,0,.312-.41.822.822,0,0,0,.086-.357.6.6,0,0,0-.175-.458.711.711,0,0,0-.925.015.763.763,0,0,0-.176.557v.256L1381.7,361v-.214a1.094,1.094,0,0,1,.292-.822,1.211,1.211,0,0,1,1.532-.021.913.913,0,0,1,.294.717,1.094,1.094,0,0,1-.116.5,2.187,2.187,0,0,1-.375.5Z" transform="translate(-1381.614 -359.683)" fill="#604053"/>
      </g>
      <g id="Grupo_16271" data-name="Grupo 16271" transform="translate(-697.956 2513.473)">
        <path id="Trazado_25324" data-name="Trazado 25324" d="M1382.771,338.816q-1.152,0-1.152-1.231l.432-.022a1.079,1.079,0,0,0,.163.651.653.653,0,0,0,.557.216.766.766,0,0,0,.537-.187.691.691,0,0,0,.007-.976.709.709,0,0,0-.495-.179h-.172v-.361h.167a.514.514,0,0,0,.379-.16.539.539,0,0,0,.156-.394.487.487,0,0,0-.167-.381.611.611,0,0,0-.42-.147.673.673,0,0,0-.277.051.4.4,0,0,0-.176.151.71.71,0,0,0-.088.22,1.317,1.317,0,0,0-.026.281l-.432-.016a1.118,1.118,0,0,1,.259-.793.962.962,0,0,1,.739-.278,1.024,1.024,0,0,1,.708.254.809.809,0,0,1,.284.629.764.764,0,0,1-.137.45.784.784,0,0,1-.347.28.956.956,0,0,1,.487.317.893.893,0,0,1,.189.582.949.949,0,0,1-.331.754A1.236,1.236,0,0,1,1382.771,338.816Z" transform="translate(-1381.619 -335.263)" fill="#604053"/>
      </g>
      <g id="Grupo_16272" data-name="Grupo 16272" transform="translate(-698.047 2493.555)">
        <path id="Trazado_25325" data-name="Trazado 25325" d="M1384.01,311.848v.375h-.512v.667h-.408v-.667h-1.59v-.378l1.382-2.275h.615v2.278Zm-2.087,0h1.167v-1.978Z" transform="translate(-1381.501 -309.57)" fill="#604053"/>
      </g>
      <g id="Grupo_16273" data-name="Grupo 16273" transform="translate(-697.901 2474.21)">
        <path id="Trazado_25326" data-name="Trazado 25326" d="M1382.7,285.793a1.285,1.285,0,0,1,.906.28,1.011,1.011,0,0,1,.3.779,1.1,1.1,0,0,1-.308.808,1.082,1.082,0,0,1-.805.312,1.272,1.272,0,0,1-.416-.067,1.132,1.132,0,0,1-.352-.193.884.884,0,0,1-.245-.327,1.074,1.074,0,0,1-.091-.448,1.54,1.54,0,0,1,.012-.17l.417-.035a1.671,1.671,0,0,0-.019.186.744.744,0,0,0,.06.309.524.524,0,0,0,.161.212.721.721,0,0,0,.218.114.788.788,0,0,0,.247.038.679.679,0,0,0,.515-.2.722.722,0,0,0,.195-.521.687.687,0,0,0-.2-.523.9.9,0,0,0-.638-.191h-.84l.205-1.537h1.74v.38h-1.4l-.109.8Z" transform="translate(-1381.69 -284.614)" fill="#604053"/>
      </g>
      <g id="Grupo_16274" data-name="Grupo 16274" transform="translate(-697.943 2454.864)">
        <path id="Trazado_25327" data-name="Trazado 25327" d="M1383.937,261.873a1.121,1.121,0,0,1-.151.6,1.066,1.066,0,0,1-.417.406,1.2,1.2,0,0,1-.575.141,1.158,1.158,0,0,1-.826-.312,1.056,1.056,0,0,1-.333-.805,1.31,1.31,0,0,1,.288-.8l1.111-1.443h.481l-.922,1.163a1.066,1.066,0,0,1,.8.088,1.017,1.017,0,0,1,.389.381A1.139,1.139,0,0,1,1383.937,261.873Zm-1.154.764a.721.721,0,0,0,.755-.771.729.729,0,0,0-.762-.767.711.711,0,0,0-.542.228.76.76,0,0,0-.21.555.736.736,0,0,0,.213.554A.758.758,0,0,0,1382.783,262.636Z" transform="translate(-1381.635 -259.658)" fill="#604053"/>
      </g>
      <g id="Grupo_16275" data-name="Grupo 16275" transform="translate(-697.928 2434.644)">
        <path id="Trazado_25328" data-name="Trazado 25328" d="M1381.655,233.575h2.271v.343L1382.3,236.9h-.467l1.636-2.943h-1.818Z" transform="translate(-1381.655 -233.575)" fill="#604053"/>
      </g>
      <g id="Grupo_16276" data-name="Grupo 16276" transform="translate(-666.862 2582.354)">
        <path id="Trazado_25329" data-name="Trazado 25329" d="M1422.583,424.12h.4v3.46h-.42v-3l-.831.72v-.454Z" transform="translate(-1421.73 -424.12)" fill="#604053"/>
      </g>
      <g id="Grupo_16277" data-name="Grupo 16277" transform="translate(-647.114 2582.329)">
        <path id="Trazado_25330" data-name="Trazado 25330" d="M1447.817,427.208h1.723v.391H1447.2v-.322l1.386-1.433a1.646,1.646,0,0,0,.312-.411.826.826,0,0,0,.086-.357.6.6,0,0,0-.174-.458.712.712,0,0,0-.926.015.767.767,0,0,0-.176.557v.256l-.425-.04v-.214a1.1,1.1,0,0,1,.292-.822,1.073,1.073,0,0,1,.781-.284,1.085,1.085,0,0,1,.751.263.913.913,0,0,1,.294.718,1.081,1.081,0,0,1-.117.5,2.194,2.194,0,0,1-.374.5Z" transform="translate(-1447.205 -424.087)" fill="#604053"/>
      </g>
      <g id="Grupo_16278" data-name="Grupo 16278" transform="translate(-629.517 2582.308)">
        <path id="Trazado_25331" data-name="Trazado 25331" d="M1471.057,427.613q-1.152,0-1.153-1.231l.432-.023a1.082,1.082,0,0,0,.162.651.655.655,0,0,0,.558.216.767.767,0,0,0,.537-.187.631.631,0,0,0,.2-.489.622.622,0,0,0-.2-.486.707.707,0,0,0-.5-.18h-.171v-.361h.167a.512.512,0,0,0,.378-.16.535.535,0,0,0,.157-.393.486.486,0,0,0-.167-.381.613.613,0,0,0-.421-.148.671.671,0,0,0-.276.052.388.388,0,0,0-.176.151.7.7,0,0,0-.088.22,1.3,1.3,0,0,0-.027.28l-.433-.015a1.12,1.12,0,0,1,.26-.794.961.961,0,0,1,.738-.278,1.028,1.028,0,0,1,.709.253.811.811,0,0,1,.284.629.758.758,0,0,1-.137.45.793.793,0,0,1-.346.281.951.951,0,0,1,.486.316.889.889,0,0,1,.189.583.951.951,0,0,1-.33.754A1.243,1.243,0,0,1,1471.057,427.613Z" transform="translate(-1469.904 -424.06)" fill="#604053"/>
      </g>
      <g id="Grupo_16279" data-name="Grupo 16279" transform="translate(-608.234 2582.424)">
        <path id="Trazado_25332" data-name="Trazado 25332" d="M1499.868,426.488v.375h-.512v.667h-.408v-.667h-1.589v-.378l1.382-2.276h.615v2.278Zm-2.087,0h1.167V424.51Z" transform="translate(-1497.359 -424.21)" fill="#604053"/>
      </g>
      <g id="Grupo_16280" data-name="Grupo 16280" transform="translate(-588.806 2582.406)">
        <path id="Trazado_25333" data-name="Trazado 25333" d="M1523.433,425.365a1.289,1.289,0,0,1,.906.28,1.014,1.014,0,0,1,.3.779,1.1,1.1,0,0,1-.308.808,1.082,1.082,0,0,1-.805.312,1.28,1.28,0,0,1-.416-.067,1.12,1.12,0,0,1-.351-.193.883.883,0,0,1-.245-.327,1.074,1.074,0,0,1-.091-.448,1.542,1.542,0,0,1,.012-.17l.417-.035a1.662,1.662,0,0,0-.019.186.752.752,0,0,0,.06.309.528.528,0,0,0,.161.211.724.724,0,0,0,.218.114.787.787,0,0,0,.247.038.679.679,0,0,0,.515-.2.721.721,0,0,0,.195-.521.687.687,0,0,0-.2-.523.906.906,0,0,0-.638-.192h-.839l.205-1.537h1.74v.38h-1.4l-.108.8Z" transform="translate(-1522.422 -424.186)" fill="#604053"/>
      </g>
      <g id="Grupo_16281" data-name="Grupo 16281" transform="translate(-569.29 2582.406)">
        <path id="Trazado_25334" data-name="Trazado 25334" d="M1549.9,426.4a1.119,1.119,0,0,1-.151.6,1.059,1.059,0,0,1-.417.405,1.189,1.189,0,0,1-.576.142,1.161,1.161,0,0,1-.825-.312,1.056,1.056,0,0,1-.333-.805,1.307,1.307,0,0,1,.287-.8l1.111-1.443h.481l-.922,1.163a1.043,1.043,0,0,1,.287-.04,1.06,1.06,0,0,1,.509.127,1.02,1.02,0,0,1,.389.381A1.137,1.137,0,0,1,1549.9,426.4Zm-1.153.764a.722.722,0,0,0,.755-.771.729.729,0,0,0-.762-.766.711.711,0,0,0-.542.228.76.76,0,0,0-.21.555.731.731,0,0,0,.213.554A.759.759,0,0,0,1548.745,427.164Z" transform="translate(-1547.597 -424.186)" fill="#604053"/>
      </g>
      <g id="Grupo_16282" data-name="Grupo 16282" transform="translate(-549.647 2582.424)">
        <path id="Trazado_25335" data-name="Trazado 25335" d="M1572.936,424.21h2.271v.342l-1.623,2.978h-.468l1.636-2.943h-1.818Z" transform="translate(-1572.936 -424.21)" fill="#604053"/>
      </g>
      <g id="Grupo_16297" data-name="Grupo 16297" transform="translate(-830.485 2582.308)">
        <g id="Grupo_16283" data-name="Grupo 16283" transform="translate(125.473 0.047)">
          <path id="Trazado_25336" data-name="Trazado 25336" d="M1373.369,424.12h.4v3.46h-.42v-3l-.831.72v-.454Z" transform="translate(-1372.516 -424.12)" fill="#990831"/>
        </g>
        <g id="Grupo_16284" data-name="Grupo 16284" transform="translate(105.187 0.021)">
          <path id="Trazado_25337" data-name="Trazado 25337" d="M1346.959,427.208h1.722v.391h-2.334v-.322l1.386-1.433a1.625,1.625,0,0,0,.312-.411.817.817,0,0,0,.086-.357.6.6,0,0,0-.174-.458.711.711,0,0,0-.925.015.764.764,0,0,0-.176.557v.256l-.425-.04v-.214a1.1,1.1,0,0,1,.292-.822,1.21,1.21,0,0,1,1.532-.021.913.913,0,0,1,.294.718,1.09,1.09,0,0,1-.116.5,2.175,2.175,0,0,1-.375.5Z" transform="translate(-1346.347 -424.087)" fill="#990831"/>
        </g>
        <g id="Grupo_16285" data-name="Grupo 16285" transform="translate(82.9)">
          <path id="Trazado_25338" data-name="Trazado 25338" d="M1318.751,427.613q-1.152,0-1.153-1.231l.432-.023a1.084,1.084,0,0,0,.162.651.656.656,0,0,0,.558.216.767.767,0,0,0,.537-.187.632.632,0,0,0,.2-.489.621.621,0,0,0-.2-.486.706.706,0,0,0-.495-.18h-.172v-.361h.167a.513.513,0,0,0,.378-.16.536.536,0,0,0,.157-.393.485.485,0,0,0-.167-.381.611.611,0,0,0-.42-.148.672.672,0,0,0-.277.052.387.387,0,0,0-.176.151.707.707,0,0,0-.088.22,1.3,1.3,0,0,0-.027.28l-.433-.015a1.12,1.12,0,0,1,.26-.794.962.962,0,0,1,.738-.278,1.029,1.029,0,0,1,.709.253.81.81,0,0,1,.284.629.758.758,0,0,1-.137.45.783.783,0,0,1-.346.281.949.949,0,0,1,.486.316.889.889,0,0,1,.189.583.948.948,0,0,1-.33.754A1.24,1.24,0,0,1,1318.751,427.613Z" transform="translate(-1317.598 -424.06)" fill="#990831"/>
        </g>
        <g id="Grupo_16286" data-name="Grupo 16286" transform="translate(62.775 0.116)">
          <path id="Trazado_25339" data-name="Trazado 25339" d="M1294.146,426.488v.375h-.512v.667h-.408v-.667h-1.589v-.378l1.381-2.276h.616v2.278Zm-2.087,0h1.167V424.51Z" transform="translate(-1291.637 -424.21)" fill="#990831"/>
        </g>
        <g id="Grupo_16287" data-name="Grupo 16287" transform="translate(43.595 0.098)">
          <path id="Trazado_25340" data-name="Trazado 25340" d="M1267.906,425.365a1.287,1.287,0,0,1,.905.28,1.011,1.011,0,0,1,.3.779,1.1,1.1,0,0,1-.308.808,1.083,1.083,0,0,1-.805.312,1.275,1.275,0,0,1-.416-.067,1.116,1.116,0,0,1-.351-.193.886.886,0,0,1-.246-.327,1.074,1.074,0,0,1-.091-.448,1.538,1.538,0,0,1,.012-.17l.418-.035a1.734,1.734,0,0,0-.019.186.75.75,0,0,0,.061.309.534.534,0,0,0,.161.211.73.73,0,0,0,.219.114.78.78,0,0,0,.246.038.678.678,0,0,0,.515-.2.719.719,0,0,0,.194-.521.683.683,0,0,0-.2-.523.9.9,0,0,0-.638-.192h-.84l.206-1.537h1.74v.38h-1.4l-.109.8Z" transform="translate(-1266.894 -424.186)" fill="#990831"/>
        </g>
        <g id="Grupo_16288" data-name="Grupo 16288" transform="translate(23.241 0.098)">
          <path id="Trazado_25341" data-name="Trazado 25341" d="M1242.939,426.4a1.12,1.12,0,0,1-.151.6,1.058,1.058,0,0,1-.417.405,1.191,1.191,0,0,1-.576.142,1.161,1.161,0,0,1-.825-.312,1.056,1.056,0,0,1-.333-.805,1.307,1.307,0,0,1,.288-.8l1.111-1.443h.481l-.922,1.163a1.043,1.043,0,0,1,.287-.04,1.061,1.061,0,0,1,.509.127,1.018,1.018,0,0,1,.389.381A1.135,1.135,0,0,1,1242.939,426.4Zm-1.154.764a.722.722,0,0,0,.755-.771.729.729,0,0,0-.762-.766.714.714,0,0,0-.543.228.762.762,0,0,0-.209.555.731.731,0,0,0,.213.554A.759.759,0,0,0,1241.786,427.164Z" transform="translate(-1240.638 -424.186)" fill="#990831"/>
        </g>
        <g id="Grupo_16289" data-name="Grupo 16289" transform="translate(3.984 0.116)">
          <path id="Trazado_25342" data-name="Trazado 25342" d="M1215.8,424.21h2.271v.342l-1.622,2.978h-.467l1.636-2.943H1215.8Z" transform="translate(-1215.796 -424.21)" fill="#990831"/>
        </g>
        <g id="Grupo_16290" data-name="Grupo 16290" transform="translate(121.546 1.56)">
          <path id="Trazado_25343" data-name="Trazado 25343" d="M1367.451,426.506v-.433h2.171v.433Z" transform="translate(-1367.451 -426.073)" fill="#990831"/>
        </g>
        <g id="Grupo_16291" data-name="Grupo 16291" transform="translate(101.045 1.56)">
          <path id="Trazado_25344" data-name="Trazado 25344" d="M1341,426.506v-.433h2.172v.433Z" transform="translate(-1341.004 -426.073)" fill="#990831"/>
        </g>
        <g id="Grupo_16292" data-name="Grupo 16292" transform="translate(78.698 1.56)">
          <path id="Trazado_25345" data-name="Trazado 25345" d="M1312.177,426.506v-.433h2.171v.433Z" transform="translate(-1312.177 -426.073)" fill="#990831"/>
        </g>
        <g id="Grupo_16293" data-name="Grupo 16293" transform="translate(58.791 1.56)">
          <path id="Trazado_25346" data-name="Trazado 25346" d="M1286.5,426.506v-.433h2.171v.433Z" transform="translate(-1286.497 -426.073)" fill="#990831"/>
        </g>
        <g id="Grupo_16294" data-name="Grupo 16294" transform="translate(39.442 1.56)">
          <path id="Trazado_25347" data-name="Trazado 25347" d="M1261.537,426.506v-.433h2.171v.433Z" transform="translate(-1261.537 -426.073)" fill="#990831"/>
        </g>
        <g id="Grupo_16295" data-name="Grupo 16295" transform="translate(19.349 1.56)">
          <path id="Trazado_25348" data-name="Trazado 25348" d="M1235.617,426.506v-.433h2.171v.433Z" transform="translate(-1235.617 -426.073)" fill="#990831"/>
        </g>
        <g id="Grupo_16296" data-name="Grupo 16296" transform="translate(0 1.56)">
          <path id="Trazado_25349" data-name="Trazado 25349" d="M1210.657,426.506v-.433h2.171v.433Z" transform="translate(-1210.657 -426.073)" fill="#990831"/>
        </g>
      </g>
      <g id="Grupo_16313" data-name="Grupo 16313" transform="translate(-701.534 2591.772)">
        <g id="Grupo_16301" data-name="Grupo 16301" transform="translate(3.574 0)">
          <g id="Grupo_16298" data-name="Grupo 16298" transform="translate(0.542)">
            <path id="Trazado_25350" data-name="Trazado 25350" d="M1383.166,436.269h.4v3.46h-.42v-3l-.83.72V437Z" transform="translate(-1382.313 -436.269)" fill="#990831"/>
          </g>
          <g id="Grupo_16299" data-name="Grupo 16299" transform="translate(0 19.299)">
            <path id="Trazado_25351" data-name="Trazado 25351" d="M1382.226,464.285h1.723v.391h-2.334v-.322l1.386-1.433a1.61,1.61,0,0,0,.312-.41.817.817,0,0,0,.086-.357.6.6,0,0,0-.175-.458.711.711,0,0,0-.925.015.764.764,0,0,0-.176.557v.256l-.425-.04v-.214a1.1,1.1,0,0,1,.292-.822,1.211,1.211,0,0,1,1.532-.021.914.914,0,0,1,.294.718,1.091,1.091,0,0,1-.116.5,2.188,2.188,0,0,1-.375.5Z" transform="translate(-1381.614 -461.164)" fill="#990831"/>
          </g>
          <g id="Grupo_16300" data-name="Grupo 16300" transform="translate(0.004 38.604)">
            <path id="Trazado_25352" data-name="Trazado 25352" d="M1382.771,489.622q-1.152,0-1.152-1.231l.432-.023a1.077,1.077,0,0,0,.163.651.651.651,0,0,0,.557.216.769.769,0,0,0,.537-.186.691.691,0,0,0,.007-.976.7.7,0,0,0-.495-.179h-.172v-.361h.167a.514.514,0,0,0,.379-.16.541.541,0,0,0,.156-.394.486.486,0,0,0-.167-.381.611.611,0,0,0-.42-.147.673.673,0,0,0-.277.051.4.4,0,0,0-.176.151.709.709,0,0,0-.088.22,1.314,1.314,0,0,0-.026.28l-.432-.015a1.121,1.121,0,0,1,.259-.794.964.964,0,0,1,.739-.278,1.024,1.024,0,0,1,.708.253.809.809,0,0,1,.284.629.76.76,0,0,1-.137.45.779.779,0,0,1-.347.281.952.952,0,0,1,.487.317.892.892,0,0,1,.189.582.949.949,0,0,1-.331.754A1.236,1.236,0,0,1,1382.771,489.622Z" transform="translate(-1381.619 -486.068)" fill="#990831"/>
          </g>
        </g>
        <g id="Grupo_16302" data-name="Grupo 16302" transform="translate(3.487 60.775)">
          <path id="Trazado_25353" data-name="Trazado 25353" d="M1384.01,516.947v.375h-.512v.667h-.408v-.667h-1.59v-.377l1.382-2.275h.615v2.278Zm-2.087,0h1.167v-1.978Z" transform="translate(-1381.501 -514.669)" fill="#990831"/>
        </g>
        <g id="Grupo_16303" data-name="Grupo 16303" transform="translate(3.633 80.522)">
          <path id="Trazado_25354" data-name="Trazado 25354" d="M1382.7,541.32a1.289,1.289,0,0,1,.906.28,1.013,1.013,0,0,1,.3.779,1.1,1.1,0,0,1-.308.808,1.081,1.081,0,0,1-.805.312,1.273,1.273,0,0,1-.416-.067,1.118,1.118,0,0,1-.352-.194.875.875,0,0,1-.245-.326,1.075,1.075,0,0,1-.091-.448,1.516,1.516,0,0,1,.012-.17l.417-.036a1.681,1.681,0,0,0-.019.187.746.746,0,0,0,.06.308.53.53,0,0,0,.161.212.74.74,0,0,0,.218.114.787.787,0,0,0,.247.037.681.681,0,0,0,.515-.2.722.722,0,0,0,.195-.521.69.69,0,0,0-.2-.524.9.9,0,0,0-.638-.191h-.84l.205-1.537h1.74v.379h-1.4l-.109.8Z" transform="translate(-1381.69 -540.142)" fill="#990831"/>
        </g>
        <g id="Grupo_16304" data-name="Grupo 16304" transform="translate(3.591 100.079)">
          <path id="Trazado_25355" data-name="Trazado 25355" d="M1383.937,567.586a1.119,1.119,0,0,1-.151.6,1.066,1.066,0,0,1-.417.406,1.2,1.2,0,0,1-.575.141,1.158,1.158,0,0,1-.826-.312,1.055,1.055,0,0,1-.333-.805,1.311,1.311,0,0,1,.288-.8l1.111-1.443h.481l-.922,1.163a1.066,1.066,0,0,1,.8.088,1.018,1.018,0,0,1,.389.381A1.139,1.139,0,0,1,1383.937,567.586Zm-1.154.764a.769.769,0,1,0-.007-1.537.711.711,0,0,0-.542.228.76.76,0,0,0-.21.555.736.736,0,0,0,.213.554A.758.758,0,0,0,1382.783,568.349Z" transform="translate(-1381.635 -565.371)" fill="#990831"/>
        </g>
        <g id="Grupo_16305" data-name="Grupo 16305" transform="translate(3.606 119.726)">
          <path id="Trazado_25356" data-name="Trazado 25356" d="M1381.655,590.715h2.271v.342l-1.623,2.978h-.467l1.636-2.943h-1.818Z" transform="translate(-1381.655 -590.715)" fill="#990831"/>
        </g>
        <g id="Grupo_16306" data-name="Grupo 16306" transform="translate(0 1.514)">
          <path id="Trazado_25357" data-name="Trazado 25357" d="M1377,438.655v-.433h2.172v.433Z" transform="translate(-1377.003 -438.222)" fill="#990831"/>
        </g>
        <g id="Grupo_16307" data-name="Grupo 16307" transform="translate(0 21.074)">
          <path id="Trazado_25358" data-name="Trazado 25358" d="M1377,463.887v-.433h2.172v.433Z" transform="translate(-1377.003 -463.454)" fill="#990831"/>
        </g>
        <g id="Grupo_16308" data-name="Grupo 16308" transform="translate(0 40.164)">
          <path id="Trazado_25359" data-name="Trazado 25359" d="M1377,488.513v-.433h2.172v.433Z" transform="translate(-1377.003 -488.081)" fill="#990831"/>
        </g>
        <g id="Grupo_16309" data-name="Grupo 16309" transform="translate(0 62.162)">
          <path id="Trazado_25360" data-name="Trazado 25360" d="M1377,516.891v-.433h2.172v.433Z" transform="translate(-1377.003 -516.458)" fill="#990831"/>
        </g>
        <g id="Grupo_16310" data-name="Grupo 16310" transform="translate(0 81.984)">
          <path id="Trazado_25361" data-name="Trazado 25361" d="M1377,542.461v-.433h2.172v.433Z" transform="translate(-1377.003 -542.028)" fill="#990831"/>
        </g>
        <g id="Grupo_16311" data-name="Grupo 16311" transform="translate(0 101.982)">
          <path id="Trazado_25362" data-name="Trazado 25362" d="M1377,568.257v-.432h2.172v.432Z" transform="translate(-1377.003 -567.825)" fill="#990831"/>
        </g>
        <g id="Grupo_16312" data-name="Grupo 16312" transform="translate(0 121.169)">
          <path id="Trazado_25363" data-name="Trazado 25363" d="M1377,593.01v-.433h2.172v.433Z" transform="translate(-1377.003 -592.577)" fill="#990831"/>
        </g>
      </g>
      <path id="Trazado_25364" data-name="Trazado 25364" d="M1473.154,389.234a2.559,2.559,0,1,1,2.569-2.548A2.558,2.558,0,0,1,1473.154,389.234Z" transform="translate(-2099.579 2167.227)" fill="#00cea1"/>
      <path id="Trazado_25365" data-name="Trazado 25365" d="M1421.829,338.763a2.559,2.559,0,1,1,2.569-2.548A2.559,2.559,0,0,1,1421.829,338.763Z" transform="translate(-2088.041 2178.573)" fill="#00cea1"/>
      <path id="Trazado_25367" data-name="Trazado 25367" d="M1321.7,439a2.559,2.559,0,1,1,2.569-2.548A2.559,2.559,0,0,1,1321.7,439Z" transform="translate(-2065.531 2156.04)" fill="#f3d35a"/>
      <path id="Trazado_25368" data-name="Trazado 25368" d="M1372.024,489.789a2.559,2.559,0,1,1,2.569-2.548A2.559,2.559,0,0,1,1372.024,489.789Z" transform="translate(-2076.845 2144.622)" fill="#f3d35a"/>
    </g>
  </g>
</svg>
