<svg xmlns="http://www.w3.org/2000/svg" width="517" height="320.23" viewBox="0 0 517 320.23">
  <g id="Grupo_16492" data-name="Grupo 16492" transform="translate(958 -6288.77)">
    <rect id="Rectángulo_4078" data-name="Rectángulo 4078" width="517" height="316" transform="translate(-958 6293)" fill="#fff"/>
    <g id="Grupo_16031" data-name="Grupo 16031" transform="translate(-1172 -2068.539)">
      <path id="Trazado_24814" data-name="Trazado 24814" d="M222,3560H739" transform="translate(-8 4891.597)" fill="none" stroke="#d2bef6" stroke-width="1"/>
      <path id="Trazado_25134" data-name="Trazado 25134" d="M222,3560H739" transform="translate(-8 4935.597)" fill="none" stroke="#d2bef6" stroke-width="1"/>
      <path id="Trazado_25135" data-name="Trazado 25135" d="M222,3560H739" transform="translate(-8 4979.597)" fill="none" stroke="#d2bef6" stroke-width="1"/>
      <path id="Trazado_25136" data-name="Trazado 25136" d="M222,3560H739" transform="translate(-8 5023.597)" fill="none" stroke="#d2bef6" stroke-width="1"/>
      <path id="Trazado_25137" data-name="Trazado 25137" d="M222,3560H739" transform="translate(-8 5067.597)" fill="none" stroke="#d2bef6" stroke-width="1"/>
    </g>
    <path id="Trazado_25496" data-name="Trazado 25496" d="M17.207,14.727h3.82V16H15.809V5h1.4Zm7.414,1.422a2.613,2.613,0,0,1-1.684-.527,1.894,1.894,0,0,1-.66-1.574,2.237,2.237,0,0,1,.211-1,1.77,1.77,0,0,1,.625-.7,3.749,3.749,0,0,1,.9-.434,8.341,8.341,0,0,1,1.168-.277l1.242-.2q.68-.125.68-.711a1.342,1.342,0,0,0-.48-1.145,1.958,1.958,0,0,0-1.215-.363,1.994,1.994,0,0,0-1.2.352,1.471,1.471,0,0,0-.57,1.078l-1.219-.258a2.346,2.346,0,0,1,.961-1.645,3.59,3.59,0,0,1,2.094-.551,4.247,4.247,0,0,1,1.113.137,3.025,3.025,0,0,1,.93.43,1.927,1.927,0,0,1,.664.828,3.081,3.081,0,0,1,.238,1.262v3.172a1.3,1.3,0,0,0,.176.8.759.759,0,0,0,.605.207h.125V16h-.672A1.281,1.281,0,0,1,27.2,14.961h-.062A2.935,2.935,0,0,1,24.621,16.148Zm.313-1.094a2.049,2.049,0,0,0,1.648-.742,3.056,3.056,0,0,0,.625-2.031l-2.031.391a2.734,2.734,0,0,0-1.191.426.99.99,0,0,0-.387.84.979.979,0,0,0,.371.844A1.586,1.586,0,0,0,24.934,15.055Zm7.617-5.383A2.322,2.322,0,0,1,33.5,8.641a2.87,2.87,0,0,1,1.477-.406V9.508a2.53,2.53,0,0,0-1.785.57,2.382,2.382,0,0,0-.613,1.82V16H31.23V8.32h1.32ZM42.035,8.32h1.313v7.289a4.183,4.183,0,0,1-.992,2.992,3.607,3.607,0,0,1-2.75,1.047A3.63,3.63,0,0,1,35.879,17.3L37,16.75a2.539,2.539,0,0,0,2.57,1.773,2.2,2.2,0,0,0,1.8-.75,3.192,3.192,0,0,0,.621-2.094V14.258a2.707,2.707,0,0,1-1.094,1.105,3.182,3.182,0,0,1-1.6.418A3.293,3.293,0,0,1,36.809,14.7a3.816,3.816,0,0,1-1.023-2.73,3.78,3.78,0,0,1,1.027-2.723,3.325,3.325,0,0,1,2.5-1.074,3.1,3.1,0,0,1,1.609.43A2.766,2.766,0,0,1,42,9.734ZM39.6,14.633a2.323,2.323,0,0,0,1.77-.789,2.787,2.787,0,0,0,0-3.758,2.407,2.407,0,0,0-3.543-.023,2.67,2.67,0,0,0-.723,1.906,2.647,2.647,0,0,0,.73,1.895A2.341,2.341,0,0,0,39.6,14.633Zm9.734,1.516a4.048,4.048,0,0,1-1.969-.477,3.47,3.47,0,0,1-1.387-1.395,4.283,4.283,0,0,1-.512-2.121,3.912,3.912,0,0,1,1.09-2.895,4.089,4.089,0,0,1,5.559,0A3.92,3.92,0,0,1,53.2,12.156a3.923,3.923,0,0,1-1.09,2.9A3.762,3.762,0,0,1,49.332,16.148Zm-.008-1.125a2.359,2.359,0,0,0,1.816-.789,2.957,2.957,0,0,0,.723-2.078,2.945,2.945,0,0,0-.723-2.07A2.359,2.359,0,0,0,49.324,9.3a2.326,2.326,0,0,0-1.8.789,2.965,2.965,0,0,0-.715,2.07,2.976,2.976,0,0,0,.715,2.078A2.326,2.326,0,0,0,49.324,15.023ZM65.254,5V6.273h-2.82V16H61.043V6.273H58.215V5Zm1.078,11.156a.877.877,0,0,1-.637-.266.908.908,0,0,1,.637-1.547.884.884,0,0,1,.641.27.887.887,0,0,1,0,1.277A.886.886,0,0,1,66.332,16.156ZM18.113,58.727h3.82V60H16.715V49h1.4Zm7.414,1.422a2.613,2.613,0,0,1-1.684-.527,1.894,1.894,0,0,1-.66-1.574,2.237,2.237,0,0,1,.211-1,1.77,1.77,0,0,1,.625-.7,3.749,3.749,0,0,1,.9-.434,8.342,8.342,0,0,1,1.168-.277l1.242-.2q.68-.125.68-.711a1.342,1.342,0,0,0-.48-1.145,1.958,1.958,0,0,0-1.215-.363,1.994,1.994,0,0,0-1.2.352,1.471,1.471,0,0,0-.57,1.078l-1.219-.258a2.346,2.346,0,0,1,.961-1.645,3.59,3.59,0,0,1,2.094-.551,4.247,4.247,0,0,1,1.113.137,3.025,3.025,0,0,1,.93.43,1.927,1.927,0,0,1,.664.828,3.081,3.081,0,0,1,.238,1.262v3.172a1.3,1.3,0,0,0,.176.8.759.759,0,0,0,.605.207h.125V60h-.672a1.281,1.281,0,0,1-1.453-1.039h-.062A2.935,2.935,0,0,1,25.527,60.148Zm.313-1.094a2.049,2.049,0,0,0,1.648-.742,3.056,3.056,0,0,0,.625-2.031l-2.031.391a2.734,2.734,0,0,0-1.191.426.99.99,0,0,0-.387.84.979.979,0,0,0,.371.844A1.586,1.586,0,0,0,25.84,59.055Zm7.617-5.383a2.322,2.322,0,0,1,.953-1.031,2.87,2.87,0,0,1,1.477-.406v1.273a2.53,2.53,0,0,0-1.785.57,2.382,2.382,0,0,0-.613,1.82V60H32.137V52.32h1.32Zm9.484-1.352h1.313v7.289a4.183,4.183,0,0,1-.992,2.992,3.607,3.607,0,0,1-2.75,1.047A3.63,3.63,0,0,1,36.785,61.3L37.9,60.75a2.539,2.539,0,0,0,2.57,1.773,2.2,2.2,0,0,0,1.8-.75,3.192,3.192,0,0,0,.621-2.094V58.258A2.707,2.707,0,0,1,41.8,59.363a3.182,3.182,0,0,1-1.6.418A3.293,3.293,0,0,1,37.715,58.7a4.138,4.138,0,0,1,0-5.453,3.325,3.325,0,0,1,2.5-1.074,3.1,3.1,0,0,1,1.609.43,2.766,2.766,0,0,1,1.086,1.133ZM40.5,58.633a2.323,2.323,0,0,0,1.77-.789,2.787,2.787,0,0,0,0-3.758,2.407,2.407,0,0,0-3.543-.023,2.849,2.849,0,0,0,.008,3.8A2.341,2.341,0,0,0,40.5,58.633Zm9.734,1.516a4.048,4.048,0,0,1-1.969-.477,3.47,3.47,0,0,1-1.387-1.395,4.284,4.284,0,0,1-.512-2.121,3.912,3.912,0,0,1,1.09-2.895,4.089,4.089,0,0,1,5.559,0,4.405,4.405,0,0,1,0,5.8A3.762,3.762,0,0,1,50.238,60.148Zm-.008-1.125a2.359,2.359,0,0,0,1.816-.789,3.338,3.338,0,0,0,0-4.148A2.359,2.359,0,0,0,50.23,53.3a2.326,2.326,0,0,0-1.8.789,3.367,3.367,0,0,0,0,4.148A2.326,2.326,0,0,0,50.23,59.023ZM63.59,49h1.266V60H63.52V50.477l-2.641,2.289V51.32ZM18.113,102.727h3.82V104H16.715V93h1.4Zm7.414,1.422a2.613,2.613,0,0,1-1.684-.527,1.894,1.894,0,0,1-.66-1.574,2.237,2.237,0,0,1,.211-1,1.77,1.77,0,0,1,.625-.7,3.749,3.749,0,0,1,.9-.434,8.341,8.341,0,0,1,1.168-.277l1.242-.2q.68-.125.68-.711a1.342,1.342,0,0,0-.48-1.145,1.958,1.958,0,0,0-1.215-.363,1.994,1.994,0,0,0-1.2.352,1.471,1.471,0,0,0-.57,1.078l-1.219-.258a2.346,2.346,0,0,1,.961-1.645,3.59,3.59,0,0,1,2.094-.551,4.246,4.246,0,0,1,1.113.137,3.026,3.026,0,0,1,.93.43,1.927,1.927,0,0,1,.664.828,3.081,3.081,0,0,1,.238,1.262v3.172a1.3,1.3,0,0,0,.176.8.759.759,0,0,0,.605.207h.125V104h-.672a1.281,1.281,0,0,1-1.453-1.039h-.062A2.935,2.935,0,0,1,25.527,104.148Zm.313-1.094a2.049,2.049,0,0,0,1.648-.742,3.056,3.056,0,0,0,.625-2.031l-2.031.391a2.734,2.734,0,0,0-1.191.426.99.99,0,0,0-.387.84.979.979,0,0,0,.371.844A1.586,1.586,0,0,0,25.84,103.055Zm7.617-5.383a2.322,2.322,0,0,1,.953-1.031,2.87,2.87,0,0,1,1.477-.406v1.273a2.53,2.53,0,0,0-1.785.57,2.382,2.382,0,0,0-.613,1.82V104H32.137V96.32h1.32Zm9.484-1.352h1.313v7.289a4.183,4.183,0,0,1-.992,2.992,3.607,3.607,0,0,1-2.75,1.047,3.63,3.63,0,0,1-3.727-2.352l1.117-.547a2.539,2.539,0,0,0,2.57,1.773,2.2,2.2,0,0,0,1.8-.75,3.192,3.192,0,0,0,.621-2.094v-1.422a2.707,2.707,0,0,1-1.094,1.105,3.182,3.182,0,0,1-1.6.418,3.293,3.293,0,0,1-2.484-1.082,4.138,4.138,0,0,1,0-5.453,3.325,3.325,0,0,1,2.5-1.074,3.1,3.1,0,0,1,1.609.43,2.766,2.766,0,0,1,1.086,1.133ZM40.5,102.633a2.323,2.323,0,0,0,1.77-.789,2.787,2.787,0,0,0,0-3.758,2.407,2.407,0,0,0-3.543-.023,2.849,2.849,0,0,0,.008,3.8A2.341,2.341,0,0,0,40.5,102.633Zm9.734,1.516a4.048,4.048,0,0,1-1.969-.477,3.47,3.47,0,0,1-1.387-1.395,4.283,4.283,0,0,1-.512-2.121,3.912,3.912,0,0,1,1.09-2.895,4.089,4.089,0,0,1,5.559,0,4.405,4.405,0,0,1,0,5.8A3.762,3.762,0,0,1,50.238,104.148Zm-.008-1.125a2.359,2.359,0,0,0,1.816-.789,3.338,3.338,0,0,0,0-4.148A2.359,2.359,0,0,0,50.23,97.3a2.326,2.326,0,0,0-1.8.789,3.367,3.367,0,0,0,0,4.148A2.326,2.326,0,0,0,50.23,103.023Zm11.5-.266h5.477V104H59.785v-1.023l4.406-4.555a5.219,5.219,0,0,0,.992-1.3,2.6,2.6,0,0,0,.273-1.133,1.9,1.9,0,0,0-.555-1.457,2.264,2.264,0,0,0-2.941.047,2.437,2.437,0,0,0-.559,1.77v.813l-1.352-.125v-.68a3.477,3.477,0,0,1,.93-2.613,3.849,3.849,0,0,1,4.871-.066,2.907,2.907,0,0,1,.934,2.281,3.459,3.459,0,0,1-.371,1.59,6.835,6.835,0,0,1-1.191,1.582ZM38.164,148l-.945-2.633H32.242L31.3,148H29.844L33.9,137H35.57l4.055,11Zm-5.477-3.867h4.094l-2.047-5.727Zm9.969,4.023a.877.877,0,0,1-.637-.266.908.908,0,0,1,.637-1.547.884.884,0,0,1,.641.27.887.887,0,0,1,0,1.277A.886.886,0,0,1,42.656,148.156Zm5.734-.008a2.613,2.613,0,0,1-1.684-.527,1.894,1.894,0,0,1-.66-1.574,2.237,2.237,0,0,1,.211-1,1.77,1.77,0,0,1,.625-.7,3.749,3.749,0,0,1,.9-.434,8.342,8.342,0,0,1,1.168-.277l1.242-.2q.68-.125.68-.711a1.342,1.342,0,0,0-.48-1.145,1.958,1.958,0,0,0-1.215-.363,1.994,1.994,0,0,0-1.2.352,1.471,1.471,0,0,0-.57,1.078l-1.219-.258a2.346,2.346,0,0,1,.961-1.645,3.59,3.59,0,0,1,2.094-.551,4.247,4.247,0,0,1,1.113.137,3.025,3.025,0,0,1,.93.43,1.927,1.927,0,0,1,.664.828,3.081,3.081,0,0,1,.238,1.262v3.172a1.3,1.3,0,0,0,.176.8.759.759,0,0,0,.605.207h.125V148h-.672a1.281,1.281,0,0,1-1.453-1.039h-.062A2.935,2.935,0,0,1,48.391,148.148Zm.313-1.094a2.049,2.049,0,0,0,1.648-.742,3.056,3.056,0,0,0,.625-2.031l-2.031.391a2.734,2.734,0,0,0-1.191.426.99.99,0,0,0-.387.84.979.979,0,0,0,.371.844A1.586,1.586,0,0,0,48.7,147.055Zm-12.395,39.2a2.951,2.951,0,0,1,1.59.957,2.72,2.72,0,0,1,.582,1.8,2.88,2.88,0,0,1-.848,2.156,3.1,3.1,0,0,1-2.262.828H31.09V181h3.336a3.378,3.378,0,0,1,2.355.809,2.706,2.706,0,0,1,.895,2.105,2.782,2.782,0,0,1-.355,1.414A2.26,2.26,0,0,1,36.309,186.258ZM36.363,184a1.678,1.678,0,0,0-.527-1.273,1.976,1.976,0,0,0-1.418-.5H32.441v3.594h2.234a1.557,1.557,0,0,0,1.215-.527A1.867,1.867,0,0,0,36.363,184Zm-1.227,6.758a1.942,1.942,0,0,0,1.449-.543,1.834,1.834,0,0,0,.535-1.34,1.806,1.806,0,0,0-.559-1.363,2.116,2.116,0,0,0-1.527-.535H32.441v3.781Zm6.141,1.4a.877.877,0,0,1-.637-.266.908.908,0,0,1,.637-1.547.884.884,0,0,1,.641.27.887.887,0,0,1,0,1.277A.886.886,0,0,1,41.277,192.156Zm8.031-7.984a3.346,3.346,0,0,1,2.539,1.109,4.543,4.543,0,0,1,.008,5.773,3.339,3.339,0,0,1-2.547,1.109,3.082,3.082,0,0,1-1.637-.445,2.818,2.818,0,0,1-1.1-1.211L46.543,192h-1.3V180h1.344l.008,5.789a2.83,2.83,0,0,1,1.1-1.184A3.09,3.09,0,0,1,49.309,184.172Zm-.3,6.82a2.35,2.35,0,0,0,1.8-.785,3.236,3.236,0,0,0,0-4.086,2.35,2.35,0,0,0-1.8-.785,2.3,2.3,0,0,0-1.781.813,3.171,3.171,0,0,0,0,4.035A2.3,2.3,0,0,0,49.012,190.992ZM38.008,236l-.945-2.633H32.086L31.148,236H29.688l4.055-11h1.672l4.055,11Zm-5.477-3.867h4.094l-2.047-5.727Zm9.969,4.023a.877.877,0,0,1-.637-.266.908.908,0,0,1,.637-1.547.884.884,0,0,1,.641.27.887.887,0,0,1,0,1.277A.886.886,0,0,1,42.5,236.156Zm7.148-.016a3.7,3.7,0,0,1-2.75-1.1,4.375,4.375,0,0,1,0-5.766,4,4,0,0,1,4.977-.43,3.391,3.391,0,0,1,1.293,1.867l-1.266.2a2.337,2.337,0,0,0-.867-1.2,2.361,2.361,0,0,0-1.391-.422,2.27,2.27,0,0,0-1.777.789,3.409,3.409,0,0,0,0,4.137,2.275,2.275,0,0,0,1.777.785,2.361,2.361,0,0,0,1.391-.422,2.337,2.337,0,0,0,.867-1.2l1.266.211a3.4,3.4,0,0,1-1.3,1.863A3.72,3.72,0,0,1,49.648,236.141Z" transform="translate(-941.565 6352.149)" fill="#00223d"/>
    <path id="Trazado_25497" data-name="Trazado 25497" d="M18.813,5h1.266V16H18.742V6.477L16.1,8.766V7.32ZM32.82,8.172a3.493,3.493,0,0,1,1.391.281,3.421,3.421,0,0,1,1.141.789,3.688,3.688,0,0,1,.77,1.266,4.667,4.667,0,0,1,.285,1.656,4.061,4.061,0,0,1-1.035,2.9,3.362,3.362,0,0,1-2.551,1.1,3.04,3.04,0,0,1-1.605-.437,2.867,2.867,0,0,1-1.1-1.18v5.32H28.766V8.32h1.3L30.1,9.813a2.811,2.811,0,0,1,1.094-1.2A3.068,3.068,0,0,1,32.82,8.172Zm-.266,6.82a2.332,2.332,0,0,0,1.777-.777,2.892,2.892,0,0,0,.723-2.051,2.877,2.877,0,0,0-.723-2.047,2.423,2.423,0,0,0-3.582.035,2.88,2.88,0,0,0-.734,2.012,2.891,2.891,0,0,0,.734,2.02A2.343,2.343,0,0,0,32.555,14.992Zm7.3-5.32a2.322,2.322,0,0,1,.953-1.031,2.87,2.87,0,0,1,1.477-.406V9.508a2.53,2.53,0,0,0-1.785.57,2.382,2.382,0,0,0-.613,1.82V16H38.539V8.32h1.32Zm7.156,6.477a4.048,4.048,0,0,1-1.969-.477,3.47,3.47,0,0,1-1.387-1.395,4.283,4.283,0,0,1-.512-2.121,3.912,3.912,0,0,1,1.09-2.895,4.089,4.089,0,0,1,5.559,0,3.92,3.92,0,0,1,1.086,2.895,3.923,3.923,0,0,1-1.09,2.9A3.762,3.762,0,0,1,47.016,16.148Zm-.008-1.125a2.359,2.359,0,0,0,1.816-.789,2.957,2.957,0,0,0,.723-2.078,2.945,2.945,0,0,0-.723-2.07A2.359,2.359,0,0,0,47.008,9.3a2.326,2.326,0,0,0-1.8.789,2.965,2.965,0,0,0-.715,2.07,2.976,2.976,0,0,0,.715,2.078A2.326,2.326,0,0,0,47.008,15.023ZM57.055,8.172a3.493,3.493,0,0,1,1.391.281,3.421,3.421,0,0,1,1.141.789,3.688,3.688,0,0,1,.77,1.266,4.667,4.667,0,0,1,.285,1.656,4.061,4.061,0,0,1-1.035,2.9,3.362,3.362,0,0,1-2.551,1.1,3.04,3.04,0,0,1-1.605-.437,2.867,2.867,0,0,1-1.1-1.18v5.32H53V8.32h1.3l.031,1.492a2.811,2.811,0,0,1,1.094-1.2A3.068,3.068,0,0,1,57.055,8.172Zm-.266,6.82a2.332,2.332,0,0,0,1.777-.777,2.892,2.892,0,0,0,.723-2.051,2.877,2.877,0,0,0-.723-2.047,2.423,2.423,0,0,0-3.582.035,2.88,2.88,0,0,0-.734,2.012,2.891,2.891,0,0,0,.734,2.02A2.343,2.343,0,0,0,56.789,14.992Zm9.219,1.156a4.048,4.048,0,0,1-1.969-.477,3.47,3.47,0,0,1-1.387-1.395,4.283,4.283,0,0,1-.512-2.121,3.912,3.912,0,0,1,1.09-2.895,4.089,4.089,0,0,1,5.559,0,3.92,3.92,0,0,1,1.086,2.895,3.923,3.923,0,0,1-1.09,2.9A3.762,3.762,0,0,1,66.008,16.148ZM66,15.023a2.359,2.359,0,0,0,1.816-.789,2.957,2.957,0,0,0,.723-2.078,2.945,2.945,0,0,0-.723-2.07A2.359,2.359,0,0,0,66,9.3a2.326,2.326,0,0,0-1.8.789,2.965,2.965,0,0,0-.715,2.07,2.976,2.976,0,0,0,.715,2.078A2.326,2.326,0,0,0,66,15.023Zm7.313-5.352a2.322,2.322,0,0,1,.953-1.031,2.87,2.87,0,0,1,1.477-.406V9.508a2.53,2.53,0,0,0-1.785.57,2.382,2.382,0,0,0-.613,1.82V16H71.992V8.32h1.32Zm7.109,6.469a3.7,3.7,0,0,1-2.75-1.1,3.929,3.929,0,0,1-1.086-2.883,3.937,3.937,0,0,1,1.082-2.883,4,4,0,0,1,4.977-.43,3.391,3.391,0,0,1,1.293,1.867l-1.266.2a2.337,2.337,0,0,0-.867-1.2A2.361,2.361,0,0,0,80.414,9.3a2.27,2.27,0,0,0-1.777.789,3.006,3.006,0,0,0-.7,2.07,2.991,2.991,0,0,0,.7,2.066,2.275,2.275,0,0,0,1.777.785,2.361,2.361,0,0,0,1.391-.422,2.337,2.337,0,0,0,.867-1.2l1.266.211a3.4,3.4,0,0,1-1.3,1.863A3.72,3.72,0,0,1,80.422,16.141Zm6.2-9.625A.92.92,0,0,1,85.7,5.6a.867.867,0,0,1,.27-.641.886.886,0,0,1,.645-.266.877.877,0,0,1,.637.266.867.867,0,0,1,.27.641.88.88,0,0,1-.27.645A.871.871,0,0,1,86.617,6.516ZM85.93,16V8.32h1.359V16Zm6.828-9,1.961-2.547.719.523L93.688,7Zm.516,9.148a4.048,4.048,0,0,1-1.969-.477,3.47,3.47,0,0,1-1.387-1.395,4.283,4.283,0,0,1-.512-2.121A3.912,3.912,0,0,1,90.5,9.262a4.089,4.089,0,0,1,5.559,0,3.92,3.92,0,0,1,1.086,2.895,3.923,3.923,0,0,1-1.09,2.9A3.762,3.762,0,0,1,93.273,16.148Zm-.008-1.125a2.359,2.359,0,0,0,1.816-.789,2.957,2.957,0,0,0,.723-2.078,2.945,2.945,0,0,0-.723-2.07A2.359,2.359,0,0,0,93.266,9.3a2.326,2.326,0,0,0-1.8.789,2.965,2.965,0,0,0-.715,2.07,2.976,2.976,0,0,0,.715,2.078A2.326,2.326,0,0,0,93.266,15.023Zm9.617-6.852a2.671,2.671,0,0,1,1.934.7,2.594,2.594,0,0,1,.723,1.961V16h-1.352V11.133a1.816,1.816,0,0,0-.469-1.375,1.676,1.676,0,0,0-1.2-.445,1.858,1.858,0,0,0-1.367.527,2.14,2.14,0,0,0-.539,1.566V16H99.258V8.32h1.352V9.3A2.565,2.565,0,0,1,102.883,8.172ZM18.813,49h1.266V60H18.742V50.477L16.1,52.766V51.32ZM32.82,52.172a3.493,3.493,0,0,1,1.391.281,3.421,3.421,0,0,1,1.141.789,3.688,3.688,0,0,1,.77,1.266,4.667,4.667,0,0,1,.285,1.656,4.061,4.061,0,0,1-1.035,2.9,3.362,3.362,0,0,1-2.551,1.1,3.04,3.04,0,0,1-1.605-.437,2.867,2.867,0,0,1-1.1-1.18v5.32H28.766V52.32h1.3l.031,1.492a2.811,2.811,0,0,1,1.094-1.2A3.068,3.068,0,0,1,32.82,52.172Zm-.266,6.82a2.332,2.332,0,0,0,1.777-.777,3.266,3.266,0,0,0,0-4.1,2.423,2.423,0,0,0-3.582.035,3.133,3.133,0,0,0,0,4.031A2.343,2.343,0,0,0,32.555,58.992Zm7.3-5.32a2.322,2.322,0,0,1,.953-1.031,2.87,2.87,0,0,1,1.477-.406v1.273a2.53,2.53,0,0,0-1.785.57,2.382,2.382,0,0,0-.613,1.82V60H38.539V52.32h1.32Zm7.156,6.477a4.048,4.048,0,0,1-1.969-.477,3.47,3.47,0,0,1-1.387-1.395,4.284,4.284,0,0,1-.512-2.121,3.912,3.912,0,0,1,1.09-2.895,4.089,4.089,0,0,1,5.559,0,4.405,4.405,0,0,1,0,5.8A3.762,3.762,0,0,1,47.016,60.148Zm-.008-1.125a2.359,2.359,0,0,0,1.816-.789,3.338,3.338,0,0,0,0-4.148,2.359,2.359,0,0,0-1.816-.789,2.326,2.326,0,0,0-1.8.789,3.367,3.367,0,0,0,0,4.148A2.326,2.326,0,0,0,47.008,59.023Zm10.047-6.852a3.493,3.493,0,0,1,1.391.281,3.421,3.421,0,0,1,1.141.789,3.688,3.688,0,0,1,.77,1.266,4.667,4.667,0,0,1,.285,1.656,4.061,4.061,0,0,1-1.035,2.9,3.362,3.362,0,0,1-2.551,1.1,3.04,3.04,0,0,1-1.605-.437,2.867,2.867,0,0,1-1.1-1.18v5.32H53V52.32h1.3l.031,1.492a2.811,2.811,0,0,1,1.094-1.2A3.068,3.068,0,0,1,57.055,52.172Zm-.266,6.82a2.332,2.332,0,0,0,1.777-.777,3.266,3.266,0,0,0,0-4.1,2.423,2.423,0,0,0-3.582.035,3.133,3.133,0,0,0,0,4.031A2.343,2.343,0,0,0,56.789,58.992Zm9.219,1.156a4.048,4.048,0,0,1-1.969-.477,3.47,3.47,0,0,1-1.387-1.395,4.284,4.284,0,0,1-.512-2.121,3.912,3.912,0,0,1,1.09-2.895,4.089,4.089,0,0,1,5.559,0,4.405,4.405,0,0,1,0,5.8A3.762,3.762,0,0,1,66.008,60.148ZM66,59.023a2.359,2.359,0,0,0,1.816-.789,3.338,3.338,0,0,0,0-4.148A2.359,2.359,0,0,0,66,53.3a2.326,2.326,0,0,0-1.8.789,3.367,3.367,0,0,0,0,4.148A2.326,2.326,0,0,0,66,59.023Zm7.313-5.352a2.322,2.322,0,0,1,.953-1.031,2.87,2.87,0,0,1,1.477-.406v1.273a2.53,2.53,0,0,0-1.785.57,2.382,2.382,0,0,0-.613,1.82V60H71.992V52.32h1.32Zm7.109,6.469a3.7,3.7,0,0,1-2.75-1.1,4.375,4.375,0,0,1,0-5.766,4,4,0,0,1,4.977-.43,3.391,3.391,0,0,1,1.293,1.867l-1.266.2a2.337,2.337,0,0,0-.867-1.2,2.361,2.361,0,0,0-1.391-.422,2.27,2.27,0,0,0-1.777.789,3.409,3.409,0,0,0,0,4.137,2.275,2.275,0,0,0,1.777.785,2.361,2.361,0,0,0,1.391-.422,2.337,2.337,0,0,0,.867-1.2l1.266.211a3.4,3.4,0,0,1-1.3,1.863A3.72,3.72,0,0,1,80.422,60.141Zm6.2-9.625A.92.92,0,0,1,85.7,49.6a.867.867,0,0,1,.27-.641.886.886,0,0,1,.645-.266.877.877,0,0,1,.637.266.867.867,0,0,1,.27.641.88.88,0,0,1-.27.645A.871.871,0,0,1,86.617,50.516ZM85.93,60V52.32h1.359V60Zm6.828-9,1.961-2.547.719.523L93.688,51Zm.516,9.148a4.048,4.048,0,0,1-1.969-.477,3.47,3.47,0,0,1-1.387-1.395,4.283,4.283,0,0,1-.512-2.121,3.912,3.912,0,0,1,1.09-2.895,4.089,4.089,0,0,1,5.559,0,4.405,4.405,0,0,1,0,5.8A3.762,3.762,0,0,1,93.273,60.148Zm-.008-1.125a2.359,2.359,0,0,0,1.816-.789,3.338,3.338,0,0,0,0-4.148,2.359,2.359,0,0,0-1.816-.789,2.326,2.326,0,0,0-1.8.789,3.367,3.367,0,0,0,0,4.148A2.326,2.326,0,0,0,93.266,59.023Zm9.617-6.852a2.671,2.671,0,0,1,1.934.7,2.594,2.594,0,0,1,.723,1.961V60h-1.352V55.133a1.816,1.816,0,0,0-.469-1.375,1.676,1.676,0,0,0-1.2-.445,1.858,1.858,0,0,0-1.367.527,2.14,2.14,0,0,0-.539,1.566V60H99.258V52.32h1.352V53.3A2.565,2.565,0,0,1,102.883,52.172ZM18.813,93h1.266v11H18.742V94.477L16.1,96.766V95.32ZM32.82,96.172a3.493,3.493,0,0,1,1.391.281,3.421,3.421,0,0,1,1.141.789,3.688,3.688,0,0,1,.77,1.266,4.667,4.667,0,0,1,.285,1.656,4.061,4.061,0,0,1-1.035,2.9,3.362,3.362,0,0,1-2.551,1.1,3.04,3.04,0,0,1-1.605-.437,2.867,2.867,0,0,1-1.1-1.18v5.32H28.766V96.32h1.3l.031,1.492a2.811,2.811,0,0,1,1.094-1.2A3.068,3.068,0,0,1,32.82,96.172Zm-.266,6.82a2.332,2.332,0,0,0,1.777-.777,3.266,3.266,0,0,0,0-4.1,2.423,2.423,0,0,0-3.582.035,3.133,3.133,0,0,0,0,4.031A2.343,2.343,0,0,0,32.555,102.992Zm7.3-5.32a2.322,2.322,0,0,1,.953-1.031,2.87,2.87,0,0,1,1.477-.406v1.273a2.53,2.53,0,0,0-1.785.57,2.382,2.382,0,0,0-.613,1.82V104H38.539V96.32h1.32Zm7.156,6.477a4.048,4.048,0,0,1-1.969-.477,3.47,3.47,0,0,1-1.387-1.395,4.283,4.283,0,0,1-.512-2.121,3.912,3.912,0,0,1,1.09-2.895,4.089,4.089,0,0,1,5.559,0,4.405,4.405,0,0,1,0,5.8A3.762,3.762,0,0,1,47.016,104.148Zm-.008-1.125a2.359,2.359,0,0,0,1.816-.789,3.338,3.338,0,0,0,0-4.148,2.359,2.359,0,0,0-1.816-.789,2.326,2.326,0,0,0-1.8.789,3.367,3.367,0,0,0,0,4.148A2.326,2.326,0,0,0,47.008,103.023Zm10.047-6.852a3.493,3.493,0,0,1,1.391.281,3.421,3.421,0,0,1,1.141.789,3.688,3.688,0,0,1,.77,1.266,4.667,4.667,0,0,1,.285,1.656,4.061,4.061,0,0,1-1.035,2.9,3.362,3.362,0,0,1-2.551,1.1,3.04,3.04,0,0,1-1.605-.437,2.867,2.867,0,0,1-1.1-1.18v5.32H53V96.32h1.3l.031,1.492a2.811,2.811,0,0,1,1.094-1.2A3.068,3.068,0,0,1,57.055,96.172Zm-.266,6.82a2.332,2.332,0,0,0,1.777-.777,3.266,3.266,0,0,0,0-4.1,2.423,2.423,0,0,0-3.582.035,3.133,3.133,0,0,0,0,4.031A2.343,2.343,0,0,0,56.789,102.992Zm9.219,1.156a4.048,4.048,0,0,1-1.969-.477,3.47,3.47,0,0,1-1.387-1.395,4.283,4.283,0,0,1-.512-2.121,3.912,3.912,0,0,1,1.09-2.895,4.089,4.089,0,0,1,5.559,0,4.405,4.405,0,0,1,0,5.8A3.762,3.762,0,0,1,66.008,104.148ZM66,103.023a2.359,2.359,0,0,0,1.816-.789,3.338,3.338,0,0,0,0-4.148A2.359,2.359,0,0,0,66,97.3a2.326,2.326,0,0,0-1.8.789,3.367,3.367,0,0,0,0,4.148A2.326,2.326,0,0,0,66,103.023Zm7.313-5.352a2.322,2.322,0,0,1,.953-1.031,2.87,2.87,0,0,1,1.477-.406v1.273a2.53,2.53,0,0,0-1.785.57,2.382,2.382,0,0,0-.613,1.82V104H71.992V96.32h1.32Zm7.109,6.469a3.7,3.7,0,0,1-2.75-1.1,4.375,4.375,0,0,1,0-5.766,4,4,0,0,1,4.977-.43,3.391,3.391,0,0,1,1.293,1.867l-1.266.2a2.337,2.337,0,0,0-.867-1.2,2.361,2.361,0,0,0-1.391-.422,2.27,2.27,0,0,0-1.777.789,3.409,3.409,0,0,0,0,4.137,2.275,2.275,0,0,0,1.777.785,2.361,2.361,0,0,0,1.391-.422,2.337,2.337,0,0,0,.867-1.2l1.266.211a3.4,3.4,0,0,1-1.3,1.863A3.72,3.72,0,0,1,80.422,104.141Zm6.2-9.625A.92.92,0,0,1,85.7,93.6a.867.867,0,0,1,.27-.641.886.886,0,0,1,.645-.266.877.877,0,0,1,.637.266.867.867,0,0,1,.27.641.88.88,0,0,1-.27.645A.871.871,0,0,1,86.617,94.516ZM85.93,104V96.32h1.359V104Zm6.828-9,1.961-2.547.719.523L93.688,95Zm.516,9.148a4.048,4.048,0,0,1-1.969-.477,3.47,3.47,0,0,1-1.387-1.395,4.283,4.283,0,0,1-.512-2.121,3.912,3.912,0,0,1,1.09-2.895,4.089,4.089,0,0,1,5.559,0,4.405,4.405,0,0,1,0,5.8A3.762,3.762,0,0,1,93.273,104.148Zm-.008-1.125a2.359,2.359,0,0,0,1.816-.789,3.338,3.338,0,0,0,0-4.148,2.359,2.359,0,0,0-1.816-.789,2.326,2.326,0,0,0-1.8.789,3.367,3.367,0,0,0,0,4.148A2.326,2.326,0,0,0,93.266,103.023Zm9.617-6.852a2.671,2.671,0,0,1,1.934.7,2.594,2.594,0,0,1,.723,1.961V104h-1.352V99.133a1.816,1.816,0,0,0-.469-1.375,1.676,1.676,0,0,0-1.2-.445,1.858,1.858,0,0,0-1.367.527,2.14,2.14,0,0,0-.539,1.566V104H99.258V96.32h1.352V97.3A2.565,2.565,0,0,1,102.883,96.172ZM9.813,137h1.266v11H9.742v-9.523L7.1,140.766V139.32ZM14.2,150.906,21.953,136h1.3l-7.75,14.906Zm11.75-4.148H31.43V148H24.008v-1.023l4.406-4.555a5.219,5.219,0,0,0,.992-1.3,2.6,2.6,0,0,0,.273-1.133,1.9,1.9,0,0,0-.555-1.457,2.264,2.264,0,0,0-2.941.047,2.437,2.437,0,0,0-.559,1.77v.813l-1.352-.125v-.68a3.477,3.477,0,0,1,.93-2.613,3.415,3.415,0,0,1,2.484-.9,3.443,3.443,0,0,1,2.387.836,2.907,2.907,0,0,1,.934,2.281,3.459,3.459,0,0,1-.371,1.59,6.835,6.835,0,0,1-1.191,1.582Zm15.867-6.586a3.493,3.493,0,0,1,1.391.281,3.421,3.421,0,0,1,1.141.789,3.688,3.688,0,0,1,.77,1.266,4.667,4.667,0,0,1,.285,1.656,4.061,4.061,0,0,1-1.035,2.9,3.362,3.362,0,0,1-2.551,1.1,3.04,3.04,0,0,1-1.605-.437,2.867,2.867,0,0,1-1.1-1.18v5.32H37.766V140.32h1.3l.031,1.492a2.811,2.811,0,0,1,1.094-1.2A3.068,3.068,0,0,1,41.82,140.172Zm-.266,6.82a2.332,2.332,0,0,0,1.777-.777,3.266,3.266,0,0,0,0-4.1,2.423,2.423,0,0,0-3.582.035,3.133,3.133,0,0,0,0,4.031A2.343,2.343,0,0,0,41.555,146.992Zm7.3-5.32a2.322,2.322,0,0,1,.953-1.031,2.87,2.87,0,0,1,1.477-.406v1.273a2.53,2.53,0,0,0-1.785.57,2.382,2.382,0,0,0-.613,1.82V148H47.539v-7.68h1.32Zm7.156,6.477a4.048,4.048,0,0,1-1.969-.477,3.47,3.47,0,0,1-1.387-1.395,4.284,4.284,0,0,1-.512-2.121,3.912,3.912,0,0,1,1.09-2.895,4.089,4.089,0,0,1,5.559,0,4.405,4.405,0,0,1,0,5.8A3.762,3.762,0,0,1,56.016,148.148Zm-.008-1.125a2.359,2.359,0,0,0,1.816-.789,3.338,3.338,0,0,0,0-4.148,2.359,2.359,0,0,0-1.816-.789,2.326,2.326,0,0,0-1.8.789,3.367,3.367,0,0,0,0,4.148A2.326,2.326,0,0,0,56.008,147.023Zm10.047-6.852a3.493,3.493,0,0,1,1.391.281,3.421,3.421,0,0,1,1.141.789,3.688,3.688,0,0,1,.77,1.266,4.667,4.667,0,0,1,.285,1.656,4.061,4.061,0,0,1-1.035,2.9,3.362,3.362,0,0,1-2.551,1.1,3.04,3.04,0,0,1-1.605-.437,2.867,2.867,0,0,1-1.1-1.18v5.32H62V140.32h1.3l.031,1.492a2.811,2.811,0,0,1,1.094-1.2A3.068,3.068,0,0,1,66.055,140.172Zm-.266,6.82a2.332,2.332,0,0,0,1.777-.777,3.266,3.266,0,0,0,0-4.1,2.423,2.423,0,0,0-3.582.035,3.133,3.133,0,0,0,0,4.031A2.343,2.343,0,0,0,65.789,146.992Zm9.219,1.156a4.048,4.048,0,0,1-1.969-.477,3.47,3.47,0,0,1-1.387-1.395,4.283,4.283,0,0,1-.512-2.121,3.912,3.912,0,0,1,1.09-2.895,4.089,4.089,0,0,1,5.559,0,4.405,4.405,0,0,1,0,5.8A3.762,3.762,0,0,1,75.008,148.148ZM75,147.023a2.359,2.359,0,0,0,1.816-.789,3.338,3.338,0,0,0,0-4.148A2.359,2.359,0,0,0,75,141.3a2.326,2.326,0,0,0-1.8.789,3.367,3.367,0,0,0,0,4.148A2.326,2.326,0,0,0,75,147.023Zm7.313-5.352a2.322,2.322,0,0,1,.953-1.031,2.87,2.87,0,0,1,1.477-.406v1.273a2.53,2.53,0,0,0-1.785.57,2.382,2.382,0,0,0-.613,1.82V148H80.992v-7.68h1.32Zm7.109,6.469a3.7,3.7,0,0,1-2.75-1.1,4.375,4.375,0,0,1,0-5.766,4,4,0,0,1,4.977-.43,3.391,3.391,0,0,1,1.293,1.867l-1.266.2a2.337,2.337,0,0,0-.867-1.2,2.361,2.361,0,0,0-1.391-.422,2.27,2.27,0,0,0-1.777.789,3.409,3.409,0,0,0,0,4.137,2.275,2.275,0,0,0,1.777.785,2.361,2.361,0,0,0,1.391-.422,2.337,2.337,0,0,0,.867-1.2l1.266.211a3.4,3.4,0,0,1-1.3,1.863A3.72,3.72,0,0,1,89.422,148.141Zm6.2-9.625a.92.92,0,0,1-.914-.914.867.867,0,0,1,.27-.641.886.886,0,0,1,.645-.266.877.877,0,0,1,.637.266.867.867,0,0,1,.27.641.88.88,0,0,1-.27.645A.871.871,0,0,1,95.617,138.516ZM94.93,148v-7.68h1.359V148Zm6.828-9,1.961-2.547.719.523L102.688,139Zm.516,9.148a4.048,4.048,0,0,1-1.969-.477,3.47,3.47,0,0,1-1.387-1.395,4.283,4.283,0,0,1-.512-2.121,3.912,3.912,0,0,1,1.09-2.895,4.089,4.089,0,0,1,5.559,0,4.405,4.405,0,0,1,0,5.8A3.762,3.762,0,0,1,102.273,148.148Zm-.008-1.125a2.359,2.359,0,0,0,1.816-.789,3.338,3.338,0,0,0,0-4.148,2.359,2.359,0,0,0-1.816-.789,2.326,2.326,0,0,0-1.8.789,3.367,3.367,0,0,0,0,4.148A2.326,2.326,0,0,0,102.266,147.023Zm9.617-6.852a2.671,2.671,0,0,1,1.934.7,2.594,2.594,0,0,1,.723,1.961V148h-1.352v-4.867a1.816,1.816,0,0,0-.469-1.375,1.676,1.676,0,0,0-1.2-.445,1.858,1.858,0,0,0-1.367.527,2.14,2.14,0,0,0-.539,1.566V148h-1.352v-7.68h1.352v.984A2.565,2.565,0,0,1,111.883,140.172ZM9.813,181h1.266v11H9.742v-9.523L7.1,184.766V183.32ZM14.2,194.906,21.953,180h1.3l-7.75,14.906Zm11.75-4.148H31.43V192H24.008v-1.023l4.406-4.555a5.219,5.219,0,0,0,.992-1.3,2.6,2.6,0,0,0,.273-1.133,1.9,1.9,0,0,0-.555-1.457,2.264,2.264,0,0,0-2.941.047,2.437,2.437,0,0,0-.559,1.77v.813l-1.352-.125v-.68a3.477,3.477,0,0,1,.93-2.613,3.415,3.415,0,0,1,2.484-.9,3.443,3.443,0,0,1,2.387.836,2.907,2.907,0,0,1,.934,2.281,3.459,3.459,0,0,1-.371,1.59,6.835,6.835,0,0,1-1.191,1.582Zm15.867-6.586a3.493,3.493,0,0,1,1.391.281,3.421,3.421,0,0,1,1.141.789,3.688,3.688,0,0,1,.77,1.266,4.667,4.667,0,0,1,.285,1.656,4.061,4.061,0,0,1-1.035,2.9,3.362,3.362,0,0,1-2.551,1.1,3.04,3.04,0,0,1-1.605-.437,2.867,2.867,0,0,1-1.1-1.18v5.32H37.766V184.32h1.3l.031,1.492a2.811,2.811,0,0,1,1.094-1.2A3.068,3.068,0,0,1,41.82,184.172Zm-.266,6.82a2.332,2.332,0,0,0,1.777-.777,3.266,3.266,0,0,0,0-4.1,2.423,2.423,0,0,0-3.582.035,3.133,3.133,0,0,0,0,4.031A2.343,2.343,0,0,0,41.555,190.992Zm7.3-5.32a2.322,2.322,0,0,1,.953-1.031,2.87,2.87,0,0,1,1.477-.406v1.273a2.53,2.53,0,0,0-1.785.57,2.382,2.382,0,0,0-.613,1.82V192H47.539v-7.68h1.32Zm7.156,6.477a4.048,4.048,0,0,1-1.969-.477,3.47,3.47,0,0,1-1.387-1.395,4.284,4.284,0,0,1-.512-2.121,3.912,3.912,0,0,1,1.09-2.895,4.089,4.089,0,0,1,5.559,0,4.405,4.405,0,0,1,0,5.8A3.762,3.762,0,0,1,56.016,192.148Zm-.008-1.125a2.359,2.359,0,0,0,1.816-.789,3.338,3.338,0,0,0,0-4.148,2.359,2.359,0,0,0-1.816-.789,2.326,2.326,0,0,0-1.8.789,3.367,3.367,0,0,0,0,4.148A2.326,2.326,0,0,0,56.008,191.023Zm10.047-6.852a3.493,3.493,0,0,1,1.391.281,3.421,3.421,0,0,1,1.141.789,3.688,3.688,0,0,1,.77,1.266,4.667,4.667,0,0,1,.285,1.656,4.061,4.061,0,0,1-1.035,2.9,3.362,3.362,0,0,1-2.551,1.1,3.04,3.04,0,0,1-1.605-.437,2.867,2.867,0,0,1-1.1-1.18v5.32H62V184.32h1.3l.031,1.492a2.811,2.811,0,0,1,1.094-1.2A3.068,3.068,0,0,1,66.055,184.172Zm-.266,6.82a2.332,2.332,0,0,0,1.777-.777,3.266,3.266,0,0,0,0-4.1,2.423,2.423,0,0,0-3.582.035,3.133,3.133,0,0,0,0,4.031A2.343,2.343,0,0,0,65.789,190.992Zm9.219,1.156a4.048,4.048,0,0,1-1.969-.477,3.47,3.47,0,0,1-1.387-1.395,4.283,4.283,0,0,1-.512-2.121,3.912,3.912,0,0,1,1.09-2.895,4.089,4.089,0,0,1,5.559,0,4.405,4.405,0,0,1,0,5.8A3.762,3.762,0,0,1,75.008,192.148ZM75,191.023a2.359,2.359,0,0,0,1.816-.789,3.338,3.338,0,0,0,0-4.148A2.359,2.359,0,0,0,75,185.3a2.326,2.326,0,0,0-1.8.789,3.367,3.367,0,0,0,0,4.148A2.326,2.326,0,0,0,75,191.023Zm7.313-5.352a2.322,2.322,0,0,1,.953-1.031,2.87,2.87,0,0,1,1.477-.406v1.273a2.53,2.53,0,0,0-1.785.57,2.382,2.382,0,0,0-.613,1.82V192H80.992v-7.68h1.32Zm7.109,6.469a3.7,3.7,0,0,1-2.75-1.1,4.375,4.375,0,0,1,0-5.766,4,4,0,0,1,4.977-.43,3.391,3.391,0,0,1,1.293,1.867l-1.266.2a2.337,2.337,0,0,0-.867-1.2,2.361,2.361,0,0,0-1.391-.422,2.27,2.27,0,0,0-1.777.789,3.409,3.409,0,0,0,0,4.137,2.275,2.275,0,0,0,1.777.785,2.361,2.361,0,0,0,1.391-.422,2.337,2.337,0,0,0,.867-1.2l1.266.211a3.4,3.4,0,0,1-1.3,1.863A3.72,3.72,0,0,1,89.422,192.141Zm6.2-9.625a.92.92,0,0,1-.914-.914.867.867,0,0,1,.27-.641.886.886,0,0,1,.645-.266.877.877,0,0,1,.637.266.867.867,0,0,1,.27.641.88.88,0,0,1-.27.645A.871.871,0,0,1,95.617,182.516ZM94.93,192v-7.68h1.359V192Zm6.828-9,1.961-2.547.719.523L102.688,183Zm.516,9.148a4.048,4.048,0,0,1-1.969-.477,3.47,3.47,0,0,1-1.387-1.395,4.283,4.283,0,0,1-.512-2.121,3.912,3.912,0,0,1,1.09-2.895,4.089,4.089,0,0,1,5.559,0,4.405,4.405,0,0,1,0,5.8A3.762,3.762,0,0,1,102.273,192.148Zm-.008-1.125a2.359,2.359,0,0,0,1.816-.789,3.338,3.338,0,0,0,0-4.148,2.359,2.359,0,0,0-1.816-.789,2.326,2.326,0,0,0-1.8.789,3.367,3.367,0,0,0,0,4.148A2.326,2.326,0,0,0,102.266,191.023Zm9.617-6.852a2.671,2.671,0,0,1,1.934.7,2.594,2.594,0,0,1,.723,1.961V192h-1.352v-4.867a1.816,1.816,0,0,0-.469-1.375,1.676,1.676,0,0,0-1.2-.445,1.858,1.858,0,0,0-1.367.527,2.14,2.14,0,0,0-.539,1.566V192h-1.352v-7.68h1.352v.984A2.565,2.565,0,0,1,111.883,184.172ZM9.813,225h1.266v11H9.742v-9.523L7.1,228.766V227.32ZM14.2,238.906,21.953,224h1.3l-7.75,14.906Zm11.75-4.148H31.43V236H24.008v-1.023l4.406-4.555a5.219,5.219,0,0,0,.992-1.3,2.6,2.6,0,0,0,.273-1.133,1.9,1.9,0,0,0-.555-1.457,2.264,2.264,0,0,0-2.941.047,2.437,2.437,0,0,0-.559,1.77v.813l-1.352-.125v-.68a3.477,3.477,0,0,1,.93-2.613,3.415,3.415,0,0,1,2.484-.9,3.443,3.443,0,0,1,2.387.836,2.907,2.907,0,0,1,.934,2.281,3.459,3.459,0,0,1-.371,1.59,6.835,6.835,0,0,1-1.191,1.582Zm15.867-6.586a3.493,3.493,0,0,1,1.391.281,3.421,3.421,0,0,1,1.141.789,3.688,3.688,0,0,1,.77,1.266,4.667,4.667,0,0,1,.285,1.656,4.061,4.061,0,0,1-1.035,2.9,3.362,3.362,0,0,1-2.551,1.1,3.04,3.04,0,0,1-1.605-.437,2.867,2.867,0,0,1-1.1-1.18v5.32H37.766V228.32h1.3l.031,1.492a2.811,2.811,0,0,1,1.094-1.2A3.068,3.068,0,0,1,41.82,228.172Zm-.266,6.82a2.332,2.332,0,0,0,1.777-.777,3.266,3.266,0,0,0,0-4.1,2.423,2.423,0,0,0-3.582.035,3.133,3.133,0,0,0,0,4.031A2.343,2.343,0,0,0,41.555,234.992Zm7.3-5.32a2.322,2.322,0,0,1,.953-1.031,2.87,2.87,0,0,1,1.477-.406v1.273a2.53,2.53,0,0,0-1.785.57,2.382,2.382,0,0,0-.613,1.82V236H47.539v-7.68h1.32Zm7.156,6.477a4.048,4.048,0,0,1-1.969-.477,3.47,3.47,0,0,1-1.387-1.395,4.284,4.284,0,0,1-.512-2.121,3.912,3.912,0,0,1,1.09-2.895,4.089,4.089,0,0,1,5.559,0,4.405,4.405,0,0,1,0,5.8A3.762,3.762,0,0,1,56.016,236.148Zm-.008-1.125a2.359,2.359,0,0,0,1.816-.789,3.338,3.338,0,0,0,0-4.148,2.359,2.359,0,0,0-1.816-.789,2.326,2.326,0,0,0-1.8.789,3.367,3.367,0,0,0,0,4.148A2.326,2.326,0,0,0,56.008,235.023Zm10.047-6.852a3.493,3.493,0,0,1,1.391.281,3.421,3.421,0,0,1,1.141.789,3.688,3.688,0,0,1,.77,1.266,4.667,4.667,0,0,1,.285,1.656,4.061,4.061,0,0,1-1.035,2.9,3.362,3.362,0,0,1-2.551,1.1,3.04,3.04,0,0,1-1.605-.437,2.867,2.867,0,0,1-1.1-1.18v5.32H62V228.32h1.3l.031,1.492a2.811,2.811,0,0,1,1.094-1.2A3.068,3.068,0,0,1,66.055,228.172Zm-.266,6.82a2.332,2.332,0,0,0,1.777-.777,3.266,3.266,0,0,0,0-4.1,2.423,2.423,0,0,0-3.582.035,3.133,3.133,0,0,0,0,4.031A2.343,2.343,0,0,0,65.789,234.992Zm9.219,1.156a4.048,4.048,0,0,1-1.969-.477,3.47,3.47,0,0,1-1.387-1.395,4.283,4.283,0,0,1-.512-2.121,3.912,3.912,0,0,1,1.09-2.895,4.089,4.089,0,0,1,5.559,0,4.405,4.405,0,0,1,0,5.8A3.762,3.762,0,0,1,75.008,236.148ZM75,235.023a2.359,2.359,0,0,0,1.816-.789,3.338,3.338,0,0,0,0-4.148A2.359,2.359,0,0,0,75,229.3a2.326,2.326,0,0,0-1.8.789,3.367,3.367,0,0,0,0,4.148A2.326,2.326,0,0,0,75,235.023Zm7.313-5.352a2.322,2.322,0,0,1,.953-1.031,2.87,2.87,0,0,1,1.477-.406v1.273a2.53,2.53,0,0,0-1.785.57,2.382,2.382,0,0,0-.613,1.82V236H80.992v-7.68h1.32Zm7.109,6.469a3.7,3.7,0,0,1-2.75-1.1,4.375,4.375,0,0,1,0-5.766,4,4,0,0,1,4.977-.43,3.391,3.391,0,0,1,1.293,1.867l-1.266.2a2.337,2.337,0,0,0-.867-1.2,2.361,2.361,0,0,0-1.391-.422,2.27,2.27,0,0,0-1.777.789,3.409,3.409,0,0,0,0,4.137,2.275,2.275,0,0,0,1.777.785,2.361,2.361,0,0,0,1.391-.422,2.337,2.337,0,0,0,.867-1.2l1.266.211a3.4,3.4,0,0,1-1.3,1.863A3.72,3.72,0,0,1,89.422,236.141Zm6.2-9.625a.92.92,0,0,1-.914-.914.867.867,0,0,1,.27-.641.886.886,0,0,1,.645-.266.877.877,0,0,1,.637.266.867.867,0,0,1,.27.641.88.88,0,0,1-.27.645A.871.871,0,0,1,95.617,226.516ZM94.93,236v-7.68h1.359V236Zm6.828-9,1.961-2.547.719.523L102.688,227Zm.516,9.148a4.048,4.048,0,0,1-1.969-.477,3.47,3.47,0,0,1-1.387-1.395,4.283,4.283,0,0,1-.512-2.121,3.912,3.912,0,0,1,1.09-2.895,4.089,4.089,0,0,1,5.559,0,4.405,4.405,0,0,1,0,5.8A3.762,3.762,0,0,1,102.273,236.148Zm-.008-1.125a2.359,2.359,0,0,0,1.816-.789,3.338,3.338,0,0,0,0-4.148,2.359,2.359,0,0,0-1.816-.789,2.326,2.326,0,0,0-1.8.789,3.367,3.367,0,0,0,0,4.148A2.326,2.326,0,0,0,102.266,235.023Zm9.617-6.852a2.671,2.671,0,0,1,1.934.7,2.594,2.594,0,0,1,.723,1.961V236h-1.352v-4.867a1.816,1.816,0,0,0-.469-1.375,1.676,1.676,0,0,0-1.2-.445,1.858,1.858,0,0,0-1.367.527,2.14,2.14,0,0,0-.539,1.566V236h-1.352v-7.68h1.352v.984A2.565,2.565,0,0,1,111.883,228.172Z" transform="translate(-735.758 6352.149)" fill="#00223d"/>
    <path id="Trazado_25498" data-name="Trazado 25498" d="M16.848,16.148a3.064,3.064,0,0,1-2.711-1.437,7.665,7.665,0,0,1-.953-4.219,7.7,7.7,0,0,1,.941-4.211,3.062,3.062,0,0,1,2.723-1.43,3.055,3.055,0,0,1,2.711,1.434,7.677,7.677,0,0,1,.945,4.207,7.643,7.643,0,0,1-.957,4.215A3.058,3.058,0,0,1,16.848,16.148Zm0-1.25a1.861,1.861,0,0,0,1.711-1.1,7.182,7.182,0,0,0,.594-3.3,6.979,6.979,0,0,0-.605-3.3,1.88,1.88,0,0,0-3.4,0,7.014,7.014,0,0,0-.6,3.3,7.219,7.219,0,0,0,.59,3.309A1.859,1.859,0,0,0,16.848,14.9Zm5.945,1.258a.877.877,0,0,1-.637-.266.908.908,0,0,1,.637-1.547.884.884,0,0,1,.641.27.887.887,0,0,1,0,1.277A.886.886,0,0,1,22.793,16.156Zm6.836-7.234a4.263,4.263,0,0,1,3,.926,3.358,3.358,0,0,1,.992,2.582,3.651,3.651,0,0,1-1.02,2.676,3.578,3.578,0,0,1-2.668,1.035,4.239,4.239,0,0,1-1.379-.223,3.724,3.724,0,0,1-1.164-.641,2.931,2.931,0,0,1-.812-1.082,3.558,3.558,0,0,1-.3-1.484,5.018,5.018,0,0,1,.039-.562l1.383-.117a5.5,5.5,0,0,0-.062.617,2.483,2.483,0,0,0,.2,1.023,1.749,1.749,0,0,0,.535.7,2.434,2.434,0,0,0,.723.379,2.638,2.638,0,0,0,.816.125,2.256,2.256,0,0,0,1.707-.672,2.391,2.391,0,0,0,.645-1.727,2.275,2.275,0,0,0-.668-1.734,2.994,2.994,0,0,0-2.113-.633H26.7l.68-5.094h5.766V6.273H28.52L28.16,8.922Zm13.477,7.219a3.7,3.7,0,0,1-2.75-1.1,3.929,3.929,0,0,1-1.086-2.883,3.937,3.937,0,0,1,1.082-2.883,4,4,0,0,1,4.977-.43,3.391,3.391,0,0,1,1.293,1.867l-1.266.2a2.337,2.337,0,0,0-.867-1.2A2.361,2.361,0,0,0,43.1,9.3a2.27,2.27,0,0,0-1.777.789,3.006,3.006,0,0,0-.7,2.07,2.991,2.991,0,0,0,.7,2.066,2.275,2.275,0,0,0,1.777.785,2.361,2.361,0,0,0,1.391-.422,2.337,2.337,0,0,0,.867-1.2l1.266.211a3.4,3.4,0,0,1-1.3,1.863A3.72,3.72,0,0,1,43.105,16.141ZM56.465,8.172a2.476,2.476,0,0,1,1.789.652,2.42,2.42,0,0,1,.68,1.832V16H57.582V11.008a1.735,1.735,0,0,0-.422-1.266,1.436,1.436,0,0,0-1.07-.43,1.517,1.517,0,0,0-1.172.484,2.083,2.083,0,0,0-.445,1.453V16H53.1V11.063a1.815,1.815,0,0,0-.426-1.309,1.448,1.448,0,0,0-1.09-.441,1.5,1.5,0,0,0-1.168.5,2.155,2.155,0,0,0-.449,1.488V16H48.613V8.32h1.352v.992a2.333,2.333,0,0,1,.879-.844,2.506,2.506,0,0,1,1.223-.3,2.609,2.609,0,0,1,1.313.324,2.018,2.018,0,0,1,.852.934,2.39,2.39,0,0,1,.922-.934A2.637,2.637,0,0,1,56.465,8.172ZM12.344,60.148a3.064,3.064,0,0,1-2.711-1.437,7.665,7.665,0,0,1-.953-4.219,7.7,7.7,0,0,1,.941-4.211,3.062,3.062,0,0,1,2.723-1.43,3.055,3.055,0,0,1,2.711,1.434A7.677,7.677,0,0,1,16,54.492a7.643,7.643,0,0,1-.957,4.215A3.058,3.058,0,0,1,12.344,60.148Zm0-1.25a1.861,1.861,0,0,0,1.711-1.1,7.182,7.182,0,0,0,.594-3.3,6.979,6.979,0,0,0-.605-3.3,1.88,1.88,0,0,0-3.4,0,7.014,7.014,0,0,0-.6,3.3,7.219,7.219,0,0,0,.59,3.309A1.859,1.859,0,0,0,12.344,58.9Zm5.945,1.258a.877.877,0,0,1-.637-.266.908.908,0,0,1,.637-1.547.884.884,0,0,1,.641.27.887.887,0,0,1,0,1.277A.886.886,0,0,1,18.289,60.156Zm5.313-1.4h5.477V60H21.656V58.977l4.406-4.555a5.219,5.219,0,0,0,.992-1.3,2.6,2.6,0,0,0,.273-1.133,1.9,1.9,0,0,0-.555-1.457,2.264,2.264,0,0,0-2.941.047,2.437,2.437,0,0,0-.559,1.77v.813l-1.352-.125v-.68a3.477,3.477,0,0,1,.93-2.613,3.415,3.415,0,0,1,2.484-.9,3.443,3.443,0,0,1,2.387.836,2.907,2.907,0,0,1,.934,2.281,3.459,3.459,0,0,1-.371,1.59,6.835,6.835,0,0,1-1.191,1.582Zm10.531-5.836a4.262,4.262,0,0,1,3,.926,3.358,3.358,0,0,1,.992,2.582,3.651,3.651,0,0,1-1.02,2.676,3.578,3.578,0,0,1-2.668,1.035,4.239,4.239,0,0,1-1.379-.223,3.724,3.724,0,0,1-1.164-.641,2.931,2.931,0,0,1-.812-1.082,3.558,3.558,0,0,1-.3-1.484,5.018,5.018,0,0,1,.039-.562l1.383-.117a5.5,5.5,0,0,0-.062.617,2.483,2.483,0,0,0,.2,1.023,1.749,1.749,0,0,0,.535.7,2.434,2.434,0,0,0,.723.379,2.638,2.638,0,0,0,.816.125,2.256,2.256,0,0,0,1.707-.672,2.391,2.391,0,0,0,.645-1.727,2.275,2.275,0,0,0-.668-1.734,2.994,2.994,0,0,0-2.113-.633H31.2l.68-5.094h5.766v1.258H33.023l-.359,2.648Zm13.477,7.219a3.7,3.7,0,0,1-2.75-1.1,4.375,4.375,0,0,1,0-5.766,4,4,0,0,1,4.977-.43,3.391,3.391,0,0,1,1.293,1.867l-1.266.2a2.337,2.337,0,0,0-.867-1.2A2.361,2.361,0,0,0,47.6,53.3a2.27,2.27,0,0,0-1.777.789,3.409,3.409,0,0,0,0,4.137,2.275,2.275,0,0,0,1.777.785,2.361,2.361,0,0,0,1.391-.422,2.337,2.337,0,0,0,.867-1.2l1.266.211a3.4,3.4,0,0,1-1.3,1.863A3.72,3.72,0,0,1,47.609,60.141Zm13.359-7.969a2.476,2.476,0,0,1,1.789.652,2.42,2.42,0,0,1,.68,1.832V60H62.086V55.008a1.735,1.735,0,0,0-.422-1.266,1.436,1.436,0,0,0-1.07-.43,1.517,1.517,0,0,0-1.172.484,2.083,2.083,0,0,0-.445,1.453V60H57.6V55.063a1.815,1.815,0,0,0-.426-1.309,1.448,1.448,0,0,0-1.09-.441,1.5,1.5,0,0,0-1.168.5,2.155,2.155,0,0,0-.449,1.488V60H53.117V52.32h1.352v.992a2.333,2.333,0,0,1,.879-.844,2.506,2.506,0,0,1,1.223-.3,2.609,2.609,0,0,1,1.313.324,2.018,2.018,0,0,1,.852.934,2.39,2.39,0,0,1,.922-.934A2.637,2.637,0,0,1,60.969,52.172ZM12.344,104.148a3.064,3.064,0,0,1-2.711-1.437,9.851,9.851,0,0,1-.012-8.43,3.062,3.062,0,0,1,2.723-1.43,3.055,3.055,0,0,1,2.711,1.434,9.8,9.8,0,0,1-.012,8.422A3.058,3.058,0,0,1,12.344,104.148Zm0-1.25a1.861,1.861,0,0,0,1.711-1.1,7.182,7.182,0,0,0,.594-3.3,6.979,6.979,0,0,0-.605-3.3,1.88,1.88,0,0,0-3.4,0,7.014,7.014,0,0,0-.6,3.3,7.219,7.219,0,0,0,.59,3.309A1.859,1.859,0,0,0,12.344,102.9Zm5.945,1.258a.877.877,0,0,1-.637-.266.908.908,0,0,1,.637-1.547.884.884,0,0,1,.641.27.887.887,0,0,1,0,1.277A.886.886,0,0,1,18.289,104.156Zm5.313-1.4h5.477V104H21.656v-1.023l4.406-4.555a5.219,5.219,0,0,0,.992-1.3,2.6,2.6,0,0,0,.273-1.133,1.9,1.9,0,0,0-.555-1.457,2.264,2.264,0,0,0-2.941.047,2.437,2.437,0,0,0-.559,1.77v.813l-1.352-.125v-.68a3.477,3.477,0,0,1,.93-2.613,3.415,3.415,0,0,1,2.484-.9,3.443,3.443,0,0,1,2.387.836,2.907,2.907,0,0,1,.934,2.281,3.459,3.459,0,0,1-.371,1.59,6.835,6.835,0,0,1-1.191,1.582Zm10.531-5.836a4.262,4.262,0,0,1,3,.926,3.358,3.358,0,0,1,.992,2.582,3.651,3.651,0,0,1-1.02,2.676,3.578,3.578,0,0,1-2.668,1.035,4.239,4.239,0,0,1-1.379-.223,3.724,3.724,0,0,1-1.164-.641,2.931,2.931,0,0,1-.812-1.082,3.558,3.558,0,0,1-.3-1.484,5.018,5.018,0,0,1,.039-.562l1.383-.117a5.5,5.5,0,0,0-.062.617,2.483,2.483,0,0,0,.2,1.023,1.749,1.749,0,0,0,.535.7,2.434,2.434,0,0,0,.723.379,2.638,2.638,0,0,0,.816.125,2.256,2.256,0,0,0,1.707-.672,2.391,2.391,0,0,0,.645-1.727,2.275,2.275,0,0,0-.668-1.734,2.994,2.994,0,0,0-2.113-.633H31.2l.68-5.094h5.766v1.258H33.023l-.359,2.648Zm13.477,7.219a3.7,3.7,0,0,1-2.75-1.1,4.375,4.375,0,0,1,0-5.766,4,4,0,0,1,4.977-.43,3.391,3.391,0,0,1,1.293,1.867l-1.266.2a2.337,2.337,0,0,0-.867-1.2A2.361,2.361,0,0,0,47.6,97.3a2.27,2.27,0,0,0-1.777.789,3.409,3.409,0,0,0,0,4.137,2.275,2.275,0,0,0,1.777.785,2.361,2.361,0,0,0,1.391-.422,2.337,2.337,0,0,0,.867-1.2l1.266.211a3.4,3.4,0,0,1-1.3,1.863A3.72,3.72,0,0,1,47.609,104.141Zm13.359-7.969a2.476,2.476,0,0,1,1.789.652,2.42,2.42,0,0,1,.68,1.832V104H62.086V99.008a1.735,1.735,0,0,0-.422-1.266,1.436,1.436,0,0,0-1.07-.43,1.517,1.517,0,0,0-1.172.484,2.083,2.083,0,0,0-.445,1.453V104H57.6V99.063a1.815,1.815,0,0,0-.426-1.309,1.448,1.448,0,0,0-1.09-.441,1.5,1.5,0,0,0-1.168.5,2.155,2.155,0,0,0-.449,1.488V104H53.117V96.32h1.352v.992a2.333,2.333,0,0,1,.879-.844,2.506,2.506,0,0,1,1.223-.3,2.609,2.609,0,0,1,1.313.324,2.018,2.018,0,0,1,.852.934,2.39,2.39,0,0,1,.922-.934A2.637,2.637,0,0,1,60.969,96.172ZM23.445,137h1.266v11H23.375v-9.523l-2.641,2.289V139.32Zm13.141,11.141a3.7,3.7,0,0,1-2.75-1.1,4.375,4.375,0,0,1,0-5.766,4,4,0,0,1,4.977-.43,3.391,3.391,0,0,1,1.293,1.867l-1.266.2a2.337,2.337,0,0,0-.867-1.2,2.361,2.361,0,0,0-1.391-.422,2.27,2.27,0,0,0-1.777.789,3.409,3.409,0,0,0,0,4.137,2.275,2.275,0,0,0,1.777.785,2.361,2.361,0,0,0,1.391-.422,2.337,2.337,0,0,0,.867-1.2l1.266.211a3.4,3.4,0,0,1-1.3,1.863A3.72,3.72,0,0,1,36.586,148.141Zm13.359-7.969a2.476,2.476,0,0,1,1.789.652,2.42,2.42,0,0,1,.68,1.832V148H51.063v-4.992a1.735,1.735,0,0,0-.422-1.266,1.436,1.436,0,0,0-1.07-.43,1.517,1.517,0,0,0-1.172.484,2.083,2.083,0,0,0-.445,1.453V148H46.578v-4.937a1.815,1.815,0,0,0-.426-1.309,1.448,1.448,0,0,0-1.09-.441,1.5,1.5,0,0,0-1.168.5,2.155,2.155,0,0,0-.449,1.488V148H42.094v-7.68h1.352v.992a2.333,2.333,0,0,1,.879-.844,2.506,2.506,0,0,1,1.223-.3,2.609,2.609,0,0,1,1.313.324,2.018,2.018,0,0,1,.852.934,2.39,2.39,0,0,1,.922-.934A2.637,2.637,0,0,1,49.945,140.172ZM23.445,181h1.266v11H23.375v-9.523l-2.641,2.289V183.32Zm13.141,11.141a3.7,3.7,0,0,1-2.75-1.1,4.375,4.375,0,0,1,0-5.766,4,4,0,0,1,4.977-.43,3.391,3.391,0,0,1,1.293,1.867l-1.266.2a2.337,2.337,0,0,0-.867-1.2,2.361,2.361,0,0,0-1.391-.422,2.27,2.27,0,0,0-1.777.789,3.409,3.409,0,0,0,0,4.137,2.275,2.275,0,0,0,1.777.785,2.361,2.361,0,0,0,1.391-.422,2.337,2.337,0,0,0,.867-1.2l1.266.211a3.4,3.4,0,0,1-1.3,1.863A3.72,3.72,0,0,1,36.586,192.141Zm13.359-7.969a2.476,2.476,0,0,1,1.789.652,2.42,2.42,0,0,1,.68,1.832V192H51.063v-4.992a1.735,1.735,0,0,0-.422-1.266,1.436,1.436,0,0,0-1.07-.43,1.517,1.517,0,0,0-1.172.484,2.083,2.083,0,0,0-.445,1.453V192H46.578v-4.937a1.815,1.815,0,0,0-.426-1.309,1.448,1.448,0,0,0-1.09-.441,1.5,1.5,0,0,0-1.168.5,2.155,2.155,0,0,0-.449,1.488V192H42.094v-7.68h1.352v.992a2.333,2.333,0,0,1,.879-.844,2.506,2.506,0,0,1,1.223-.3,2.609,2.609,0,0,1,1.313.324,2.018,2.018,0,0,1,.852.934,2.39,2.39,0,0,1,.922-.934A2.637,2.637,0,0,1,49.945,184.172ZM23.445,225h1.266v11H23.375v-9.523l-2.641,2.289V227.32Zm13.141,11.141a3.7,3.7,0,0,1-2.75-1.1,4.375,4.375,0,0,1,0-5.766,4,4,0,0,1,4.977-.43,3.391,3.391,0,0,1,1.293,1.867l-1.266.2a2.337,2.337,0,0,0-.867-1.2,2.361,2.361,0,0,0-1.391-.422,2.27,2.27,0,0,0-1.777.789,3.409,3.409,0,0,0,0,4.137,2.275,2.275,0,0,0,1.777.785,2.361,2.361,0,0,0,1.391-.422,2.337,2.337,0,0,0,.867-1.2l1.266.211a3.4,3.4,0,0,1-1.3,1.863A3.72,3.72,0,0,1,36.586,236.141Zm13.359-7.969a2.476,2.476,0,0,1,1.789.652,2.42,2.42,0,0,1,.68,1.832V236H51.063v-4.992a1.735,1.735,0,0,0-.422-1.266,1.436,1.436,0,0,0-1.07-.43,1.517,1.517,0,0,0-1.172.484,2.083,2.083,0,0,0-.445,1.453V236H46.578v-4.937a1.815,1.815,0,0,0-.426-1.309,1.448,1.448,0,0,0-1.09-.441,1.5,1.5,0,0,0-1.168.5,2.155,2.155,0,0,0-.449,1.488V236H42.094v-7.68h1.352v.992a2.333,2.333,0,0,1,.879-.844,2.506,2.506,0,0,1,1.223-.3,2.609,2.609,0,0,1,1.313.324,2.018,2.018,0,0,1,.852.934,2.39,2.39,0,0,1,.922-.934A2.637,2.637,0,0,1,49.945,228.172Z" transform="translate(-560.5 6352.149)" fill="#00223d"/>
    <path id="Trazado_25499" data-name="Trazado 25499" d="M16.848,16.148a3.064,3.064,0,0,1-2.711-1.437,7.665,7.665,0,0,1-.953-4.219,7.7,7.7,0,0,1,.941-4.211,3.062,3.062,0,0,1,2.723-1.43,3.055,3.055,0,0,1,2.711,1.434,7.677,7.677,0,0,1,.945,4.207,7.643,7.643,0,0,1-.957,4.215A3.058,3.058,0,0,1,16.848,16.148Zm0-1.25a1.861,1.861,0,0,0,1.711-1.1,7.182,7.182,0,0,0,.594-3.3,6.979,6.979,0,0,0-.605-3.3,1.88,1.88,0,0,0-3.4,0,7.014,7.014,0,0,0-.6,3.3,7.219,7.219,0,0,0,.59,3.309A1.859,1.859,0,0,0,16.848,14.9Zm5.945,1.258a.877.877,0,0,1-.637-.266.908.908,0,0,1,.637-1.547.884.884,0,0,1,.641.27.887.887,0,0,1,0,1.277A.886.886,0,0,1,22.793,16.156Zm6.836-7.234a4.263,4.263,0,0,1,3,.926,3.358,3.358,0,0,1,.992,2.582,3.651,3.651,0,0,1-1.02,2.676,3.578,3.578,0,0,1-2.668,1.035,4.239,4.239,0,0,1-1.379-.223,3.724,3.724,0,0,1-1.164-.641,2.931,2.931,0,0,1-.812-1.082,3.558,3.558,0,0,1-.3-1.484,5.018,5.018,0,0,1,.039-.562l1.383-.117a5.5,5.5,0,0,0-.062.617,2.483,2.483,0,0,0,.2,1.023,1.749,1.749,0,0,0,.535.7,2.434,2.434,0,0,0,.723.379,2.638,2.638,0,0,0,.816.125,2.256,2.256,0,0,0,1.707-.672,2.391,2.391,0,0,0,.645-1.727,2.275,2.275,0,0,0-.668-1.734,2.994,2.994,0,0,0-2.113-.633H26.7l.68-5.094h5.766V6.273H28.52L28.16,8.922Zm13.477,7.219a3.7,3.7,0,0,1-2.75-1.1,3.929,3.929,0,0,1-1.086-2.883,3.937,3.937,0,0,1,1.082-2.883,4,4,0,0,1,4.977-.43,3.391,3.391,0,0,1,1.293,1.867l-1.266.2a2.337,2.337,0,0,0-.867-1.2A2.361,2.361,0,0,0,43.1,9.3a2.27,2.27,0,0,0-1.777.789,3.006,3.006,0,0,0-.7,2.07,2.991,2.991,0,0,0,.7,2.066,2.275,2.275,0,0,0,1.777.785,2.361,2.361,0,0,0,1.391-.422,2.337,2.337,0,0,0,.867-1.2l1.266.211a3.4,3.4,0,0,1-1.3,1.863A3.72,3.72,0,0,1,43.105,16.141ZM56.465,8.172a2.476,2.476,0,0,1,1.789.652,2.42,2.42,0,0,1,.68,1.832V16H57.582V11.008a1.735,1.735,0,0,0-.422-1.266,1.436,1.436,0,0,0-1.07-.43,1.517,1.517,0,0,0-1.172.484,2.083,2.083,0,0,0-.445,1.453V16H53.1V11.063a1.815,1.815,0,0,0-.426-1.309,1.448,1.448,0,0,0-1.09-.441,1.5,1.5,0,0,0-1.168.5,2.155,2.155,0,0,0-.449,1.488V16H48.613V8.32h1.352v.992a2.333,2.333,0,0,1,.879-.844,2.506,2.506,0,0,1,1.223-.3,2.609,2.609,0,0,1,1.313.324,2.018,2.018,0,0,1,.852.934,2.39,2.39,0,0,1,.922-.934A2.637,2.637,0,0,1,56.465,8.172ZM12.344,60.148a3.064,3.064,0,0,1-2.711-1.437,7.665,7.665,0,0,1-.953-4.219,7.7,7.7,0,0,1,.941-4.211,3.062,3.062,0,0,1,2.723-1.43,3.055,3.055,0,0,1,2.711,1.434A7.677,7.677,0,0,1,16,54.492a7.643,7.643,0,0,1-.957,4.215A3.058,3.058,0,0,1,12.344,60.148Zm0-1.25a1.861,1.861,0,0,0,1.711-1.1,7.182,7.182,0,0,0,.594-3.3,6.979,6.979,0,0,0-.605-3.3,1.88,1.88,0,0,0-3.4,0,7.014,7.014,0,0,0-.6,3.3,7.219,7.219,0,0,0,.59,3.309A1.859,1.859,0,0,0,12.344,58.9Zm5.945,1.258a.877.877,0,0,1-.637-.266.908.908,0,0,1,.637-1.547.884.884,0,0,1,.641.27.887.887,0,0,1,0,1.277A.886.886,0,0,1,18.289,60.156Zm5.313-1.4h5.477V60H21.656V58.977l4.406-4.555a5.219,5.219,0,0,0,.992-1.3,2.6,2.6,0,0,0,.273-1.133,1.9,1.9,0,0,0-.555-1.457,2.264,2.264,0,0,0-2.941.047,2.437,2.437,0,0,0-.559,1.77v.813l-1.352-.125v-.68a3.477,3.477,0,0,1,.93-2.613,3.415,3.415,0,0,1,2.484-.9,3.443,3.443,0,0,1,2.387.836,2.907,2.907,0,0,1,.934,2.281,3.459,3.459,0,0,1-.371,1.59,6.835,6.835,0,0,1-1.191,1.582Zm10.531-5.836a4.262,4.262,0,0,1,3,.926,3.358,3.358,0,0,1,.992,2.582,3.651,3.651,0,0,1-1.02,2.676,3.578,3.578,0,0,1-2.668,1.035,4.239,4.239,0,0,1-1.379-.223,3.724,3.724,0,0,1-1.164-.641,2.931,2.931,0,0,1-.812-1.082,3.558,3.558,0,0,1-.3-1.484,5.018,5.018,0,0,1,.039-.562l1.383-.117a5.5,5.5,0,0,0-.062.617,2.483,2.483,0,0,0,.2,1.023,1.749,1.749,0,0,0,.535.7,2.434,2.434,0,0,0,.723.379,2.638,2.638,0,0,0,.816.125,2.256,2.256,0,0,0,1.707-.672,2.391,2.391,0,0,0,.645-1.727,2.275,2.275,0,0,0-.668-1.734,2.994,2.994,0,0,0-2.113-.633H31.2l.68-5.094h5.766v1.258H33.023l-.359,2.648Zm13.477,7.219a3.7,3.7,0,0,1-2.75-1.1,4.375,4.375,0,0,1,0-5.766,4,4,0,0,1,4.977-.43,3.391,3.391,0,0,1,1.293,1.867l-1.266.2a2.337,2.337,0,0,0-.867-1.2A2.361,2.361,0,0,0,47.6,53.3a2.27,2.27,0,0,0-1.777.789,3.409,3.409,0,0,0,0,4.137,2.275,2.275,0,0,0,1.777.785,2.361,2.361,0,0,0,1.391-.422,2.337,2.337,0,0,0,.867-1.2l1.266.211a3.4,3.4,0,0,1-1.3,1.863A3.72,3.72,0,0,1,47.609,60.141Zm13.359-7.969a2.476,2.476,0,0,1,1.789.652,2.42,2.42,0,0,1,.68,1.832V60H62.086V55.008a1.735,1.735,0,0,0-.422-1.266,1.436,1.436,0,0,0-1.07-.43,1.517,1.517,0,0,0-1.172.484,2.083,2.083,0,0,0-.445,1.453V60H57.6V55.063a1.815,1.815,0,0,0-.426-1.309,1.448,1.448,0,0,0-1.09-.441,1.5,1.5,0,0,0-1.168.5,2.155,2.155,0,0,0-.449,1.488V60H53.117V52.32h1.352v.992a2.333,2.333,0,0,1,.879-.844,2.506,2.506,0,0,1,1.223-.3,2.609,2.609,0,0,1,1.313.324,2.018,2.018,0,0,1,.852.934,2.39,2.39,0,0,1,.922-.934A2.637,2.637,0,0,1,60.969,52.172ZM12.344,104.148a3.064,3.064,0,0,1-2.711-1.437,9.851,9.851,0,0,1-.012-8.43,3.062,3.062,0,0,1,2.723-1.43,3.055,3.055,0,0,1,2.711,1.434,9.8,9.8,0,0,1-.012,8.422A3.058,3.058,0,0,1,12.344,104.148Zm0-1.25a1.861,1.861,0,0,0,1.711-1.1,7.182,7.182,0,0,0,.594-3.3,6.979,6.979,0,0,0-.605-3.3,1.88,1.88,0,0,0-3.4,0,7.014,7.014,0,0,0-.6,3.3,7.219,7.219,0,0,0,.59,3.309A1.859,1.859,0,0,0,12.344,102.9Zm5.945,1.258a.877.877,0,0,1-.637-.266.908.908,0,0,1,.637-1.547.884.884,0,0,1,.641.27.887.887,0,0,1,0,1.277A.886.886,0,0,1,18.289,104.156Zm5.313-1.4h5.477V104H21.656v-1.023l4.406-4.555a5.219,5.219,0,0,0,.992-1.3,2.6,2.6,0,0,0,.273-1.133,1.9,1.9,0,0,0-.555-1.457,2.264,2.264,0,0,0-2.941.047,2.437,2.437,0,0,0-.559,1.77v.813l-1.352-.125v-.68a3.477,3.477,0,0,1,.93-2.613,3.415,3.415,0,0,1,2.484-.9,3.443,3.443,0,0,1,2.387.836,2.907,2.907,0,0,1,.934,2.281,3.459,3.459,0,0,1-.371,1.59,6.835,6.835,0,0,1-1.191,1.582Zm10.531-5.836a4.262,4.262,0,0,1,3,.926,3.358,3.358,0,0,1,.992,2.582,3.651,3.651,0,0,1-1.02,2.676,3.578,3.578,0,0,1-2.668,1.035,4.239,4.239,0,0,1-1.379-.223,3.724,3.724,0,0,1-1.164-.641,2.931,2.931,0,0,1-.812-1.082,3.558,3.558,0,0,1-.3-1.484,5.018,5.018,0,0,1,.039-.562l1.383-.117a5.5,5.5,0,0,0-.062.617,2.483,2.483,0,0,0,.2,1.023,1.749,1.749,0,0,0,.535.7,2.434,2.434,0,0,0,.723.379,2.638,2.638,0,0,0,.816.125,2.256,2.256,0,0,0,1.707-.672,2.391,2.391,0,0,0,.645-1.727,2.275,2.275,0,0,0-.668-1.734,2.994,2.994,0,0,0-2.113-.633H31.2l.68-5.094h5.766v1.258H33.023l-.359,2.648Zm13.477,7.219a3.7,3.7,0,0,1-2.75-1.1,4.375,4.375,0,0,1,0-5.766,4,4,0,0,1,4.977-.43,3.391,3.391,0,0,1,1.293,1.867l-1.266.2a2.337,2.337,0,0,0-.867-1.2A2.361,2.361,0,0,0,47.6,97.3a2.27,2.27,0,0,0-1.777.789,3.409,3.409,0,0,0,0,4.137,2.275,2.275,0,0,0,1.777.785,2.361,2.361,0,0,0,1.391-.422,2.337,2.337,0,0,0,.867-1.2l1.266.211a3.4,3.4,0,0,1-1.3,1.863A3.72,3.72,0,0,1,47.609,104.141Zm13.359-7.969a2.476,2.476,0,0,1,1.789.652,2.42,2.42,0,0,1,.68,1.832V104H62.086V99.008a1.735,1.735,0,0,0-.422-1.266,1.436,1.436,0,0,0-1.07-.43,1.517,1.517,0,0,0-1.172.484,2.083,2.083,0,0,0-.445,1.453V104H57.6V99.063a1.815,1.815,0,0,0-.426-1.309,1.448,1.448,0,0,0-1.09-.441,1.5,1.5,0,0,0-1.168.5,2.155,2.155,0,0,0-.449,1.488V104H53.117V96.32h1.352v.992a2.333,2.333,0,0,1,.879-.844,2.506,2.506,0,0,1,1.223-.3,2.609,2.609,0,0,1,1.313.324,2.018,2.018,0,0,1,.852.934,2.39,2.39,0,0,1,.922-.934A2.637,2.637,0,0,1,60.969,96.172ZM21.586,146.758h5.477V148H19.641v-1.023l4.406-4.555a5.219,5.219,0,0,0,.992-1.3,2.6,2.6,0,0,0,.273-1.133,1.9,1.9,0,0,0-.555-1.457,2.264,2.264,0,0,0-2.941.047,2.437,2.437,0,0,0-.559,1.77v.813l-1.352-.125v-.68a3.477,3.477,0,0,1,.93-2.613,3.415,3.415,0,0,1,2.484-.9,3.443,3.443,0,0,1,2.387.836,2.907,2.907,0,0,1,.934,2.281,3.459,3.459,0,0,1-.371,1.59,6.835,6.835,0,0,1-1.191,1.582Zm15,1.383a3.7,3.7,0,0,1-2.75-1.1,4.375,4.375,0,0,1,0-5.766,4,4,0,0,1,4.977-.43,3.391,3.391,0,0,1,1.293,1.867l-1.266.2a2.337,2.337,0,0,0-.867-1.2,2.361,2.361,0,0,0-1.391-.422,2.27,2.27,0,0,0-1.777.789,3.409,3.409,0,0,0,0,4.137,2.275,2.275,0,0,0,1.777.785,2.361,2.361,0,0,0,1.391-.422,2.337,2.337,0,0,0,.867-1.2l1.266.211a3.4,3.4,0,0,1-1.3,1.863A3.72,3.72,0,0,1,36.586,148.141Zm13.359-7.969a2.476,2.476,0,0,1,1.789.652,2.42,2.42,0,0,1,.68,1.832V148H51.063v-4.992a1.735,1.735,0,0,0-.422-1.266,1.436,1.436,0,0,0-1.07-.43,1.517,1.517,0,0,0-1.172.484,2.083,2.083,0,0,0-.445,1.453V148H46.578v-4.937a1.815,1.815,0,0,0-.426-1.309,1.448,1.448,0,0,0-1.09-.441,1.5,1.5,0,0,0-1.168.5,2.155,2.155,0,0,0-.449,1.488V148H42.094v-7.68h1.352v.992a2.333,2.333,0,0,1,.879-.844,2.506,2.506,0,0,1,1.223-.3,2.609,2.609,0,0,1,1.313.324,2.018,2.018,0,0,1,.852.934,2.39,2.39,0,0,1,.922-.934A2.637,2.637,0,0,1,49.945,140.172ZM21.586,190.758h5.477V192H19.641v-1.023l4.406-4.555a5.219,5.219,0,0,0,.992-1.3,2.6,2.6,0,0,0,.273-1.133,1.9,1.9,0,0,0-.555-1.457,2.264,2.264,0,0,0-2.941.047,2.437,2.437,0,0,0-.559,1.77v.813l-1.352-.125v-.68a3.477,3.477,0,0,1,.93-2.613,3.415,3.415,0,0,1,2.484-.9,3.443,3.443,0,0,1,2.387.836,2.907,2.907,0,0,1,.934,2.281,3.459,3.459,0,0,1-.371,1.59,6.835,6.835,0,0,1-1.191,1.582Zm15,1.383a3.7,3.7,0,0,1-2.75-1.1,4.375,4.375,0,0,1,0-5.766,4,4,0,0,1,4.977-.43,3.391,3.391,0,0,1,1.293,1.867l-1.266.2a2.337,2.337,0,0,0-.867-1.2,2.361,2.361,0,0,0-1.391-.422,2.27,2.27,0,0,0-1.777.789,3.409,3.409,0,0,0,0,4.137,2.275,2.275,0,0,0,1.777.785,2.361,2.361,0,0,0,1.391-.422,2.337,2.337,0,0,0,.867-1.2l1.266.211a3.4,3.4,0,0,1-1.3,1.863A3.72,3.72,0,0,1,36.586,192.141Zm13.359-7.969a2.476,2.476,0,0,1,1.789.652,2.42,2.42,0,0,1,.68,1.832V192H51.063v-4.992a1.735,1.735,0,0,0-.422-1.266,1.436,1.436,0,0,0-1.07-.43,1.517,1.517,0,0,0-1.172.484,2.083,2.083,0,0,0-.445,1.453V192H46.578v-4.937a1.815,1.815,0,0,0-.426-1.309,1.448,1.448,0,0,0-1.09-.441,1.5,1.5,0,0,0-1.168.5,2.155,2.155,0,0,0-.449,1.488V192H42.094v-7.68h1.352v.992a2.333,2.333,0,0,1,.879-.844,2.506,2.506,0,0,1,1.223-.3,2.609,2.609,0,0,1,1.313.324,2.018,2.018,0,0,1,.852.934,2.39,2.39,0,0,1,.922-.934A2.637,2.637,0,0,1,49.945,184.172ZM21.586,234.758h5.477V236H19.641v-1.023l4.406-4.555a5.219,5.219,0,0,0,.992-1.3,2.6,2.6,0,0,0,.273-1.133,1.9,1.9,0,0,0-.555-1.457,2.264,2.264,0,0,0-2.941.047,2.437,2.437,0,0,0-.559,1.77v.813l-1.352-.125v-.68a3.477,3.477,0,0,1,.93-2.613,3.415,3.415,0,0,1,2.484-.9,3.443,3.443,0,0,1,2.387.836,2.907,2.907,0,0,1,.934,2.281,3.459,3.459,0,0,1-.371,1.59,6.835,6.835,0,0,1-1.191,1.582Zm15,1.383a3.7,3.7,0,0,1-2.75-1.1,4.375,4.375,0,0,1,0-5.766,4,4,0,0,1,4.977-.43,3.391,3.391,0,0,1,1.293,1.867l-1.266.2a2.337,2.337,0,0,0-.867-1.2,2.361,2.361,0,0,0-1.391-.422,2.27,2.27,0,0,0-1.777.789,3.409,3.409,0,0,0,0,4.137,2.275,2.275,0,0,0,1.777.785,2.361,2.361,0,0,0,1.391-.422,2.337,2.337,0,0,0,.867-1.2l1.266.211a3.4,3.4,0,0,1-1.3,1.863A3.72,3.72,0,0,1,36.586,236.141Zm13.359-7.969a2.476,2.476,0,0,1,1.789.652,2.42,2.42,0,0,1,.68,1.832V236H51.063v-4.992a1.735,1.735,0,0,0-.422-1.266,1.436,1.436,0,0,0-1.07-.43,1.517,1.517,0,0,0-1.172.484,2.083,2.083,0,0,0-.445,1.453V236H46.578v-4.937a1.815,1.815,0,0,0-.426-1.309,1.448,1.448,0,0,0-1.09-.441,1.5,1.5,0,0,0-1.168.5,2.155,2.155,0,0,0-.449,1.488V236H42.094v-7.68h1.352v.992a2.333,2.333,0,0,1,.879-.844,2.506,2.506,0,0,1,1.223-.3,2.609,2.609,0,0,1,1.313.324,2.018,2.018,0,0,1,.852.934,2.39,2.39,0,0,1,.922-.934A2.637,2.637,0,0,1,49.945,228.172Z" transform="translate(-838 6352.149)" fill="#00223d"/>
    <path id="Trazado_25500" data-name="Trazado 25500" d="M0,0H517V50H0Z" transform="translate(-958 6288.77)" fill="#673ab7"/>
    <path id="Trazado_25501" data-name="Trazado 25501" d="M14.4,16H12.063L11.32,7.492,8.461,16H6.945L4.086,7.492,3.336,16H.992L1.938,4.711H5.281L7.688,11.8l2.438-7.086h3.344Zm9.664-4.133-.023.539H18.086a2.079,2.079,0,0,0,.641,1.469,2.049,2.049,0,0,0,1.414.508,1.974,1.974,0,0,0,1.059-.277,1.7,1.7,0,0,0,.676-.809l2.063.3a3.506,3.506,0,0,1-1.406,1.883,4.181,4.181,0,0,1-2.375.672,4.348,4.348,0,0,1-3.129-1.105,4.034,4.034,0,0,1-1.16-3.066,4.058,4.058,0,0,1,1.164-3.066A4.219,4.219,0,0,1,20.086,7.8,4.032,4.032,0,0,1,22.969,8.82,4.015,4.015,0,0,1,24.063,11.867ZM20.1,9.391a1.778,1.778,0,0,0-1.953,1.547h3.688a1.691,1.691,0,0,0-.555-1.148A1.758,1.758,0,0,0,20.1,9.391ZM31.469,4h2.25V16H31.586l-.055-1.047a2.294,2.294,0,0,1-1.02.91,3.432,3.432,0,0,1-1.5.324,3.906,3.906,0,0,1-1.5-.289,3.613,3.613,0,0,1-2.062-2.141,4.885,4.885,0,0,1-.3-1.758,4.566,4.566,0,0,1,.531-2.238,3.64,3.64,0,0,1,1.4-1.457,3.862,3.862,0,0,1,1.934-.492,3.518,3.518,0,0,1,1.457.293,2.275,2.275,0,0,1,1,.832ZM29.523,14.32a2,2,0,0,0,1.52-.641A2.345,2.345,0,0,0,31.648,12a2.35,2.35,0,0,0-.609-1.684,2,2,0,0,0-1.516-.645A2.024,2.024,0,0,0,28,10.3a2.35,2.35,0,0,0-.605,1.7A2.339,2.339,0,0,0,28,13.688,2.024,2.024,0,0,0,29.523,14.32ZM37.2,6.766a1.263,1.263,0,0,1-.922-.379,1.244,1.244,0,0,1-.383-.918,1.229,1.229,0,0,1,.387-.91A1.267,1.267,0,0,1,37.2,4.18a1.3,1.3,0,0,1,1.289,1.289,1.3,1.3,0,0,1-1.289,1.3ZM36.047,16V7.969h2.266V16ZM46.336,4h2.25V16H46.453L46.4,14.953a2.294,2.294,0,0,1-1.02.91,3.432,3.432,0,0,1-1.5.324,3.906,3.906,0,0,1-1.5-.289,3.613,3.613,0,0,1-2.062-2.141,4.885,4.885,0,0,1-.3-1.758,4.566,4.566,0,0,1,.531-2.238,3.64,3.64,0,0,1,1.4-1.457,3.862,3.862,0,0,1,1.934-.492,3.518,3.518,0,0,1,1.457.293,2.275,2.275,0,0,1,1,.832ZM44.391,14.32a2,2,0,0,0,1.52-.641A2.345,2.345,0,0,0,46.516,12a2.35,2.35,0,0,0-.609-1.684,2,2,0,0,0-1.516-.645,2.024,2.024,0,0,0-1.527.633,2.35,2.35,0,0,0-.605,1.7,2.339,2.339,0,0,0,.605,1.688A2.024,2.024,0,0,0,44.391,14.32Zm13.109-.5a7.513,7.513,0,0,0,.2,1.961V16h-2.1l-.18-.875a2.611,2.611,0,0,1-1.125.773,4.146,4.146,0,0,1-1.453.258,3.821,3.821,0,0,1-.75-.07,2.55,2.55,0,0,1-.676-.238,2.051,2.051,0,0,1-.559-.418,1.833,1.833,0,0,1-.375-.637,2.536,2.536,0,0,1-.141-.871,2.416,2.416,0,0,1,.148-.871,2.042,2.042,0,0,1,.391-.652,2.369,2.369,0,0,1,.633-.477,4.842,4.842,0,0,1,.8-.344,9.521,9.521,0,0,1,.953-.25l1.32-.3a1.456,1.456,0,0,0,.6-.254.506.506,0,0,0,.176-.4.829.829,0,0,0-.395-.773A1.842,1.842,0,0,0,54,9.367a1.377,1.377,0,0,0-1.57,1.227l-1.992-.359A2.7,2.7,0,0,1,51.6,8.4a4.627,4.627,0,0,1,2.523-.59q3.375,0,3.375,2.9Zm-3.961.813a1.81,1.81,0,0,0,1.391-.582,2.453,2.453,0,0,0,.539-1.723l-1.906.539a2.253,2.253,0,0,0-.8.328.674.674,0,0,0-.277.578.748.748,0,0,0,.3.637A1.229,1.229,0,0,0,53.539,14.633Zm8.977,1.523a4.488,4.488,0,0,1-2.344-.562,2.378,2.378,0,0,1-1.148-1.672l1.883-.531a1.513,1.513,0,0,0,1.609,1.2,1.662,1.662,0,0,0,.82-.184.639.639,0,0,0,.32-.621.657.657,0,0,0-.133-.414,1.052,1.052,0,0,0-.41-.3,5.11,5.11,0,0,0-.547-.211q-.27-.086-.715-.207t-.742-.23a4.972,4.972,0,0,1-.707-.3,3.016,3.016,0,0,1-.586-.414,1.669,1.669,0,0,1-.437-.629,2.269,2.269,0,0,1-.152-.859,2.052,2.052,0,0,1,.871-1.8,3.892,3.892,0,0,1,2.277-.609,3.99,3.99,0,0,1,2.1.516,2.334,2.334,0,0,1,1.078,1.609l-1.742.391a1.365,1.365,0,0,0-1.43-1.016,1.566,1.566,0,0,0-.789.18.577.577,0,0,0-.312.531.609.609,0,0,0,.047.242.479.479,0,0,0,.164.2,2.393,2.393,0,0,0,.227.148,1.709,1.709,0,0,0,.32.129q.211.066.352.1l.41.105.418.109q.43.117.754.234a4.415,4.415,0,0,1,.691.328,2.481,2.481,0,0,1,.605.473,2.108,2.108,0,0,1,.395.664,2.453,2.453,0,0,1,.156.895,2.416,2.416,0,0,1-.27,1.164,2.023,2.023,0,0,1-.738.785,3.593,3.593,0,0,1-1.043.422A5.41,5.41,0,0,1,62.516,16.156Z" transform="translate(-930.871 6303.02)" fill="#fff"/>
    <path id="Trazado_25502" data-name="Trazado 25502" d="M11.008,16V4.711h4.086a6.37,6.37,0,0,1,2.355.406A4.339,4.339,0,0,1,19.137,6.27a5.013,5.013,0,0,1,1,1.777,7.338,7.338,0,0,1,.34,2.3,7.365,7.365,0,0,1-.34,2.313,5.013,5.013,0,0,1-1,1.777,4.339,4.339,0,0,1-1.687,1.152A6.37,6.37,0,0,1,15.094,16Zm2.344-2.07h1.625a2.773,2.773,0,0,0,2.281-.918,4.114,4.114,0,0,0,.75-2.66,4.114,4.114,0,0,0-.75-2.66,2.773,2.773,0,0,0-2.281-.918H13.352ZM23.523,6.766a1.263,1.263,0,0,1-.922-.379,1.244,1.244,0,0,1-.383-.918,1.229,1.229,0,0,1,.387-.91,1.267,1.267,0,0,1,.918-.379,1.3,1.3,0,0,1,1.289,1.289,1.3,1.3,0,0,1-1.289,1.3ZM22.375,16V7.969h2.266V16ZM31.5,5.8h-.047q-.219,0-.332,0t-.32.027a1.3,1.3,0,0,0-.324.07,1.652,1.652,0,0,0-.27.145.719.719,0,0,0-.234.234,1.416,1.416,0,0,0-.141.348,1.815,1.815,0,0,0-.059.484v.859H31.5V9.7H29.773V16H27.531V9.7h-1.57V7.969h1.57V7.1a4.7,4.7,0,0,1,.1-1.023,3.115,3.115,0,0,1,.273-.777,1.82,1.82,0,0,1,.457-.559,2.7,2.7,0,0,1,.594-.375,3.393,3.393,0,0,1,.738-.227,6.476,6.476,0,0,1,.848-.113Q30.961,4,31.5,4Zm2.68,10.359A1.294,1.294,0,0,1,32.9,14.875a1.254,1.254,0,0,1,.379-.914,1.226,1.226,0,0,1,.9-.383,1.307,1.307,0,0,1,1.3,1.3,1.226,1.226,0,0,1-.383.9A1.254,1.254,0,0,1,34.18,16.156Zm6.8-.156,3.3-4.023-3.3-4.008H43.8L45.641,10.5,47.5,7.969h2.789l-3.3,4.016L50.289,16H47.5l-1.844-2.516L43.8,16Zm17.688,0a2.426,2.426,0,0,1-1.812-.652,2.537,2.537,0,0,1-.641-1.855V9.7H54.641V7.969h.508a1.325,1.325,0,0,0,1-.336,1.73,1.73,0,0,0,.32-1.2V5.375H58.5V7.969h1.656V9.7H58.5V13.25q0,1.039.93,1.039h.727V16Zm9.781-2.18a7.513,7.513,0,0,0,.2,1.961V16h-2.1l-.18-.875a2.611,2.611,0,0,1-1.125.773,4.146,4.146,0,0,1-1.453.258,3.821,3.821,0,0,1-.75-.07,2.55,2.55,0,0,1-.676-.238,2.051,2.051,0,0,1-.559-.418,1.833,1.833,0,0,1-.375-.637,2.536,2.536,0,0,1-.141-.871,2.416,2.416,0,0,1,.148-.871,2.042,2.042,0,0,1,.391-.652,2.369,2.369,0,0,1,.633-.477,4.842,4.842,0,0,1,.8-.344,9.521,9.521,0,0,1,.953-.25l1.32-.3a1.456,1.456,0,0,0,.6-.254.506.506,0,0,0,.176-.4A.829.829,0,0,0,65.91,9.6a1.842,1.842,0,0,0-.957-.234,1.377,1.377,0,0,0-1.57,1.227l-1.992-.359A2.7,2.7,0,0,1,62.555,8.4a4.627,4.627,0,0,1,2.523-.59q3.375,0,3.375,2.9Zm-3.961.813a1.81,1.81,0,0,0,1.391-.582,2.453,2.453,0,0,0,.539-1.723l-1.906.539a2.253,2.253,0,0,0-.8.328.674.674,0,0,0-.277.578.748.748,0,0,0,.3.637A1.229,1.229,0,0,0,64.492,14.633ZM70.641,16V4h2.273V16Zm4.6,0V4h2.273V16ZM86.43,13.82a7.513,7.513,0,0,0,.2,1.961V16h-2.1l-.18-.875a2.611,2.611,0,0,1-1.125.773,4.146,4.146,0,0,1-1.453.258,3.821,3.821,0,0,1-.75-.07,2.55,2.55,0,0,1-.676-.238,2.051,2.051,0,0,1-.559-.418,1.833,1.833,0,0,1-.375-.637,2.536,2.536,0,0,1-.141-.871,2.416,2.416,0,0,1,.148-.871A2.042,2.042,0,0,1,79.8,12.4a2.369,2.369,0,0,1,.633-.477,4.842,4.842,0,0,1,.8-.344,9.521,9.521,0,0,1,.953-.25l1.32-.3a1.456,1.456,0,0,0,.6-.254.506.506,0,0,0,.176-.4.829.829,0,0,0-.395-.773,1.842,1.842,0,0,0-.957-.234,1.377,1.377,0,0,0-1.57,1.227l-1.992-.359A2.7,2.7,0,0,1,80.531,8.4a4.627,4.627,0,0,1,2.523-.59q3.375,0,3.375,2.9Zm-3.961.813a1.81,1.81,0,0,0,1.391-.582,2.453,2.453,0,0,0,.539-1.723l-1.906.539a2.253,2.253,0,0,0-.8.328.674.674,0,0,0-.277.578.748.748,0,0,0,.3.637A1.229,1.229,0,0,0,82.469,14.633Z" transform="translate(-850 6303.27)" fill="#fff"/>
    <path id="Trazado_25503" data-name="Trazado 25503" d="M9.34,4.711a3.4,3.4,0,0,1,2.6,1.051,3.655,3.655,0,0,1,.984,2.6,3.565,3.565,0,0,1-.977,2.582A3.459,3.459,0,0,1,9.34,11.953H6.988V16H4.645V4.711ZM8.949,9.992a1.722,1.722,0,0,0,1.289-.441,1.679,1.679,0,0,0,.43-1.223,1.665,1.665,0,0,0-.434-1.207,1.707,1.707,0,0,0-1.285-.449H6.988v3.32Zm7.8-.75a2.607,2.607,0,0,1,1.055-.965,3.218,3.218,0,0,1,1.57-.4V9.883a3.043,3.043,0,0,0-1.922.484,2.115,2.115,0,0,0-.594,1.719V16H14.6V7.969h2.156Zm7.641,6.914a5.05,5.05,0,0,1-2.273-.492,3.679,3.679,0,0,1-1.559-1.445A4.307,4.307,0,0,1,20,11.977,3.929,3.929,0,0,1,21.215,8.93a4.521,4.521,0,0,1,3.18-1.117A4.532,4.532,0,0,1,27.582,8.93,3.929,3.929,0,0,1,28.8,11.977a3.951,3.951,0,0,1-1.219,3.059A4.523,4.523,0,0,1,24.395,16.156Zm-.023-1.789a2.061,2.061,0,0,0,1.59-.656,2.457,2.457,0,0,0,.605-1.734,2.457,2.457,0,0,0-.605-1.734,2.061,2.061,0,0,0-1.59-.656,1.986,1.986,0,0,0-1.543.66,2.479,2.479,0,0,0-.6,1.73,2.479,2.479,0,0,0,.6,1.73A1.986,1.986,0,0,0,24.371,14.367ZM35.184,7.813a3.906,3.906,0,0,1,1.5.289,3.754,3.754,0,0,1,1.23.813,3.676,3.676,0,0,1,.832,1.324,5.246,5.246,0,0,1,0,3.523,3.676,3.676,0,0,1-.832,1.324,3.754,3.754,0,0,1-1.23.813,3.906,3.906,0,0,1-1.5.289,3.485,3.485,0,0,1-1.453-.3,2.277,2.277,0,0,1-1.008-.844v4.859h-2.25V7.969h2.133l.063,1.078a2.2,2.2,0,0,1,1-.91A3.45,3.45,0,0,1,35.184,7.813Zm-.508,6.508a2.021,2.021,0,0,0,1.52-.629A2.336,2.336,0,0,0,36.8,12a2.336,2.336,0,0,0-.605-1.691,2.15,2.15,0,0,0-3.051.012A2.336,2.336,0,0,0,32.535,12a2.336,2.336,0,0,0,.609,1.68A2.025,2.025,0,0,0,34.676,14.32Zm7.336,1.836a1.294,1.294,0,0,1-1.281-1.281,1.254,1.254,0,0,1,.379-.914,1.226,1.226,0,0,1,.9-.383,1.307,1.307,0,0,1,1.3,1.3,1.226,1.226,0,0,1-.383.9A1.254,1.254,0,0,1,42.012,16.156Zm6.8-.156,3.3-4.023-3.3-4.008h2.813L53.473,10.5l1.859-2.531h2.789l-3.3,4.016L58.121,16H55.332l-1.844-2.516L51.637,16ZM73.027,7.813a3.069,3.069,0,0,1,2.07.652,2.334,2.334,0,0,1,.758,1.871V16h-2.25V10.977a1.341,1.341,0,0,0-.359-1.016,1.259,1.259,0,0,0-.906-.344,1.452,1.452,0,0,0-1.094.438,1.987,1.987,0,0,0-.422,1.414V16H68.551V11a1.377,1.377,0,0,0-.359-1.035,1.281,1.281,0,0,0-.93-.348,1.405,1.405,0,0,0-1.086.461,2.2,2.2,0,0,0-.422,1.508V16H63.512V7.969h2.242v.945a2.731,2.731,0,0,1,2.328-1.1,3.434,3.434,0,0,1,1.512.309,2.058,2.058,0,0,1,.949.895A2.84,2.84,0,0,1,73.027,7.813ZM85.6,11.867l-.023.539H79.621a2.079,2.079,0,0,0,.641,1.469,2.049,2.049,0,0,0,1.414.508,1.974,1.974,0,0,0,1.059-.277,1.7,1.7,0,0,0,.676-.809l2.063.3a3.506,3.506,0,0,1-1.406,1.883,4.181,4.181,0,0,1-2.375.672,4.348,4.348,0,0,1-3.129-1.105,4.034,4.034,0,0,1-1.16-3.066,4.058,4.058,0,0,1,1.164-3.066A4.219,4.219,0,0,1,81.621,7.8,4.032,4.032,0,0,1,84.5,8.82,4.015,4.015,0,0,1,85.6,11.867ZM81.637,9.391a1.778,1.778,0,0,0-1.953,1.547h3.688a1.691,1.691,0,0,0-.555-1.148A1.758,1.758,0,0,0,81.637,9.391ZM93,4h2.25V16H93.121l-.055-1.047a2.294,2.294,0,0,1-1.02.91,3.432,3.432,0,0,1-1.5.324,3.906,3.906,0,0,1-1.5-.289,3.613,3.613,0,0,1-2.062-2.141,4.885,4.885,0,0,1-.3-1.758,4.566,4.566,0,0,1,.531-2.238,3.64,3.64,0,0,1,1.4-1.457,3.862,3.862,0,0,1,1.934-.492A3.518,3.518,0,0,1,92,8.105a2.275,2.275,0,0,1,1,.832ZM91.059,14.32a2,2,0,0,0,1.52-.641A2.345,2.345,0,0,0,93.184,12a2.35,2.35,0,0,0-.609-1.684,2,2,0,0,0-1.516-.645,2.024,2.024,0,0,0-1.527.633,2.35,2.35,0,0,0-.605,1.7,2.339,2.339,0,0,0,.605,1.688A2.024,2.024,0,0,0,91.059,14.32ZM98.73,6.766a1.263,1.263,0,0,1-.922-.379,1.244,1.244,0,0,1-.383-.918,1.229,1.229,0,0,1,.387-.91,1.267,1.267,0,0,1,.918-.379,1.3,1.3,0,0,1,1.289,1.289,1.3,1.3,0,0,1-1.289,1.3ZM97.582,16V7.969h2.266V16ZM107.871,4h2.25V16h-2.133l-.055-1.047a2.294,2.294,0,0,1-1.02.91,3.432,3.432,0,0,1-1.5.324,3.906,3.906,0,0,1-1.5-.289,3.613,3.613,0,0,1-2.062-2.141,4.885,4.885,0,0,1-.3-1.758,4.566,4.566,0,0,1,.531-2.238,3.64,3.64,0,0,1,1.4-1.457,3.862,3.862,0,0,1,1.934-.492,3.518,3.518,0,0,1,1.457.293,2.275,2.275,0,0,1,1,.832Zm-1.945,10.32a2,2,0,0,0,1.52-.641,2.345,2.345,0,0,0,.605-1.68,2.35,2.35,0,0,0-.609-1.684,2,2,0,0,0-1.516-.645,2.024,2.024,0,0,0-1.527.633,2.35,2.35,0,0,0-.605,1.7,2.339,2.339,0,0,0,.605,1.688A2.024,2.024,0,0,0,105.926,14.32Zm13.109-.5a7.513,7.513,0,0,0,.2,1.961V16h-2.1l-.18-.875a2.611,2.611,0,0,1-1.125.773,4.146,4.146,0,0,1-1.453.258,3.821,3.821,0,0,1-.75-.07,2.55,2.55,0,0,1-.676-.238,2.051,2.051,0,0,1-.559-.418,1.833,1.833,0,0,1-.375-.637,2.536,2.536,0,0,1-.141-.871,2.416,2.416,0,0,1,.148-.871,2.042,2.042,0,0,1,.391-.652,2.369,2.369,0,0,1,.633-.477,4.842,4.842,0,0,1,.8-.344,9.521,9.521,0,0,1,.953-.25l1.32-.3a1.456,1.456,0,0,0,.6-.254.506.506,0,0,0,.176-.4.829.829,0,0,0-.395-.773,1.842,1.842,0,0,0-.957-.234,1.377,1.377,0,0,0-1.57,1.227l-1.992-.359A2.7,2.7,0,0,1,113.137,8.4a4.627,4.627,0,0,1,2.523-.59q3.375,0,3.375,2.9Zm-3.961.813a1.81,1.81,0,0,0,1.391-.582A2.453,2.453,0,0,0,117,12.328l-1.906.539a2.253,2.253,0,0,0-.8.328.674.674,0,0,0-.277.578.748.748,0,0,0,.3.637A1.229,1.229,0,0,0,115.074,14.633Z" transform="translate(-731 6303.02)" fill="#fff"/>
    <path id="Trazado_25504" data-name="Trazado 25504" d="M18.91,16H16.574l-.742-8.508L12.973,16H11.457L8.6,7.492,7.848,16H5.5L6.449,4.711H9.793L12.2,11.8l2.438-7.086H17.98Zm9.664-4.133-.023.539H22.6a2.079,2.079,0,0,0,.641,1.469,2.049,2.049,0,0,0,1.414.508,1.974,1.974,0,0,0,1.059-.277,1.7,1.7,0,0,0,.676-.809l2.063.3a3.506,3.506,0,0,1-1.406,1.883,4.181,4.181,0,0,1-2.375.672,4.348,4.348,0,0,1-3.129-1.105,4.034,4.034,0,0,1-1.16-3.066,4.058,4.058,0,0,1,1.164-3.066A4.219,4.219,0,0,1,24.6,7.8,4.032,4.032,0,0,1,27.48,8.82,4.015,4.015,0,0,1,28.574,11.867ZM24.613,9.391a1.778,1.778,0,0,0-1.953,1.547h3.688a1.691,1.691,0,0,0-.555-1.148A1.758,1.758,0,0,0,24.613,9.391ZM35.98,4h2.25V16H36.1l-.055-1.047a2.294,2.294,0,0,1-1.02.91,3.432,3.432,0,0,1-1.5.324,3.906,3.906,0,0,1-1.5-.289,3.613,3.613,0,0,1-2.062-2.141,4.885,4.885,0,0,1-.3-1.758,4.566,4.566,0,0,1,.531-2.238,3.64,3.64,0,0,1,1.4-1.457,3.862,3.862,0,0,1,1.934-.492,3.518,3.518,0,0,1,1.457.293,2.275,2.275,0,0,1,1,.832ZM34.035,14.32a2,2,0,0,0,1.52-.641A2.345,2.345,0,0,0,36.16,12a2.35,2.35,0,0,0-.609-1.684,2,2,0,0,0-1.516-.645,2.024,2.024,0,0,0-1.527.633A2.35,2.35,0,0,0,31.9,12a2.339,2.339,0,0,0,.605,1.688A2.024,2.024,0,0,0,34.035,14.32Zm7.672-7.555a1.263,1.263,0,0,1-.922-.379,1.244,1.244,0,0,1-.383-.918,1.229,1.229,0,0,1,.387-.91,1.267,1.267,0,0,1,.918-.379A1.3,1.3,0,0,1,43,5.469a1.3,1.3,0,0,1-1.289,1.3ZM40.559,16V7.969h2.266V16ZM50.848,4H53.1V16H50.965l-.055-1.047a2.294,2.294,0,0,1-1.02.91,3.432,3.432,0,0,1-1.5.324,3.906,3.906,0,0,1-1.5-.289,3.613,3.613,0,0,1-2.062-2.141A4.885,4.885,0,0,1,44.52,12a4.566,4.566,0,0,1,.531-2.238,3.64,3.64,0,0,1,1.4-1.457,3.862,3.862,0,0,1,1.934-.492,3.518,3.518,0,0,1,1.457.293,2.275,2.275,0,0,1,1,.832ZM48.9,14.32a2,2,0,0,0,1.52-.641A2.345,2.345,0,0,0,51.027,12a2.35,2.35,0,0,0-.609-1.684A2,2,0,0,0,48.9,9.672a2.024,2.024,0,0,0-1.527.633A2.35,2.35,0,0,0,46.77,12a2.339,2.339,0,0,0,.605,1.688A2.024,2.024,0,0,0,48.9,14.32Zm13.109-.5a7.513,7.513,0,0,0,.2,1.961V16h-2.1l-.18-.875A2.611,2.611,0,0,1,58.8,15.9a4.146,4.146,0,0,1-1.453.258,3.821,3.821,0,0,1-.75-.07,2.55,2.55,0,0,1-.676-.238,2.051,2.051,0,0,1-.559-.418,1.833,1.833,0,0,1-.375-.637,2.536,2.536,0,0,1-.141-.871A2.416,2.416,0,0,1,55,13.051a2.042,2.042,0,0,1,.391-.652,2.369,2.369,0,0,1,.633-.477,4.842,4.842,0,0,1,.8-.344,9.521,9.521,0,0,1,.953-.25l1.32-.3a1.456,1.456,0,0,0,.6-.254.506.506,0,0,0,.176-.4.829.829,0,0,0-.395-.773,1.842,1.842,0,0,0-.957-.234,1.377,1.377,0,0,0-1.57,1.227l-1.992-.359A2.7,2.7,0,0,1,56.113,8.4a4.627,4.627,0,0,1,2.523-.59q3.375,0,3.375,2.9Zm-3.961.813a1.81,1.81,0,0,0,1.391-.582,2.453,2.453,0,0,0,.539-1.723l-1.906.539a2.253,2.253,0,0,0-.8.328.674.674,0,0,0-.277.578.748.748,0,0,0,.3.637A1.229,1.229,0,0,0,58.051,14.633Zm16.891-.812a7.513,7.513,0,0,0,.2,1.961V16h-2.1l-.18-.875a2.611,2.611,0,0,1-1.125.773,4.146,4.146,0,0,1-1.453.258,3.821,3.821,0,0,1-.75-.07,2.55,2.55,0,0,1-.676-.238,2.051,2.051,0,0,1-.559-.418,1.833,1.833,0,0,1-.375-.637,2.536,2.536,0,0,1-.141-.871,2.416,2.416,0,0,1,.148-.871,2.042,2.042,0,0,1,.391-.652,2.369,2.369,0,0,1,.633-.477,4.842,4.842,0,0,1,.8-.344,9.521,9.521,0,0,1,.953-.25l1.32-.3a1.456,1.456,0,0,0,.6-.254.506.506,0,0,0,.176-.4A.829.829,0,0,0,72.4,9.6a1.842,1.842,0,0,0-.957-.234,1.377,1.377,0,0,0-1.57,1.227l-1.992-.359A2.7,2.7,0,0,1,69.043,8.4a4.627,4.627,0,0,1,2.523-.59q3.375,0,3.375,2.9Zm-3.961.813a1.81,1.81,0,0,0,1.391-.582,2.453,2.453,0,0,0,.539-1.723L71,12.867a2.253,2.253,0,0,0-.8.328.674.674,0,0,0-.277.578.748.748,0,0,0,.3.637A1.229,1.229,0,0,0,70.98,14.633ZM81.84,7.813a3.906,3.906,0,0,1,1.5.289,3.754,3.754,0,0,1,1.23.813,3.676,3.676,0,0,1,.832,1.324,5.246,5.246,0,0,1,0,3.523,3.676,3.676,0,0,1-.832,1.324,3.754,3.754,0,0,1-1.23.813,3.906,3.906,0,0,1-1.5.289,3.485,3.485,0,0,1-1.453-.3,2.277,2.277,0,0,1-1.008-.844v4.859h-2.25V7.969h2.133l.063,1.078a2.2,2.2,0,0,1,1-.91A3.45,3.45,0,0,1,81.84,7.813Zm-.508,6.508a2.021,2.021,0,0,0,1.52-.629A2.336,2.336,0,0,0,83.457,12a2.336,2.336,0,0,0-.605-1.691,2.15,2.15,0,0,0-3.051.012A2.336,2.336,0,0,0,79.191,12a2.336,2.336,0,0,0,.609,1.68A2.025,2.025,0,0,0,81.332,14.32ZM87.4,16V4h2.273V16Zm5.75-9.234a1.263,1.263,0,0,1-.922-.379,1.244,1.244,0,0,1-.383-.918,1.229,1.229,0,0,1,.387-.91,1.267,1.267,0,0,1,.918-.379,1.3,1.3,0,0,1,1.289,1.289,1.3,1.3,0,0,1-1.289,1.3ZM92,16V7.969H94.27V16Zm8.227.148a4.291,4.291,0,0,1-3.1-1.156,3.994,3.994,0,0,1-1.2-3.016,3.984,3.984,0,0,1,1.2-3.016,4.768,4.768,0,0,1,5.707-.375,3.453,3.453,0,0,1,1.344,2.18l-2.078.227a1.78,1.78,0,0,0-.672-1.055,2.043,2.043,0,0,0-1.219-.352,1.842,1.842,0,0,0-1.469.656,2.573,2.573,0,0,0-.562,1.734,2.576,2.576,0,0,0,.563,1.73,1.837,1.837,0,0,0,1.469.66,2.025,2.025,0,0,0,1.215-.352,1.822,1.822,0,0,0,.676-1.055l2.078.227a3.463,3.463,0,0,1-1.355,2.18A4.262,4.262,0,0,1,100.23,16.148Zm12.133-2.328a7.513,7.513,0,0,0,.2,1.961V16h-2.1l-.18-.875a2.611,2.611,0,0,1-1.125.773,4.146,4.146,0,0,1-1.453.258,3.821,3.821,0,0,1-.75-.07,2.55,2.55,0,0,1-.676-.238,2.051,2.051,0,0,1-.559-.418,1.833,1.833,0,0,1-.375-.637,2.536,2.536,0,0,1-.141-.871,2.416,2.416,0,0,1,.148-.871,2.042,2.042,0,0,1,.391-.652,2.369,2.369,0,0,1,.633-.477,4.842,4.842,0,0,1,.8-.344,9.521,9.521,0,0,1,.953-.25l1.32-.3a1.456,1.456,0,0,0,.6-.254.506.506,0,0,0,.176-.4.829.829,0,0,0-.395-.773,1.842,1.842,0,0,0-.957-.234,1.377,1.377,0,0,0-1.57,1.227l-1.992-.359A2.7,2.7,0,0,1,106.465,8.4a4.627,4.627,0,0,1,2.523-.59q3.375,0,3.375,2.9Zm-3.961.813a1.81,1.81,0,0,0,1.391-.582,2.453,2.453,0,0,0,.539-1.723l-1.906.539a2.253,2.253,0,0,0-.8.328.674.674,0,0,0-.277.578.748.748,0,0,0,.3.637A1.229,1.229,0,0,0,108.4,14.633Zm8.3-5.391a2.607,2.607,0,0,1,1.055-.965,3.218,3.218,0,0,1,1.57-.4V9.883a3.043,3.043,0,0,0-1.922.484,2.115,2.115,0,0,0-.594,1.719V16h-2.266V7.969h2.156ZM24.922,31.867l-.023.539H18.945a2.079,2.079,0,0,0,.641,1.469A2.049,2.049,0,0,0,21,34.383a1.974,1.974,0,0,0,1.059-.277,1.7,1.7,0,0,0,.676-.809l2.063.3a3.506,3.506,0,0,1-1.406,1.883,4.181,4.181,0,0,1-2.375.672,4.348,4.348,0,0,1-3.129-1.105,4.034,4.034,0,0,1-1.16-3.066,4.058,4.058,0,0,1,1.164-3.066A4.219,4.219,0,0,1,20.945,27.8a4.032,4.032,0,0,1,2.883,1.023A4.015,4.015,0,0,1,24.922,31.867Zm-3.961-2.477a1.778,1.778,0,0,0-1.953,1.547H22.7a1.691,1.691,0,0,0-.555-1.148A1.758,1.758,0,0,0,20.961,29.391Zm10.414-1.578a3.131,3.131,0,0,1,2.219.723,2.68,2.68,0,0,1,.773,2.059V36H32.109V31.078a1.4,1.4,0,0,0-.4-1.109,1.516,1.516,0,0,0-1.035-.352,2.115,2.115,0,0,0-.672.1,1.726,1.726,0,0,0-.562.316,1.4,1.4,0,0,0-.4.605,2.8,2.8,0,0,0-.152.93V36h-2.25V27.969h2.25v.891A3.1,3.1,0,0,1,31.375,27.813Zm16.883,4.055-.023.539H42.281a2.079,2.079,0,0,0,.641,1.469,2.049,2.049,0,0,0,1.414.508,1.974,1.974,0,0,0,1.059-.277,1.7,1.7,0,0,0,.676-.809l2.063.3a3.506,3.506,0,0,1-1.406,1.883,4.181,4.181,0,0,1-2.375.672,4.348,4.348,0,0,1-3.129-1.105,4.034,4.034,0,0,1-1.16-3.066,4.058,4.058,0,0,1,1.164-3.066A4.219,4.219,0,0,1,44.281,27.8a3.676,3.676,0,0,1,3.977,4.07ZM44.3,29.391a1.778,1.778,0,0,0-1.953,1.547h3.688a1.691,1.691,0,0,0-.555-1.148A1.758,1.758,0,0,0,44.3,29.391Zm8.5,6.766a4.488,4.488,0,0,1-2.344-.562A2.378,2.378,0,0,1,49.3,33.922l1.883-.531a1.513,1.513,0,0,0,1.609,1.2,1.662,1.662,0,0,0,.82-.184.639.639,0,0,0,.32-.621.657.657,0,0,0-.133-.414,1.052,1.052,0,0,0-.41-.3,5.11,5.11,0,0,0-.547-.211q-.27-.086-.715-.207t-.742-.23a4.972,4.972,0,0,1-.707-.3,3.016,3.016,0,0,1-.586-.414,1.669,1.669,0,0,1-.437-.629,2.269,2.269,0,0,1-.152-.859,2.052,2.052,0,0,1,.871-1.8,3.892,3.892,0,0,1,2.277-.609,3.99,3.99,0,0,1,2.1.516,2.334,2.334,0,0,1,1.078,1.609l-1.742.391a1.365,1.365,0,0,0-1.43-1.016,1.566,1.566,0,0,0-.789.18.577.577,0,0,0-.312.531.609.609,0,0,0,.047.242.479.479,0,0,0,.164.2,2.393,2.393,0,0,0,.227.148,1.709,1.709,0,0,0,.32.129q.211.066.352.1l.41.105.418.109q.43.117.754.234a4.416,4.416,0,0,1,.691.328,2.482,2.482,0,0,1,.605.473,2.108,2.108,0,0,1,.395.664,2.453,2.453,0,0,1,.156.895,2.416,2.416,0,0,1-.27,1.164,2.023,2.023,0,0,1-.738.785,3.593,3.593,0,0,1-1.043.422A5.41,5.41,0,0,1,52.8,36.156Zm8.555-.008a4.291,4.291,0,0,1-3.1-1.156,4.386,4.386,0,0,1,0-6.031,4.768,4.768,0,0,1,5.707-.375,3.453,3.453,0,0,1,1.344,2.18l-2.078.227a1.78,1.78,0,0,0-.672-1.055,2.043,2.043,0,0,0-1.219-.352,1.842,1.842,0,0,0-1.469.656,2.949,2.949,0,0,0,0,3.465,1.837,1.837,0,0,0,1.469.66,2.025,2.025,0,0,0,1.215-.352,1.822,1.822,0,0,0,.676-1.055l2.078.227a3.463,3.463,0,0,1-1.355,2.18A4.262,4.262,0,0,1,61.352,36.148ZM73.484,33.82a7.513,7.513,0,0,0,.2,1.961V36h-2.1l-.18-.875a2.611,2.611,0,0,1-1.125.773,4.146,4.146,0,0,1-1.453.258,3.821,3.821,0,0,1-.75-.07,2.55,2.55,0,0,1-.676-.238,2.051,2.051,0,0,1-.559-.418,1.833,1.833,0,0,1-.375-.637,2.536,2.536,0,0,1-.141-.871,2.416,2.416,0,0,1,.148-.871,2.042,2.042,0,0,1,.391-.652,2.37,2.37,0,0,1,.633-.477,4.842,4.842,0,0,1,.8-.344,9.522,9.522,0,0,1,.953-.25l1.32-.3a1.456,1.456,0,0,0,.6-.254.506.506,0,0,0,.176-.4.829.829,0,0,0-.395-.773,1.842,1.842,0,0,0-.957-.234,1.377,1.377,0,0,0-1.57,1.227l-1.992-.359A2.7,2.7,0,0,1,67.586,28.4a4.627,4.627,0,0,1,2.523-.59q3.375,0,3.375,2.9Zm-3.961.813a1.81,1.81,0,0,0,1.391-.582,2.453,2.453,0,0,0,.539-1.723l-1.906.539a2.253,2.253,0,0,0-.8.328.674.674,0,0,0-.277.578.748.748,0,0,0,.3.637A1.229,1.229,0,0,0,69.523,34.633ZM75.672,36V24h2.273V36Zm11.188-2.18a7.513,7.513,0,0,0,.2,1.961V36h-2.1l-.18-.875a2.611,2.611,0,0,1-1.125.773,4.146,4.146,0,0,1-1.453.258,3.821,3.821,0,0,1-.75-.07,2.55,2.55,0,0,1-.676-.238,2.051,2.051,0,0,1-.559-.418,1.833,1.833,0,0,1-.375-.637,2.536,2.536,0,0,1-.141-.871,2.416,2.416,0,0,1,.148-.871,2.042,2.042,0,0,1,.391-.652,2.37,2.37,0,0,1,.633-.477,4.842,4.842,0,0,1,.8-.344,9.522,9.522,0,0,1,.953-.25l1.32-.3a1.456,1.456,0,0,0,.6-.254.506.506,0,0,0,.176-.4.829.829,0,0,0-.395-.773,1.842,1.842,0,0,0-.957-.234,1.377,1.377,0,0,0-1.57,1.227L79.8,30.234A2.7,2.7,0,0,1,80.961,28.4a4.627,4.627,0,0,1,2.523-.59q3.375,0,3.375,2.9Zm-3.961.813a1.81,1.81,0,0,0,1.391-.582,2.453,2.453,0,0,0,.539-1.723l-1.906.539a2.253,2.253,0,0,0-.8.328.674.674,0,0,0-.277.578.748.748,0,0,0,.3.637A1.229,1.229,0,0,0,82.9,34.633ZM94.563,24h2.25V36H94.68l-.055-1.047a2.294,2.294,0,0,1-1.02.91,3.432,3.432,0,0,1-1.5.324,3.906,3.906,0,0,1-1.5-.289,3.613,3.613,0,0,1-2.062-2.141,4.885,4.885,0,0,1-.3-1.758,4.566,4.566,0,0,1,.531-2.238,3.64,3.64,0,0,1,1.4-1.457,3.862,3.862,0,0,1,1.934-.492,3.518,3.518,0,0,1,1.457.293,2.275,2.275,0,0,1,1,.832ZM92.617,34.32a2,2,0,0,0,1.52-.641,2.632,2.632,0,0,0,0-3.363,2,2,0,0,0-1.516-.645,2.024,2.024,0,0,0-1.527.633,2.665,2.665,0,0,0,0,3.383A2.024,2.024,0,0,0,92.617,34.32Zm10.266,1.836a5.05,5.05,0,0,1-2.273-.492,3.679,3.679,0,0,1-1.559-1.445,4.307,4.307,0,0,1-.566-2.242A3.928,3.928,0,0,1,99.7,28.93a5.095,5.095,0,0,1,6.367,0,3.928,3.928,0,0,1,1.219,3.047,3.951,3.951,0,0,1-1.219,3.059A4.523,4.523,0,0,1,102.883,36.156Zm-.023-1.789a2.061,2.061,0,0,0,1.59-.656,2.787,2.787,0,0,0,0-3.469,2.061,2.061,0,0,0-1.59-.656,1.986,1.986,0,0,0-1.543.66,2.8,2.8,0,0,0,0,3.461A1.986,1.986,0,0,0,102.859,34.367Z" transform="translate(-586 6293.27)" fill="#fff"/>
  </g>
</svg>
