<svg xmlns="http://www.w3.org/2000/svg" width="517.335" height="320.23" viewBox="0 0 517.335 320.23">
  <g id="Grupo_16491" data-name="Grupo 16491" transform="translate(1563.335 -6288.77)">
    <rect id="Rectángulo_4077" data-name="Rectángulo 4077" width="517" height="271" transform="translate(-1563 6338)" fill="#fff"/>
    <g id="Grupo_16030" data-name="Grupo 16030" transform="translate(-1563.335 6383.058)">
      <path id="Trazado_24814" data-name="Trazado 24814" d="M222,3560H738.665" transform="translate(-222 -3560)" fill="none" stroke="#d2bef6" stroke-width="1"/>
      <path id="Trazado_25134" data-name="Trazado 25134" d="M222,3560H738.665" transform="translate(-222 -3516)" fill="none" stroke="#d2bef6" stroke-width="1"/>
      <path id="Trazado_25135" data-name="Trazado 25135" d="M222,3560H738.665" transform="translate(-222 -3472)" fill="none" stroke="#d2bef6" stroke-width="1"/>
      <path id="Trazado_25136" data-name="Trazado 25136" d="M222,3560H738.665" transform="translate(-222 -3428)" fill="none" stroke="#d2bef6" stroke-width="1"/>
      <path id="Trazado_25137" data-name="Trazado 25137" d="M222,3560H738.665" transform="translate(-222 -3384)" fill="none" stroke="#d2bef6" stroke-width="1"/>
    </g>
    <path id="Trazado_25483" data-name="Trazado 25483" d="M17.207,14.727h3.82V16H15.809V5h1.4Zm7.414,1.422a2.613,2.613,0,0,1-1.684-.527,1.894,1.894,0,0,1-.66-1.574,2.237,2.237,0,0,1,.211-1,1.77,1.77,0,0,1,.625-.7,3.749,3.749,0,0,1,.9-.434,8.341,8.341,0,0,1,1.168-.277l1.242-.2q.68-.125.68-.711a1.342,1.342,0,0,0-.48-1.145,1.958,1.958,0,0,0-1.215-.363,1.994,1.994,0,0,0-1.2.352,1.471,1.471,0,0,0-.57,1.078l-1.219-.258a2.346,2.346,0,0,1,.961-1.645,3.59,3.59,0,0,1,2.094-.551,4.247,4.247,0,0,1,1.113.137,3.025,3.025,0,0,1,.93.43,1.927,1.927,0,0,1,.664.828,3.081,3.081,0,0,1,.238,1.262v3.172a1.3,1.3,0,0,0,.176.8.759.759,0,0,0,.605.207h.125V16h-.672A1.281,1.281,0,0,1,27.2,14.961h-.062A2.935,2.935,0,0,1,24.621,16.148Zm.313-1.094a2.049,2.049,0,0,0,1.648-.742,3.056,3.056,0,0,0,.625-2.031l-2.031.391a2.734,2.734,0,0,0-1.191.426.99.99,0,0,0-.387.84.979.979,0,0,0,.371.844A1.586,1.586,0,0,0,24.934,15.055Zm7.617-5.383A2.322,2.322,0,0,1,33.5,8.641a2.87,2.87,0,0,1,1.477-.406V9.508a2.53,2.53,0,0,0-1.785.57,2.382,2.382,0,0,0-.613,1.82V16H31.23V8.32h1.32ZM42.035,8.32h1.313v7.289a4.183,4.183,0,0,1-.992,2.992,3.607,3.607,0,0,1-2.75,1.047A3.63,3.63,0,0,1,35.879,17.3L37,16.75a2.539,2.539,0,0,0,2.57,1.773,2.2,2.2,0,0,0,1.8-.75,3.192,3.192,0,0,0,.621-2.094V14.258a2.707,2.707,0,0,1-1.094,1.105,3.182,3.182,0,0,1-1.6.418A3.293,3.293,0,0,1,36.809,14.7a3.816,3.816,0,0,1-1.023-2.73,3.78,3.78,0,0,1,1.027-2.723,3.325,3.325,0,0,1,2.5-1.074,3.1,3.1,0,0,1,1.609.43A2.766,2.766,0,0,1,42,9.734ZM39.6,14.633a2.323,2.323,0,0,0,1.77-.789,2.787,2.787,0,0,0,0-3.758,2.407,2.407,0,0,0-3.543-.023,2.67,2.67,0,0,0-.723,1.906,2.647,2.647,0,0,0,.73,1.895A2.341,2.341,0,0,0,39.6,14.633Zm9.734,1.516a4.048,4.048,0,0,1-1.969-.477,3.47,3.47,0,0,1-1.387-1.395,4.283,4.283,0,0,1-.512-2.121,3.912,3.912,0,0,1,1.09-2.895,4.089,4.089,0,0,1,5.559,0A3.92,3.92,0,0,1,53.2,12.156a3.923,3.923,0,0,1-1.09,2.9A3.762,3.762,0,0,1,49.332,16.148Zm-.008-1.125a2.359,2.359,0,0,0,1.816-.789,2.957,2.957,0,0,0,.723-2.078,2.945,2.945,0,0,0-.723-2.07A2.359,2.359,0,0,0,49.324,9.3a2.326,2.326,0,0,0-1.8.789,2.965,2.965,0,0,0-.715,2.07,2.976,2.976,0,0,0,.715,2.078A2.326,2.326,0,0,0,49.324,15.023ZM65.254,5V6.273h-2.82V16H61.043V6.273H58.215V5Zm1.078,11.156a.877.877,0,0,1-.637-.266.908.908,0,0,1,.637-1.547.884.884,0,0,1,.641.27.887.887,0,0,1,0,1.277A.886.886,0,0,1,66.332,16.156ZM18.113,58.727h3.82V60H16.715V49h1.4Zm7.414,1.422a2.613,2.613,0,0,1-1.684-.527,1.894,1.894,0,0,1-.66-1.574,2.237,2.237,0,0,1,.211-1,1.77,1.77,0,0,1,.625-.7,3.749,3.749,0,0,1,.9-.434,8.342,8.342,0,0,1,1.168-.277l1.242-.2q.68-.125.68-.711a1.342,1.342,0,0,0-.48-1.145,1.958,1.958,0,0,0-1.215-.363,1.994,1.994,0,0,0-1.2.352,1.471,1.471,0,0,0-.57,1.078l-1.219-.258a2.346,2.346,0,0,1,.961-1.645,3.59,3.59,0,0,1,2.094-.551,4.247,4.247,0,0,1,1.113.137,3.025,3.025,0,0,1,.93.43,1.927,1.927,0,0,1,.664.828,3.081,3.081,0,0,1,.238,1.262v3.172a1.3,1.3,0,0,0,.176.8.759.759,0,0,0,.605.207h.125V60h-.672a1.281,1.281,0,0,1-1.453-1.039h-.062A2.935,2.935,0,0,1,25.527,60.148Zm.313-1.094a2.049,2.049,0,0,0,1.648-.742,3.056,3.056,0,0,0,.625-2.031l-2.031.391a2.734,2.734,0,0,0-1.191.426.99.99,0,0,0-.387.84.979.979,0,0,0,.371.844A1.586,1.586,0,0,0,25.84,59.055Zm7.617-5.383a2.322,2.322,0,0,1,.953-1.031,2.87,2.87,0,0,1,1.477-.406v1.273a2.53,2.53,0,0,0-1.785.57,2.382,2.382,0,0,0-.613,1.82V60H32.137V52.32h1.32Zm9.484-1.352h1.313v7.289a4.183,4.183,0,0,1-.992,2.992,3.607,3.607,0,0,1-2.75,1.047A3.63,3.63,0,0,1,36.785,61.3L37.9,60.75a2.539,2.539,0,0,0,2.57,1.773,2.2,2.2,0,0,0,1.8-.75,3.192,3.192,0,0,0,.621-2.094V58.258A2.707,2.707,0,0,1,41.8,59.363a3.182,3.182,0,0,1-1.6.418A3.293,3.293,0,0,1,37.715,58.7a4.138,4.138,0,0,1,0-5.453,3.325,3.325,0,0,1,2.5-1.074,3.1,3.1,0,0,1,1.609.43,2.766,2.766,0,0,1,1.086,1.133ZM40.5,58.633a2.323,2.323,0,0,0,1.77-.789,2.787,2.787,0,0,0,0-3.758,2.407,2.407,0,0,0-3.543-.023,2.849,2.849,0,0,0,.008,3.8A2.341,2.341,0,0,0,40.5,58.633Zm9.734,1.516a4.048,4.048,0,0,1-1.969-.477,3.47,3.47,0,0,1-1.387-1.395,4.284,4.284,0,0,1-.512-2.121,3.912,3.912,0,0,1,1.09-2.895,4.089,4.089,0,0,1,5.559,0,4.405,4.405,0,0,1,0,5.8A3.762,3.762,0,0,1,50.238,60.148Zm-.008-1.125a2.359,2.359,0,0,0,1.816-.789,3.338,3.338,0,0,0,0-4.148A2.359,2.359,0,0,0,50.23,53.3a2.326,2.326,0,0,0-1.8.789,3.367,3.367,0,0,0,0,4.148A2.326,2.326,0,0,0,50.23,59.023ZM63.59,49h1.266V60H63.52V50.477l-2.641,2.289V51.32ZM18.113,102.727h3.82V104H16.715V93h1.4Zm7.414,1.422a2.613,2.613,0,0,1-1.684-.527,1.894,1.894,0,0,1-.66-1.574,2.237,2.237,0,0,1,.211-1,1.77,1.77,0,0,1,.625-.7,3.749,3.749,0,0,1,.9-.434,8.341,8.341,0,0,1,1.168-.277l1.242-.2q.68-.125.68-.711a1.342,1.342,0,0,0-.48-1.145,1.958,1.958,0,0,0-1.215-.363,1.994,1.994,0,0,0-1.2.352,1.471,1.471,0,0,0-.57,1.078l-1.219-.258a2.346,2.346,0,0,1,.961-1.645,3.59,3.59,0,0,1,2.094-.551,4.246,4.246,0,0,1,1.113.137,3.026,3.026,0,0,1,.93.43,1.927,1.927,0,0,1,.664.828,3.081,3.081,0,0,1,.238,1.262v3.172a1.3,1.3,0,0,0,.176.8.759.759,0,0,0,.605.207h.125V104h-.672a1.281,1.281,0,0,1-1.453-1.039h-.062A2.935,2.935,0,0,1,25.527,104.148Zm.313-1.094a2.049,2.049,0,0,0,1.648-.742,3.056,3.056,0,0,0,.625-2.031l-2.031.391a2.734,2.734,0,0,0-1.191.426.99.99,0,0,0-.387.84.979.979,0,0,0,.371.844A1.586,1.586,0,0,0,25.84,103.055Zm7.617-5.383a2.322,2.322,0,0,1,.953-1.031,2.87,2.87,0,0,1,1.477-.406v1.273a2.53,2.53,0,0,0-1.785.57,2.382,2.382,0,0,0-.613,1.82V104H32.137V96.32h1.32Zm9.484-1.352h1.313v7.289a4.183,4.183,0,0,1-.992,2.992,3.607,3.607,0,0,1-2.75,1.047,3.63,3.63,0,0,1-3.727-2.352l1.117-.547a2.539,2.539,0,0,0,2.57,1.773,2.2,2.2,0,0,0,1.8-.75,3.192,3.192,0,0,0,.621-2.094v-1.422a2.707,2.707,0,0,1-1.094,1.105,3.182,3.182,0,0,1-1.6.418,3.293,3.293,0,0,1-2.484-1.082,4.138,4.138,0,0,1,0-5.453,3.325,3.325,0,0,1,2.5-1.074,3.1,3.1,0,0,1,1.609.43,2.766,2.766,0,0,1,1.086,1.133ZM40.5,102.633a2.323,2.323,0,0,0,1.77-.789,2.787,2.787,0,0,0,0-3.758,2.407,2.407,0,0,0-3.543-.023,2.849,2.849,0,0,0,.008,3.8A2.341,2.341,0,0,0,40.5,102.633Zm9.734,1.516a4.048,4.048,0,0,1-1.969-.477,3.47,3.47,0,0,1-1.387-1.395,4.283,4.283,0,0,1-.512-2.121,3.912,3.912,0,0,1,1.09-2.895,4.089,4.089,0,0,1,5.559,0,4.405,4.405,0,0,1,0,5.8A3.762,3.762,0,0,1,50.238,104.148Zm-.008-1.125a2.359,2.359,0,0,0,1.816-.789,3.338,3.338,0,0,0,0-4.148A2.359,2.359,0,0,0,50.23,97.3a2.326,2.326,0,0,0-1.8.789,3.367,3.367,0,0,0,0,4.148A2.326,2.326,0,0,0,50.23,103.023Zm11.5-.266h5.477V104H59.785v-1.023l4.406-4.555a5.219,5.219,0,0,0,.992-1.3,2.6,2.6,0,0,0,.273-1.133,1.9,1.9,0,0,0-.555-1.457,2.264,2.264,0,0,0-2.941.047,2.437,2.437,0,0,0-.559,1.77v.813l-1.352-.125v-.68a3.477,3.477,0,0,1,.93-2.613,3.849,3.849,0,0,1,4.871-.066,2.907,2.907,0,0,1,.934,2.281,3.459,3.459,0,0,1-.371,1.59,6.835,6.835,0,0,1-1.191,1.582ZM38.164,148l-.945-2.633H32.242L31.3,148H29.844L33.9,137H35.57l4.055,11Zm-5.477-3.867h4.094l-2.047-5.727Zm9.969,4.023a.877.877,0,0,1-.637-.266.908.908,0,0,1,.637-1.547.884.884,0,0,1,.641.27.887.887,0,0,1,0,1.277A.886.886,0,0,1,42.656,148.156Zm5.734-.008a2.613,2.613,0,0,1-1.684-.527,1.894,1.894,0,0,1-.66-1.574,2.237,2.237,0,0,1,.211-1,1.77,1.77,0,0,1,.625-.7,3.749,3.749,0,0,1,.9-.434,8.342,8.342,0,0,1,1.168-.277l1.242-.2q.68-.125.68-.711a1.342,1.342,0,0,0-.48-1.145,1.958,1.958,0,0,0-1.215-.363,1.994,1.994,0,0,0-1.2.352,1.471,1.471,0,0,0-.57,1.078l-1.219-.258a2.346,2.346,0,0,1,.961-1.645,3.59,3.59,0,0,1,2.094-.551,4.247,4.247,0,0,1,1.113.137,3.025,3.025,0,0,1,.93.43,1.927,1.927,0,0,1,.664.828,3.081,3.081,0,0,1,.238,1.262v3.172a1.3,1.3,0,0,0,.176.8.759.759,0,0,0,.605.207h.125V148h-.672a1.281,1.281,0,0,1-1.453-1.039h-.062A2.935,2.935,0,0,1,48.391,148.148Zm.313-1.094a2.049,2.049,0,0,0,1.648-.742,3.056,3.056,0,0,0,.625-2.031l-2.031.391a2.734,2.734,0,0,0-1.191.426.99.99,0,0,0-.387.84.979.979,0,0,0,.371.844A1.586,1.586,0,0,0,48.7,147.055Zm-12.395,39.2a2.951,2.951,0,0,1,1.59.957,2.72,2.72,0,0,1,.582,1.8,2.88,2.88,0,0,1-.848,2.156,3.1,3.1,0,0,1-2.262.828H31.09V181h3.336a3.378,3.378,0,0,1,2.355.809,2.706,2.706,0,0,1,.895,2.105,2.782,2.782,0,0,1-.355,1.414A2.26,2.26,0,0,1,36.309,186.258ZM36.363,184a1.678,1.678,0,0,0-.527-1.273,1.976,1.976,0,0,0-1.418-.5H32.441v3.594h2.234a1.557,1.557,0,0,0,1.215-.527A1.867,1.867,0,0,0,36.363,184Zm-1.227,6.758a1.942,1.942,0,0,0,1.449-.543,1.834,1.834,0,0,0,.535-1.34,1.806,1.806,0,0,0-.559-1.363,2.116,2.116,0,0,0-1.527-.535H32.441v3.781Zm6.141,1.4a.877.877,0,0,1-.637-.266.908.908,0,0,1,.637-1.547.884.884,0,0,1,.641.27.887.887,0,0,1,0,1.277A.886.886,0,0,1,41.277,192.156Zm8.031-7.984a3.346,3.346,0,0,1,2.539,1.109,4.543,4.543,0,0,1,.008,5.773,3.339,3.339,0,0,1-2.547,1.109,3.082,3.082,0,0,1-1.637-.445,2.818,2.818,0,0,1-1.1-1.211L46.543,192h-1.3V180h1.344l.008,5.789a2.83,2.83,0,0,1,1.1-1.184A3.09,3.09,0,0,1,49.309,184.172Zm-.3,6.82a2.35,2.35,0,0,0,1.8-.785,3.236,3.236,0,0,0,0-4.086,2.35,2.35,0,0,0-1.8-.785,2.3,2.3,0,0,0-1.781.813,3.171,3.171,0,0,0,0,4.035A2.3,2.3,0,0,0,49.012,190.992ZM38.008,236l-.945-2.633H32.086L31.148,236H29.688l4.055-11h1.672l4.055,11Zm-5.477-3.867h4.094l-2.047-5.727Zm9.969,4.023a.877.877,0,0,1-.637-.266.908.908,0,0,1,.637-1.547.884.884,0,0,1,.641.27.887.887,0,0,1,0,1.277A.886.886,0,0,1,42.5,236.156Zm7.148-.016a3.7,3.7,0,0,1-2.75-1.1,4.375,4.375,0,0,1,0-5.766,4,4,0,0,1,4.977-.43,3.391,3.391,0,0,1,1.293,1.867l-1.266.2a2.337,2.337,0,0,0-.867-1.2,2.361,2.361,0,0,0-1.391-.422,2.27,2.27,0,0,0-1.777.789,3.409,3.409,0,0,0,0,4.137,2.275,2.275,0,0,0,1.777.785,2.361,2.361,0,0,0,1.391-.422,2.337,2.337,0,0,0,.867-1.2l1.266.211a3.4,3.4,0,0,1-1.3,1.863A3.72,3.72,0,0,1,49.648,236.141Z" transform="translate(-1546.901 6352.149)" fill="#00223d"/>
    <path id="Trazado_25484" data-name="Trazado 25484" d="M19.918,8.922a4.263,4.263,0,0,1,3,.926,3.358,3.358,0,0,1,.992,2.582,3.651,3.651,0,0,1-1.02,2.676,3.578,3.578,0,0,1-2.668,1.035,4.239,4.239,0,0,1-1.379-.223,3.724,3.724,0,0,1-1.164-.641,2.931,2.931,0,0,1-.812-1.082,3.558,3.558,0,0,1-.3-1.484,5.018,5.018,0,0,1,.039-.562l1.383-.117a5.5,5.5,0,0,0-.062.617,2.483,2.483,0,0,0,.2,1.023,1.749,1.749,0,0,0,.535.7,2.434,2.434,0,0,0,.723.379,2.638,2.638,0,0,0,.816.125,2.256,2.256,0,0,0,1.707-.672,2.391,2.391,0,0,0,.645-1.727,2.275,2.275,0,0,0-.668-1.734,2.994,2.994,0,0,0-2.113-.633H16.988l.68-5.094h5.766V6.273H18.809l-.359,2.648Zm7.32,7.234a.877.877,0,0,1-.637-.266.908.908,0,0,1,.637-1.547.884.884,0,0,1,.641.27.887.887,0,0,1,0,1.277A.886.886,0,0,1,27.238,16.156Zm6.836-7.234a4.263,4.263,0,0,1,3,.926,3.358,3.358,0,0,1,.992,2.582,3.651,3.651,0,0,1-1.02,2.676,3.578,3.578,0,0,1-2.668,1.035A4.239,4.239,0,0,1,33,15.918a3.724,3.724,0,0,1-1.164-.641,2.931,2.931,0,0,1-.812-1.082,3.558,3.558,0,0,1-.3-1.484,5.018,5.018,0,0,1,.039-.562l1.383-.117a5.5,5.5,0,0,0-.062.617,2.483,2.483,0,0,0,.2,1.023,1.749,1.749,0,0,0,.535.7,2.434,2.434,0,0,0,.723.379,2.638,2.638,0,0,0,.816.125,2.256,2.256,0,0,0,1.707-.672,2.391,2.391,0,0,0,.645-1.727,2.275,2.275,0,0,0-.668-1.734,2.994,2.994,0,0,0-2.113-.633H31.145l.68-5.094H37.59V6.273H32.965l-.359,2.648Zm-8.6,49.836h5.477V60H23.527V58.977l4.406-4.555a5.219,5.219,0,0,0,.992-1.3,2.6,2.6,0,0,0,.273-1.133,1.9,1.9,0,0,0-.555-1.457,2.264,2.264,0,0,0-2.941.047,2.437,2.437,0,0,0-.559,1.77v.813l-1.352-.125v-.68a3.477,3.477,0,0,1,.93-2.613,3.415,3.415,0,0,1,2.484-.9,3.443,3.443,0,0,1,2.387.836,2.907,2.907,0,0,1,.934,2.281,3.459,3.459,0,0,1-.371,1.59,6.835,6.835,0,0,1-1.191,1.582ZM20.1,104.148q-3.664,0-3.664-3.914l1.375-.07a3.435,3.435,0,0,0,.516,2.07,2.079,2.079,0,0,0,1.773.688,2.438,2.438,0,0,0,1.707-.594,2.2,2.2,0,0,0,.023-3.1,2.255,2.255,0,0,0-1.574-.57h-.547V97.508h.531a1.628,1.628,0,0,0,1.2-.508,1.713,1.713,0,0,0,.5-1.25,1.54,1.54,0,0,0-.531-1.211,1.945,1.945,0,0,0-1.336-.469,2.127,2.127,0,0,0-.879.164,1.234,1.234,0,0,0-.559.48,2.265,2.265,0,0,0-.281.7,4.1,4.1,0,0,0-.086.891l-1.375-.047a3.561,3.561,0,0,1,.824-2.523,3.054,3.054,0,0,1,2.348-.883,3.262,3.262,0,0,1,2.254.8,2.571,2.571,0,0,1,.9,2,2.409,2.409,0,0,1-.437,1.43,2.5,2.5,0,0,1-1.1.891,3.041,3.041,0,0,1,1.547,1.008,2.826,2.826,0,0,1,.6,1.852,3.026,3.026,0,0,1-1.051,2.4A3.941,3.941,0,0,1,20.1,104.148Zm7.141.008a.877.877,0,0,1-.637-.266.908.908,0,0,1,.637-1.547.884.884,0,0,1,.641.27.887.887,0,0,1,0,1.277A.886.886,0,0,1,27.238,104.156Zm6.836-7.234a4.262,4.262,0,0,1,3,.926,3.358,3.358,0,0,1,.992,2.582,3.651,3.651,0,0,1-1.02,2.676,3.578,3.578,0,0,1-2.668,1.035A4.239,4.239,0,0,1,33,103.918a3.724,3.724,0,0,1-1.164-.641,2.931,2.931,0,0,1-.812-1.082,3.558,3.558,0,0,1-.3-1.484,5.018,5.018,0,0,1,.039-.562l1.383-.117a5.5,5.5,0,0,0-.062.617,2.483,2.483,0,0,0,.2,1.023,1.749,1.749,0,0,0,.535.7,2.434,2.434,0,0,0,.723.379,2.638,2.638,0,0,0,.816.125,2.256,2.256,0,0,0,1.707-.672,2.391,2.391,0,0,0,.645-1.727,2.275,2.275,0,0,0-.668-1.734,2.994,2.994,0,0,0-2.113-.633H31.145l.68-5.094H37.59v1.258H32.965l-.359,2.648Zm-6.9,51.227q-3.664,0-3.664-3.914l1.375-.07a3.435,3.435,0,0,0,.516,2.07,2.079,2.079,0,0,0,1.773.688,2.438,2.438,0,0,0,1.707-.594,2.2,2.2,0,0,0,.023-3.1,2.255,2.255,0,0,0-1.574-.57h-.547v-1.148h.531a1.628,1.628,0,0,0,1.2-.508,1.713,1.713,0,0,0,.5-1.25,1.54,1.54,0,0,0-.531-1.211,1.945,1.945,0,0,0-1.336-.469,2.127,2.127,0,0,0-.879.164,1.234,1.234,0,0,0-.559.48,2.265,2.265,0,0,0-.281.7,4.1,4.1,0,0,0-.086.891l-1.375-.047a3.561,3.561,0,0,1,.824-2.523,3.054,3.054,0,0,1,2.348-.883,3.262,3.262,0,0,1,2.254.8,2.571,2.571,0,0,1,.9,2,2.409,2.409,0,0,1-.437,1.43,2.5,2.5,0,0,1-1.1.891,3.041,3.041,0,0,1,1.547,1.008,2.826,2.826,0,0,1,.6,1.852,3.026,3.026,0,0,1-1.051,2.4A3.941,3.941,0,0,1,27.176,148.148Zm3.875,40.188a3.712,3.712,0,0,1-.5,1.977,3.533,3.533,0,0,1-1.383,1.344,3.944,3.944,0,0,1-1.906.469,3.84,3.84,0,0,1-2.734-1.035,3.5,3.5,0,0,1-1.1-2.668,4.331,4.331,0,0,1,.953-2.641L28.059,181h1.594L26.6,184.852a3.425,3.425,0,0,1,.953-.133,3.5,3.5,0,0,1,1.688.422,3.379,3.379,0,0,1,1.289,1.262A3.77,3.77,0,0,1,31.051,188.336Zm-3.82,2.531a2.389,2.389,0,0,0,2.5-2.555,2.417,2.417,0,0,0-2.523-2.539,2.364,2.364,0,0,0-1.8.754,2.526,2.526,0,0,0-.7,1.84,2.435,2.435,0,0,0,.707,1.836A2.519,2.519,0,0,0,27.23,190.867ZM27,228.922a4.262,4.262,0,0,1,3,.926,3.358,3.358,0,0,1,.992,2.582,3.651,3.651,0,0,1-1.02,2.676,3.578,3.578,0,0,1-2.668,1.035,4.239,4.239,0,0,1-1.379-.223,3.724,3.724,0,0,1-1.164-.641,2.931,2.931,0,0,1-.812-1.082,3.558,3.558,0,0,1-.3-1.484,5.018,5.018,0,0,1,.039-.562l1.383-.117a5.5,5.5,0,0,0-.062.617,2.483,2.483,0,0,0,.2,1.023,1.749,1.749,0,0,0,.535.7,2.434,2.434,0,0,0,.723.379,2.638,2.638,0,0,0,.816.125,2.256,2.256,0,0,0,1.707-.672,2.391,2.391,0,0,0,.645-1.727,2.275,2.275,0,0,0-.668-1.734,2.994,2.994,0,0,0-2.113-.633H24.066l.68-5.094h5.766v1.258H25.887l-.359,2.648Z" transform="translate(-1425.866 6352.149)" fill="#00223d"/>
    <path id="Trazado_25485" data-name="Trazado 25485" d="M31.051,12.336a3.712,3.712,0,0,1-.5,1.977,3.533,3.533,0,0,1-1.383,1.344,3.944,3.944,0,0,1-1.906.469,3.84,3.84,0,0,1-2.734-1.035,3.5,3.5,0,0,1-1.1-2.668,4.331,4.331,0,0,1,.953-2.641L28.059,5h1.594L26.6,8.852a3.425,3.425,0,0,1,.953-.133,3.5,3.5,0,0,1,1.688.422A3.379,3.379,0,0,1,30.527,10.4,3.77,3.77,0,0,1,31.051,12.336Zm-3.82,2.531a2.389,2.389,0,0,0,2.5-2.555,2.417,2.417,0,0,0-2.523-2.539,2.364,2.364,0,0,0-1.8.754,2.526,2.526,0,0,0-.7,1.84,2.435,2.435,0,0,0,.707,1.836A2.519,2.519,0,0,0,27.23,14.867ZM13.891,58.758h5.477V60H11.945V58.977l4.406-4.555a5.219,5.219,0,0,0,.992-1.3,2.6,2.6,0,0,0,.273-1.133,1.9,1.9,0,0,0-.555-1.457,2.018,2.018,0,0,0-1.437-.52,2.017,2.017,0,0,0-1.5.566,2.437,2.437,0,0,0-.559,1.77v.813l-1.352-.125v-.68a3.477,3.477,0,0,1,.93-2.613,3.415,3.415,0,0,1,2.484-.9,3.443,3.443,0,0,1,2.387.836,2.907,2.907,0,0,1,.934,2.281,3.459,3.459,0,0,1-.371,1.59,6.835,6.835,0,0,1-1.191,1.582Zm8.844,1.4a.877.877,0,0,1-.637-.266.908.908,0,0,1,.637-1.547.884.884,0,0,1,.641.27.887.887,0,0,1,0,1.277A.886.886,0,0,1,22.734,60.156Zm5.313-1.4h5.477V60H26.1V58.977l4.406-4.555a5.219,5.219,0,0,0,.992-1.3,2.6,2.6,0,0,0,.273-1.133,1.9,1.9,0,0,0-.555-1.457,2.264,2.264,0,0,0-2.941.047,2.437,2.437,0,0,0-.559,1.77v.813l-1.352-.125v-.68a3.477,3.477,0,0,1,.93-2.613,3.415,3.415,0,0,1,2.484-.9,3.443,3.443,0,0,1,2.387.836,2.907,2.907,0,0,1,.934,2.281,3.459,3.459,0,0,1-.371,1.59,6.835,6.835,0,0,1-1.191,1.582Zm10.531-5.836a4.262,4.262,0,0,1,3,.926,3.358,3.358,0,0,1,.992,2.582,3.651,3.651,0,0,1-1.02,2.676,3.578,3.578,0,0,1-2.668,1.035,4.239,4.239,0,0,1-1.379-.223,3.724,3.724,0,0,1-1.164-.641,2.931,2.931,0,0,1-.812-1.082,3.558,3.558,0,0,1-.3-1.484,5.018,5.018,0,0,1,.039-.562l1.383-.117a5.5,5.5,0,0,0-.062.617,2.483,2.483,0,0,0,.2,1.023,1.749,1.749,0,0,0,.535.7,2.434,2.434,0,0,0,.723.379,2.638,2.638,0,0,0,.816.125,2.256,2.256,0,0,0,1.707-.672,2.391,2.391,0,0,0,.645-1.727,2.275,2.275,0,0,0-.668-1.734,2.994,2.994,0,0,0-2.113-.633H35.648l.68-5.094h5.766v1.258H37.469l-.359,2.648ZM15.594,104.148q-3.664,0-3.664-3.914l1.375-.07a3.435,3.435,0,0,0,.516,2.07,2.079,2.079,0,0,0,1.773.688,2.438,2.438,0,0,0,1.707-.594,2.2,2.2,0,0,0,.023-3.1,2.255,2.255,0,0,0-1.574-.57H15.2V97.508h.531a1.628,1.628,0,0,0,1.2-.508,1.713,1.713,0,0,0,.5-1.25,1.54,1.54,0,0,0-.531-1.211,1.945,1.945,0,0,0-1.336-.469,2.127,2.127,0,0,0-.879.164,1.234,1.234,0,0,0-.559.48,2.265,2.265,0,0,0-.281.7,4.1,4.1,0,0,0-.086.891l-1.375-.047a3.561,3.561,0,0,1,.824-2.523,3.054,3.054,0,0,1,2.348-.883,3.262,3.262,0,0,1,2.254.8,2.571,2.571,0,0,1,.9,2,2.409,2.409,0,0,1-.437,1.43,2.5,2.5,0,0,1-1.1.891,3.041,3.041,0,0,1,1.547,1.008,2.826,2.826,0,0,1,.6,1.852,3.026,3.026,0,0,1-1.051,2.4A3.941,3.941,0,0,1,15.594,104.148Zm7.141.008a.877.877,0,0,1-.637-.266.908.908,0,0,1,.637-1.547.884.884,0,0,1,.641.27.887.887,0,0,1,0,1.277A.886.886,0,0,1,22.734,104.156ZM26.086,93h7.523v1.133L28.234,104H26.688l5.422-9.75H26.086Zm12.492,3.922a4.262,4.262,0,0,1,3,.926,3.358,3.358,0,0,1,.992,2.582,3.651,3.651,0,0,1-1.02,2.676,3.578,3.578,0,0,1-2.668,1.035,4.239,4.239,0,0,1-1.379-.223,3.724,3.724,0,0,1-1.164-.641,2.931,2.931,0,0,1-.812-1.082,3.558,3.558,0,0,1-.3-1.484,5.018,5.018,0,0,1,.039-.562l1.383-.117a5.5,5.5,0,0,0-.062.617,2.483,2.483,0,0,0,.2,1.023,1.749,1.749,0,0,0,.535.7,2.434,2.434,0,0,0,.723.379,2.638,2.638,0,0,0,.816.125,2.256,2.256,0,0,0,1.707-.672,2.391,2.391,0,0,0,.645-1.727,2.275,2.275,0,0,0-.668-1.734,2.994,2.994,0,0,0-2.113-.633H35.648l.68-5.094h5.766v1.258H37.469l-.359,2.648ZM27,140.922a4.262,4.262,0,0,1,3,.926,3.358,3.358,0,0,1,.992,2.582,3.651,3.651,0,0,1-1.02,2.676,3.578,3.578,0,0,1-2.668,1.035,4.239,4.239,0,0,1-1.379-.223,3.724,3.724,0,0,1-1.164-.641,2.931,2.931,0,0,1-.812-1.082,3.558,3.558,0,0,1-.3-1.484,5.018,5.018,0,0,1,.039-.562l1.383-.117a5.5,5.5,0,0,0-.062.617,2.483,2.483,0,0,0,.2,1.023,1.749,1.749,0,0,0,.535.7,2.434,2.434,0,0,0,.723.379,2.638,2.638,0,0,0,.816.125,2.256,2.256,0,0,0,1.707-.672,2.391,2.391,0,0,0,.645-1.727,2.275,2.275,0,0,0-.668-1.734,2.994,2.994,0,0,0-2.113-.633H24.066l.68-5.094h5.766v1.258H25.887l-.359,2.648Zm2.93,50.32a3.962,3.962,0,0,1-2.664.906,3.966,3.966,0,0,1-2.668-.91,3,3,0,0,1-1.066-2.395,2.959,2.959,0,0,1,.555-1.8,3.179,3.179,0,0,1,1.508-1.109A2.717,2.717,0,0,1,24.508,185a2.4,2.4,0,0,1-.4-1.355,2.543,2.543,0,0,1,.9-2,3.307,3.307,0,0,1,2.258-.785,3.249,3.249,0,0,1,2.23.789,2.551,2.551,0,0,1,.895,2A2.447,2.447,0,0,1,30,185a2.643,2.643,0,0,1-1.062.941,3.242,3.242,0,0,1,1.5,1.113,2.942,2.942,0,0,1,.555,1.793A3,3,0,0,1,29.926,191.242Zm-2.664-5.75a1.861,1.861,0,0,0,1.332-.516,1.677,1.677,0,0,0,.543-1.266,1.623,1.623,0,0,0-.543-1.238,2.034,2.034,0,0,0-2.676,0,1.625,1.625,0,0,0-.539,1.242,1.677,1.677,0,0,0,.543,1.266A1.871,1.871,0,0,0,27.262,185.492Zm0,5.406a2.45,2.45,0,0,0,1.691-.6,2.03,2.03,0,0,0,.676-1.594,1.988,1.988,0,0,0-.676-1.57,2.47,2.47,0,0,0-1.691-.594,2.5,2.5,0,0,0-1.7.594,1.983,1.983,0,0,0-.68,1.57,2.024,2.024,0,0,0,.68,1.594A2.475,2.475,0,0,0,27.262,190.9ZM23.512,225h7.523v1.133L25.66,236H24.113l5.422-9.75H23.512Z" transform="translate(-1350.505 6352.149)" fill="#00223d"/>
    <path id="Trazado_25486" data-name="Trazado 25486" d="M23.973,12.336a3.712,3.712,0,0,1-.5,1.977,3.533,3.533,0,0,1-1.383,1.344,3.944,3.944,0,0,1-1.906.469,3.84,3.84,0,0,1-2.734-1.035,3.5,3.5,0,0,1-1.1-2.668A4.331,4.331,0,0,1,17.3,9.781L20.98,5h1.594L19.52,8.852a3.425,3.425,0,0,1,.953-.133,3.5,3.5,0,0,1,1.688.422A3.379,3.379,0,0,1,23.449,10.4,3.77,3.77,0,0,1,23.973,12.336Zm-3.82,2.531a2.389,2.389,0,0,0,2.5-2.555,2.417,2.417,0,0,0-2.523-2.539,2.364,2.364,0,0,0-1.8.754,2.526,2.526,0,0,0-.7,1.84,2.435,2.435,0,0,0,.707,1.836A2.519,2.519,0,0,0,20.152,14.867Zm7.086,1.289a.877.877,0,0,1-.637-.266.908.908,0,0,1,.637-1.547.884.884,0,0,1,.641.27.887.887,0,0,1,0,1.277A.886.886,0,0,1,27.238,16.156Zm6.836-7.234a4.263,4.263,0,0,1,3,.926,3.358,3.358,0,0,1,.992,2.582,3.651,3.651,0,0,1-1.02,2.676,3.578,3.578,0,0,1-2.668,1.035A4.239,4.239,0,0,1,33,15.918a3.724,3.724,0,0,1-1.164-.641,2.931,2.931,0,0,1-.812-1.082,3.558,3.558,0,0,1-.3-1.484,5.018,5.018,0,0,1,.039-.562l1.383-.117a5.5,5.5,0,0,0-.062.617,2.483,2.483,0,0,0,.2,1.023,1.749,1.749,0,0,0,.535.7,2.434,2.434,0,0,0,.723.379,2.638,2.638,0,0,0,.816.125,2.256,2.256,0,0,0,1.707-.672,2.391,2.391,0,0,0,.645-1.727,2.275,2.275,0,0,0-.668-1.734,2.994,2.994,0,0,0-2.113-.633H31.145l.68-5.094H37.59V6.273H32.965l-.359,2.648ZM18.395,58.758h5.477V60H16.449V58.977l4.406-4.555a5.219,5.219,0,0,0,.992-1.3,2.6,2.6,0,0,0,.273-1.133,1.9,1.9,0,0,0-.555-1.457,2.264,2.264,0,0,0-2.941.047,2.437,2.437,0,0,0-.559,1.77v.813l-1.352-.125v-.68a3.477,3.477,0,0,1,.93-2.613,3.415,3.415,0,0,1,2.484-.9,3.443,3.443,0,0,1,2.387.836,2.907,2.907,0,0,1,.934,2.281,3.459,3.459,0,0,1-.371,1.59,6.835,6.835,0,0,1-1.191,1.582Zm8.844,1.4a.877.877,0,0,1-.637-.266.908.908,0,0,1,.637-1.547.884.884,0,0,1,.641.27.887.887,0,0,1,0,1.277A.886.886,0,0,1,27.238,60.156Zm6.836-7.234a4.262,4.262,0,0,1,3,.926,3.358,3.358,0,0,1,.992,2.582,3.651,3.651,0,0,1-1.02,2.676,3.578,3.578,0,0,1-2.668,1.035A4.239,4.239,0,0,1,33,59.918a3.724,3.724,0,0,1-1.164-.641,2.931,2.931,0,0,1-.812-1.082,3.558,3.558,0,0,1-.3-1.484,5.018,5.018,0,0,1,.039-.562l1.383-.117a5.5,5.5,0,0,0-.062.617,2.483,2.483,0,0,0,.2,1.023,1.749,1.749,0,0,0,.535.7,2.434,2.434,0,0,0,.723.379,2.638,2.638,0,0,0,.816.125,2.256,2.256,0,0,0,1.707-.672,2.391,2.391,0,0,0,.645-1.727,2.275,2.275,0,0,0-.668-1.734,2.994,2.994,0,0,0-2.113-.633H31.145l.68-5.094H37.59v1.258H32.965l-.359,2.648Zm-2.656,47.625v1.242h-1.7V104H28.371v-2.211H23.105v-1.25L27.684,93h2.039v7.547Zm-6.914,0h3.867V93.992ZM23.512,137h7.523v1.133L25.66,148H24.113l5.422-9.75H23.512Zm-.684,44h1.266v11H22.758v-9.523l-2.641,2.289V183.32Zm8.93,11.148a3.064,3.064,0,0,1-2.711-1.437,9.851,9.851,0,0,1-.012-8.43,3.294,3.294,0,0,1,5.434,0,9.8,9.8,0,0,1-.012,8.422A3.058,3.058,0,0,1,31.758,192.148Zm0-1.25a1.861,1.861,0,0,0,1.711-1.1,7.182,7.182,0,0,0,.594-3.3,6.979,6.979,0,0,0-.605-3.3,1.88,1.88,0,0,0-3.4,0,7.014,7.014,0,0,0-.6,3.3,7.219,7.219,0,0,0,.59,3.309A1.859,1.859,0,0,0,31.758,190.9ZM27.23,224.875a3.843,3.843,0,0,1,2.73,1.035,3.491,3.491,0,0,1,1.105,2.668,4.332,4.332,0,0,1-.961,2.641L26.426,236H24.809l3.039-3.828a3.549,3.549,0,0,1-.922.117,3.379,3.379,0,0,1-2.961-1.691,3.756,3.756,0,0,1-.523-1.926,3.951,3.951,0,0,1,.285-1.551,3.414,3.414,0,0,1,.809-1.2,3.765,3.765,0,0,1,1.215-.766A3.978,3.978,0,0,1,27.23,224.875Zm-1.746,5.664a2.494,2.494,0,0,0,1.8.688,2.352,2.352,0,0,0,1.793-.754,2.534,2.534,0,0,0,.691-1.84,2.456,2.456,0,0,0-.711-1.828,2.725,2.725,0,0,0-3.605.035,2.429,2.429,0,0,0-.7,1.855A2.489,2.489,0,0,0,25.484,230.539Z" transform="translate(-1275.05 6352.149)" fill="#00223d"/>
    <path id="Trazado_25487" data-name="Trazado 25487" d="M23.512,5h7.523V6.133L25.66,16H24.113l5.422-9.75H23.512ZM13.891,58.758h5.477V60H11.945V58.977l4.406-4.555a5.219,5.219,0,0,0,.992-1.3,2.6,2.6,0,0,0,.273-1.133,1.9,1.9,0,0,0-.555-1.457,2.018,2.018,0,0,0-1.437-.52,2.017,2.017,0,0,0-1.5.566,2.437,2.437,0,0,0-.559,1.77v.813l-1.352-.125v-.68a3.477,3.477,0,0,1,.93-2.613,3.415,3.415,0,0,1,2.484-.9,3.443,3.443,0,0,1,2.387.836,2.907,2.907,0,0,1,.934,2.281,3.459,3.459,0,0,1-.371,1.59,6.835,6.835,0,0,1-1.191,1.582Zm8.844,1.4a.877.877,0,0,1-.637-.266.908.908,0,0,1,.637-1.547.884.884,0,0,1,.641.27.887.887,0,0,1,0,1.277A.886.886,0,0,1,22.734,60.156ZM26.086,49h7.523v1.133L28.234,60H26.688l5.422-9.75H26.086Zm12.492,3.922a4.262,4.262,0,0,1,3,.926,3.358,3.358,0,0,1,.992,2.582,3.651,3.651,0,0,1-1.02,2.676,3.578,3.578,0,0,1-2.668,1.035,4.239,4.239,0,0,1-1.379-.223,3.724,3.724,0,0,1-1.164-.641,2.931,2.931,0,0,1-.812-1.082,3.558,3.558,0,0,1-.3-1.484,5.018,5.018,0,0,1,.039-.562l1.383-.117a5.5,5.5,0,0,0-.062.617,2.483,2.483,0,0,0,.2,1.023,1.749,1.749,0,0,0,.535.7,2.434,2.434,0,0,0,.723.379,2.638,2.638,0,0,0,.816.125,2.256,2.256,0,0,0,1.707-.672,2.391,2.391,0,0,0,.645-1.727,2.275,2.275,0,0,0-.668-1.734,2.994,2.994,0,0,0-2.113-.633H35.648l.68-5.094h5.766v1.258H37.469l-.359,2.648ZM19.836,100.547v1.242h-1.7V104H16.789v-2.211H11.523v-1.25L16.1,93h2.039v7.547Zm-6.914,0h3.867V93.992Zm9.813,3.609a.877.877,0,0,1-.637-.266.908.908,0,0,1,.637-1.547.884.884,0,0,1,.641.27.887.887,0,0,1,0,1.277A.886.886,0,0,1,22.734,104.156Zm5.313-1.4h5.477V104H26.1v-1.023l4.406-4.555a5.219,5.219,0,0,0,.992-1.3,2.6,2.6,0,0,0,.273-1.133,1.9,1.9,0,0,0-.555-1.457,2.264,2.264,0,0,0-2.941.047,2.437,2.437,0,0,0-.559,1.77v.813l-1.352-.125v-.68a3.477,3.477,0,0,1,.93-2.613,3.415,3.415,0,0,1,2.484-.9,3.443,3.443,0,0,1,2.387.836,2.907,2.907,0,0,1,.934,2.281,3.459,3.459,0,0,1-.371,1.59,6.835,6.835,0,0,1-1.191,1.582Zm10.531-5.836a4.262,4.262,0,0,1,3,.926,3.358,3.358,0,0,1,.992,2.582,3.651,3.651,0,0,1-1.02,2.676,3.578,3.578,0,0,1-2.668,1.035,4.239,4.239,0,0,1-1.379-.223,3.724,3.724,0,0,1-1.164-.641,2.931,2.931,0,0,1-.812-1.082,3.558,3.558,0,0,1-.3-1.484,5.018,5.018,0,0,1,.039-.562l1.383-.117a5.5,5.5,0,0,0-.062.617,2.483,2.483,0,0,0,.2,1.023,1.749,1.749,0,0,0,.535.7,2.434,2.434,0,0,0,.723.379,2.638,2.638,0,0,0,.816.125,2.256,2.256,0,0,0,1.707-.672,2.391,2.391,0,0,0,.645-1.727,2.275,2.275,0,0,0-.668-1.734,2.994,2.994,0,0,0-2.113-.633H35.648l.68-5.094h5.766v1.258H37.469l-.359,2.648ZM27.23,136.875a3.843,3.843,0,0,1,2.73,1.035,3.491,3.491,0,0,1,1.105,2.668,4.332,4.332,0,0,1-.961,2.641L26.426,148H24.809l3.039-3.828a3.549,3.549,0,0,1-.922.117,3.379,3.379,0,0,1-2.961-1.691,3.756,3.756,0,0,1-.523-1.926,3.951,3.951,0,0,1,.285-1.551,3.414,3.414,0,0,1,.809-1.2,3.765,3.765,0,0,1,1.215-.766A3.978,3.978,0,0,1,27.23,136.875Zm-1.746,5.664a2.494,2.494,0,0,0,1.8.688,2.352,2.352,0,0,0,1.793-.754,2.534,2.534,0,0,0,.691-1.84,2.456,2.456,0,0,0-.711-1.828,2.725,2.725,0,0,0-3.605.035,2.429,2.429,0,0,0-.7,1.855A2.489,2.489,0,0,0,25.484,142.539ZM22.828,181h1.266v11H22.758v-9.523l-2.641,2.289V183.32Zm7.148,9.758h5.477V192H28.031v-1.023l4.406-4.555a5.219,5.219,0,0,0,.992-1.3,2.6,2.6,0,0,0,.273-1.133,1.9,1.9,0,0,0-.555-1.457,2.264,2.264,0,0,0-2.941.047,2.437,2.437,0,0,0-.559,1.77v.813l-1.352-.125v-.68a3.477,3.477,0,0,1,.93-2.613,3.849,3.849,0,0,1,4.871-.066,2.907,2.907,0,0,1,.934,2.281,3.459,3.459,0,0,1-.371,1.59,6.834,6.834,0,0,1-1.191,1.582ZM22.828,225h1.266v11H22.758v-9.523l-2.641,2.289V227.32Zm9.008,0H33.1v11H31.766v-9.523l-2.641,2.289V227.32Z" transform="translate(-1199.292 6352.149)" fill="#00223d"/>
    <path id="Trazado_25488" data-name="Trazado 25488" d="M16.434,5h7.523V6.133L18.582,16H17.035l5.422-9.75H16.434Zm10.8,11.156a.877.877,0,0,1-.637-.266.908.908,0,0,1,.637-1.547.884.884,0,0,1,.641.27.887.887,0,0,1,0,1.277A.886.886,0,0,1,27.238,16.156Zm6.836-7.234a4.263,4.263,0,0,1,3,.926,3.358,3.358,0,0,1,.992,2.582,3.651,3.651,0,0,1-1.02,2.676,3.578,3.578,0,0,1-2.668,1.035A4.239,4.239,0,0,1,33,15.918a3.724,3.724,0,0,1-1.164-.641,2.931,2.931,0,0,1-.812-1.082,3.558,3.558,0,0,1-.3-1.484,5.018,5.018,0,0,1,.039-.562l1.383-.117a5.5,5.5,0,0,0-.062.617,2.483,2.483,0,0,0,.2,1.023,1.749,1.749,0,0,0,.535.7,2.434,2.434,0,0,0,.723.379,2.638,2.638,0,0,0,.816.125,2.256,2.256,0,0,0,1.707-.672,2.391,2.391,0,0,0,.645-1.727,2.275,2.275,0,0,0-.668-1.734,2.994,2.994,0,0,0-2.113-.633H31.145l.68-5.094H37.59V6.273H32.965l-.359,2.648Zm-6.9,51.227q-3.664,0-3.664-3.914l1.375-.07a3.435,3.435,0,0,0,.516,2.07,2.079,2.079,0,0,0,1.773.688,2.438,2.438,0,0,0,1.707-.594,2.2,2.2,0,0,0,.023-3.1,2.255,2.255,0,0,0-1.574-.57h-.547V53.508h.531A1.628,1.628,0,0,0,28.52,53a1.713,1.713,0,0,0,.5-1.25,1.54,1.54,0,0,0-.531-1.211,1.945,1.945,0,0,0-1.336-.469,2.127,2.127,0,0,0-.879.164,1.234,1.234,0,0,0-.559.48,2.265,2.265,0,0,0-.281.7,4.1,4.1,0,0,0-.086.891l-1.375-.047a3.561,3.561,0,0,1,.824-2.523,3.054,3.054,0,0,1,2.348-.883,3.262,3.262,0,0,1,2.254.8,2.571,2.571,0,0,1,.9,2,2.409,2.409,0,0,1-.437,1.43,2.5,2.5,0,0,1-1.1.891,3.041,3.041,0,0,1,1.547,1.008,2.826,2.826,0,0,1,.6,1.852,3.026,3.026,0,0,1-1.051,2.4A3.941,3.941,0,0,1,27.176,60.148Zm-2.836,40.4v1.242h-1.7V104H21.293v-2.211H16.027v-1.25L20.605,93h2.039v7.547Zm-6.914,0h3.867V93.992Zm9.813,3.609a.877.877,0,0,1-.637-.266.908.908,0,0,1,.637-1.547.884.884,0,0,1,.641.27.887.887,0,0,1,0,1.277A.886.886,0,0,1,27.238,104.156Zm6.836-7.234a4.262,4.262,0,0,1,3,.926,3.358,3.358,0,0,1,.992,2.582,3.651,3.651,0,0,1-1.02,2.676,3.578,3.578,0,0,1-2.668,1.035A4.239,4.239,0,0,1,33,103.918a3.724,3.724,0,0,1-1.164-.641,2.931,2.931,0,0,1-.812-1.082,3.558,3.558,0,0,1-.3-1.484,5.018,5.018,0,0,1,.039-.562l1.383-.117a5.5,5.5,0,0,0-.062.617,2.483,2.483,0,0,0,.2,1.023,1.749,1.749,0,0,0,.535.7,2.434,2.434,0,0,0,.723.379,2.638,2.638,0,0,0,.816.125,2.256,2.256,0,0,0,1.707-.672,2.391,2.391,0,0,0,.645-1.727,2.275,2.275,0,0,0-.668-1.734,2.994,2.994,0,0,0-2.113-.633H31.145l.68-5.094H37.59v1.258H32.965l-.359,2.648ZM22.828,137h1.266v11H22.758v-9.523l-2.641,2.289V139.32Zm9.008,0H33.1v11H31.766v-9.523l-2.641,2.289V139.32Zm-9.008,44h1.266v11H22.758v-9.523l-2.641,2.289V183.32Zm13.094,7.547v1.242h-1.7V192H32.875v-2.211H27.609v-1.25L32.188,181h2.039v7.547Zm-6.914,0h3.867v-6.555ZM22.828,225h1.266v11H22.758v-9.523l-2.641,2.289V227.32Zm8.852,11.148q-3.664,0-3.664-3.914l1.375-.07a3.435,3.435,0,0,0,.516,2.07,2.079,2.079,0,0,0,1.773.688,2.438,2.438,0,0,0,1.707-.594,2.2,2.2,0,0,0,.023-3.1,2.255,2.255,0,0,0-1.574-.57h-.547v-1.148h.531a1.628,1.628,0,0,0,1.2-.508,1.713,1.713,0,0,0,.5-1.25,1.54,1.54,0,0,0-.531-1.211,1.945,1.945,0,0,0-1.336-.469,2.127,2.127,0,0,0-.879.164,1.234,1.234,0,0,0-.559.48,2.265,2.265,0,0,0-.281.7,4.1,4.1,0,0,0-.086.891l-1.375-.047a3.561,3.561,0,0,1,.824-2.523,3.054,3.054,0,0,1,2.348-.883,3.262,3.262,0,0,1,2.254.8,2.571,2.571,0,0,1,.9,2,2.409,2.409,0,0,1-.437,1.43,2.5,2.5,0,0,1-1.1.891,3.041,3.041,0,0,1,1.547,1.008,2.826,2.826,0,0,1,.6,1.852,3.026,3.026,0,0,1-1.051,2.4A3.941,3.941,0,0,1,31.68,236.148Z" transform="translate(-1119.186 6352.149)" fill="#00223d"/>
    <path id="Trazado_25489" data-name="Trazado 25489" d="M0,0H516.665V50H0Z" transform="translate(-1563.335 6288.77)" fill="#673ab7"/>
    <path id="Trazado_25490" data-name="Trazado 25490" d="M14.4,16H12.063L11.32,7.492,8.461,16H6.945L4.086,7.492,3.336,16H.992L1.938,4.711H5.281L7.688,11.8l2.438-7.086h3.344Zm9.664-4.133-.023.539H18.086a2.079,2.079,0,0,0,.641,1.469,2.049,2.049,0,0,0,1.414.508,1.974,1.974,0,0,0,1.059-.277,1.7,1.7,0,0,0,.676-.809l2.063.3a3.506,3.506,0,0,1-1.406,1.883,4.181,4.181,0,0,1-2.375.672,4.348,4.348,0,0,1-3.129-1.105,4.034,4.034,0,0,1-1.16-3.066,4.058,4.058,0,0,1,1.164-3.066A4.219,4.219,0,0,1,20.086,7.8,4.032,4.032,0,0,1,22.969,8.82,4.015,4.015,0,0,1,24.063,11.867ZM20.1,9.391a1.778,1.778,0,0,0-1.953,1.547h3.688a1.691,1.691,0,0,0-.555-1.148A1.758,1.758,0,0,0,20.1,9.391ZM31.469,4h2.25V16H31.586l-.055-1.047a2.294,2.294,0,0,1-1.02.91,3.432,3.432,0,0,1-1.5.324,3.906,3.906,0,0,1-1.5-.289,3.613,3.613,0,0,1-2.062-2.141,4.885,4.885,0,0,1-.3-1.758,4.566,4.566,0,0,1,.531-2.238,3.64,3.64,0,0,1,1.4-1.457,3.862,3.862,0,0,1,1.934-.492,3.518,3.518,0,0,1,1.457.293,2.275,2.275,0,0,1,1,.832ZM29.523,14.32a2,2,0,0,0,1.52-.641A2.345,2.345,0,0,0,31.648,12a2.35,2.35,0,0,0-.609-1.684,2,2,0,0,0-1.516-.645A2.024,2.024,0,0,0,28,10.3a2.35,2.35,0,0,0-.605,1.7A2.339,2.339,0,0,0,28,13.688,2.024,2.024,0,0,0,29.523,14.32ZM37.2,6.766a1.263,1.263,0,0,1-.922-.379,1.244,1.244,0,0,1-.383-.918,1.229,1.229,0,0,1,.387-.91A1.267,1.267,0,0,1,37.2,4.18a1.3,1.3,0,0,1,1.289,1.289,1.3,1.3,0,0,1-1.289,1.3ZM36.047,16V7.969h2.266V16ZM46.336,4h2.25V16H46.453L46.4,14.953a2.294,2.294,0,0,1-1.02.91,3.432,3.432,0,0,1-1.5.324,3.906,3.906,0,0,1-1.5-.289,3.613,3.613,0,0,1-2.062-2.141,4.885,4.885,0,0,1-.3-1.758,4.566,4.566,0,0,1,.531-2.238,3.64,3.64,0,0,1,1.4-1.457,3.862,3.862,0,0,1,1.934-.492,3.518,3.518,0,0,1,1.457.293,2.275,2.275,0,0,1,1,.832ZM44.391,14.32a2,2,0,0,0,1.52-.641A2.345,2.345,0,0,0,46.516,12a2.35,2.35,0,0,0-.609-1.684,2,2,0,0,0-1.516-.645,2.024,2.024,0,0,0-1.527.633,2.35,2.35,0,0,0-.605,1.7,2.339,2.339,0,0,0,.605,1.688A2.024,2.024,0,0,0,44.391,14.32Zm13.109-.5a7.513,7.513,0,0,0,.2,1.961V16h-2.1l-.18-.875a2.611,2.611,0,0,1-1.125.773,4.146,4.146,0,0,1-1.453.258,3.821,3.821,0,0,1-.75-.07,2.55,2.55,0,0,1-.676-.238,2.051,2.051,0,0,1-.559-.418,1.833,1.833,0,0,1-.375-.637,2.536,2.536,0,0,1-.141-.871,2.416,2.416,0,0,1,.148-.871,2.042,2.042,0,0,1,.391-.652,2.369,2.369,0,0,1,.633-.477,4.842,4.842,0,0,1,.8-.344,9.521,9.521,0,0,1,.953-.25l1.32-.3a1.456,1.456,0,0,0,.6-.254.506.506,0,0,0,.176-.4.829.829,0,0,0-.395-.773A1.842,1.842,0,0,0,54,9.367a1.377,1.377,0,0,0-1.57,1.227l-1.992-.359A2.7,2.7,0,0,1,51.6,8.4a4.627,4.627,0,0,1,2.523-.59q3.375,0,3.375,2.9Zm-3.961.813a1.81,1.81,0,0,0,1.391-.582,2.453,2.453,0,0,0,.539-1.723l-1.906.539a2.253,2.253,0,0,0-.8.328.674.674,0,0,0-.277.578.748.748,0,0,0,.3.637A1.229,1.229,0,0,0,53.539,14.633Zm8.977,1.523a4.488,4.488,0,0,1-2.344-.562,2.378,2.378,0,0,1-1.148-1.672l1.883-.531a1.513,1.513,0,0,0,1.609,1.2,1.662,1.662,0,0,0,.82-.184.639.639,0,0,0,.32-.621.657.657,0,0,0-.133-.414,1.052,1.052,0,0,0-.41-.3,5.11,5.11,0,0,0-.547-.211q-.27-.086-.715-.207t-.742-.23a4.972,4.972,0,0,1-.707-.3,3.016,3.016,0,0,1-.586-.414,1.669,1.669,0,0,1-.437-.629,2.269,2.269,0,0,1-.152-.859,2.052,2.052,0,0,1,.871-1.8,3.892,3.892,0,0,1,2.277-.609,3.99,3.99,0,0,1,2.1.516,2.334,2.334,0,0,1,1.078,1.609l-1.742.391a1.365,1.365,0,0,0-1.43-1.016,1.566,1.566,0,0,0-.789.18.577.577,0,0,0-.312.531.609.609,0,0,0,.047.242.479.479,0,0,0,.164.2,2.393,2.393,0,0,0,.227.148,1.709,1.709,0,0,0,.32.129q.211.066.352.1l.41.105.418.109q.43.117.754.234a4.415,4.415,0,0,1,.691.328,2.481,2.481,0,0,1,.605.473,2.108,2.108,0,0,1,.395.664,2.453,2.453,0,0,1,.156.895,2.416,2.416,0,0,1-.27,1.164,2.023,2.023,0,0,1-.738.785,3.593,3.593,0,0,1-1.043.422A5.41,5.41,0,0,1,62.516,16.156Z" transform="translate(-1536.206 6303.27)" fill="#fff"/>
    <path id="Trazado_25491" data-name="Trazado 25491" d="M4.813,16l4.4-5.891-4.273-5.4H7.789l2.813,3.7,2.813-3.7h2.852l-4.273,5.4L16.391,16H13.406l-2.8-3.992L7.8,16Zm16.68.156a5.454,5.454,0,0,1-3.133-.863,3.462,3.462,0,0,1-1.523-2.418l2.422-.555A2.056,2.056,0,0,0,20,13.746a2.476,2.476,0,0,0,1.582.5,2.044,2.044,0,0,0,1.234-.348,1.173,1.173,0,0,0,.469-1.027,1.1,1.1,0,0,0-.4-.836,2.6,2.6,0,0,0-.793-.512q-.395-.152-1.27-.418-.117-.039-.172-.055-.445-.141-.719-.234t-.676-.262a4.5,4.5,0,0,1-.656-.328,4.8,4.8,0,0,1-.543-.406,2.128,2.128,0,0,1-.453-.52,2.76,2.76,0,0,1-.273-.648,2.862,2.862,0,0,1-.109-.8,3.022,3.022,0,0,1,.527-1.777,3.23,3.23,0,0,1,1.422-1.133,5.175,5.175,0,0,1,2.035-.379,6.429,6.429,0,0,1,1.473.164,5.158,5.158,0,0,1,1.316.5,3.225,3.225,0,0,1,1.051.93,3.5,3.5,0,0,1,.6,1.371l-2.266.563a1.836,1.836,0,0,0-2.031-1.617,2.224,2.224,0,0,0-1.258.328,1.112,1.112,0,0,0-.492.992q0,.617.82,1a12.224,12.224,0,0,0,1.57.539q.461.141.75.234t.727.273a5.049,5.049,0,0,1,.711.348,5.261,5.261,0,0,1,.594.434,2.335,2.335,0,0,1,.5.563,3.042,3.042,0,0,1,.309.7,2.922,2.922,0,0,1,.125.871,3.423,3.423,0,0,1-.227,1.273,2.771,2.771,0,0,1-.621.961,3.607,3.607,0,0,1-.934.66,4.529,4.529,0,0,1-1.148.391A6.605,6.605,0,0,1,21.492,16.156Z" transform="translate(-1413.844 6303.27)" fill="#fff"/>
    <path id="Trazado_25492" data-name="Trazado 25492" d="M15.645,16.156a5.454,5.454,0,0,1-3.133-.863,3.462,3.462,0,0,1-1.523-2.418l2.422-.555a2.056,2.056,0,0,0,.746,1.426,2.476,2.476,0,0,0,1.582.5,2.044,2.044,0,0,0,1.234-.348,1.173,1.173,0,0,0,.469-1.027,1.1,1.1,0,0,0-.4-.836,2.6,2.6,0,0,0-.793-.512q-.395-.152-1.27-.418-.117-.039-.172-.055-.445-.141-.719-.234t-.676-.262a4.5,4.5,0,0,1-.656-.328,4.8,4.8,0,0,1-.543-.406,2.128,2.128,0,0,1-.453-.52,2.76,2.76,0,0,1-.273-.648,2.862,2.862,0,0,1-.109-.8,3.022,3.022,0,0,1,.527-1.777,3.23,3.23,0,0,1,1.422-1.133,5.175,5.175,0,0,1,2.035-.379,6.429,6.429,0,0,1,1.473.164,5.158,5.158,0,0,1,1.316.5,3.225,3.225,0,0,1,1.051.93,3.5,3.5,0,0,1,.6,1.371l-2.266.563A1.836,1.836,0,0,0,15.5,6.469a2.224,2.224,0,0,0-1.258.328,1.112,1.112,0,0,0-.492.992q0,.617.82,1a12.224,12.224,0,0,0,1.57.539q.461.141.75.234t.727.273a5.049,5.049,0,0,1,.711.348,5.261,5.261,0,0,1,.594.434,2.335,2.335,0,0,1,.5.563,3.042,3.042,0,0,1,.309.7,2.922,2.922,0,0,1,.125.871,3.423,3.423,0,0,1-.227,1.273,2.771,2.771,0,0,1-.621.961,3.607,3.607,0,0,1-.934.66,4.529,4.529,0,0,1-1.148.391A6.605,6.605,0,0,1,15.645,16.156Z" transform="translate(-1338.364 6303.27)" fill="#fff"/>
    <path id="Trazado_25493" data-name="Trazado 25493" d="M22.2,16H19.867l-.742-8.508L16.266,16H14.75L11.891,7.492,11.141,16H8.8L9.742,4.711h3.344L15.492,11.8,17.93,4.711h3.344Z" transform="translate(-1263.144 6303.27)" fill="#fff"/>
    <path id="Trazado_25494" data-name="Trazado 25494" d="M15.469,13.93h3.539V16H13.125V4.711h2.344Z" transform="translate(-1188.109 6303.27)" fill="#fff"/>
    <path id="Trazado_25495" data-name="Trazado 25495" d="M5.875,16l4.4-5.891L6,4.711H8.852l2.813,3.7,2.813-3.7h2.852l-4.273,5.4L17.453,16H14.469l-2.8-3.992L8.859,16Zm15.609-2.07h3.539V16H19.141V4.711h2.344Z" transform="translate(-1107.186 6303.27)" fill="#fff"/>
  </g>
</svg>
