<svg xmlns="http://www.w3.org/2000/svg" width="444.362" height="283.234" viewBox="0 0 444.362 283.234">
  <g id="Grupo_16050" data-name="Grupo 16050" transform="translate(-68.615 -442.42)">
    <path id="Trazado_25138" data-name="Trazado 25138" d="M180.466,451.519c92.553-38.261,105.953,57.1,154.609,48.028s65.687,1.448,86.957,43.07c31.291,61.231-8.272,143.633-69.077,134.256-110.175-16.992-130.525,27.7-210.527,11.98S47.882,572.3,113.516,541.022C145.977,525.554,109.483,480.863,180.466,451.519Z" transform="translate(-0.203 0)" fill="#ae9edd"/>
    <path id="Trazado_25139" data-name="Trazado 25139" d="M435.724,474.367C361.6,443.725,350.869,520.093,311.9,512.831s-52.607,1.16-69.642,34.493c-25.06,49.038,6.625,115.032,55.322,107.522,88.236-13.608,104.533,22.184,168.605,9.595s75.718-93.345,23.154-118.393C463.345,533.659,492.572,497.867,435.724,474.367Z" transform="translate(-9.495 -1.42)" fill="#ae9edd"/>
    <g id="Grupo_16036" data-name="Grupo 16036" transform="translate(395.584 531.438)">
      <path id="Trazado_25140" data-name="Trazado 25140" d="M455.416,656.1s18.25-4.8,19.283-24.18-9.99-19.035,1.349-33.573,1.134-14.754-1.984-31.964c-2.746-15.164,7.644-23.75-2.368-28.416-12.888-6.006-11.835,14.743-19.635,18.351s-28.183,14.221-18.476,24.486-4.525,7.282-14.011,28.793S415.7,675.555,455.416,656.1Z" transform="translate(-415.567 -536.879)" fill="#895cd8"/>
      <path id="Trazado_25141" data-name="Trazado 25141" d="M439.52,647.367c-.382-39.586,19.65-73.713,19.853-74.052l1.225.729c-.2.336-20.031,34.135-19.653,73.31Z" transform="translate(-416.946 -538.977)" fill="#3e2d4a"/>
    </g>
    <path id="Trazado_25142" data-name="Trazado 25142" d="M111.346,718.19s-56.856.948-39.4,12.3c9.786,6.363,88.159,15.655,141.174,8.172s114.911-9.09,156.659-2.137c102.7,17.1,140.919-15.623,112.464-17.386C406.692,714.455,111.346,718.19,111.346,718.19Z" transform="translate(0 -15.802)" fill="#e3e3e2"/>
    <g id="Grupo_16037" data-name="Grupo 16037" transform="translate(163.992 492.099)">
      <path id="Trazado_25143" data-name="Trazado 25143" d="M194.132,607.252S176.969,602.739,176,584.512s9.395-17.9-1.268-31.574-1.067-13.875,1.865-30.061c2.582-14.26-7.189-22.335,2.227-26.723,12.121-5.649,11.13,13.865,18.465,17.258s26.5,13.374,17.375,23.029,4.257,6.848,13.177,27.077S231.488,625.551,194.132,607.252Z" transform="translate(-169.821 -495.135)" fill="#895cd8"/>
      <path id="Trazado_25144" data-name="Trazado 25144" d="M211.687,599.041l-1.425-.014c.355-36.828-18.287-68.6-18.476-68.921l1.225-.729C193.2,529.7,212.047,561.8,211.687,599.041Z" transform="translate(-171.086 -497.107)" fill="#3e2d4a"/>
    </g>
    <path id="Trazado_25145" data-name="Trazado 25145" d="M131.08,682.018a40.173,40.173,0,0,0-40.174,40.173h80.346A40.173,40.173,0,0,0,131.08,682.018Z" transform="translate(-1.284 -13.8)" fill="#643e61"/>
    <circle id="Elipse_875" data-name="Elipse 875" cx="8.917" cy="8.917" r="8.917" transform="translate(133.899 663.019)" fill="#fff"/>
    <rect id="Rectángulo_3896" data-name="Rectángulo 3896" width="1.426" height="25.871" transform="matrix(0.983, -0.185, 0.185, 0.983, 115.335, 656.731)" fill="#3e2d4a"/>
    <circle id="Elipse_876" data-name="Elipse 876" cx="8.917" cy="8.917" r="8.917" transform="translate(107.118 647.682)" fill="#6d9cb4"/>
    <path id="Trazado_25146" data-name="Trazado 25146" d="M90.906,722.706h49.4c-19.152-8.489-28.912-21.486-33.848-31.735A40.1,40.1,0,0,0,90.906,722.706Z" transform="translate(-1.284 -14.316)" fill="#3e2d4a"/>
    <rect id="Rectángulo_3897" data-name="Rectángulo 3897" width="1.425" height="22.019" transform="translate(90.768 682.609) rotate(-55.447)" fill="#3e2d4a"/>
    <circle id="Elipse_877" data-name="Elipse 877" cx="8.917" cy="8.917" r="8.917" transform="translate(82.255 673.105)" fill="#cc5078"/>
    <g id="Grupo_16038" data-name="Grupo 16038" transform="translate(126.338 586.538)">
      <path id="Trazado_25147" data-name="Trazado 25147" d="M153.036,613.45s1.011,4.159,8.343,4.754,6.318-4.26,10.74-3.863,3.621-2.774,2.683-5.946-2.85-3.071-2.29-7.63-4.394-6.936-9.052-4.36-3.468,5.945-5.846,9.809S153.257,609.081,153.036,613.45Z" transform="translate(-131.2 -595.346)" fill="#fff"/>
      <path id="Trazado_25148" data-name="Trazado 25148" d="M162.027,613.485s4.485,4.555,6.423,3.831c2.83-1.056,2.3-3.463,3.171-3.445s3.936-.5,6.483,1.552,7.286,6.589,8.278,11.724,1.726,8.55,1.016,11.583,2.592,18.781,1.88,20.2c0,0-23.259,9.12-33.085-1.236-1.662-1.753,7.139-15.69,5.43-21.6s-5.833-15.427-5.581-18.566S162.027,613.485,162.027,613.485Z" transform="translate(-131.37 -596.391)" fill="#fff"/>
      <path id="Trazado_25149" data-name="Trazado 25149" d="M185.451,628.761s10.236-1.566,10.236-2.288-5.781-15.294-20.314-12.6C175.373,613.874,184.849,626.352,185.451,628.761Z" transform="translate(-132.487 -596.394)" fill="#fff"/>
      <path id="Trazado_25150" data-name="Trazado 25150" d="M162.4,612.722s4.449,0,4.27-9.168c-.067-3.411,2.825-3.827,3.629-2.866s-2.089,13.1,4.895,12.253C176.051,612.838,173.405,625.615,162.4,612.722Z" transform="translate(-131.739 -595.628)" fill="#dc9680"/>
      <path id="Trazado_25151" data-name="Trazado 25151" d="M172.555,600.757s1.381,7.1-1.934,6.259c-8.293-2.106-4.231-9.581-2.679-9.8A4.4,4.4,0,0,1,172.555,600.757Z" transform="translate(-131.922 -595.452)" fill="#dc9680"/>
      <path id="Trazado_25152" data-name="Trazado 25152" d="M169.95,597.562s.827,3.712-2.2,5.217c-1.33.661-1.239-1.576-1.861-.589-1.026,1.629.55,1.172.832,2.283.715,2.819-3.05,3.443-4.219-.656-.239-.84-.154-2.107,1.223-5.027s5.971-3.721,7.6-2.439,3.665,5.672,2.462,5.433S170.029,599.827,169.95,597.562Z" transform="translate(-131.739 -595.37)" fill="#fff"/>
      <path id="Trazado_25153" data-name="Trazado 25153" d="M167.626,605.868a4.177,4.177,0,0,0,2.683,1.663,8.252,8.252,0,0,0,.334,3.463C170.837,611.378,166.468,610.1,167.626,605.868Z" transform="translate(-132.029 -595.952)" fill="#cb5b5d" opacity="0.5"/>
      <path id="Trazado_25154" data-name="Trazado 25154" d="M186.295,723.673s0,11.045.569,11.273a14.507,14.507,0,0,0,3.3-.114l.569-3.074s.911,2.5,1.936,2.733,8.54.91,10.021,0-8.768-2.278-9.565-10.7Z" transform="translate(-133.116 -602.738)" fill="#7c84c6"/>
      <path id="Trazado_25155" data-name="Trazado 25155" d="M138.008,712.416s-7.941,7.677-7.709,8.244a14.541,14.541,0,0,0,2.378,2.3l2.606-1.728s-1.168,2.4-.619,3.292,5.281,6.773,6.965,7.2-4.458-7.886,1.046-14.316Z" transform="translate(-129.89 -602.089)" fill="#7c84c6"/>
      <path id="Trazado_25156" data-name="Trazado 25156" d="M174.876,721.811s18.333.737,20.912,0S197.2,687.3,197.2,683.248s-8.23-37.953-10.162-41.021c-1.374-2.183-24.317-1.474-27.633,1.474s-8.843,33.9-11.79,38.687-17.317,17.685-17.317,20.265,10.316,17.685,12.9,18.054,25.422-21,27.633-28,4.384-25.288,4.384-25.288,1.511,16.077,1.142,21.972S174.876,721.811,174.876,721.811Z" transform="translate(-129.89 -597.973)" fill="#f3d35a"/>
      <path id="Trazado_25157" data-name="Trazado 25157" d="M160.867,614.175s6.639,14.4,8.819,23.922-1.387,24.982-4.756,28.152c-3.331,3.136-9.314.991-15.854-1.585s10.6-20.115,9.513-28.537-5.195-11.3-4.36-12.881.99-3.27,2.675-6.639S160.867,614.175,160.867,614.175Z" transform="translate(-130.886 -596.424)" fill="#a568c3"/>
      <path id="Trazado_25158" data-name="Trazado 25158" d="M155.282,616.193s-25.219,9.982-22.938,19.944,21.721,6.117,26.52,10.94c3.535,3.553,7.02,1.731,1.521-3.845-2.364-2.4-19.087-4.589-14.274-8.384s11.139-4.383,12.753-7.087S155.282,616.193,155.282,616.193Z" transform="translate(-130 -596.547)" fill="#dc9680"/>
      <path id="Trazado_25159" data-name="Trazado 25159" d="M159.847,614.174s3.809,9.668,3.272,12.935-12.884,6.441-13.478,8.026,6.837,3.17,7.234,5.45-.3,3.666-3.171,5.648-12.584.4-19.222-5.45-5.648-10.007,0-14.665S158.36,612.93,159.847,614.174Z" transform="translate(-129.866 -596.424)" fill="#a568c3"/>
      <path id="Trazado_25160" data-name="Trazado 25160" d="M177.952,613.479s5.909,7.978,7.727,17.031.231,28.737,3.216,34.524c1.749,3.393,8.555,2.737,11.129,0,4.469-4.752-5.39-17.779-5.877-28.338s-4.082-19.631-8.468-21.742A13.51,13.51,0,0,0,177.952,613.479Z" transform="translate(-132.635 -596.386)" fill="#a568c3"/>
      <path id="Trazado_25161" data-name="Trazado 25161" d="M203.731,630.6s1.43,4.475-6.66,1.95-14.493-27.73-17.633-27.9-1.091-2.307,4.166-.587S206.533,621.722,203.731,630.6Z" transform="translate(-132.635 -595.81)" fill="#dc9680"/>
      <path id="Trazado_25162" data-name="Trazado 25162" d="M181.862,611.03s2.79-7.646,7.893-5.192,11.438,12.852,15.824,18.537,1.683,12.795-5.9,13.22-10.508-15.531-13.778-19.818S181.556,611.75,181.862,611.03Z" transform="translate(-132.858 -595.923)" fill="#a568c3"/>
    </g>
    <g id="Grupo_16043" data-name="Grupo 16043" transform="translate(204.5 537.827)">
      <g id="Grupo_16039" data-name="Grupo 16039">
        <rect id="Rectángulo_3898" data-name="Rectángulo 3898" width="214.435" height="170.564" fill="#f3d35a"/>
        <rect id="Rectángulo_3899" data-name="Rectángulo 3899" width="189.95" height="151.088" transform="translate(12.243 9.738)" fill="#f6e094"/>
      </g>
      <g id="Grupo_16040" data-name="Grupo 16040" transform="translate(27.186 29.515)">
        <rect id="Rectángulo_3900" data-name="Rectángulo 3900" width="73.046" height="102.613" transform="translate(0 7.061)" fill="#fff"/>
        <circle id="Elipse_878" data-name="Elipse 878" cx="7.11" cy="7.11" r="7.11" transform="translate(26.92)" fill="#6d9cb4"/>
      </g>
      <path id="Trazado_25163" data-name="Trazado 25163" d="M318.126,672.966h-12.69V582.518l12.935-.049Z" transform="translate(-218.14 -545.893)" fill="#e3e3e2"/>
      <g id="Grupo_16042" data-name="Grupo 16042" transform="translate(96.29 14.357)">
        <rect id="Rectángulo_3901" data-name="Rectángulo 3901" width="73.046" height="102.613" transform="translate(0 6.126)" fill="#fff"/>
        <circle id="Elipse_879" data-name="Elipse 879" cx="7.11" cy="7.11" r="7.11" transform="translate(29.413)" fill="#cc5078"/>
        <g id="Grupo_16041" data-name="Grupo 16041" transform="translate(11.711 23.194)">
          <path id="Trazado_25164" data-name="Trazado 25164" d="M366.368,594.009c-6.652-2.444-5.973-9.843-5.973-9.843h-.1c0-.883-12.138-.883-12.138,0h-.1s.679,7.4-5.973,9.843-10.588,7.6-3.936,14.932a32.654,32.654,0,0,1,7.947,14.661h14.849a50.552,50.552,0,0,1,9.369-14.661C376.956,601.61,373.019,596.452,366.368,594.009Z" transform="translate(-327.826 -583.504)" fill="#3e2d4a"/>
          <path id="Trazado_25165" data-name="Trazado 25165" d="M335.517,606.42s21.5.415,26.272-15.075l5.89,2.807s3.249,7.419,3.249,13.994c0,3.885-9.627,13.219-9.627,13.219s21.577,6.532,17.445,39.313H327.576s-3.133-25.192,17.532-39.313C345.108,621.364,337.313,618.169,335.517,606.42Z" transform="translate(-327.406 -583.956)" fill="#cc5078"/>
        </g>
      </g>
    </g>
    <g id="Grupo_16044" data-name="Grupo 16044" transform="translate(364.865 471.073)">
      <path id="Trazado_25166" data-name="Trazado 25166" d="M438.127,542.295H398.6v-16.62h24.552l14.97,12.127Z" transform="translate(-383.872 -475.868)" fill="#f3d35a"/>
      <path id="Trazado_25167" data-name="Trazado 25167" d="M382.971,542.295h39.522v-16.62H397.942L382.971,537.8Z" transform="translate(-382.971 -475.868)" fill="#f3d35a"/>
      <path id="Trazado_25168" data-name="Trazado 25168" d="M382.971,472.824h39.522v16.62H397.942l-14.97-12.127Z" transform="translate(-382.971 -472.824)" fill="#f3d35a"/>
      <path id="Trazado_25169" data-name="Trazado 25169" d="M438.127,472.824H398.6v16.62h24.552l14.97-12.127Z" transform="translate(-383.872 -472.824)" fill="#f3d35a"/>
      <rect id="Rectángulo_3902" data-name="Rectángulo 3902" width="24.314" height="33.188" transform="translate(39.285 49.807) rotate(180)" fill="#2f2137"/>
      <path id="Trazado_25170" data-name="Trazado 25170" d="M423.092,521.883c-.029,0-.058,0-.087,0l-24.2-1.949a1.069,1.069,0,0,1-.142-2.11l18.89-4.13-19.228-4.014a1.069,1.069,0,0,1,.032-2.1l17.753-3.141-17.349-2.125a1.069,1.069,0,0,1-.09-2.107l17.913-3.758-18.16-2.023a1.069,1.069,0,1,1,.237-2.124l24.79,2.761a1.069,1.069,0,0,1,.1,2.108l-18.133,3.805,18.044,2.21a1.069,1.069,0,0,1,.056,2.114l-19.33,3.42,18.7,3.9a1.068,1.068,0,0,1,.009,2.09l-16.763,3.665,17.047,1.373a1.069,1.069,0,0,1-.085,2.135Z" transform="translate(-383.806 -473.945)" fill="#3e2d4a"/>
    </g>
    <g id="Grupo_16045" data-name="Grupo 16045" transform="translate(198.596 508.082)">
      <path id="Trazado_25171" data-name="Trazado 25171" d="M261.437,540.364c-8.8-3.231-7.9-13.015-7.9-13.015H253.4c0-1.169-1.665-2.185-4.125-2.717a17.487,17.487,0,0,1-1.668-4.972,4.114,4.114,0,1,0-4.467,0,17.463,17.463,0,0,1-1.669,4.972c-2.459.532-4.124,1.548-4.124,2.717h-.138s.9,9.783-7.9,13.015-14,10.053-5.206,19.746,10.51,19.388,10.51,19.388h19.637a66.848,66.848,0,0,1,12.39-19.388C275.439,550.417,270.233,543.6,261.437,540.364Z" transform="translate(-207.29 -512.095)" fill="#3e2d4a"/>
      <path id="Trazado_25172" data-name="Trazado 25172" d="M262.415,555.108c-7.351-7.27-17.151,2.424-17.151,2.424s-9.8-9.694-17.15-2.424-1.751,14.136,3.15,17.368c0,0-1.05,13.732-3.85,16.963a79.267,79.267,0,0,0,18.249,4.935,66.526,66.526,0,0,0,17.452-4.935c-2.8-3.232-3.851-16.963-3.851-16.963C264.165,569.244,269.765,562.378,262.415,555.108Z" transform="translate(-207.578 -514.417)" fill="#a7d0d6"/>
      <path id="Trazado_25173" data-name="Trazado 25173" d="M232.211,552.711a9.062,9.062,0,0,0-4.1,2.414c-7.351,7.271-1.751,14.136,3.15,17.368,0,0-1.05,13.732-3.85,16.963a79.269,79.269,0,0,0,18.249,4.935,66.527,66.527,0,0,0,17.452-4.935,11.841,11.841,0,0,1-1.863-4.311C238.975,581.412,233.528,561.39,232.211,552.711Z" transform="translate(-207.578 -514.434)" fill="#91a9b8"/>
      <rect id="Rectángulo_3903" data-name="Rectángulo 3903" width="6.191" height="21.823" transform="translate(34.988 163.029)" fill="#3e2d4a"/>
      <path id="Trazado_25174" data-name="Trazado 25174" d="M245.866,706.1A17.771,17.771,0,0,0,228.1,723.87h35.542A17.771,17.771,0,0,0,245.866,706.1Z" transform="translate(-207.781 -523.269)" fill="#3e2d4a"/>
      <path id="Trazado_25175" data-name="Trazado 25175" d="M245.243,616.947c-11.243,0-27.969-1.66-27.969-6.232s16.726-6.233,27.969-6.233,27.968,1.661,27.968,6.233S256.485,616.947,245.243,616.947Zm0-11.039c-16.445,0-26.543,2.8-26.543,4.807s10.1,4.807,26.543,4.807,26.543-2.8,26.543-4.807S261.688,605.908,245.243,605.908Z" transform="translate(-207.158 -517.416)" fill="#3e2d4a"/>
      <path id="Trazado_25176" data-name="Trazado 25176" d="M244.926,634.908c-13.328,0-33.157-1.66-33.157-6.232s19.828-6.233,33.157-6.233,33.156,1.661,33.156,6.233S258.253,634.908,244.926,634.908Zm0-11.039c-19.37,0-31.732,2.847-31.732,4.807s12.361,4.807,31.732,4.807,31.731-2.847,31.731-4.807S264.295,623.869,244.926,623.869Z" transform="translate(-206.841 -518.451)" fill="#3e2d4a"/>
      <path id="Trazado_25177" data-name="Trazado 25177" d="M244.7,656.7a178.658,178.658,0,0,1-25.643-1.626c-11.182-1.71-11.182-3.89-11.182-4.608s0-2.9,11.182-4.607a178.761,178.761,0,0,1,25.643-1.626,178.77,178.77,0,0,1,25.643,1.626c11.182,1.709,11.182,3.89,11.182,4.607s0,2.9-11.182,4.608A178.658,178.658,0,0,1,244.7,656.7Zm0-11.04c-23.242,0-35.4,3.13-35.4,4.807s12.158,4.807,35.4,4.807,35.4-3.13,35.4-4.807S267.943,645.662,244.7,645.662Z" transform="translate(-206.617 -519.706)" fill="#3e2d4a"/>
      <path id="Trazado_25178" data-name="Trazado 25178" d="M244.624,676.183a191.409,191.409,0,0,1-26.53-1.625c-10.357-1.53-11.555-3.363-11.555-4.608s1.2-3.078,11.555-4.608a191.256,191.256,0,0,1,26.53-1.625,191.265,191.265,0,0,1,26.53,1.625c10.357,1.531,11.555,3.362,11.555,4.608s-1.2,3.079-11.555,4.608A191.418,191.418,0,0,1,244.624,676.183Zm0-11.04c-24.069,0-36.659,3.129-36.659,4.807s12.591,4.807,36.659,4.807,36.659-3.13,36.659-4.807S268.692,665.143,244.624,665.143Z" transform="translate(-206.54 -520.828)" fill="#3e2d4a"/>
      <path id="Trazado_25179" data-name="Trazado 25179" d="M206.54,665.754c0-.466,0-46.823,20.368-74.96l1.154.835c-20.1,27.764-20.1,73.656-20.1,74.117Z" transform="translate(-206.54 -516.628)" fill="#3e2d4a"/>
      <path id="Trazado_25180" data-name="Trazado 25180" d="M286.049,665.754l-1.426-.008c0-.461-.007-46.361-20.1-74.117l1.154-.835C286.046,618.93,286.051,665.288,286.049,665.754Z" transform="translate(-209.88 -516.628)" fill="#3e2d4a"/>
      <path id="Trazado_25181" data-name="Trazado 25181" d="M267.854,670.689l-1.426-.013c0-.333.149-33.841-11.532-75.257l1.371-.387C268.008,636.655,267.857,670.354,267.854,670.689Z" transform="translate(-209.325 -516.872)" fill="#3e2d4a"/>
      <path id="Trazado_25182" data-name="Trazado 25182" d="M224.432,670.689c0-.336-.154-34.034,11.586-75.657l1.372.387c-11.681,41.416-11.536,74.924-11.533,75.257Z" transform="translate(-207.57 -516.872)" fill="#3e2d4a"/>
      <path id="Trazado_25183" data-name="Trazado 25183" d="M246.636,597.243a35.475,35.475,0,0,1-18.322-5.465.713.713,0,0,1,.816-1.169c.17.118,17.109,11.654,33.457,0a.713.713,0,0,1,.826,1.161A28.386,28.386,0,0,1,246.636,597.243Z" transform="translate(-207.776 -516.61)" fill="#3e2d4a"/>
      <rect id="Rectángulo_3904" data-name="Rectángulo 3904" width="1.425" height="114.759" transform="translate(37.372 79.957)" fill="#3e2d4a"/>
    </g>
    <g id="Grupo_16046" data-name="Grupo 16046" transform="translate(305.068 462.006)">
      <path id="Trazado_25184" data-name="Trazado 25184" d="M339.081,533.026s-4.933,9.883-5.543,9.833a14.56,14.56,0,0,1-2.9-1.577l.863-3.005s-1.934,1.835-2.953,1.581-8.048-3-8.966-4.474,8.862,1.877,13.338-5.307Z" transform="translate(-319.519 -467.055)" fill="#7c84c6"/>
      <path id="Trazado_25185" data-name="Trazado 25185" d="M381.734,513.752s-14.921-22.87-28.242-20.265-28.266,30.838-26.316,32.582,15.146,12.69,17.869,9.532c4.573-5.306,13.645-16.069,13.422-15.146s15.133,16.2,20.348,16.873,15.113-8.957,15.363-11.288S381.734,513.752,381.734,513.752Z" transform="translate(-319.95 -464.935)" fill="#fff"/>
      <path id="Trazado_25186" data-name="Trazado 25186" d="M397.823,484.755s-3.966,5.014-5.971,4.5c-2.928-.744-2.657-3.194-3.526-3.082s-7.415,2.088-9.726,4.4-3.081,5.181-3.511,10.394,4.5,9.35,5.539,12.287-5.836,18.288-4.976,19.626c0,0,28.718,9.831,37.363-1.527,1.464-1.922.342-15.069,1.4-21.131s.56-11.624.136-18.806C414.16,484.755,397.823,484.755,397.823,484.755Z" transform="translate(-322.718 -464.444)" fill="#dc9680"/>
      <path id="Trazado_25187" data-name="Trazado 25187" d="M380.991,568.37s2.591,10.737,2.09,11.092a14.51,14.51,0,0,1-3.237.663l-1.274-2.855s-.3,2.648-1.241,3.11-8.088,2.888-9.741,2.35,7.99-4.27,6.788-12.648Z" transform="translate(-322.277 -469.26)" fill="#7c84c6"/>
      <path id="Trazado_25188" data-name="Trazado 25188" d="M399.975,484.048s-5.167.12-7.077-8.849c-.712-3.337-3.623-3.084-4.186-1.965s3.982,13.632-3.012,14.4C384.838,487.728,392.186,499.107,399.975,484.048Z" transform="translate(-323.327 -463.737)" fill="#dc9680"/>
      <path id="Trazado_25189" data-name="Trazado 25189" d="M386.812,473.759s.27,7.227,3.307,5.654c7.6-3.937,1.941-10.293.379-10.157A4.4,4.4,0,0,0,386.812,473.759Z" transform="translate(-323.394 -463.552)" fill="#dc9680"/>
      <path id="Trazado_25190" data-name="Trazado 25190" d="M388.364,470.069s.039,3.8,3.33,4.58c1.446.341.849-1.817,1.679-1,1.37,1.353-.27,1.268-.291,2.413-.055,2.908,3.635,1.379,3.842-2.879a5.7,5.7,0,0,0-2.958-5,5.853,5.853,0,0,0-7.219,1.018c-1.3,1.62-2.279,6.357-1.161,5.85S388.8,472.293,388.364,470.069Z" transform="translate(-323.296 -463.444)" fill="#3e2d4a"/>
      <path id="Trazado_25191" data-name="Trazado 25191" d="M392.985,477.583a4.181,4.181,0,0,1-2.235,2.23,17.809,17.809,0,0,1-.133,3.824C390.514,484.054,395.075,481.441,392.985,477.583Z" transform="translate(-323.614 -464.031)" fill="#cb5b5d" opacity="0.5"/>
      <circle id="Elipse_880" data-name="Elipse 880" cx="3.747" cy="3.747" r="3.747" transform="translate(69.153)" fill="#3e2d4a"/>
      <circle id="Elipse_881" data-name="Elipse 881" cx="3.747" cy="3.747" r="3.747" transform="translate(57.214 1.451)" fill="#3e2d4a"/>
      <path id="Trazado_25192" data-name="Trazado 25192" d="M413.372,521.176s-46.744-1.771-53.676,6.46,5.67,40.554,5.238,43.154,18.661-2.548,20.827-3.848S380.57,542.5,380.57,542.5s25.175,1.076,29.34-1.027C418.947,536.906,413.372,521.176,413.372,521.176Z" transform="translate(-321.713 -466.533)" fill="#fff"/>
      <path id="Trazado_25193" data-name="Trazado 25193" d="M385.371,514.625s.429,3.533,6.832,3.367c2.086-.054,29.792,7.044,20.077-7.885a31.279,31.279,0,0,0-4.655-5.331s-19.652,2.238-21.463,3.242S385.371,514.625,385.371,514.625Z" transform="translate(-323.295 -465.598)" fill="#cb5b5d" opacity="0.5"/>
      <path id="Trazado_25194" data-name="Trazado 25194" d="M375.063,498.943s.315.4,5.984-3.07,14.848-2.234,20.613-1.8,6.465,5.961,5.388,10.055-21.184,2.7-26,4.117S375.063,498.943,375.063,498.943Z" transform="translate(-322.718 -464.948)" fill="#a568c3"/>
      <path id="Trazado_25195" data-name="Trazado 25195" d="M359.824,499.872l24.093-6.906,7.53,26.832-24.258,6.931Z" transform="translate(-321.84 -464.917)" fill="#f3d35a"/>
      <path id="Trazado_25196" data-name="Trazado 25196" d="M414.675,490.2s9.578,19.061.914,24.692-25.142-1.163-27.623,0c-6.378,2.991-3.115-3.91,2.294-3.78,3.993.1,15.174-1.183,15.174-5.081s-3.232-14.291-3.232-14.291Z" transform="translate(-323.259 -464.758)" fill="#dc9680"/>
      <path id="Trazado_25197" data-name="Trazado 25197" d="M361.132,505.172s.488-1.159,3.575,0-.662,2.118-1.677,5.074S359.311,507.586,361.132,505.172Z" transform="translate(-321.88 -465.591)" fill="#dc9680"/>
    </g>
    <g id="Grupo_16047" data-name="Grupo 16047" transform="translate(276.901 588.398)">
      <path id="Trazado_25198" data-name="Trazado 25198" d="M465.691,688.422V612.453s-15.089-14.37-48.859-14.37c-28.141,0-56.782,24.937-89.246,12.05a96.64,96.64,0,0,0,21.917,41.12h63.018v33.509C427.527,687.86,445.1,689.3,465.691,688.422Z" transform="translate(-291.817 -597.364)" fill="#a568c3"/>
      <rect id="Rectángulo_3905" data-name="Rectángulo 3905" width="16.526" height="50.296" transform="translate(176.748 21.556)" fill="#6a249d"/>
      <circle id="Elipse_882" data-name="Elipse 882" cx="18.454" cy="18.454" r="18.454" transform="translate(121.342 13.307)" fill="#6a249d"/>
      <path id="Trazado_25199" data-name="Trazado 25199" d="M305.826,597.32h-9.34v73.289h9.34s5.03-19.4,30.178-19.4h11.708a96.64,96.64,0,0,1-21.917-41.12A67.2,67.2,0,0,1,305.826,597.32Z" transform="translate(-290.026 -597.32)" fill="#6a249d"/>
      <path id="Trazado_25200" data-name="Trazado 25200" d="M463.505,693.719c-20.591.881-38.164-.562-53.17-3.659v16.068h-120.7v16.526H463.512V706.128h-.007Z" transform="translate(-289.631 -602.662)" fill="#6a249d"/>
    </g>
    <g id="Grupo_16049" data-name="Grupo 16049" transform="translate(380.805 566.641)">
      <path id="Trazado_25201" data-name="Trazado 25201" d="M440.839,625.65a35.6,35.6,0,0,1-9.285.269c-5.415-.5-10.721-12.07-11.748-13.22s2.391-1.2,7.416,0S440.839,625.65,440.839,625.65Z" transform="translate(-401.021 -576.397)" fill="#dc9680"/>
      <path id="Trazado_25202" data-name="Trazado 25202" d="M469.45,616.068s-4.449,1.9-6.387,1.178c-2.83-1.056-3.226-4.988-4.1-4.97s-3.005,1.025-5.553,3.077-8.739,5.626-9.731,10.761-1.39,11.428-.679,14.461-1.476,16.865-.764,18.287c0,0,23.259,9.12,33.084-1.236,1.663-1.753-1.5-12.751.211-18.662s.055-16.687-.2-19.826S469.45,616.068,469.45,616.068Z" transform="translate(-402.315 -576.424)" fill="#9e6a8d"/>
      <path id="Trazado_25203" data-name="Trazado 25203" d="M446.864,628.669s-10.236-1.566-10.236-2.288,7.486-16.819,22.019-14.124C458.647,612.257,447.467,626.261,446.864,628.669Z" transform="translate(-402.001 -576.405)" fill="#9e6a8d"/>
      <path id="Trazado_25204" data-name="Trazado 25204" d="M472.187,615.44S467.96,614.049,471,605.4c1.13-3.22-1.487-4.519-2.551-3.857s-2.111,13.093-8.482,10.108C459.18,611.279,457.7,624.243,472.187,615.44Z" transform="translate(-403.318 -575.796)" fill="#dc9680"/>
      <path id="Trazado_25205" data-name="Trazado 25205" d="M466.72,600.969s-3.531,6.312-.12,6.55c8.535.593,7.015-7.778,5.61-8.476A4.4,4.4,0,0,0,466.72,600.969Z" transform="translate(-403.642 -575.643)" fill="#dc9680"/>
      <path id="Trazado_25206" data-name="Trazado 25206" d="M469.972,598.668s-1.946,3.267.461,5.645c1.056,1.043,1.67-1.109,1.952.022.466,1.869-.89.942-1.5,1.909-1.561,2.454,1.82,4.224,4.213.7.49-.723.8-1.954.41-5.157s-4.508-5.4-6.46-4.7-5.255,4.242-4.036,4.392S469.188,600.8,469.972,598.668Z" transform="translate(-403.62 -575.541)" fill="#3e2d4a"/>
      <path id="Trazado_25207" data-name="Trazado 25207" d="M470.09,607.426a4.177,4.177,0,0,1-3.068.741,8.258,8.258,0,0,1-1.4,3.185C465.318,611.655,469.867,611.809,470.09,607.426Z" transform="translate(-403.67 -576.145)" fill="#cb5b5d" opacity="0.5"/>
      <circle id="Elipse_883" data-name="Elipse 883" cx="4.627" cy="4.627" r="4.627" transform="translate(68.83 16.687)" fill="#3e2d4a"/>
      <path id="Trazado_25208" data-name="Trazado 25208" d="M438.524,723.673s0,11.045-.569,11.273a14.5,14.5,0,0,1-3.3-.114l-.57-3.074s-.91,2.5-1.936,2.733-8.54.91-10.02,0,8.767-2.278,9.564-10.7Z" transform="translate(-401.157 -582.84)" fill="#3e2d4a"/>
      <path id="Trazado_25209" data-name="Trazado 25209" d="M488.423,718.705s3.957,10.312,3.508,10.728a14.539,14.539,0,0,1-3.124,1.076l-1.633-2.666s.047,2.665-.827,3.245-7.647,3.911-9.355,3.591,7.37-5.267,5.095-13.42Z" transform="translate(-404.313 -582.554)" fill="#3e2d4a"/>
      <path id="Trazado_25210" data-name="Trazado 25210" d="M444.3,724.3s-18.534.736-21.114,0,3.946-34.9,5.172-38.768c2.4-7.576,13.5-34.869,13.5-37.447s32.2-.671,36.24,1.169c2.453,1.119-1.72,31.155,3.819,41.439,2.667,4.951,8.14,23.614,8.14,26.192s-18.5,7.086-21.077,7.454-6.775-20.667-8.986-27.667-2.578-26.528-2.578-26.528-8.15,19.637-7.781,25.532S444.3,724.3,444.3,724.3Z" transform="translate(-401.192 -578.414)" fill="#fff"/>
      <g id="Grupo_16048" data-name="Grupo 16048" transform="translate(0 0)">
        <path id="Trazado_25211" data-name="Trazado 25211" d="M513.517,673.114l-14.751,14.751-88.739-88.739-10.142-24.893,24.893,10.142Z" transform="translate(-399.885 -574.233)" fill="#fff"/>
        <path id="Trazado_25212" data-name="Trazado 25212" d="M410.646,599.746l7.641-.84-.617-6.886,6.978.525.748-7.549,88.739,88.739-14.751,14.751Z" transform="translate(-400.504 -574.852)" fill="#3e2d4a"/>
        <path id="Trazado_25213" data-name="Trazado 25213" d="M418.717,599.334l85.277,85.277,6.362-6.362-85.277-85.277-6.978-.525Z" transform="translate(-400.934 -575.282)" fill="#2f2137"/>
        <rect id="Rectángulo_3906" data-name="Rectángulo 3906" width="20.862" height="6.765" transform="translate(94.097 108.849) rotate(-45)" fill="#fff"/>
        <rect id="Rectángulo_3907" data-name="Rectángulo 3907" width="20.862" height="6.765" transform="translate(98.881 113.632) rotate(-45)" fill="#cc4f64"/>
        <path id="Trazado_25214" data-name="Trazado 25214" d="M405.324,587.584l7.912-7.912-13.351-5.439Z" transform="translate(-399.885 -574.233)" fill="#2f2137"/>
      </g>
      <path id="Trazado_25215" data-name="Trazado 25215" d="M483.471,632.017s1.317,19.324-8.271,19.494-20-8.772-22.832-7.8-2.83-2.6,2.692-2.6,15.832-4.026,15.832-4.026-2.7-10.655-1.146-10.3S484.051,626.773,483.471,632.017Z" transform="translate(-402.8 -577.259)" fill="#dc9680"/>
      <path id="Trazado_25216" data-name="Trazado 25216" d="M470.51,634.993l14.965.521s1.173-19.215-12.689-19.215A29.629,29.629,0,0,0,470.51,634.993Z" transform="translate(-403.917 -576.656)" fill="#9e6a8d"/>
      <path id="Trazado_25217" data-name="Trazado 25217" d="M419.529,609.524s-.337-.834,2.569-.9,1.136,2.189-.361,3.444S417.3,612.227,419.529,609.524Z" transform="translate(-400.97 -576.213)" fill="#dc9680"/>
    </g>
  </g>
</svg>
